<?xml version="1.0" encoding="UTF-8"?>
<svg id="Camada_1" xmlns="http://www.w3.org/2000/svg" version="1.1" xmlns:xlink="http://www.w3.org/1999/xlink" viewBox="0 0 350 350">
  <!-- Generator: Adobe Illustrator 29.5.0, SVG Export Plug-In . SVG Version: 2.1.0 Build 137)  -->
  <defs>
    <style>
      .st0 {
        opacity: .4;
      }

      .st1 {
        fill: none;
      }

      .st2 {
        clip-path: url(#clippath-1);
      }

      .st3 {
        isolation: isolate;
      }

      .st4 {
        fill: #1d1d1b;
      }

      .st5 {
        clip-path: url(#clippath-2);
      }

      .st6 {
        clip-path: url(#clippath);
      }
    </style>
    <clipPath id="clippath">
      <rect class="st1" x="-1.2" y="-.8" width="352" height="352"/>
    </clipPath>
    <clipPath id="clippath-1">
      <rect class="st1" x="-6.2" y="-5.8" width="362" height="362"/>
    </clipPath>
    <clipPath id="clippath-2">
      <rect class="st1" x="-6.2" y="-5.8" width="362" height="362"/>
    </clipPath>
  </defs>
  <g class="st0">
    <g class="st6">
      <g class="st2">
        <g class="st5">
          <image class="st3" width="755" height="755" transform="translate(-6.2 -6) scale(.5)" xlink:href="card2_01verso-1.png"/>
        </g>
      </g>
    </g>
  </g>
  <g class="st3">
    <g class="st3">
      <path class="st4" d="M90.2,110.8v-16.8h2.4v16.8h-2.4Z"/>
      <path class="st4" d="M96.3,110.8v-12h2.1v2.2c.1,0,.1,9.8.1,9.8h-2.3ZM104.6,104.7c0-1.1-.1-1.9-.4-2.5-.2-.6-.6-1-1-1.2-.4-.2-.9-.3-1.5-.4-1,0-1.7.3-2.3,1-.5.7-.8,1.7-.8,2.9h-1c0-1.3.2-2.3.6-3.3.4-.9.9-1.6,1.6-2.1.7-.5,1.5-.7,2.5-.7s1.8.2,2.5.6c.7.4,1.2,1,1.6,1.8s.6,1.9.6,3.2v.6h-2.3ZM104.6,110.8v-6.1h2.3v6.1h-2.3Z"/>
      <path class="st4" d="M115.3,111.1c-1.2,0-2.3-.3-3.2-.8-.9-.5-1.7-1.3-2.2-2.2-.5-.9-.8-2-.8-3.3s.3-2.3.8-3.3,1.2-1.7,2.2-2.2c.9-.5,2-.8,3.2-.8s2.2.3,3.2.8,1.6,1.3,2.1,2.3l-2.1.9c-.3-.6-.7-1.1-1.3-1.4-.6-.3-1.2-.5-2-.5s-1.4.2-1.9.5c-.6.4-1,.8-1.3,1.5-.3.6-.5,1.4-.5,2.2s.2,1.5.5,2.2c.3.6.8,1.1,1.3,1.5.6.4,1.2.5,1.9.5s1.4-.2,2-.6c.6-.4,1-.9,1.3-1.5l2.1.8c-.5,1.1-1.2,1.9-2.1,2.5s-2,.9-3.2.9Z"/>
      <path class="st4" d="M122.8,110.8v-16.8h2.3v16.8h-2.3Z"/>
      <path class="st4" d="M127.9,105v-6.1h2.3v6.1h-2.3ZM130.2,105c0,1.1.1,1.9.4,2.5.2.6.6,1,1,1.2.4.2,1,.3,1.5.4,1,0,1.7-.3,2.3-1,.5-.7.8-1.7.8-2.9h1c0,1.3-.2,2.3-.6,3.3-.4.9-.9,1.6-1.6,2.1-.7.5-1.5.7-2.5.7s-1.7-.2-2.4-.6c-.7-.4-1.2-1-1.6-1.8-.4-.8-.6-1.9-.6-3.2v-.6h2.3ZM136.4,110.8v-2.2c-.1,0-.1-9.8-.1-9.8h2.3v12h-2.1Z"/>
      <path class="st4" d="M147,111.1c-1.2,0-2.2-.3-3.1-.8-.9-.5-1.6-1.3-2.1-2.2-.5-.9-.8-2-.8-3.3s.3-2.3.8-3.3c.5-.9,1.2-1.7,2.1-2.2.9-.5,1.9-.8,3.1-.8s2.1.3,2.9.8,1.5,1.3,2,2.4c.5,1,.7,2.2.7,3.6h-9.7l.4-.4c0,.8.2,1.6.5,2.2.3.6.8,1.1,1.4,1.4.6.3,1.2.5,2,.5s1.5-.2,2-.6c.5-.4,1-.9,1.3-1.4l2,.9c-.3.6-.7,1.2-1.2,1.6-.5.5-1.1.8-1.8,1.1s-1.5.4-2.3.4ZM143.5,103.9l-.5-.4h7.6l-.4.4c0-.7-.1-1.3-.4-1.8-.3-.5-.7-.9-1.2-1.2-.5-.3-1-.4-1.6-.4s-1.1.1-1.7.4c-.5.3-1,.6-1.3,1.1-.3.5-.5,1.1-.5,1.8Z"/>
      <path class="st4" d="M154.9,110.8v-12h2.1v1.7c.5-.6,1-1.1,1.5-1.5.6-.3,1.2-.5,2-.5s1.8.2,2.4.7c.7.4,1.2,1.1,1.5,2,.4-.9.8-1.5,1.5-2,.6-.5,1.4-.7,2.3-.7,1.4,0,2.4.4,3.2,1.3s1.1,2.3,1.1,4.1v6.9h-2.3v-6.1c0-1.1-.1-1.9-.3-2.5-.2-.6-.5-1-.9-1.2-.4-.2-.8-.3-1.3-.4-.9,0-1.6.3-2.1,1-.5.7-.7,1.7-.7,2.9v6.2h-2.3v-6.1c0-1.1-.1-1.9-.3-2.5-.2-.6-.5-1-.9-1.2-.4-.2-.8-.3-1.4-.4-.9,0-1.6.3-2.1,1-.5.7-.7,1.7-.7,2.9v6.2h-2.3Z"/>
      <path class="st4" d="M180.3,100.7v-1.9h7.7v1.9h-7.7ZM182.5,110.8v-13.3c0-1.3.3-2.2.9-2.9.6-.6,1.5-1,2.8-1s.8,0,1.2.2c.4.1.9.3,1.3.5l-.8,1.8c-.3-.2-.6-.3-.9-.3s-.5-.1-.6-.1c-.5,0-.9.2-1.2.5-.3.3-.4.9-.4,1.6v13.1h-2.3Z"/>
      <path class="st4" d="M190,105v-6.1h2.3v6.1h-2.3ZM192.3,105c0,1.1.1,1.9.4,2.5s.6,1,1,1.2c.4.2,1,.3,1.5.4,1,0,1.7-.3,2.3-1,.5-.7.8-1.7.8-2.9h1c0,1.3-.2,2.3-.6,3.3-.4.9-.9,1.6-1.6,2.1-.7.5-1.5.7-2.5.7s-1.7-.2-2.4-.6c-.7-.4-1.2-1-1.6-1.8-.4-.8-.6-1.9-.6-3.2v-.6h2.3ZM198.5,110.8v-2.2c-.1,0-.1-9.8-.1-9.8h2.3v12h-2.1Z"/>
      <path class="st4" d="M203.8,110.8v-12h2.1v2.2c.1,0,.1,9.8.1,9.8h-2.3ZM212.1,104.7c0-1.1-.1-1.9-.4-2.5-.2-.6-.6-1-1-1.2-.4-.2-.9-.3-1.5-.4-1,0-1.7.3-2.3,1-.5.7-.8,1.7-.8,2.9h-1c0-1.3.2-2.3.6-3.3.4-.9.9-1.6,1.6-2.1.7-.5,1.5-.7,2.5-.7s1.8.2,2.5.6c.7.4,1.2,1,1.6,1.8s.6,1.9.6,3.2v.6h-2.3ZM212.1,110.8v-6.1h2.3v6.1h-2.3Z"/>
      <path class="st4" d="M222,110.7c-1.1,0-2-.3-2.8-.8-.8-.5-1.4-1.2-1.9-2.1-.5-.9-.7-1.9-.7-3.1s.2-2.3.7-3.2,1.1-1.6,1.9-2.1c.8-.5,1.8-.8,2.8-.8s1.9.3,2.6.8c.7.5,1.3,1.2,1.7,2.1s.6,2,.6,3.2-.2,2.2-.6,3.1-1,1.6-1.7,2.1-1.6.7-2.6.7ZM222.2,115.9c-.8,0-1.5,0-2.2-.2-.7-.2-1.2-.3-1.7-.5-.4-.2-.8-.4-1-.5l.9-1.8c.2.1.5.3.9.4.4.2.8.3,1.3.4.5.1,1.1.2,1.7.2s1.4-.1,2-.4,1-.8,1.4-1.4c.3-.6.5-1.4.5-2.4v-10.8h2.3v10.8c0,1.4-.3,2.5-.8,3.5-.5.9-1.2,1.6-2.1,2.1-.9.5-1.9.7-3.1.7ZM222.6,108.7c.7,0,1.3-.2,1.8-.5.5-.4.9-.8,1.2-1.5s.4-1.3.4-2.1-.1-1.5-.4-2.1c-.3-.6-.7-1.1-1.2-1.4s-1.1-.5-1.8-.5-1.3.2-1.9.5-1,.8-1.3,1.4c-.3.6-.5,1.3-.5,2.1s.2,1.5.5,2.1c.3.6.7,1.1,1.3,1.5s1.2.5,1.9.5Z"/>
      <path class="st4" d="M236.8,111.1c-1.2,0-2.3-.3-3.2-.8-.9-.5-1.6-1.3-2.1-2.2-.5-.9-.8-2-.8-3.3s.3-2.3.8-3.3,1.2-1.7,2.1-2.2c.9-.5,2-.8,3.1-.8s2.2.3,3.1.8c.9.5,1.6,1.3,2.1,2.2.5.9.8,2,.8,3.3s-.3,2.3-.8,3.3c-.5.9-1.2,1.7-2.1,2.2-.9.5-1.9.8-3.1.8ZM236.8,109c.7,0,1.4-.2,1.9-.5.6-.4,1-.9,1.3-1.5.3-.6.5-1.4.5-2.2s-.2-1.6-.5-2.2c-.3-.6-.8-1.1-1.3-1.5-.6-.4-1.2-.5-1.9-.5s-1.4.2-1.9.5c-.6.4-1,.9-1.3,1.5-.3.6-.5,1.4-.5,2.2s.2,1.6.5,2.2c.3.6.8,1.1,1.3,1.5.6.4,1.2.5,2,.5Z"/>
      <path class="st4" d="M249.6,111.1c-.8,0-1.6-.1-2.3-.4s-1.2-.6-1.7-1-.8-.9-1-1.5l2-.9c.3.5.6.9,1.2,1.2.5.3,1.1.5,1.7.5s1.3-.1,1.7-.4.7-.6.7-1.1-.2-.8-.5-1.1c-.3-.3-.8-.5-1.5-.6l-1.1-.3c-1.1-.3-2-.8-2.6-1.4-.6-.6-.9-1.3-.9-2.1,0-1.2.4-2.1,1.1-2.7.8-.6,1.9-1,3.3-1s1.4.1,2,.3c.6.2,1.1.5,1.5.9s.7.8.9,1.4l-1.9.9c-.2-.5-.5-.8-1-1.1-.5-.2-1-.3-1.6-.3s-1.1.1-1.5.4c-.4.3-.6.7-.6,1.2s.2.5.5.8c.3.2.8.5,1.4.6l1.3.3c.8.2,1.4.5,1.9.9.5.4.9.8,1.2,1.3.3.5.4,1,.4,1.5s-.2,1.3-.6,1.9c-.4.5-.9.9-1.6,1.2-.7.3-1.5.4-2.3.4Z"/>
      <path class="st4" d="M255.8,113.6l1.4-5.2h2.5l-2,5.2h-1.8Z"/>
    </g>
    <g class="st3">
      <path class="st4" d="M62.5,143.6v-16.8h2.1v2.2c.1,0,.1,14.6.1,14.6h-2.3ZM68.7,139.1c-1,0-1.9-.3-2.6-.8s-1.3-1.3-1.7-2.2c-.4-.9-.6-2-.6-3.3s.2-2.4.6-3.3c.4-.9,1-1.7,1.7-2.2s1.6-.8,2.6-.8,2,.3,2.8.8,1.5,1.3,1.9,2.2c.5.9.7,2,.7,3.3s-.2,2.3-.7,3.3-1.1,1.7-1.9,2.2-1.8.8-2.8.8ZM68.2,137c.7,0,1.4-.2,1.9-.5.5-.4,1-.9,1.3-1.5s.5-1.4.5-2.2-.2-1.6-.5-2.2c-.3-.6-.7-1.1-1.3-1.5-.5-.4-1.2-.5-1.9-.5s-1.2.2-1.8.5c-.5.4-.9.9-1.2,1.5-.3.6-.4,1.4-.4,2.2s.1,1.6.4,2.2.7,1.1,1.2,1.5c.5.4,1.1.5,1.8.5Z"/>
      <path class="st4" d="M80.5,139.1c-1.4,0-2.5-.3-3.3-1-.8-.6-1.2-1.5-1.2-2.7s.4-2.2,1.2-2.8c.8-.6,2-1,3.4-1h3.3v1.8h-2.7c-1.1,0-1.9.2-2.3.5-.4.3-.7.8-.7,1.4s.2,1,.6,1.3c.4.3,1,.5,1.8.5s1.2-.1,1.7-.4c.5-.3.9-.7,1.1-1.2.3-.5.4-1.1.4-1.8h.8c0,1.6-.3,2.9-1,3.9s-1.8,1.4-3.2,1.4ZM84,138.8v-2.1c0,0,0-4.2,0-4.2,0-.9-.1-1.6-.3-2.2-.2-.6-.5-1-.9-1.3-.4-.3-.9-.5-1.6-.5s-1.2.1-1.6.4c-.5.3-.8.7-1.1,1.2l-2-.8c.3-.5.6-1,1.1-1.5.4-.4,1-.8,1.6-1,.6-.2,1.3-.4,2.1-.4s2.1.2,2.8.7c.8.4,1.3,1.1,1.7,1.9s.6,1.9.5,3.1v6.5h-2.1Z"/>
      <path class="st4" d="M89,138.8v-12h2.3v12h-2.3ZM90.4,132.4c0-1.3.2-2.4.7-3.2.5-.8,1.1-1.4,1.9-1.8.8-.4,1.6-.6,2.5-.6v2.2c-.7,0-1.4.1-2.1.3-.6.2-1.2.6-1.6,1.1-.4.5-.6,1.1-.6,2h-.9Z"/>
      <path class="st4" d="M101.2,139.1c-1.4,0-2.5-.3-3.3-1-.8-.6-1.2-1.5-1.2-2.7s.4-2.2,1.2-2.8c.8-.6,2-1,3.4-1h3.3v1.8h-2.7c-1.1,0-1.9.2-2.3.5-.4.3-.7.8-.7,1.4s.2,1,.6,1.3c.4.3,1,.5,1.8.5s1.2-.1,1.7-.4c.5-.3.9-.7,1.1-1.2.3-.5.4-1.1.4-1.8h.8c0,1.6-.3,2.9-1,3.9s-1.8,1.4-3.2,1.4ZM104.8,138.8v-2.1c0,0,0-4.2,0-4.2,0-.9-.1-1.6-.3-2.2-.2-.6-.5-1-.9-1.3-.4-.3-.9-.5-1.6-.5s-1.2.1-1.6.4c-.5.3-.8.7-1.1,1.2l-2-.8c.3-.5.6-1,1.1-1.5.4-.4,1-.8,1.6-1,.6-.2,1.3-.4,2.1-.4s2.1.2,2.8.7c.8.4,1.3,1.1,1.7,1.9s.6,1.9.5,3.1v6.5h-2.1Z"/>
      <path class="st4" d="M114.1,139.1c-.8,0-1.6-.1-2.3-.4s-1.2-.6-1.7-1-.8-.9-1-1.5l2-.9c.3.5.6.9,1.2,1.2.5.3,1.1.5,1.7.5s1.3-.1,1.7-.4c.4-.3.7-.6.7-1.1s-.2-.8-.5-1.1c-.3-.3-.8-.5-1.5-.6l-1.1-.3c-1.1-.3-2-.8-2.6-1.4-.6-.6-.9-1.3-.9-2.1,0-1.2.4-2.1,1.1-2.7.8-.6,1.9-1,3.3-1s1.4.1,2,.3,1.1.5,1.5.9.7.8.9,1.4l-1.9.9c-.2-.5-.5-.8-1-1.1-.5-.2-1-.3-1.6-.3s-1.1.1-1.5.4c-.4.3-.6.7-.6,1.2s.2.5.5.8.8.5,1.4.6l1.3.3c.8.2,1.4.5,1.9.9.5.4.9.8,1.2,1.3.3.5.4,1,.4,1.5s-.2,1.3-.6,1.9c-.4.5-.9.9-1.6,1.2-.7.3-1.5.4-2.3.4Z"/>
      <path class="st4" d="M122.3,124.3c-.4,0-.7-.1-1-.4s-.4-.6-.4-1,.1-.7.4-1c.3-.3.6-.4,1-.4s.7.1,1,.4c.3.3.4.6.4,1s-.1.7-.4,1-.6.4-1,.4ZM121.1,138.8v-12h2.3v12h-2.3Z"/>
    </g>
    <g class="st3">
      <path class="st4" d="M125.5,128.8v-2h7.7v2h-7.7ZM131.4,139.1c-1.2,0-2.1-.3-2.8-.9-.7-.6-1-1.5-1-2.7v-12.5h2.3v12.1c0,.6.1,1,.4,1.4.3.3.7.5,1.3.5s.3,0,.5,0c.2,0,.4-.2.7-.4l.9,1.8c-.4.3-.8.5-1.2.6s-.8.2-1.1.2Z"/>
    </g>
    <g class="st3">
      <path class="st4" d="M139.7,139.1c-1.4,0-2.5-.3-3.3-1-.8-.6-1.2-1.5-1.2-2.7s.4-2.2,1.2-2.8c.8-.6,2-1,3.4-1h3.3v1.8h-2.7c-1.1,0-1.9.2-2.3.5-.4.3-.7.8-.7,1.4s.2,1,.6,1.3c.4.3,1,.5,1.8.5s1.2-.1,1.7-.4c.5-.3.9-.7,1.1-1.2.3-.5.4-1.1.4-1.8h.8c0,1.6-.3,2.9-1,3.9-.7,1-1.8,1.4-3.2,1.4ZM143.2,138.8v-2.1c0,0,0-4.2,0-4.2,0-.9-.1-1.6-.3-2.2-.2-.6-.5-1-.9-1.3-.4-.3-.9-.5-1.6-.5s-1.2.1-1.6.4-.8.7-1.1,1.2l-2-.8c.3-.5.6-1,1.1-1.5.4-.4,1-.8,1.6-1,.6-.2,1.3-.4,2.1-.4s2.1.2,2.8.7c.8.4,1.3,1.1,1.7,1.9s.6,1.9.5,3.1v6.5h-2.1Z"/>
      <path class="st4" d="M152.5,139.1c-.8,0-1.6-.1-2.3-.4s-1.2-.6-1.7-1-.8-.9-1-1.5l2-.9c.3.5.6.9,1.2,1.2.5.3,1.1.5,1.7.5s1.3-.1,1.7-.4c.4-.3.7-.6.7-1.1s-.2-.8-.5-1.1c-.3-.3-.8-.5-1.5-.6l-1.1-.3c-1.1-.3-2-.8-2.6-1.4s-.9-1.3-.9-2.1c0-1.2.4-2.1,1.1-2.7.8-.6,1.9-1,3.3-1s1.4.1,2,.3c.6.2,1.1.5,1.5.9s.7.8.9,1.4l-1.9.9c-.2-.5-.5-.8-1-1.1-.5-.2-1-.3-1.6-.3s-1.1.1-1.5.4c-.4.3-.6.7-.6,1.2s.2.5.5.8c.3.2.8.5,1.4.6l1.3.3c.8.2,1.4.5,1.9.9.5.4.9.8,1.2,1.3.3.5.4,1,.4,1.5s-.2,1.3-.6,1.9c-.4.5-.9.9-1.6,1.2-.7.3-1.5.4-2.3.4Z"/>
      <path class="st4" d="M158.7,141.6l1.4-5.2h2.5l-2,5.2h-1.8Z"/>
      <path class="st4" d="M170.9,138.8v-16.8h2.3v16.8h-2.3ZM177.1,139.1c-1,0-1.9-.3-2.6-.8s-1.3-1.3-1.7-2.2c-.4-.9-.6-2-.6-3.3s.2-2.4.6-3.3c.4-.9,1-1.7,1.7-2.2s1.6-.8,2.6-.8,2,.3,2.8.8,1.5,1.3,1.9,2.2c.5.9.7,2,.7,3.3s-.2,2.3-.7,3.3-1.1,1.7-1.9,2.2-1.8.8-2.8.8ZM176.6,137c.7,0,1.4-.2,1.9-.5.5-.4,1-.9,1.3-1.5.3-.6.5-1.4.5-2.2s-.2-1.6-.5-2.2c-.3-.6-.7-1.1-1.3-1.5-.5-.4-1.2-.5-1.9-.5s-1.2.2-1.8.5c-.5.4-.9.9-1.2,1.5-.3.6-.4,1.4-.4,2.2s.1,1.6.4,2.2.7,1.1,1.2,1.5c.5.4,1.1.5,1.8.5Z"/>
      <path class="st4" d="M188.9,139.1c-1.4,0-2.5-.3-3.3-1-.8-.6-1.2-1.5-1.2-2.7s.4-2.2,1.2-2.8c.8-.6,2-1,3.4-1h3.3v1.8h-2.7c-1.1,0-1.9.2-2.3.5-.4.3-.7.8-.7,1.4s.2,1,.6,1.3c.4.3,1,.5,1.8.5s1.2-.1,1.7-.4c.5-.3.9-.7,1.1-1.2.3-.5.4-1.1.4-1.8h.8c0,1.6-.3,2.9-1,3.9-.7,1-1.8,1.4-3.2,1.4ZM192.4,138.8v-2.1c0,0,0-4.2,0-4.2,0-.9,0-1.6-.3-2.2s-.5-1-.9-1.3c-.4-.3-.9-.5-1.6-.5s-1.2.1-1.6.4c-.5.3-.8.7-1.1,1.2l-2-.8c.3-.5.6-1,1.1-1.5.4-.4,1-.8,1.6-1s1.3-.4,2.1-.4,2.1.2,2.8.7c.8.4,1.3,1.1,1.7,1.9s.6,1.9.5,3.1v6.5h-2.1Z"/>
      <path class="st4" d="M202.9,139.1c-1.2,0-2.3-.3-3.2-.8-.9-.5-1.7-1.3-2.2-2.2-.5-.9-.8-2-.8-3.3s.3-2.3.8-3.3c.5-.9,1.2-1.7,2.2-2.2.9-.5,2-.8,3.2-.8s2.2.3,3.2.8c.9.5,1.6,1.3,2.1,2.3l-2.1.9c-.3-.6-.7-1.1-1.3-1.4s-1.2-.5-2-.5-1.4.2-1.9.5c-.6.4-1,.8-1.3,1.5-.3.6-.5,1.4-.5,2.2s.2,1.5.5,2.2c.3.6.8,1.1,1.3,1.5.6.4,1.2.5,1.9.5s1.4-.2,2-.6c.6-.4,1-.9,1.3-1.5l2.1.8c-.5,1.1-1.2,1.9-2.1,2.5-.9.6-2,.9-3.2.9Z"/>
    </g>
    <g class="st3">
      <path class="st4" d="M209.3,128.8v-2h7.7v2h-7.7ZM215.1,139.1c-1.2,0-2.1-.3-2.8-.9-.7-.6-1-1.5-1-2.7v-12.5h2.3v12.1c0,.6.1,1,.4,1.4.3.3.7.5,1.3.5s.3,0,.5,0c.2,0,.4-.2.7-.4l.9,1.8c-.4.3-.8.5-1.2.6s-.8.2-1.1.2Z"/>
    </g>
    <g class="st3">
      <path class="st4" d="M224.9,139.1c-1.2,0-2.2-.3-3.1-.8-.9-.5-1.6-1.3-2.1-2.2-.5-.9-.8-2-.8-3.3s.3-2.3.8-3.3c.5-.9,1.2-1.7,2.1-2.2.9-.5,1.9-.8,3.1-.8s2.1.3,2.9.8,1.5,1.3,2,2.4c.5,1,.7,2.2.7,3.6h-9.7l.4-.4c0,.8.2,1.6.5,2.2.3.6.8,1.1,1.4,1.4.6.3,1.2.5,2,.5s1.5-.2,2-.6c.5-.4,1-.9,1.3-1.4l2,.9c-.3.6-.7,1.2-1.2,1.6-.5.5-1.1.8-1.8,1.1-.7.3-1.5.4-2.3.4ZM221.3,131.9l-.5-.4h7.6l-.4.4c0-.7-.1-1.3-.4-1.8-.3-.5-.7-.9-1.2-1.2-.5-.3-1-.4-1.6-.4s-1.1.1-1.7.4c-.5.3-1,.6-1.3,1.1-.3.5-.5,1.1-.5,1.8ZM223.2,125.2l2.8-3.2h2.8l-3.1,3.2h-2.5Z"/>
      <path class="st4" d="M232.8,138.8v-12h2.3v12h-2.3ZM234.1,132.4c0-1.3.2-2.4.7-3.2s1.1-1.4,1.9-1.8c.8-.4,1.6-.6,2.5-.6v2.2c-.7,0-1.4.1-2.1.3-.6.2-1.2.6-1.6,1.1s-.6,1.1-.6,2h-.9Z"/>
      <path class="st4" d="M242.4,124.3c-.4,0-.7-.1-1-.4-.3-.3-.4-.6-.4-1s.1-.7.4-1c.3-.3.6-.4,1-.4s.7.1,1,.4.4.6.4,1-.1.7-.4,1c-.3.3-.6.4-1,.4ZM241.3,138.8v-12h2.3v12h-2.3Z"/>
      <path class="st4" d="M250.7,139.1c-1.4,0-2.5-.3-3.3-1-.8-.6-1.2-1.5-1.2-2.7s.4-2.2,1.2-2.8c.8-.6,2-1,3.4-1h3.3v1.8h-2.7c-1.1,0-1.9.2-2.3.5-.4.3-.7.8-.7,1.4s.2,1,.6,1.3c.4.3,1,.5,1.8.5s1.2-.1,1.7-.4c.5-.3.9-.7,1.1-1.2.3-.5.4-1.1.4-1.8h.8c0,1.6-.3,2.9-1,3.9-.7,1-1.8,1.4-3.2,1.4ZM254.3,138.8v-2.1c0,0,0-4.2,0-4.2,0-.9,0-1.6-.3-2.2s-.5-1-.9-1.3c-.4-.3-.9-.5-1.6-.5s-1.2.1-1.6.4c-.5.3-.8.7-1.1,1.2l-2-.8c.3-.5.6-1,1.1-1.5.4-.4,1-.8,1.6-1s1.3-.4,2.1-.4,2.1.2,2.8.7c.8.4,1.3,1.1,1.7,1.9s.6,1.9.5,3.1v6.5h-2.1Z"/>
      <path class="st4" d="M263.6,139.1c-.8,0-1.6-.1-2.3-.4s-1.2-.6-1.7-1-.8-.9-1-1.5l2-.9c.3.5.6.9,1.2,1.2.5.3,1.1.5,1.7.5s1.3-.1,1.7-.4.7-.6.7-1.1-.2-.8-.5-1.1c-.3-.3-.8-.5-1.5-.6l-1.1-.3c-1.1-.3-2-.8-2.6-1.4-.6-.6-.9-1.3-.9-2.1,0-1.2.4-2.1,1.1-2.7.8-.6,1.9-1,3.3-1s1.4.1,2,.3c.6.2,1.1.5,1.5.9s.7.8.9,1.4l-1.9.9c-.2-.5-.5-.8-1-1.1-.5-.2-1-.3-1.6-.3s-1.1.1-1.5.4c-.4.3-.6.7-.6,1.2s.2.5.5.8c.3.2.8.5,1.4.6l1.3.3c.8.2,1.4.5,1.9.9.5.4.9.8,1.2,1.3.3.5.4,1,.4,1.5s-.2,1.3-.6,1.9c-.4.5-.9.9-1.6,1.2-.7.3-1.5.4-2.3.4Z"/>
      <path class="st4" d="M281.6,139.1c-1.2,0-2.2-.3-3.1-.8-.9-.5-1.6-1.3-2.1-2.2-.5-.9-.8-2-.8-3.3s.3-2.3.8-3.3c.5-.9,1.2-1.7,2.1-2.2.9-.5,1.9-.8,3.1-.8s2.1.3,2.9.8,1.5,1.3,2,2.4c.5,1,.7,2.2.7,3.6h-9.7l.4-.4c0,.8.2,1.6.5,2.2.3.6.8,1.1,1.4,1.4.6.3,1.2.5,2,.5s1.5-.2,2-.6c.5-.4,1-.9,1.3-1.4l2,.9c-.3.6-.7,1.2-1.2,1.6-.5.5-1.1.8-1.8,1.1-.7.3-1.5.4-2.3.4ZM278.1,131.9l-.5-.4h7.6l-.4.4c0-.7-.1-1.3-.4-1.8-.3-.5-.7-.9-1.2-1.2-.5-.3-1-.4-1.6-.4s-1.1.1-1.7.4c-.5.3-1,.6-1.3,1.1-.3.5-.5,1.1-.5,1.8Z"/>
    </g>
    <g class="st3">
      <path class="st4" d="M81.4,166.8l-5-12h2.3l4.8,12h-2.1ZM81.5,166.8l4.8-12h2.4l-5,12h-2.2Z"/>
      <path class="st4" d="M90,153.2l2.8-3.2h2.8l-3.1,3.2h-2.5ZM90.6,166.8v-12h2.3v12h-2.3Z"/>
      <path class="st4" d="M96.3,166.8v-12h2.3v12h-2.3ZM97.6,160.4c0-1.3.2-2.4.7-3.2.5-.8,1.1-1.4,1.9-1.8.8-.4,1.6-.6,2.5-.6v2.2c-.7,0-1.4.1-2.1.3-.6.2-1.2.6-1.6,1.1-.4.5-.6,1.1-.6,2h-.9Z"/>
      <path class="st4" d="M104.3,161v-6.1h2.3v6.1h-2.3ZM106.6,161c0,1.1.1,1.9.4,2.5.2.6.6,1,1,1.2.4.2,1,.3,1.5.4,1,0,1.7-.3,2.3-1,.5-.7.8-1.7.8-2.9h1c0,1.3-.2,2.3-.6,3.3-.4.9-.9,1.6-1.6,2.1-.7.5-1.5.7-2.5.7s-1.7-.2-2.4-.6c-.7-.4-1.2-1-1.6-1.8-.4-.8-.6-1.9-.6-3.2v-.6h2.3ZM112.8,166.8v-2.2c-.1,0-.1-9.8-.1-9.8h2.3v12h-2.1Z"/>
      <path class="st4" d="M122.4,167.1c-.8,0-1.6-.1-2.3-.4s-1.2-.6-1.7-1-.8-.9-1-1.5l2-.9c.3.5.6.9,1.2,1.2.5.3,1.1.5,1.7.5s1.3-.1,1.7-.4c.4-.3.7-.6.7-1.1s-.2-.8-.5-1.1c-.3-.3-.8-.5-1.5-.6l-1.1-.3c-1.1-.3-2-.8-2.6-1.4-.6-.6-.9-1.3-.9-2.1,0-1.2.4-2.1,1.1-2.7.8-.6,1.9-1,3.3-1s1.4.1,2,.3,1.1.5,1.5.9.7.8.9,1.4l-1.9.9c-.2-.5-.5-.8-1-1.1-.5-.2-1-.3-1.6-.3s-1.1.1-1.5.4c-.4.3-.6.7-.6,1.2s.2.5.5.8.8.5,1.4.6l1.3.3c.8.2,1.4.5,1.9.9.5.4.9.8,1.2,1.3.3.5.4,1,.4,1.5s-.2,1.3-.6,1.9c-.4.5-.9.9-1.6,1.2-.7.3-1.5.4-2.3.4Z"/>
      <path class="st4" d="M128.6,169.6l1.4-5.2h2.5l-2,5.2h-1.8Z"/>
      <path class="st4" d="M146.1,167.1c-1.2,0-2.2-.3-3.1-.8-.9-.5-1.6-1.3-2.1-2.2-.5-.9-.8-2-.8-3.3s.3-2.3.8-3.3c.5-.9,1.2-1.7,2.1-2.2.9-.5,1.9-.8,3.1-.8s2.1.3,2.9.8,1.5,1.3,2,2.4c.5,1,.7,2.2.7,3.6h-9.7l.4-.4c0,.8.2,1.6.5,2.2.3.6.8,1.1,1.4,1.4.6.3,1.2.5,2,.5s1.5-.2,2-.6c.5-.4,1-.9,1.3-1.4l2,.9c-.3.6-.7,1.2-1.2,1.6-.5.5-1.1.8-1.8,1.1s-1.5.4-2.3.4ZM142.5,159.9l-.5-.4h7.6l-.4.4c0-.7-.1-1.3-.4-1.8-.3-.5-.7-.9-1.2-1.2-.5-.3-1-.4-1.6-.4s-1.1.1-1.7.4c-.5.3-1,.6-1.3,1.1-.3.5-.5,1.1-.5,1.8Z"/>
      <path class="st4" d="M153.9,166.8v-12h2.1v2.2c.1,0,.1,9.8.1,9.8h-2.3ZM162.2,160.7c0-1.1-.1-1.9-.4-2.5-.2-.6-.6-1-1-1.2-.4-.2-.9-.3-1.5-.4-1,0-1.7.3-2.3,1-.5.7-.8,1.7-.8,2.9h-1c0-1.3.2-2.3.6-3.3.4-.9.9-1.6,1.6-2.1.7-.5,1.5-.7,2.5-.7s1.8.2,2.5.6c.7.4,1.2,1,1.6,1.8s.6,1.9.6,3.2v.6h-2.3ZM162.2,166.8v-6.1h2.3v6.1h-2.3Z"/>
      <path class="st4" d="M166.2,156.8v-2h7.7v2h-7.7ZM172,167.1c-1.2,0-2.1-.3-2.8-.9-.7-.6-1-1.5-1-2.7v-12.5h2.3v12.1c0,.6.1,1,.4,1.4.3.3.7.5,1.3.5s.3,0,.5,0c.2,0,.4-.2.7-.4l.9,1.8c-.4.3-.8.5-1.2.6s-.8.2-1.1.2Z"/>
      <path class="st4" d="M176.6,166.8v-12h2.3v12h-2.3ZM178,160.4c0-1.3.2-2.4.7-3.2.5-.8,1.1-1.4,1.9-1.8.8-.4,1.6-.6,2.5-.6v2.2c-.7,0-1.4.1-2.1.3-.6.2-1.2.6-1.6,1.1-.4.5-.6,1.1-.6,2h-.9Z"/>
      <path class="st4" d="M190.3,167.1c-1.2,0-2.2-.3-3.1-.8-.9-.5-1.6-1.3-2.1-2.2-.5-.9-.8-2-.8-3.3s.3-2.3.8-3.3c.5-.9,1.2-1.7,2.1-2.2.9-.5,1.9-.8,3.1-.8s2.1.3,2.9.8,1.5,1.3,2,2.4c.5,1,.7,2.2.7,3.6h-9.7l.4-.4c0,.8.2,1.6.5,2.2.3.6.8,1.1,1.4,1.4.6.3,1.2.5,2,.5s1.5-.2,2-.6c.5-.4,1-.9,1.3-1.4l2,.9c-.3.6-.7,1.2-1.2,1.6-.5.5-1.1.8-1.8,1.1-.7.3-1.5.4-2.3.4ZM186.8,159.9l-.5-.4h7.6l-.4.4c0-.7-.1-1.3-.4-1.8-.3-.5-.7-.9-1.2-1.2-.5-.3-1-.4-1.6-.4s-1.1.1-1.7.4c-.5.3-1,.6-1.3,1.1-.3.5-.5,1.1-.5,1.8Z"/>
      <path class="st4" d="M209.4,167.1c-1.2,0-2.3-.3-3.2-.8-.9-.5-1.6-1.3-2.1-2.2-.5-.9-.8-2-.8-3.3s.3-2.3.8-3.3,1.2-1.7,2.1-2.2c.9-.5,2-.8,3.1-.8s2.2.3,3.1.8c.9.5,1.6,1.3,2.1,2.2.5.9.8,2,.8,3.3s-.3,2.3-.8,3.3c-.5.9-1.2,1.7-2.1,2.2-.9.5-1.9.8-3.1.8ZM209.4,165c.7,0,1.4-.2,1.9-.5.6-.4,1-.9,1.3-1.5.3-.6.5-1.4.5-2.2s-.2-1.6-.5-2.2c-.3-.6-.8-1.1-1.3-1.5-.6-.4-1.2-.5-1.9-.5s-1.4.2-1.9.5c-.6.4-1,.9-1.3,1.5-.3.6-.5,1.4-.5,2.2s.2,1.6.5,2.2c.3.6.8,1.1,1.3,1.5.6.4,1.2.5,2,.5Z"/>
      <path class="st4" d="M217.6,161v-6.1h2.3v6.1h-2.3ZM219.9,161c0,1.1.1,1.9.4,2.5.2.6.6,1,1,1.2.4.2,1,.3,1.5.4,1,0,1.7-.3,2.3-1,.5-.7.8-1.7.8-2.9h1c0,1.3-.2,2.3-.6,3.3s-.9,1.6-1.6,2.1c-.7.5-1.5.7-2.5.7s-1.7-.2-2.4-.6-1.2-1-1.6-1.8c-.4-.8-.6-1.9-.6-3.2v-.6h2.3ZM226.1,166.8v-2.2c-.1,0-.1-9.8-.1-9.8h2.3v12h-2.1Z"/>
      <path class="st4" d="M230.2,156.8v-2h7.7v2h-7.7ZM236,167.1c-1.2,0-2.1-.3-2.8-.9s-1-1.5-1-2.7v-12.5h2.3v12.1c0,.6.1,1,.4,1.4.3.3.7.5,1.3.5s.3,0,.5,0c.2,0,.4-.2.7-.4l.9,1.8c-.4.3-.8.5-1.2.6s-.8.2-1.1.2Z"/>
      <path class="st4" d="M240.6,166.8v-12h2.3v12h-2.3ZM242,160.4c0-1.3.2-2.4.7-3.2s1.1-1.4,1.9-1.8c.8-.4,1.6-.6,2.5-.6v2.2c-.7,0-1.4.1-2.1.3-.6.2-1.2.6-1.6,1.1s-.6,1.1-.6,2h-.9Z"/>
      <path class="st4" d="M254.4,167.1c-1.2,0-2.3-.3-3.2-.8-.9-.5-1.6-1.3-2.1-2.2-.5-.9-.8-2-.8-3.3s.3-2.3.8-3.3,1.2-1.7,2.1-2.2c.9-.5,2-.8,3.1-.8s2.2.3,3.1.8c.9.5,1.6,1.3,2.1,2.2.5.9.8,2,.8,3.3s-.3,2.3-.8,3.3c-.5.9-1.2,1.7-2.1,2.2-.9.5-1.9.8-3.1.8ZM254.4,165c.7,0,1.4-.2,1.9-.5.6-.4,1-.9,1.3-1.5.3-.6.5-1.4.5-2.2s-.2-1.6-.5-2.2c-.3-.6-.8-1.1-1.3-1.5-.6-.4-1.2-.5-1.9-.5s-1.4.2-1.9.5c-.6.4-1,.9-1.3,1.5-.3.6-.5,1.4-.5,2.2s.2,1.6.5,2.2c.3.6.8,1.1,1.3,1.5.6.4,1.2.5,2,.5Z"/>
      <path class="st4" d="M267.2,167.1c-.8,0-1.6-.1-2.3-.4s-1.2-.6-1.7-1-.8-.9-1-1.5l2-.9c.3.5.6.9,1.2,1.2.5.3,1.1.5,1.7.5s1.3-.1,1.7-.4c.4-.3.7-.6.7-1.1s-.2-.8-.5-1.1c-.3-.3-.8-.5-1.5-.6l-1.1-.3c-1.1-.3-2-.8-2.6-1.4s-.9-1.3-.9-2.1c0-1.2.4-2.1,1.1-2.7.8-.6,1.9-1,3.3-1s1.4.1,2,.3c.6.2,1.1.5,1.5.9s.7.8.9,1.4l-1.9.9c-.2-.5-.5-.8-1-1.1-.5-.2-1-.3-1.6-.3s-1.1.1-1.5.4c-.4.3-.6.7-.6,1.2s.2.5.5.8c.3.2.8.5,1.4.6l1.3.3c.8.2,1.4.5,1.9.9.5.4.9.8,1.2,1.3.3.5.4,1,.4,1.5s-.2,1.3-.6,1.9c-.4.5-.9.9-1.6,1.2-.7.3-1.5.4-2.3.4Z"/>
    </g>
    <g class="st3">
      <path class="st4" d="M64.7,195.1c-1.2,0-2.3-.3-3.2-.8-.9-.5-1.6-1.3-2.1-2.2-.5-.9-.8-2-.8-3.3s.3-2.3.8-3.3,1.2-1.7,2.1-2.2c.9-.5,2-.8,3.1-.8s2.2.3,3.1.8c.9.5,1.6,1.3,2.1,2.2.5.9.8,2,.8,3.3s-.3,2.3-.8,3.3c-.5.9-1.2,1.7-2.1,2.2-.9.5-1.9.8-3.1.8ZM64.7,193c.7,0,1.4-.2,1.9-.5.6-.4,1-.9,1.3-1.5.3-.6.5-1.4.5-2.2s-.2-1.6-.5-2.2c-.3-.6-.8-1.1-1.3-1.5-.6-.4-1.2-.5-1.9-.5s-1.4.2-1.9.5c-.6.4-1,.9-1.3,1.5-.3.6-.5,1.4-.5,2.2s.2,1.6.5,2.2c.3.6.8,1.1,1.3,1.5.6.4,1.2.5,2,.5Z"/>
      <path class="st4" d="M73.2,194.8v-12h2.3v12h-2.3ZM74.6,188.4c0-1.3.2-2.4.7-3.2s1.1-1.4,1.9-1.8c.8-.4,1.6-.6,2.5-.6v2.2c-.7,0-1.4.1-2.1.3-.6.2-1.2.6-1.6,1.1s-.6,1.1-.6,2h-.9Z"/>
      <path class="st4" d="M86.4,194.7c-1.1,0-2-.3-2.8-.8-.8-.5-1.4-1.2-1.9-2.1-.5-.9-.7-1.9-.7-3.1s.2-2.3.7-3.2,1.1-1.6,1.9-2.1c.8-.5,1.8-.8,2.8-.8s1.9.3,2.6.8c.7.5,1.3,1.2,1.7,2.1s.6,2,.6,3.2-.2,2.2-.6,3.1-1,1.6-1.7,2.1-1.6.7-2.6.7ZM86.6,199.9c-.8,0-1.5,0-2.2-.2-.7-.2-1.2-.3-1.7-.5-.4-.2-.8-.4-1-.5l.9-1.8c.2.1.5.3.9.4.4.2.8.3,1.3.4.5.1,1.1.2,1.7.2s1.4-.1,2-.4,1-.8,1.4-1.4c.3-.6.5-1.4.5-2.4v-10.8h2.3v10.8c0,1.4-.3,2.5-.8,3.5-.5.9-1.2,1.6-2.1,2.1-.9.5-1.9.7-3.1.7ZM86.9,192.7c.7,0,1.3-.2,1.8-.5.5-.4.9-.8,1.2-1.5s.4-1.3.4-2.1-.1-1.5-.4-2.1c-.3-.6-.7-1.1-1.2-1.4s-1.1-.5-1.8-.5-1.3.2-1.9.5-1,.8-1.3,1.4c-.3.6-.5,1.3-.5,2.1s.2,1.5.5,2.1c.3.6.7,1.1,1.3,1.5s1.2.5,1.9.5Z"/>
      <path class="st4" d="M99.6,195.1c-1.4,0-2.5-.3-3.3-1-.8-.6-1.2-1.5-1.2-2.7s.4-2.2,1.2-2.8c.8-.6,2-1,3.4-1h3.3v1.8h-2.7c-1.1,0-1.9.2-2.3.5-.4.3-.7.8-.7,1.4s.2,1,.6,1.3c.4.3,1,.5,1.8.5s1.2-.1,1.7-.4c.5-.3.9-.7,1.1-1.2.3-.5.4-1.1.4-1.8h.8c0,1.6-.3,2.9-1,3.9-.7,1-1.8,1.4-3.2,1.4ZM103.2,194.8v-2.1c0,0,0-4.2,0-4.2,0-.9,0-1.6-.3-2.2s-.5-1-.9-1.3c-.4-.3-.9-.5-1.6-.5s-1.2.1-1.6.4c-.5.3-.8.7-1.1,1.2l-2-.8c.3-.5.6-1,1.1-1.5.4-.4,1-.8,1.6-1s1.3-.4,2.1-.4,2.1.2,2.8.7c.8.4,1.3,1.1,1.7,1.9s.6,1.9.5,3.1v6.5h-2.1Z"/>
      <path class="st4" d="M108.2,194.8v-12h2.1v2.2c.1,0,.1,9.8.1,9.8h-2.3ZM116.5,188.7c0-1.1-.1-1.9-.4-2.5-.2-.6-.6-1-1-1.2-.4-.2-.9-.3-1.5-.4-1,0-1.7.3-2.3,1-.5.7-.8,1.7-.8,2.9h-1c0-1.3.2-2.3.6-3.3.4-.9.9-1.6,1.6-2.1.7-.5,1.5-.7,2.5-.7s1.8.2,2.5.6c.7.4,1.2,1,1.6,1.8s.6,1.9.6,3.2v.6h-2.3ZM116.5,194.8v-6.1h2.3v6.1h-2.3Z"/>
      <path class="st4" d="M122.9,180.3c-.4,0-.7-.1-1-.4-.3-.3-.4-.6-.4-1s.1-.7.4-1c.3-.3.6-.4,1-.4s.7.1,1,.4.4.6.4,1-.1.7-.4,1c-.3.3-.6.4-1,.4ZM121.8,194.8v-12h2.3v12h-2.3Z"/>
      <path class="st4" d="M131.7,195.1c-.8,0-1.6-.1-2.3-.4s-1.2-.6-1.7-1-.8-.9-1-1.5l2-.9c.3.5.6.9,1.2,1.2.5.3,1.1.5,1.7.5s1.3-.1,1.7-.4.7-.6.7-1.1-.2-.8-.5-1.1c-.3-.3-.8-.5-1.5-.6l-1.1-.3c-1.1-.3-2-.8-2.6-1.4-.6-.6-.9-1.3-.9-2.1,0-1.2.4-2.1,1.1-2.7.8-.6,1.9-1,3.3-1s1.4.1,2,.3c.6.2,1.1.5,1.5.9s.7.8.9,1.4l-1.9.9c-.2-.5-.5-.8-1-1.1-.5-.2-1-.3-1.6-.3s-1.1.1-1.5.4c-.4.3-.6.7-.6,1.2s.2.5.5.8c.3.2.8.5,1.4.6l1.3.3c.8.2,1.4.5,1.9.9.5.4.9.8,1.2,1.3.3.5.4,1,.4,1.5s-.2,1.3-.6,1.9c-.4.5-.9.9-1.6,1.2-.7.3-1.5.4-2.3.4Z"/>
      <path class="st4" d="M138.6,194.8v-12h2.1v1.7c.5-.6,1-1.1,1.5-1.5s1.2-.5,2-.5,1.8.2,2.4.7c.7.4,1.2,1.1,1.5,2,.4-.9.8-1.5,1.5-2,.6-.5,1.4-.7,2.3-.7,1.4,0,2.4.4,3.2,1.3.8.9,1.1,2.3,1.1,4.1v6.9h-2.3v-6.1c0-1.1-.1-1.9-.3-2.5-.2-.6-.5-1-.9-1.2-.4-.2-.8-.3-1.3-.4-.9,0-1.6.3-2.1,1-.5.7-.7,1.7-.7,2.9v6.2h-2.3v-6.1c0-1.1-.1-1.9-.3-2.5-.2-.6-.5-1-.9-1.2-.4-.2-.8-.3-1.4-.4-.9,0-1.6.3-2.1,1-.5.7-.7,1.7-.7,2.9v6.2h-2.3Z"/>
      <path class="st4" d="M164.6,195.1c-1.2,0-2.3-.3-3.2-.8-.9-.5-1.6-1.3-2.1-2.2-.5-.9-.8-2-.8-3.3s.3-2.3.8-3.3c.5-.9,1.2-1.7,2.1-2.2.9-.5,2-.8,3.1-.8s2.2.3,3.1.8c.9.5,1.6,1.3,2.1,2.2.5.9.8,2,.8,3.3s-.3,2.3-.8,3.3c-.5.9-1.2,1.7-2.1,2.2-.9.5-1.9.8-3.1.8ZM164.6,193c.7,0,1.4-.2,1.9-.5.6-.4,1-.9,1.3-1.5.3-.6.5-1.4.5-2.2s-.2-1.6-.5-2.2c-.3-.6-.8-1.1-1.3-1.5-.6-.4-1.2-.5-1.9-.5s-1.4.2-1.9.5c-.6.4-1,.9-1.3,1.5s-.5,1.4-.5,2.2.2,1.6.5,2.2.8,1.1,1.3,1.5c.6.4,1.2.5,2,.5Z"/>
      <path class="st4" d="M177.4,195.1c-.8,0-1.6-.1-2.3-.4s-1.2-.6-1.7-1-.8-.9-1-1.5l2-.9c.3.5.6.9,1.2,1.2.5.3,1.1.5,1.7.5s1.3-.1,1.7-.4.7-.6.7-1.1-.2-.8-.5-1.1c-.3-.3-.8-.5-1.5-.6l-1.1-.3c-1.1-.3-2-.8-2.6-1.4-.6-.6-.9-1.3-.9-2.1,0-1.2.4-2.1,1.1-2.7.8-.6,1.9-1,3.3-1s1.4.1,2,.3c.6.2,1.1.5,1.5.9s.7.8.9,1.4l-1.9.9c-.2-.5-.5-.8-1-1.1-.5-.2-1-.3-1.6-.3s-1.1.1-1.5.4c-.4.3-.6.7-.6,1.2s.2.5.5.8c.3.2.8.5,1.4.6l1.3.3c.8.2,1.4.5,1.9.9.5.4.9.8,1.2,1.3.3.5.4,1,.4,1.5s-.2,1.3-.6,1.9c-.4.5-.9.9-1.6,1.2-.7.3-1.5.4-2.3.4Z"/>
      <path class="st4" d="M193.7,194.8l-5-12h2.3l4.8,12h-2.1ZM193.9,194.8l4.8-12h2.4l-5,12h-2.2Z"/>
      <path class="st4" d="M204.1,180.3c-.4,0-.7-.1-1-.4-.3-.3-.4-.6-.4-1s.1-.7.4-1c.3-.3.6-.4,1-.4s.7.1,1,.4.4.6.4,1-.1.7-.4,1c-.3.3-.6.4-1,.4ZM203,194.8v-12h2.3v12h-2.3Z"/>
    </g>
    <g class="st3">
      <path class="st4" d="M212.2,194.8l-5-12h2.3l4.8,12h-2.1ZM212.4,194.8l4.8-12h2.4l-5,12h-2.2Z"/>
    </g>
    <g class="st3">
      <path class="st4" d="M226.4,195.1c-1.2,0-2.3-.3-3.2-.8-.9-.5-1.6-1.3-2.1-2.2-.5-.9-.8-2-.8-3.3s.3-2.3.8-3.3c.5-.9,1.2-1.7,2.1-2.2.9-.5,2-.8,3.1-.8s2.2.3,3.1.8c.9.5,1.6,1.3,2.1,2.2.5.9.8,2,.8,3.3s-.3,2.3-.8,3.3c-.5.9-1.2,1.7-2.1,2.2-.9.5-1.9.8-3.1.8ZM226.4,193c.7,0,1.4-.2,1.9-.5.6-.4,1-.9,1.3-1.5.3-.6.5-1.4.5-2.2s-.2-1.6-.5-2.2c-.3-.6-.8-1.1-1.3-1.5-.6-.4-1.2-.5-1.9-.5s-1.4.2-1.9.5c-.6.4-1,.9-1.3,1.5s-.5,1.4-.5,2.2.2,1.6.5,2.2.8,1.1,1.3,1.5c.6.4,1.2.5,2,.5Z"/>
      <path class="st4" d="M239.2,195.1c-.8,0-1.6-.1-2.3-.4s-1.2-.6-1.7-1-.8-.9-1-1.5l2-.9c.3.5.6.9,1.2,1.2.5.3,1.1.5,1.7.5s1.3-.1,1.7-.4c.4-.3.7-.6.7-1.1s-.2-.8-.5-1.1c-.3-.3-.8-.5-1.5-.6l-1.1-.3c-1.1-.3-2-.8-2.6-1.4s-.9-1.3-.9-2.1c0-1.2.4-2.1,1.1-2.7.8-.6,1.9-1,3.3-1s1.4.1,2,.3c.6.2,1.1.5,1.5.9s.7.8.9,1.4l-1.9.9c-.2-.5-.5-.8-1-1.1-.5-.2-1-.3-1.6-.3s-1.1.1-1.5.4c-.4.3-.6.7-.6,1.2s.2.5.5.8c.3.2.8.5,1.4.6l1.3.3c.8.2,1.4.5,1.9.9.5.4.9.8,1.2,1.3.3.5.4,1,.4,1.5s-.2,1.3-.6,1.9c-.4.5-.9.9-1.6,1.2-.7.3-1.5.4-2.3.4Z"/>
      <path class="st4" d="M256.7,195.1c-1.1,0-2-.3-2.8-.8s-1.4-1.3-1.9-2.2c-.5-.9-.7-2-.7-3.3s.2-2.4.7-3.3c.5-.9,1.1-1.7,1.9-2.2s1.8-.8,2.8-.8,1.9.3,2.6.8c.7.5,1.3,1.3,1.7,2.2.4.9.6,2,.6,3.3s-.2,2.3-.6,3.3c-.4.9-1,1.7-1.7,2.2-.7.5-1.6.8-2.6.8ZM257.2,193c.7,0,1.3-.2,1.8-.5.5-.4.9-.9,1.2-1.5s.4-1.4.4-2.2-.1-1.6-.4-2.2c-.3-.6-.7-1.1-1.2-1.5-.5-.4-1.1-.5-1.8-.5s-1.3.2-1.9.5c-.5.4-1,.9-1.3,1.5-.3.6-.5,1.4-.5,2.2s.2,1.6.5,2.2c.3.6.7,1.1,1.3,1.5.5.4,1.2.5,1.9.5ZM260.7,199.6v-16.8h2.3v16.8h-2.3Z"/>
      <path class="st4" d="M265.6,189v-6.1h2.3v6.1h-2.3ZM267.9,189c0,1.1.1,1.9.4,2.5.2.6.6,1,1,1.2.4.2,1,.3,1.5.4,1,0,1.7-.3,2.3-1,.5-.7.8-1.7.8-2.9h1c0,1.3-.2,2.3-.6,3.3s-.9,1.6-1.6,2.1c-.7.5-1.5.7-2.5.7s-1.7-.2-2.4-.6-1.2-1-1.6-1.8c-.4-.8-.6-1.9-.6-3.2v-.6h2.3ZM274.1,194.8v-2.2c-.1,0-.1-9.8-.1-9.8h2.3v12h-2.1Z"/>
      <path class="st4" d="M284.7,195.1c-1.2,0-2.2-.3-3.1-.8-.9-.5-1.6-1.3-2.1-2.2-.5-.9-.8-2-.8-3.3s.3-2.3.8-3.3,1.2-1.7,2.1-2.2c.9-.5,1.9-.8,3.1-.8s2.1.3,2.9.8,1.5,1.3,2,2.4c.5,1,.7,2.2.7,3.6h-9.7l.4-.4c0,.8.2,1.6.5,2.2s.8,1.1,1.4,1.4c.6.3,1.2.5,2,.5s1.5-.2,2-.6c.5-.4,1-.9,1.3-1.4l2,.9c-.3.6-.7,1.2-1.2,1.6-.5.5-1.1.8-1.8,1.1-.7.3-1.5.4-2.3.4ZM281.1,187.9l-.5-.4h7.6l-.4.4c0-.7-.1-1.3-.4-1.8-.3-.5-.7-.9-1.2-1.2-.5-.3-1-.4-1.6-.4s-1.1.1-1.7.4c-.5.3-1,.6-1.3,1.1-.3.5-.5,1.1-.5,1.8Z"/>
    </g>
    <g class="st3">
      <path class="st4" d="M63.6,222.8v-12h2.3v12h-2.3ZM65,216.4c0-1.3.2-2.4.7-3.2.5-.8,1.1-1.4,1.9-1.8.8-.4,1.6-.6,2.5-.6v2.2c-.7,0-1.4.1-2.1.3-.6.2-1.2.6-1.6,1.1-.4.5-.6,1.1-.6,2h-.9Z"/>
      <path class="st4" d="M77.3,223.1c-1.2,0-2.2-.3-3.1-.8-.9-.5-1.6-1.3-2.1-2.2-.5-.9-.8-2-.8-3.3s.3-2.3.8-3.3c.5-.9,1.2-1.7,2.1-2.2.9-.5,1.9-.8,3.1-.8s2.1.3,2.9.8,1.5,1.3,2,2.4c.5,1,.7,2.2.7,3.6h-9.7l.4-.4c0,.8.2,1.6.5,2.2.3.6.8,1.1,1.4,1.4.6.3,1.2.5,2,.5s1.5-.2,2-.6c.5-.4,1-.9,1.3-1.4l2,.9c-.3.6-.7,1.2-1.2,1.6-.5.5-1.1.8-1.8,1.1-.7.3-1.5.4-2.3.4ZM73.7,215.9l-.5-.4h7.6l-.4.4c0-.7-.1-1.3-.4-1.8-.3-.5-.7-.9-1.2-1.2-.5-.3-1-.4-1.6-.4s-1.1.1-1.7.4c-.5.3-1,.6-1.3,1.1-.3.5-.5,1.1-.5,1.8Z"/>
      <path class="st4" d="M85.2,227.6v-16.8h2.1v2.2c.1,0,.1,14.6.1,14.6h-2.3ZM91.5,223.1c-1,0-1.9-.3-2.6-.8s-1.3-1.3-1.7-2.2c-.4-.9-.6-2-.6-3.3s.2-2.4.6-3.3c.4-.9,1-1.7,1.7-2.2s1.6-.8,2.6-.8,2,.3,2.8.8c.8.5,1.5,1.3,1.9,2.2.5.9.7,2,.7,3.3s-.2,2.3-.7,3.3-1.1,1.7-1.9,2.2c-.8.5-1.8.8-2.8.8ZM90.9,221c.7,0,1.4-.2,1.9-.5.5-.4,1-.9,1.3-1.5.3-.6.5-1.4.5-2.2s-.2-1.6-.5-2.2c-.3-.6-.7-1.1-1.3-1.5-.5-.4-1.2-.5-1.9-.5s-1.2.2-1.8.5c-.5.4-.9.9-1.2,1.5-.3.6-.4,1.4-.4,2.2s.1,1.6.4,2.2.7,1.1,1.2,1.5c.5.4,1.1.5,1.8.5Z"/>
      <path class="st4" d="M99.4,222.8v-12h2.3v12h-2.3ZM100.8,216.4c0-1.3.2-2.4.7-3.2s1.1-1.4,1.9-1.8c.8-.4,1.6-.6,2.5-.6v2.2c-.7,0-1.4.1-2.1.3-.6.2-1.2.6-1.6,1.1s-.6,1.1-.6,2h-.9Z"/>
      <path class="st4" d="M113.1,223.1c-1.2,0-2.2-.3-3.1-.8-.9-.5-1.6-1.3-2.1-2.2-.5-.9-.8-2-.8-3.3s.3-2.3.8-3.3,1.2-1.7,2.1-2.2c.9-.5,1.9-.8,3.1-.8s2.1.3,2.9.8,1.5,1.3,2,2.4c.5,1,.7,2.2.7,3.6h-9.7l.4-.4c0,.8.2,1.6.5,2.2s.8,1.1,1.4,1.4c.6.3,1.2.5,2,.5s1.5-.2,2-.6c.5-.4,1-.9,1.3-1.4l2,.9c-.3.6-.7,1.2-1.2,1.6-.5.5-1.1.8-1.8,1.1-.7.3-1.5.4-2.3.4ZM109.5,215.9l-.5-.4h7.6l-.4.4c0-.7-.1-1.3-.4-1.8-.3-.5-.7-.9-1.2-1.2-.5-.3-1-.4-1.6-.4s-1.1.1-1.7.4c-.5.3-1,.6-1.3,1.1-.3.5-.5,1.1-.5,1.8Z"/>
      <path class="st4" d="M125.2,223.1c-.8,0-1.6-.1-2.3-.4s-1.2-.6-1.7-1-.8-.9-1-1.5l2-.9c.3.5.6.9,1.2,1.2.5.3,1.1.5,1.7.5s1.3-.1,1.7-.4c.4-.3.7-.6.7-1.1s-.2-.8-.5-1.1c-.3-.3-.8-.5-1.5-.6l-1.1-.3c-1.1-.3-2-.8-2.6-1.4s-.9-1.3-.9-2.1c0-1.2.4-2.1,1.1-2.7.8-.6,1.9-1,3.3-1s1.4.1,2,.3c.6.2,1.1.5,1.5.9s.7.8.9,1.4l-1.9.9c-.2-.5-.5-.8-1-1.1-.5-.2-1-.3-1.6-.3s-1.1.1-1.5.4c-.4.3-.6.7-.6,1.2s.2.5.5.8c.3.2.8.5,1.4.6l1.3.3c.8.2,1.4.5,1.9.9.5.4.9.8,1.2,1.3.3.5.4,1,.4,1.5s-.2,1.3-.6,1.9c-.4.5-.9.9-1.6,1.2-.7.3-1.5.4-2.3.4Z"/>
      <path class="st4" d="M137.4,223.1c-1.2,0-2.2-.3-3.1-.8-.9-.5-1.6-1.3-2.1-2.2-.5-.9-.8-2-.8-3.3s.3-2.3.8-3.3c.5-.9,1.2-1.7,2.1-2.2.9-.5,1.9-.8,3.1-.8s2.1.3,2.9.8,1.5,1.3,2,2.4c.5,1,.7,2.2.7,3.6h-9.7l.4-.4c0,.8.2,1.6.5,2.2.3.6.8,1.1,1.4,1.4.6.3,1.2.5,2,.5s1.5-.2,2-.6c.5-.4,1-.9,1.3-1.4l2,.9c-.3.6-.7,1.2-1.2,1.6-.5.5-1.1.8-1.8,1.1-.7.3-1.5.4-2.3.4ZM133.9,215.9l-.5-.4h7.6l-.4.4c0-.7-.1-1.3-.4-1.8-.3-.5-.7-.9-1.2-1.2-.5-.3-1-.4-1.6-.4s-1.1.1-1.7.4c-.5.3-1,.6-1.3,1.1-.3.5-.5,1.1-.5,1.8Z"/>
      <path class="st4" d="M145.2,222.8v-12h2.1v2.2c.1,0,.1,9.8.1,9.8h-2.3ZM153.5,216.7c0-1.1-.1-1.9-.4-2.5-.2-.6-.6-1-1-1.2-.4-.2-.9-.3-1.5-.4-1,0-1.7.3-2.3,1-.5.7-.8,1.7-.8,2.9h-1c0-1.3.2-2.3.6-3.3.4-.9.9-1.6,1.6-2.1.7-.5,1.5-.7,2.5-.7s1.8.2,2.5.6,1.2,1,1.6,1.8.6,1.9.6,3.2v.6h-2.3ZM153.5,222.8v-6.1h2.3v6.1h-2.3Z"/>
    </g>
    <g class="st3">
      <path class="st4" d="M157.5,212.8v-2h7.7v2h-7.7ZM163.3,223.1c-1.2,0-2.1-.3-2.8-.9-.7-.6-1-1.5-1-2.7v-12.5h2.3v12.1c0,.6.1,1,.4,1.4.3.3.7.5,1.3.5s.3,0,.5,0c.2,0,.4-.2.7-.4l.9,1.8c-.4.3-.8.5-1.2.6s-.8.2-1.1.2Z"/>
    </g>
    <g class="st3">
      <path class="st4" d="M171.7,223.1c-1.4,0-2.5-.3-3.3-1-.8-.6-1.2-1.5-1.2-2.7s.4-2.2,1.2-2.8c.8-.6,2-1,3.4-1h3.3v1.8h-2.7c-1.1,0-1.9.2-2.3.5-.4.3-.7.8-.7,1.4s.2,1,.6,1.3c.4.3,1,.5,1.8.5s1.2-.1,1.7-.4c.5-.3.9-.7,1.1-1.2.3-.5.4-1.1.4-1.8h.8c0,1.6-.3,2.9-1,3.9-.7,1-1.8,1.4-3.2,1.4ZM175.2,222.8v-2.1c0,0,0-4.2,0-4.2,0-.9,0-1.6-.3-2.2s-.5-1-.9-1.3c-.4-.3-.9-.5-1.6-.5s-1.2.1-1.6.4c-.5.3-.8.7-1.1,1.2l-2-.8c.3-.5.6-1,1.1-1.5.4-.4,1-.8,1.6-1s1.3-.4,2.1-.4,2.1.2,2.8.7c.8.4,1.3,1.1,1.7,1.9s.6,1.9.5,3.1v6.5h-2.1Z"/>
      <path class="st4" d="M180.2,222.8v-12h2.1v1.7c.5-.6,1-1.1,1.5-1.5s1.2-.5,2-.5,1.8.2,2.4.7c.7.4,1.2,1.1,1.5,2,.4-.9.8-1.5,1.5-2,.6-.5,1.4-.7,2.3-.7,1.4,0,2.4.4,3.2,1.3.8.9,1.1,2.3,1.1,4.1v6.9h-2.3v-6.1c0-1.1-.1-1.9-.3-2.5-.2-.6-.5-1-.9-1.2-.4-.2-.8-.3-1.3-.4-.9,0-1.6.3-2.1,1-.5.7-.7,1.7-.7,2.9v6.2h-2.3v-6.1c0-1.1-.1-1.9-.3-2.5-.2-.6-.5-1-.9-1.2-.4-.2-.8-.3-1.4-.4-.9,0-1.6.3-2.1,1-.5.7-.7,1.7-.7,2.9v6.2h-2.3Z"/>
      <path class="st4" d="M206.6,222.8v-12h2.3v12h-2.3ZM208,216.4c0-1.3.2-2.4.7-3.2s1.1-1.4,1.9-1.8c.8-.4,1.6-.6,2.5-.6v2.2c-.7,0-1.4.1-2.1.3-.6.2-1.2.6-1.6,1.1s-.6,1.1-.6,2h-.9Z"/>
      <path class="st4" d="M216.3,208.3c-.4,0-.7-.1-1-.4-.3-.3-.4-.6-.4-1s.1-.7.4-1c.3-.3.6-.4,1-.4s.7.1,1,.4.4.6.4,1-.1.7-.4,1c-.3.3-.6.4-1,.4ZM215.2,222.8v-12h2.3v12h-2.3Z"/>
      <path class="st4" d="M225.1,223.1c-.8,0-1.6-.1-2.3-.4s-1.2-.6-1.7-1-.8-.9-1-1.5l2-.9c.3.5.6.9,1.2,1.2.5.3,1.1.5,1.7.5s1.3-.1,1.7-.4.7-.6.7-1.1-.2-.8-.5-1.1c-.3-.3-.8-.5-1.5-.6l-1.1-.3c-1.1-.3-2-.8-2.6-1.4-.6-.6-.9-1.3-.9-2.1,0-1.2.4-2.1,1.1-2.7.8-.6,1.9-1,3.3-1s1.4.1,2,.3c.6.2,1.1.5,1.5.9s.7.8.9,1.4l-1.9.9c-.2-.5-.5-.8-1-1.1-.5-.2-1-.3-1.6-.3s-1.1.1-1.5.4c-.4.3-.6.7-.6,1.2s.2.5.5.8c.3.2.8.5,1.4.6l1.3.3c.8.2,1.4.5,1.9.9.5.4.9.8,1.2,1.3.3.5.4,1,.4,1.5s-.2,1.3-.6,1.9c-.4.5-.9.9-1.6,1.2-.7.3-1.5.4-2.3.4Z"/>
      <path class="st4" d="M237.4,223.1c-1.2,0-2.3-.3-3.2-.8-.9-.5-1.7-1.3-2.2-2.2-.5-.9-.8-2-.8-3.3s.3-2.3.8-3.3c.5-.9,1.2-1.7,2.2-2.2.9-.5,2-.8,3.2-.8s2.2.3,3.2.8c.9.5,1.6,1.3,2.1,2.3l-2.1.9c-.3-.6-.7-1.1-1.3-1.4s-1.2-.5-2-.5-1.4.2-1.9.5c-.6.4-1,.8-1.3,1.5-.3.6-.5,1.4-.5,2.2s.2,1.5.5,2.2c.3.6.8,1.1,1.3,1.5.6.4,1.2.5,1.9.5s1.4-.2,2-.6c.6-.4,1-.9,1.3-1.5l2.1.8c-.5,1.1-1.2,1.9-2.1,2.5-.9.6-2,.9-3.2.9Z"/>
      <path class="st4" d="M250.4,223.1c-1.2,0-2.3-.3-3.2-.8-.9-.5-1.6-1.3-2.1-2.2-.5-.9-.8-2-.8-3.3s.3-2.3.8-3.3,1.2-1.7,2.1-2.2c.9-.5,2-.8,3.1-.8s2.2.3,3.1.8c.9.5,1.6,1.3,2.1,2.2.5.9.8,2,.8,3.3s-.3,2.3-.8,3.3c-.5.9-1.2,1.7-2.1,2.2-.9.5-1.9.8-3.1.8ZM250.4,221c.7,0,1.4-.2,1.9-.5.6-.4,1-.9,1.3-1.5.3-.6.5-1.4.5-2.2s-.2-1.6-.5-2.2c-.3-.6-.8-1.1-1.3-1.5-.6-.4-1.2-.5-1.9-.5s-1.4.2-1.9.5c-.6.4-1,.9-1.3,1.5-.3.6-.5,1.4-.5,2.2s.2,1.6.5,2.2c.3.6.8,1.1,1.3,1.5.6.4,1.2.5,2,.5Z"/>
      <path class="st4" d="M263.2,223.1c-.8,0-1.6-.1-2.3-.4s-1.2-.6-1.7-1-.8-.9-1-1.5l2-.9c.3.5.6.9,1.2,1.2.5.3,1.1.5,1.7.5s1.3-.1,1.7-.4c.4-.3.7-.6.7-1.1s-.2-.8-.5-1.1c-.3-.3-.8-.5-1.5-.6l-1.1-.3c-1.1-.3-2-.8-2.6-1.4s-.9-1.3-.9-2.1c0-1.2.4-2.1,1.1-2.7.8-.6,1.9-1,3.3-1s1.4.1,2,.3c.6.2,1.1.5,1.5.9s.7.8.9,1.4l-1.9.9c-.2-.5-.5-.8-1-1.1-.5-.2-1-.3-1.6-.3s-1.1.1-1.5.4c-.4.3-.6.7-.6,1.2s.2.5.5.8c.3.2.8.5,1.4.6l1.3.3c.8.2,1.4.5,1.9.9.5.4.9.8,1.2,1.3.3.5.4,1,.4,1.5s-.2,1.3-.6,1.9c-.4.5-.9.9-1.6,1.2-.7.3-1.5.4-2.3.4Z"/>
      <path class="st4" d="M279.8,223.1c-1.4,0-2.5-.3-3.3-1-.8-.6-1.2-1.5-1.2-2.7s.4-2.2,1.2-2.8c.8-.6,2-1,3.4-1h3.3v1.8h-2.7c-1.1,0-1.9.2-2.3.5-.4.3-.7.8-.7,1.4s.2,1,.6,1.3c.4.3,1,.5,1.8.5s1.2-.1,1.7-.4c.5-.3.9-.7,1.1-1.2.3-.5.4-1.1.4-1.8h.8c0,1.6-.3,2.9-1,3.9-.7,1-1.8,1.4-3.2,1.4ZM283.3,222.8v-2.1c0,0,0-4.2,0-4.2,0-.9,0-1.6-.3-2.2s-.5-1-.9-1.3c-.4-.3-.9-.5-1.6-.5s-1.2.1-1.6.4c-.5.3-.8.7-1.1,1.2l-2-.8c.3-.5.6-1,1.1-1.5.4-.4,1-.8,1.6-1s1.3-.4,2.1-.4,2.1.2,2.8.7c.8.4,1.3,1.1,1.7,1.9s.6,1.9.5,3.1v6.5h-2.1ZM280.5,209.2l-3.1-3.2h2.8l2.9,3.2h-2.5Z"/>
    </g>
    <g class="st3">
      <path class="st4" d="M99.6,251.1c-.8,0-1.6-.1-2.3-.4s-1.2-.6-1.7-1-.8-.9-1-1.5l2-.9c.3.5.6.9,1.2,1.2.5.3,1.1.5,1.7.5s1.3-.1,1.7-.4c.4-.3.7-.6.7-1.1s-.2-.8-.5-1.1c-.3-.3-.8-.5-1.5-.6l-1.1-.3c-1.1-.3-2-.8-2.6-1.4-.6-.6-.9-1.3-.9-2.1,0-1.2.4-2.1,1.1-2.7.8-.6,1.9-1,3.3-1s1.4.1,2,.3,1.1.5,1.5.9.7.8.9,1.4l-1.9.9c-.2-.5-.5-.8-1-1.1-.5-.2-1-.3-1.6-.3s-1.1.1-1.5.4c-.4.3-.6.7-.6,1.2s.2.5.5.8.8.5,1.4.6l1.3.3c.8.2,1.4.5,1.9.9.5.4.9.8,1.2,1.3.3.5.4,1,.4,1.5s-.2,1.3-.6,1.9c-.4.5-.9.9-1.6,1.2-.7.3-1.5.4-2.3.4Z"/>
      <path class="st4" d="M110.4,251.1c-1.4,0-2.5-.3-3.3-1-.8-.6-1.2-1.5-1.2-2.7s.4-2.2,1.2-2.8c.8-.6,2-1,3.4-1h3.3v1.8h-2.7c-1.1,0-1.9.2-2.3.5-.4.3-.7.8-.7,1.4s.2,1,.6,1.3c.4.3,1,.5,1.8.5s1.2-.1,1.7-.4c.5-.3.9-.7,1.1-1.2.3-.5.4-1.1.4-1.8h.8c0,1.6-.3,2.9-1,3.9s-1.8,1.4-3.2,1.4ZM113.9,250.8v-2.1c0,0,0-4.2,0-4.2,0-.9-.1-1.6-.3-2.2-.2-.6-.5-1-.9-1.3-.4-.3-.9-.5-1.6-.5s-1.2.1-1.6.4c-.5.3-.8.7-1.1,1.2l-2-.8c.3-.5.6-1,1.1-1.5.4-.4,1-.8,1.6-1,.6-.2,1.3-.4,2.1-.4s2.1.2,2.8.7c.8.4,1.3,1.1,1.7,1.9s.6,1.9.5,3.1v6.5h-2.1Z"/>
      <path class="st4" d="M118.6,245v-6.1h2.3v6.1h-2.3ZM120.9,245c0,1.1.1,1.9.4,2.5.2.6.6,1,1,1.2.4.2,1,.3,1.5.4,1,0,1.7-.3,2.3-1,.5-.7.8-1.7.8-2.9h1c0,1.3-.2,2.3-.6,3.3-.4.9-.9,1.6-1.6,2.1-.7.5-1.5.7-2.5.7s-1.7-.2-2.4-.6c-.7-.4-1.2-1-1.6-1.8-.4-.8-.6-1.9-.6-3.2v-.6h2.3ZM122.3,237.2l2.8-3.2h2.8l-3.1,3.2h-2.5ZM127.1,250.8v-2.2c-.1,0-.1-9.8-.1-9.8h2.3v12h-2.1Z"/>
      <path class="st4" d="M137.1,251.1c-1.1,0-2-.3-2.8-.8-.8-.5-1.4-1.3-1.9-2.2-.5-.9-.7-2-.7-3.3s.2-2.4.7-3.3c.5-.9,1.1-1.7,1.9-2.2.8-.5,1.8-.8,2.8-.8s1.9.3,2.6.8c.7.5,1.3,1.3,1.7,2.2.4.9.6,2,.6,3.3s-.2,2.3-.6,3.3c-.4.9-1,1.7-1.7,2.2-.7.5-1.6.8-2.6.8ZM137.7,249c.7,0,1.3-.2,1.8-.5.5-.4.9-.9,1.2-1.5s.4-1.4.4-2.2-.1-1.6-.4-2.2c-.3-.6-.7-1.1-1.2-1.5-.5-.4-1.1-.5-1.8-.5s-1.3.2-1.9.5c-.5.4-1,.9-1.3,1.5-.3.6-.5,1.4-.5,2.2s.2,1.6.5,2.2.7,1.1,1.3,1.5c.5.4,1.2.5,1.9.5ZM141.2,250.8v-2.2c0,0,0-14.6,0-14.6h2.3v16.8h-2.2Z"/>
      <path class="st4" d="M151.8,251.1c-1.2,0-2.2-.3-3.1-.8-.9-.5-1.6-1.3-2.1-2.2-.5-.9-.8-2-.8-3.3s.3-2.3.8-3.3c.5-.9,1.2-1.7,2.1-2.2.9-.5,1.9-.8,3.1-.8s2.1.3,2.9.8,1.5,1.3,2,2.4c.5,1,.7,2.2.7,3.6h-9.7l.4-.4c0,.8.2,1.6.5,2.2.3.6.8,1.1,1.4,1.4.6.3,1.2.5,2,.5s1.5-.2,2-.6c.5-.4,1-.9,1.3-1.4l2,.9c-.3.6-.7,1.2-1.2,1.6-.5.5-1.1.8-1.8,1.1s-1.5.4-2.3.4ZM148.3,243.9l-.5-.4h7.6l-.4.4c0-.7-.1-1.3-.4-1.8-.3-.5-.7-.9-1.2-1.2-.5-.3-1-.4-1.6-.4s-1.1.1-1.7.4c-.5.3-1,.6-1.3,1.1-.3.5-.5,1.1-.5,1.8Z"/>
      <path class="st4" d="M165.5,250.8v-16.8h2.3v16.8h-2.3ZM173.8,244.7c0-1.1-.1-1.9-.4-2.5-.3-.6-.6-1-1-1.2-.4-.2-.9-.3-1.5-.4-1,0-1.8.3-2.3,1-.5.7-.8,1.7-.8,2.9h-1c0-1.3.2-2.3.6-3.3.4-.9.9-1.6,1.6-2.1.7-.5,1.5-.7,2.5-.7s1.8.2,2.4.6,1.2,1,1.6,1.8c.4.8.6,1.9.6,3.2v.6h-2.3ZM173.8,250.8v-6.1h2.3v6.1h-2.3Z"/>
      <path class="st4" d="M178.7,245v-6.1h2.3v6.1h-2.3ZM181,245c0,1.1.1,1.9.4,2.5s.6,1,1,1.2,1,.3,1.5.4c1,0,1.7-.3,2.3-1,.5-.7.8-1.7.8-2.9h1c0,1.3-.2,2.3-.6,3.3-.4.9-.9,1.6-1.6,2.1-.7.5-1.5.7-2.5.7s-1.7-.2-2.4-.6c-.7-.4-1.2-1-1.6-1.8-.4-.8-.6-1.9-.6-3.2v-.6h2.3ZM187.1,250.8v-2.2c-.1,0-.1-9.8-.1-9.8h2.3v12h-2.1Z"/>
      <path class="st4" d="M192.4,250.8v-12h2.1v1.7c.5-.6,1-1.1,1.5-1.5.6-.3,1.2-.5,2-.5s1.8.2,2.4.7c.7.4,1.2,1.1,1.5,2,.4-.9.8-1.5,1.5-2,.6-.5,1.4-.7,2.3-.7,1.4,0,2.4.4,3.2,1.3.8.9,1.1,2.3,1.1,4.1v6.9h-2.3v-6.1c0-1.1-.1-1.9-.3-2.5-.2-.6-.5-1-.9-1.2-.4-.2-.8-.3-1.3-.4-.9,0-1.6.3-2.1,1-.5.7-.7,1.7-.7,2.9v6.2h-2.3v-6.1c0-1.1-.1-1.9-.3-2.5-.2-.6-.5-1-.9-1.2-.4-.2-.8-.3-1.4-.4-.9,0-1.6.3-2.1,1-.5.7-.7,1.7-.7,2.9v6.2h-2.3Z"/>
      <path class="st4" d="M216.8,251.1c-1.4,0-2.5-.3-3.3-1-.8-.6-1.2-1.5-1.2-2.7s.4-2.2,1.2-2.8c.8-.6,2-1,3.4-1h3.3v1.8h-2.7c-1.1,0-1.9.2-2.3.5-.4.3-.7.8-.7,1.4s.2,1,.6,1.3c.4.3,1,.5,1.8.5s1.2-.1,1.7-.4c.5-.3.9-.7,1.1-1.2.3-.5.4-1.1.4-1.8h.8c0,1.6-.3,2.9-1,3.9-.7,1-1.8,1.4-3.2,1.4ZM220.4,250.8v-2.1c0,0,0-4.2,0-4.2,0-.9,0-1.6-.3-2.2-.2-.6-.5-1-.9-1.3-.4-.3-.9-.5-1.6-.5s-1.2.1-1.6.4c-.5.3-.8.7-1.1,1.2l-2-.8c.3-.5.6-1,1.1-1.5.4-.4,1-.8,1.6-1,.6-.2,1.3-.4,2.1-.4s2.1.2,2.8.7c.8.4,1.3,1.1,1.7,1.9s.6,1.9.5,3.1v6.5h-2.1Z"/>
      <path class="st4" d="M225.4,250.8v-12h2.1v2.2c.1,0,.1,9.8.1,9.8h-2.3ZM233.7,244.7c0-1.1-.1-1.9-.4-2.5-.2-.6-.6-1-1-1.2-.4-.2-.9-.3-1.5-.4-1,0-1.7.3-2.3,1-.5.7-.8,1.7-.8,2.9h-1c0-1.3.2-2.3.6-3.3.4-.9.9-1.6,1.6-2.1.7-.5,1.5-.7,2.5-.7s1.8.2,2.5.6,1.2,1,1.6,1.8c.4.8.6,1.9.6,3.2v.6h-2.3ZM233.7,250.8v-6.1h2.3v6.1h-2.3Z"/>
      <path class="st4" d="M242.7,251.1c-1.4,0-2.5-.3-3.3-1-.8-.6-1.2-1.5-1.2-2.7s.4-2.2,1.2-2.8c.8-.6,2-1,3.4-1h3.3v1.8h-2.7c-1.1,0-1.9.2-2.3.5-.4.3-.7.8-.7,1.4s.2,1,.6,1.3c.4.3,1,.5,1.8.5s1.2-.1,1.7-.4c.5-.3.9-.7,1.1-1.2.3-.5.4-1.1.4-1.8h.8c0,1.6-.3,2.9-1,3.9-.7,1-1.8,1.4-3.2,1.4ZM246.2,250.8v-2.1c0,0,0-4.2,0-4.2,0-.9,0-1.6-.3-2.2-.2-.6-.5-1-.9-1.3-.4-.3-.9-.5-1.6-.5s-1.2.1-1.6.4c-.5.3-.8.7-1.1,1.2l-2-.8c.3-.5.6-1,1.1-1.5.4-.4,1-.8,1.6-1,.6-.2,1.3-.4,2.1-.4s2.1.2,2.8.7c.8.4,1.3,1.1,1.7,1.9s.6,1.9.5,3.1v6.5h-2.1Z"/>
      <path class="st4" d="M252.3,251.2c-.4,0-.7-.1-1-.4-.3-.3-.4-.6-.4-1.1s.1-.8.4-1.1c.3-.3.6-.4,1-.4s.8.1,1.1.4c.3.3.4.6.4,1.1s-.1.8-.4,1.1c-.3.3-.7.4-1.1.4Z"/>
    </g>
  </g>
</svg>