<?xml version="1.0" encoding="UTF-8"?>
<svg id="Camada_1" xmlns="http://www.w3.org/2000/svg" version="1.1" xmlns:xlink="http://www.w3.org/1999/xlink" viewBox="0 0 350 350">
  <!-- Generator: Adobe Illustrator 29.5.0, SVG Export Plug-In . SVG Version: 2.1.0 Build 137)  -->
  <defs>
    <style>
      .st0 {
        opacity: .4;
      }

      .st1 {
        fill: none;
      }

      .st2 {
        clip-path: url(#clippath-1);
      }

      .st3 {
        isolation: isolate;
      }

      .st4 {
        fill: #1d1d1b;
      }

      .st5 {
        clip-path: url(#clippath-2);
      }

      .st6 {
        clip-path: url(#clippath);
      }
    </style>
    <clipPath id="clippath">
      <rect class="st1" x="-.8" y="-.9" width="352" height="352"/>
    </clipPath>
    <clipPath id="clippath-1">
      <rect class="st1" x="-5.8" y="-5.9" width="362" height="362"/>
    </clipPath>
    <clipPath id="clippath-2">
      <rect class="st1" x="-5.8" y="-5.9" width="362" height="362"/>
    </clipPath>
  </defs>
  <g class="st0">
    <g class="st6">
      <g class="st2">
        <g class="st5">
          <image class="st3" width="755" height="755" transform="translate(-5.9 -6.2) scale(.5)" xlink:href="card2_03verso-1.png"/>
        </g>
      </g>
    </g>
  </g>
  <g class="st3">
    <g class="st3">
      <path class="st4" d="M40.3,43.1c-1.6,0-3-.4-4.3-1.1s-2.2-1.8-2.9-3.1c-.7-1.3-1.1-2.8-1.1-4.5s.4-3.2,1.1-4.5c.7-1.3,1.7-2.3,2.9-3.1,1.2-.7,2.6-1.1,4.2-1.1s2,.2,3,.6c.9.4,1.8.9,2.5,1.6s1.3,1.4,1.7,2.3l-2.1,1c-.3-.7-.7-1.2-1.2-1.7-.5-.5-1.1-.9-1.8-1.1-.7-.3-1.4-.4-2.1-.4-1.1,0-2.1.3-3,.8-.9.6-1.6,1.3-2.1,2.3-.5,1-.7,2.1-.7,3.4s.3,2.4.8,3.4c.5,1,1.2,1.8,2.1,2.3.9.6,1.9.8,3,.8s1.4-.1,2.1-.4c.7-.3,1.2-.7,1.8-1.2.5-.5.9-1.1,1.3-1.8l2.1.9c-.4.9-1,1.7-1.7,2.4-.7.7-1.6,1.3-2.5,1.6s-2,.6-3,.6Z"/>
      <path class="st4" d="M55.4,43.1c-1.2,0-2.3-.3-3.2-.8-.9-.5-1.6-1.3-2.1-2.2-.5-.9-.8-2-.8-3.3s.3-2.3.8-3.3c.5-.9,1.2-1.7,2.1-2.2.9-.5,2-.8,3.1-.8s2.2.3,3.1.8c.9.5,1.6,1.3,2.1,2.2.5.9.8,2,.8,3.3s-.3,2.3-.8,3.3c-.5.9-1.2,1.7-2.1,2.2-.9.5-1.9.8-3.1.8ZM55.4,41c.7,0,1.4-.2,1.9-.5.6-.4,1-.9,1.3-1.5s.5-1.4.5-2.2-.2-1.6-.5-2.2-.8-1.1-1.3-1.5c-.6-.4-1.2-.5-1.9-.5s-1.4.2-1.9.5c-.6.4-1,.9-1.3,1.5-.3.6-.5,1.4-.5,2.2s.2,1.6.5,2.2c.3.6.8,1.1,1.3,1.5.6.4,1.2.5,2,.5Z"/>
      <path class="st4" d="M63.9,42.8v-12h2.1v2.2c.1,0,.1,9.8.1,9.8h-2.3ZM72.2,36.7c0-1.1-.1-1.9-.4-2.5-.2-.6-.6-1-1-1.2-.4-.2-.9-.3-1.5-.4-1,0-1.7.3-2.3,1-.5.7-.8,1.7-.8,2.9h-1c0-1.3.2-2.3.6-3.3.4-.9.9-1.6,1.6-2.1.7-.5,1.5-.7,2.5-.7s1.8.2,2.5.6c.7.4,1.2,1,1.6,1.8s.6,1.9.6,3.2v.6h-2.3ZM72.2,42.8v-6.1h2.3v6.1h-2.3Z"/>
      <path class="st4" d="M81.7,43.1c-.8,0-1.6-.1-2.3-.4s-1.2-.6-1.7-1-.8-.9-1-1.5l2-.9c.3.5.6.9,1.2,1.2.5.3,1.1.5,1.7.5s1.3-.1,1.7-.4c.4-.3.7-.6.7-1.1s-.2-.8-.5-1.1c-.3-.3-.8-.5-1.5-.6l-1.1-.3c-1.1-.3-2-.8-2.6-1.4-.6-.6-.9-1.3-.9-2.1,0-1.2.4-2.1,1.1-2.7.8-.6,1.9-1,3.3-1s1.4.1,2,.3,1.1.5,1.5.9.7.8.9,1.4l-1.9.9c-.2-.5-.5-.8-1-1.1-.5-.2-1-.3-1.6-.3s-1.1.1-1.5.4c-.4.3-.6.7-.6,1.2s.2.5.5.8.8.5,1.4.6l1.3.3c.8.2,1.4.5,1.9.9.5.4.9.8,1.2,1.3.3.5.4,1,.4,1.5s-.2,1.3-.6,1.9c-.4.5-.9.9-1.6,1.2-.7.3-1.5.4-2.3.4Z"/>
      <path class="st4" d="M89.8,28.3c-.4,0-.7-.1-1-.4s-.4-.6-.4-1,.1-.7.4-1c.3-.3.6-.4,1-.4s.7.1,1,.4c.3.3.4.6.4,1s-.1.7-.4,1-.6.4-1,.4ZM88.7,42.8v-12h2.3v12h-2.3Z"/>
      <path class="st4" d="M98.6,43.1c-.8,0-1.6-.1-2.3-.4s-1.2-.6-1.7-1-.8-.9-1-1.5l2-.9c.3.5.6.9,1.2,1.2.5.3,1.1.5,1.7.5s1.3-.1,1.7-.4c.4-.3.7-.6.7-1.1s-.2-.8-.5-1.1c-.3-.3-.8-.5-1.5-.6l-1.1-.3c-1.1-.3-2-.8-2.6-1.4-.6-.6-.9-1.3-.9-2.1,0-1.2.4-2.1,1.1-2.7.8-.6,1.9-1,3.3-1s1.4.1,2,.3,1.1.5,1.5.9.7.8.9,1.4l-1.9.9c-.2-.5-.5-.8-1-1.1-.5-.2-1-.3-1.6-.3s-1.1.1-1.5.4c-.4.3-.6.7-.6,1.2s.2.5.5.8.8.5,1.4.6l1.3.3c.8.2,1.4.5,1.9.9.5.4.9.8,1.2,1.3.3.5.4,1,.4,1.5s-.2,1.3-.6,1.9c-.4.5-.9.9-1.6,1.2-.7.3-1.5.4-2.3.4Z"/>
    </g>
    <g class="st3">
      <path class="st4" d="M104.3,32.8v-2h7.7v2h-7.7ZM110.1,43.1c-1.2,0-2.1-.3-2.8-.9-.7-.6-1-1.5-1-2.7v-12.5h2.3v12.1c0,.6.1,1,.4,1.4.3.3.7.5,1.3.5s.3,0,.5,0c.2,0,.4-.2.7-.4l.9,1.8c-.4.3-.8.5-1.2.6s-.8.2-1.1.2Z"/>
    </g>
    <g class="st3">
      <path class="st4" d="M119.9,43.1c-1.2,0-2.2-.3-3.1-.8-.9-.5-1.6-1.3-2.1-2.2-.5-.9-.8-2-.8-3.3s.3-2.3.8-3.3c.5-.9,1.2-1.7,2.1-2.2.9-.5,1.9-.8,3.1-.8s2.1.3,2.9.8,1.5,1.3,2,2.4c.5,1,.7,2.2.7,3.6h-9.7l.4-.4c0,.8.2,1.6.5,2.2.3.6.8,1.1,1.4,1.4.6.3,1.2.5,2,.5s1.5-.2,2-.6c.5-.4,1-.9,1.3-1.4l2,.9c-.3.6-.7,1.2-1.2,1.6-.5.5-1.1.8-1.8,1.1s-1.5.4-2.3.4ZM116.4,35.8l-.5-.4h7.6l-.4.4c0-.7-.1-1.3-.4-1.8-.3-.5-.7-.9-1.2-1.2-.5-.3-1-.4-1.6-.4s-1.1.1-1.7.4c-.5.3-1,.6-1.3,1.1-.3.5-.5,1.1-.5,1.8Z"/>
      <path class="st4" d="M127.8,42.8v-12h2.1v1.7c.5-.6,1-1.1,1.5-1.5.6-.3,1.2-.5,2-.5s1.8.2,2.4.7c.7.4,1.2,1.1,1.5,2,.4-.9.8-1.5,1.5-2,.6-.5,1.4-.7,2.3-.7,1.4,0,2.4.4,3.2,1.3s1.1,2.3,1.1,4.1v6.9h-2.3v-6.1c0-1.1-.1-1.9-.3-2.5-.2-.6-.5-1-.9-1.2-.4-.2-.8-.3-1.3-.4-.9,0-1.6.3-2.1,1-.5.7-.7,1.7-.7,2.9v6.2h-2.3v-6.1c0-1.1-.1-1.9-.3-2.5-.2-.6-.5-1-.9-1.2-.4-.2-.8-.3-1.4-.4-.9,0-1.6.3-2.1,1-.5.7-.7,1.7-.7,2.9v6.2h-2.3Z"/>
      <path class="st4" d="M159.5,43.1c-1.2,0-2.2-.3-3.1-.8-.9-.5-1.6-1.3-2.1-2.2-.5-.9-.8-2-.8-3.3s.3-2.3.8-3.3c.5-.9,1.2-1.7,2.1-2.2.9-.5,1.9-.8,3.1-.8s2.1.3,2.9.8,1.5,1.3,2,2.4c.5,1,.7,2.2.7,3.6h-9.7l.4-.4c0,.8.2,1.6.5,2.2.3.6.8,1.1,1.4,1.4.6.3,1.2.5,2,.5s1.5-.2,2-.6c.5-.4,1-.9,1.3-1.4l2,.9c-.3.6-.7,1.2-1.2,1.6-.5.5-1.1.8-1.8,1.1s-1.5.4-2.3.4ZM156,35.8l-.5-.4h7.6l-.4.4c0-.7-.1-1.3-.4-1.8-.3-.5-.7-.9-1.2-1.2-.5-.3-1-.4-1.6-.4s-1.1.1-1.7.4c-.5.3-1,.6-1.3,1.1-.3.5-.5,1.1-.5,1.8Z"/>
      <path class="st4" d="M167.3,42.8v-12h2.1v1.7c.5-.6,1-1.1,1.5-1.5.6-.3,1.2-.5,2-.5s1.8.2,2.4.7c.7.4,1.2,1.1,1.5,2,.4-.9.8-1.5,1.5-2,.6-.5,1.4-.7,2.3-.7,1.4,0,2.4.4,3.2,1.3s1.1,2.3,1.1,4.1v6.9h-2.3v-6.1c0-1.1-.1-1.9-.3-2.5-.2-.6-.5-1-.9-1.2-.4-.2-.8-.3-1.3-.4-.9,0-1.6.3-2.1,1-.5.7-.7,1.7-.7,2.9v6.2h-2.3v-6.1c0-1.1-.1-1.9-.3-2.5-.2-.6-.5-1-.9-1.2-.4-.2-.8-.3-1.4-.4-.9,0-1.6.3-2.1,1-.5.7-.7,1.7-.7,2.9v6.2h-2.3Z"/>
      <path class="st4" d="M198.1,43.1c-.8,0-1.6-.1-2.3-.4s-1.2-.6-1.7-1-.8-.9-1-1.5l2-.9c.3.5.6.9,1.2,1.2.5.3,1.1.5,1.7.5s1.3-.1,1.7-.4.7-.6.7-1.1-.2-.8-.5-1.1c-.3-.3-.8-.5-1.5-.6l-1.1-.3c-1.1-.3-2-.8-2.6-1.4-.6-.6-.9-1.3-.9-2.1,0-1.2.4-2.1,1.1-2.7.8-.6,1.9-1,3.3-1s1.4.1,2,.3,1.1.5,1.5.9.7.8.9,1.4l-1.9.9c-.2-.5-.5-.8-1-1.1-.5-.2-1-.3-1.6-.3s-1.1.1-1.5.4c-.4.3-.6.7-.6,1.2s.2.5.5.8.8.5,1.4.6l1.3.3c.8.2,1.4.5,1.9.9.5.4.9.8,1.2,1.3.3.5.4,1,.4,1.5s-.2,1.3-.6,1.9c-.4.5-.9.9-1.6,1.2-.7.3-1.5.4-2.3.4Z"/>
      <path class="st4" d="M204.7,36.9v-6.1h2.3v6.1h-2.3ZM206.9,36.9c0,1.1.1,1.9.4,2.5s.6,1,1,1.2c.4.2,1,.3,1.5.4,1,0,1.7-.3,2.3-1,.5-.7.8-1.7.8-2.9h1c0,1.3-.2,2.3-.6,3.3-.4.9-.9,1.6-1.6,2.1-.7.5-1.5.7-2.5.7s-1.7-.2-2.4-.6c-.7-.4-1.2-1-1.6-1.8-.4-.8-.6-1.9-.6-3.2v-.6h2.3ZM213.1,42.8v-2.2c-.1,0-.1-9.8-.1-9.8h2.3v12h-2.1Z"/>
      <path class="st4" d="M218.4,42.8v-16.8h2.3v16.8h-2.3ZM224.6,43.1c-1,0-1.9-.3-2.6-.8s-1.3-1.3-1.7-2.2-.6-2-.6-3.3.2-2.4.6-3.3c.4-.9,1-1.7,1.7-2.2s1.6-.8,2.6-.8,2,.3,2.8.8c.8.5,1.5,1.3,1.9,2.2.5.9.7,2,.7,3.3s-.2,2.3-.7,3.3c-.5.9-1.1,1.7-1.9,2.2-.8.5-1.8.8-2.8.8ZM224.1,41c.7,0,1.4-.2,1.9-.5.5-.4,1-.9,1.3-1.5s.5-1.4.5-2.2-.2-1.6-.5-2.2c-.3-.6-.7-1.1-1.3-1.5-.5-.4-1.2-.5-1.9-.5s-1.2.2-1.8.5c-.5.4-.9.9-1.2,1.5-.3.6-.4,1.4-.4,2.2s.1,1.6.4,2.2c.3.6.7,1.1,1.2,1.5.5.4,1.1.5,1.8.5Z"/>
      <path class="st4" d="M236.8,43.1c-.8,0-1.6-.1-2.3-.4s-1.2-.6-1.7-1-.8-.9-1-1.5l2-.9c.3.5.6.9,1.2,1.2.5.3,1.1.5,1.7.5s1.3-.1,1.7-.4.7-.6.7-1.1-.2-.8-.5-1.1c-.3-.3-.8-.5-1.5-.6l-1.1-.3c-1.1-.3-2-.8-2.6-1.4-.6-.6-.9-1.3-.9-2.1,0-1.2.4-2.1,1.1-2.7.8-.6,1.9-1,3.3-1s1.4.1,2,.3,1.1.5,1.5.9.7.8.9,1.4l-1.9.9c-.2-.5-.5-.8-1-1.1-.5-.2-1-.3-1.6-.3s-1.1.1-1.5.4c-.4.3-.6.7-.6,1.2s.2.5.5.8.8.5,1.4.6l1.3.3c.8.2,1.4.5,1.9.9.5.4.9.8,1.2,1.3.3.5.4,1,.4,1.5s-.2,1.3-.6,1.9c-.4.5-.9.9-1.6,1.2-.7.3-1.5.4-2.3.4Z"/>
    </g>
    <g class="st3">
      <path class="st4" d="M242.5,32.8v-2h7.7v2h-7.7ZM248.4,43.1c-1.2,0-2.1-.3-2.8-.9-.7-.6-1-1.5-1-2.7v-12.5h2.3v12.1c0,.6.1,1,.4,1.4.3.3.7.5,1.3.5s.3,0,.5,0c.2,0,.4-.2.7-.4l.9,1.8c-.4.3-.8.5-1.2.6s-.8.2-1.1.2Z"/>
    </g>
    <g class="st3">
      <path class="st4" d="M256.7,43.1c-1.4,0-2.5-.3-3.3-1-.8-.6-1.2-1.5-1.2-2.7s.4-2.2,1.2-2.8c.8-.6,2-1,3.4-1h3.3v1.8h-2.7c-1.1,0-1.9.2-2.3.5-.4.3-.7.8-.7,1.4s.2,1,.6,1.3c.4.3,1,.5,1.8.5s1.2-.1,1.7-.4c.5-.3.9-.7,1.1-1.2.3-.5.4-1.1.4-1.8h.8c0,1.6-.3,2.9-1,3.9-.7,1-1.8,1.4-3.2,1.4ZM260.2,42.8v-2.1c0,0,0-4.2,0-4.2,0-.9-.1-1.6-.3-2.2-.2-.6-.5-1-.9-1.3-.4-.3-.9-.5-1.6-.5s-1.2.1-1.6.4-.8.7-1.1,1.2l-2-.8c.3-.5.6-1,1.1-1.5.4-.4,1-.8,1.6-1,.6-.2,1.3-.4,2.1-.4s2.1.2,2.8.7c.8.4,1.3,1.1,1.7,1.9s.6,1.9.5,3.1v6.5h-2.1ZM253,28.9l2.9-3.2h2.6c0,0-3.2,3.2-3.2,3.2h-2.3ZM259.2,28.9l-3.2-3.1h0c0,0,2.6,0,2.6,0l2.9,3.2h-2.4Z"/>
      <path class="st4" d="M265.2,42.8v-12h2.1v2.2c.1,0,.1,9.8.1,9.8h-2.3ZM273.5,36.7c0-1.1-.1-1.9-.4-2.5-.2-.6-.6-1-1-1.2-.4-.2-.9-.3-1.5-.4-1,0-1.7.3-2.3,1-.5.7-.8,1.7-.8,2.9h-1c0-1.3.2-2.3.6-3.3.4-.9.9-1.6,1.6-2.1.7-.5,1.5-.7,2.5-.7s1.8.2,2.5.6,1.2,1,1.6,1.8.6,1.9.6,3.2v.6h-2.3ZM273.5,42.8v-6.1h2.3v6.1h-2.3Z"/>
      <path class="st4" d="M284.1,43.1c-1.2,0-2.3-.3-3.2-.8-.9-.5-1.7-1.3-2.2-2.2-.5-.9-.8-2-.8-3.3s.3-2.3.8-3.3c.5-.9,1.2-1.7,2.2-2.2.9-.5,2-.8,3.2-.8s2.2.3,3.2.8c.9.5,1.6,1.3,2.1,2.3l-2.1.9c-.3-.6-.7-1.1-1.3-1.4-.6-.3-1.2-.5-2-.5s-1.4.2-1.9.5c-.6.4-1,.8-1.3,1.5s-.5,1.4-.5,2.2.2,1.5.5,2.2.8,1.1,1.3,1.5c.6.4,1.2.5,1.9.5s1.4-.2,2-.6,1-.9,1.3-1.5l2.1.8c-.5,1.1-1.2,1.9-2.1,2.5-.9.6-2,.9-3.2.9Z"/>
      <path class="st4" d="M292.9,28.3c-.4,0-.7-.1-1-.4-.3-.3-.4-.6-.4-1s.1-.7.4-1c.3-.3.6-.4,1-.4s.7.1,1,.4c.3.3.4.6.4,1s-.1.7-.4,1c-.3.3-.6.4-1,.4ZM291.8,42.8v-12h2.3v12h-2.3Z"/>
      <path class="st4" d="M301.3,43.1c-1.4,0-2.5-.3-3.3-1-.8-.6-1.2-1.5-1.2-2.7s.4-2.2,1.2-2.8c.8-.6,2-1,3.4-1h3.3v1.8h-2.7c-1.1,0-1.9.2-2.3.5-.4.3-.7.8-.7,1.4s.2,1,.6,1.3c.4.3,1,.5,1.8.5s1.2-.1,1.7-.4c.5-.3.9-.7,1.1-1.2.3-.5.4-1.1.4-1.8h.8c0,1.6-.3,2.9-1,3.9-.7,1-1.8,1.4-3.2,1.4ZM304.8,42.8v-2.1c0,0,0-4.2,0-4.2,0-.9-.1-1.6-.3-2.2-.2-.6-.5-1-.9-1.3-.4-.3-.9-.5-1.6-.5s-1.2.1-1.6.4-.8.7-1.1,1.2l-2-.8c.3-.5.6-1,1.1-1.5.4-.4,1-.8,1.6-1,.6-.2,1.3-.4,2.1-.4s2.1.2,2.8.7c.8.4,1.3,1.1,1.7,1.9s.6,1.9.5,3.1v6.5h-2.1Z"/>
      <path class="st4" d="M314.1,43.1c-.8,0-1.6-.1-2.3-.4s-1.2-.6-1.7-1-.8-.9-1-1.5l2-.9c.3.5.6.9,1.2,1.2.5.3,1.1.5,1.7.5s1.3-.1,1.7-.4c.4-.3.7-.6.7-1.1s-.2-.8-.5-1.1c-.3-.3-.8-.5-1.5-.6l-1.1-.3c-1.1-.3-2-.8-2.6-1.4s-.9-1.3-.9-2.1c0-1.2.4-2.1,1.1-2.7.8-.6,1.9-1,3.3-1s1.4.1,2,.3c.6.2,1.1.5,1.5.9s.7.8.9,1.4l-1.9.9c-.2-.5-.5-.8-1-1.1-.5-.2-1-.3-1.6-.3s-1.1.1-1.5.4c-.4.3-.6.7-.6,1.2s.2.5.5.8c.3.2.8.5,1.4.6l1.3.3c.8.2,1.4.5,1.9.9.5.4.9.8,1.2,1.3.3.5.4,1,.4,1.5s-.2,1.3-.6,1.9c-.4.5-.9.9-1.6,1.2-.7.3-1.5.4-2.3.4Z"/>
    </g>
    <g class="st3">
      <path class="st4" d="M67.6,71.1c-1.2,0-2.3-.3-3.2-.8-.9-.5-1.7-1.3-2.2-2.2-.5-.9-.8-2-.8-3.3s.3-2.3.8-3.3c.5-.9,1.2-1.7,2.2-2.2.9-.5,2-.8,3.2-.8s2.2.3,3.2.8c.9.5,1.6,1.3,2.1,2.3l-2.1.9c-.3-.6-.7-1.1-1.3-1.4s-1.2-.5-2-.5-1.4.2-1.9.5c-.6.4-1,.8-1.3,1.5-.3.6-.5,1.4-.5,2.2s.2,1.5.5,2.2c.3.6.8,1.1,1.3,1.5.6.4,1.2.5,1.9.5s1.4-.2,2-.6c.6-.4,1-.9,1.3-1.5l2.1.8c-.5,1.1-1.2,1.9-2.1,2.5-.9.6-2,.9-3.2.9Z"/>
      <path class="st4" d="M80.5,71.1c-1.2,0-2.3-.3-3.2-.8-.9-.5-1.6-1.3-2.1-2.2-.5-.9-.8-2-.8-3.3s.3-2.3.8-3.3,1.2-1.7,2.1-2.2c.9-.5,2-.8,3.1-.8s2.2.3,3.1.8c.9.5,1.6,1.3,2.1,2.2.5.9.8,2,.8,3.3s-.3,2.3-.8,3.3c-.5.9-1.2,1.7-2.1,2.2-.9.5-1.9.8-3.1.8ZM80.5,69c.7,0,1.4-.2,1.9-.5.6-.4,1-.9,1.3-1.5.3-.6.5-1.4.5-2.2s-.2-1.6-.5-2.2c-.3-.6-.8-1.1-1.3-1.5-.6-.4-1.2-.5-1.9-.5s-1.4.2-1.9.5c-.6.4-1,.9-1.3,1.5-.3.6-.5,1.4-.5,2.2s.2,1.6.5,2.2c.3.6.8,1.1,1.3,1.5.6.4,1.2.5,2,.5Z"/>
      <path class="st4" d="M89,70.8v-12h2.1v1.7c.5-.6,1-1.1,1.5-1.5s1.2-.5,2-.5,1.8.2,2.4.7c.7.4,1.2,1.1,1.5,2,.4-.9.8-1.5,1.5-2,.6-.5,1.4-.7,2.3-.7,1.4,0,2.4.4,3.2,1.3.8.9,1.1,2.3,1.1,4.1v6.9h-2.3v-6.1c0-1.1-.1-1.9-.3-2.5-.2-.6-.5-1-.9-1.2-.4-.2-.8-.3-1.3-.4-.9,0-1.6.3-2.1,1-.5.7-.7,1.7-.7,2.9v6.2h-2.3v-6.1c0-1.1-.1-1.9-.3-2.5-.2-.6-.5-1-.9-1.2-.4-.2-.8-.3-1.4-.4-.9,0-1.6.3-2.1,1-.5.7-.7,1.7-.7,2.9v6.2h-2.3Z"/>
      <path class="st4" d="M109.7,75.6v-16.8h2.1v2.2c.1,0,.1,14.6.1,14.6h-2.3ZM115.9,71.1c-1,0-1.9-.3-2.6-.8s-1.3-1.3-1.7-2.2c-.4-.9-.6-2-.6-3.3s.2-2.4.6-3.3c.4-.9,1-1.7,1.7-2.2s1.6-.8,2.6-.8,2,.3,2.8.8c.8.5,1.5,1.3,1.9,2.2.5.9.7,2,.7,3.3s-.2,2.3-.7,3.3-1.1,1.7-1.9,2.2c-.8.5-1.8.8-2.8.8ZM115.4,69c.7,0,1.4-.2,1.9-.5.5-.4,1-.9,1.3-1.5.3-.6.5-1.4.5-2.2s-.2-1.6-.5-2.2c-.3-.6-.7-1.1-1.3-1.5-.5-.4-1.2-.5-1.9-.5s-1.2.2-1.8.5c-.5.4-.9.9-1.2,1.5-.3.6-.4,1.4-.4,2.2s.1,1.6.4,2.2.7,1.1,1.2,1.5c.5.4,1.1.5,1.8.5Z"/>
      <path class="st4" d="M129.3,71.1c-1.2,0-2.3-.3-3.2-.8-.9-.5-1.6-1.3-2.1-2.2-.5-.9-.8-2-.8-3.3s.3-2.3.8-3.3,1.2-1.7,2.1-2.2c.9-.5,2-.8,3.1-.8s2.2.3,3.1.8c.9.5,1.6,1.3,2.1,2.2.5.9.8,2,.8,3.3s-.3,2.3-.8,3.3c-.5.9-1.2,1.7-2.1,2.2-.9.5-1.9.8-3.1.8ZM129.3,69c.7,0,1.4-.2,1.9-.5.6-.4,1-.9,1.3-1.5.3-.6.5-1.4.5-2.2s-.2-1.6-.5-2.2c-.3-.6-.8-1.1-1.3-1.5-.6-.4-1.2-.5-1.9-.5s-1.4.2-1.9.5c-.6.4-1,.9-1.3,1.5-.3.6-.5,1.4-.5,2.2s.2,1.6.5,2.2c.3.6.8,1.1,1.3,1.5.6.4,1.2.5,2,.5Z"/>
      <path class="st4" d="M142.1,71.1c-.8,0-1.6-.1-2.3-.4s-1.2-.6-1.7-1-.8-.9-1-1.5l2-.9c.3.5.6.9,1.2,1.2.5.3,1.1.5,1.7.5s1.3-.1,1.7-.4.7-.6.7-1.1-.2-.8-.5-1.1c-.3-.3-.8-.5-1.5-.6l-1.1-.3c-1.1-.3-2-.8-2.6-1.4-.6-.6-.9-1.3-.9-2.1,0-1.2.4-2.1,1.1-2.7.8-.6,1.9-1,3.3-1s1.4.1,2,.3c.6.2,1.1.5,1.5.9s.7.8.9,1.4l-1.9.9c-.2-.5-.5-.8-1-1.1-.5-.2-1-.3-1.6-.3s-1.1.1-1.5.4c-.4.3-.6.7-.6,1.2s.2.5.5.8c.3.2.8.5,1.4.6l1.3.3c.8.2,1.4.5,1.9.9.5.4.9.8,1.2,1.3.3.5.4,1,.4,1.5s-.2,1.3-.6,1.9c-.4.5-.9.9-1.6,1.2-.7.3-1.5.4-2.3.4Z"/>
    </g>
    <g class="st3">
      <path class="st4" d="M147.8,60.8v-2h7.7v2h-7.7ZM153.6,71.1c-1.2,0-2.1-.3-2.8-.9-.7-.6-1-1.5-1-2.7v-12.5h2.3v12.1c0,.6.1,1,.4,1.4.3.3.7.5,1.3.5s.3,0,.5,0c.2,0,.4-.2.7-.4l.9,1.8c-.4.3-.8.5-1.2.6s-.8.2-1.1.2Z"/>
    </g>
    <g class="st3">
      <path class="st4" d="M161.9,71.1c-1.4,0-2.5-.3-3.3-1-.8-.6-1.2-1.5-1.2-2.7s.4-2.2,1.2-2.8c.8-.6,2-1,3.4-1h3.3v1.8h-2.7c-1.1,0-1.9.2-2.3.5-.4.3-.7.8-.7,1.4s.2,1,.6,1.3c.4.3,1,.5,1.8.5s1.2-.1,1.7-.4c.5-.3.9-.7,1.1-1.2.3-.5.4-1.1.4-1.8h.8c0,1.6-.3,2.9-1,3.9-.7,1-1.8,1.4-3.2,1.4ZM165.5,70.8v-2.1c0,0,0-4.2,0-4.2,0-.9-.1-1.6-.3-2.2-.2-.6-.5-1-.9-1.3-.4-.3-.9-.5-1.6-.5s-1.2.1-1.6.4-.8.7-1.1,1.2l-2-.8c.3-.5.6-1,1.1-1.5.4-.4,1-.8,1.6-1,.6-.2,1.3-.4,2.1-.4s2.1.2,2.8.7c.8.4,1.3,1.1,1.7,1.9s.6,1.9.5,3.1v6.5h-2.1Z"/>
      <path class="st4" d="M174.8,71.1c-.8,0-1.6-.1-2.3-.4s-1.2-.6-1.7-1-.8-.9-1-1.5l2-.9c.3.5.6.9,1.2,1.2.5.3,1.1.5,1.7.5s1.3-.1,1.7-.4c.4-.3.7-.6.7-1.1s-.2-.8-.5-1.1c-.3-.3-.8-.5-1.5-.6l-1.1-.3c-1.1-.3-2-.8-2.6-1.4s-.9-1.3-.9-2.1c0-1.2.4-2.1,1.1-2.7.8-.6,1.9-1,3.3-1s1.4.1,2,.3c.6.2,1.1.5,1.5.9s.7.8.9,1.4l-1.9.9c-.2-.5-.5-.8-1-1.1-.5-.2-1-.3-1.6-.3s-1.1.1-1.5.4c-.4.3-.6.7-.6,1.2s.2.5.5.8c.3.2.8.5,1.4.6l1.3.3c.8.2,1.4.5,1.9.9.5.4.9.8,1.2,1.3.3.5.4,1,.4,1.5s-.2,1.3-.6,1.9c-.4.5-.9.9-1.6,1.2-.7.3-1.5.4-2.3.4Z"/>
      <path class="st4" d="M181,73.6l1.4-5.2h2.5l-2,5.2h-1.8Z"/>
      <path class="st4" d="M193.3,75.6v-16.8h2.1v2.2c.1,0,.1,14.6.1,14.6h-2.3ZM199.5,71.1c-1,0-1.9-.3-2.6-.8s-1.3-1.3-1.7-2.2c-.4-.9-.6-2-.6-3.3s.2-2.4.6-3.3c.4-.9,1-1.7,1.7-2.2s1.6-.8,2.6-.8,2,.3,2.8.8c.8.5,1.5,1.3,1.9,2.2.5.9.7,2,.7,3.3s-.2,2.3-.7,3.3-1.1,1.7-1.9,2.2c-.8.5-1.8.8-2.8.8ZM198.9,69c.7,0,1.4-.2,1.9-.5.5-.4,1-.9,1.3-1.5.3-.6.5-1.4.5-2.2s-.2-1.6-.5-2.2c-.3-.6-.7-1.1-1.3-1.5-.5-.4-1.2-.5-1.9-.5s-1.2.2-1.8.5c-.5.4-.9.9-1.2,1.5-.3.6-.4,1.4-.4,2.2s.1,1.6.4,2.2.7,1.1,1.2,1.5c.5.4,1.1.5,1.8.5Z"/>
      <path class="st4" d="M207.4,70.8v-12h2.3v12h-2.3ZM208.8,64.3c0-1.3.2-2.4.7-3.2s1.1-1.4,1.9-1.8c.8-.4,1.6-.6,2.5-.6v2.2c-.7,0-1.4.1-2.1.3-.6.2-1.2.6-1.6,1.1s-.6,1.1-.6,2h-.9Z"/>
      <path class="st4" d="M221.2,71.1c-1.2,0-2.3-.3-3.2-.8-.9-.5-1.6-1.3-2.1-2.2-.5-.9-.8-2-.8-3.3s.3-2.3.8-3.3,1.2-1.7,2.1-2.2c.9-.5,2-.8,3.1-.8s2.2.3,3.1.8c.9.5,1.6,1.3,2.1,2.2.5.9.8,2,.8,3.3s-.3,2.3-.8,3.3c-.5.9-1.2,1.7-2.1,2.2-.9.5-1.9.8-3.1.8ZM221.2,69c.7,0,1.4-.2,1.9-.5.6-.4,1-.9,1.3-1.5.3-.6.5-1.4.5-2.2s-.2-1.6-.5-2.2c-.3-.6-.8-1.1-1.3-1.5-.6-.4-1.2-.5-1.9-.5s-1.4.2-1.9.5c-.6.4-1,.9-1.3,1.5-.3.6-.5,1.4-.5,2.2s.2,1.6.5,2.2c.3.6.8,1.1,1.3,1.5.6.4,1.2.5,2,.5Z"/>
      <path class="st4" d="M234.5,71.1c-1.1,0-2-.3-2.8-.8s-1.4-1.3-1.9-2.2c-.5-.9-.7-2-.7-3.3s.2-2.4.7-3.3c.5-.9,1.1-1.7,1.9-2.2s1.8-.8,2.8-.8,1.9.3,2.6.8c.7.5,1.3,1.3,1.7,2.2.4.9.6,2,.6,3.3s-.2,2.3-.6,3.3c-.4.9-1,1.7-1.7,2.2-.7.5-1.6.8-2.6.8ZM235,69c.7,0,1.3-.2,1.8-.5.5-.4.9-.9,1.2-1.5s.4-1.4.4-2.2-.1-1.6-.4-2.2c-.3-.6-.7-1.1-1.2-1.5-.5-.4-1.1-.5-1.8-.5s-1.3.2-1.9.5c-.5.4-1,.9-1.3,1.5-.3.6-.5,1.4-.5,2.2s.2,1.6.5,2.2c.3.6.7,1.1,1.3,1.5.5.4,1.2.5,1.9.5ZM238.5,70.8v-2.2c0,0,0-14.6,0-14.6h2.3v16.8h-2.2Z"/>
      <path class="st4" d="M243.5,64.9v-6.1h2.3v6.1h-2.3ZM245.8,64.9c0,1.1.1,1.9.4,2.5s.6,1,1,1.2c.4.2,1,.3,1.5.4,1,0,1.7-.3,2.3-1,.5-.7.8-1.7.8-2.9h1c0,1.3-.2,2.3-.6,3.3-.4.9-.9,1.6-1.6,2.1-.7.5-1.5.7-2.5.7s-1.7-.2-2.4-.6c-.7-.4-1.2-1-1.6-1.8-.4-.8-.6-1.9-.6-3.2v-.6h2.3ZM252,70.8v-2.2c-.1,0-.1-9.8-.1-9.8h2.3v12h-2.1Z"/>
    </g>
    <g class="st3">
      <path class="st4" d="M256.1,60.8v-2h7.7v2h-7.7ZM261.9,71.1c-1.2,0-2.1-.3-2.8-.9s-1-1.5-1-2.7v-12.5h2.3v12.1c0,.6.1,1,.4,1.4.3.3.7.5,1.3.5s.3,0,.5,0c.2,0,.4-.2.7-.4l.9,1.8c-.4.3-.8.5-1.2.6s-.8.2-1.1.2Z"/>
    </g>
    <g class="st3">
      <path class="st4" d="M271.8,71.1c-1.2,0-2.3-.3-3.2-.8-.9-.5-1.6-1.3-2.1-2.2-.5-.9-.8-2-.8-3.3s.3-2.3.8-3.3,1.2-1.7,2.1-2.2c.9-.5,2-.8,3.1-.8s2.2.3,3.1.8c.9.5,1.6,1.3,2.1,2.2.5.9.8,2,.8,3.3s-.3,2.3-.8,3.3c-.5.9-1.2,1.7-2.1,2.2-.9.5-1.9.8-3.1.8ZM271.8,69c.7,0,1.4-.2,1.9-.5.6-.4,1-.9,1.3-1.5.3-.6.5-1.4.5-2.2s-.2-1.6-.5-2.2c-.3-.6-.8-1.1-1.3-1.5-.6-.4-1.2-.5-1.9-.5s-1.4.2-1.9.5c-.6.4-1,.9-1.3,1.5-.3.6-.5,1.4-.5,2.2s.2,1.6.5,2.2c.3.6.8,1.1,1.3,1.5.6.4,1.2.5,2,.5Z"/>
      <path class="st4" d="M284.6,71.1c-.8,0-1.6-.1-2.3-.4s-1.2-.6-1.7-1-.8-.9-1-1.5l2-.9c.3.5.6.9,1.2,1.2.5.3,1.1.5,1.7.5s1.3-.1,1.7-.4.7-.6.7-1.1-.2-.8-.5-1.1c-.3-.3-.8-.5-1.5-.6l-1.1-.3c-1.1-.3-2-.8-2.6-1.4-.6-.6-.9-1.3-.9-2.1,0-1.2.4-2.1,1.1-2.7.8-.6,1.9-1,3.3-1s1.4.1,2,.3c.6.2,1.1.5,1.5.9s.7.8.9,1.4l-1.9.9c-.2-.5-.5-.8-1-1.1-.5-.2-1-.3-1.6-.3s-1.1.1-1.5.4c-.4.3-.6.7-.6,1.2s.2.5.5.8c.3.2.8.5,1.4.6l1.3.3c.8.2,1.4.5,1.9.9.5.4.9.8,1.2,1.3.3.5.4,1,.4,1.5s-.2,1.3-.6,1.9c-.4.5-.9.9-1.6,1.2-.7.3-1.5.4-2.3.4Z"/>
    </g>
    <g class="st3">
      <path class="st4" d="M69.9,99.1c-1.1,0-2-.3-2.8-.8-.8-.5-1.4-1.3-1.9-2.2-.5-.9-.7-2-.7-3.3s.2-2.4.7-3.3c.5-.9,1.1-1.7,1.9-2.2.8-.5,1.8-.8,2.8-.8s1.9.3,2.6.8c.7.5,1.3,1.3,1.7,2.2.4.9.6,2,.6,3.3s-.2,2.3-.6,3.3c-.4.9-1,1.7-1.7,2.2-.7.5-1.6.8-2.6.8ZM70.4,97c.7,0,1.3-.2,1.8-.5.5-.4.9-.9,1.2-1.5s.4-1.4.4-2.2-.1-1.6-.4-2.2c-.3-.6-.7-1.1-1.2-1.5-.5-.4-1.1-.5-1.8-.5s-1.3.2-1.9.5c-.5.4-1,.9-1.3,1.5-.3.6-.5,1.4-.5,2.2s.2,1.6.5,2.2.7,1.1,1.3,1.5c.5.4,1.2.5,1.9.5ZM73.8,103.6v-16.8h2.3v16.8h-2.3Z"/>
      <path class="st4" d="M78.8,92.9v-6.1h2.3v6.1h-2.3ZM81.1,92.9c0,1.1.1,1.9.4,2.5.2.6.6,1,1,1.2.4.2,1,.3,1.5.4,1,0,1.7-.3,2.3-1,.5-.7.8-1.7.8-2.9h1c0,1.3-.2,2.3-.6,3.3-.4.9-.9,1.6-1.6,2.1-.7.5-1.5.7-2.5.7s-1.7-.2-2.4-.6c-.7-.4-1.2-1-1.6-1.8-.4-.8-.6-1.9-.6-3.2v-.6h2.3ZM87.2,98.8v-2.2c-.1,0-.1-9.8-.1-9.8h2.3v12h-2.1Z"/>
      <path class="st4" d="M92.1,85.2l2.8-3.2h2.8l-3.1,3.2h-2.5ZM92.7,98.8v-12h2.3v12h-2.3Z"/>
      <path class="st4" d="M98.3,98.8v-12h2.1v1.7c.5-.6,1-1.1,1.5-1.5.6-.3,1.2-.5,2-.5s1.8.2,2.4.7c.7.4,1.2,1.1,1.5,2,.4-.9.8-1.5,1.5-2,.6-.5,1.4-.7,2.3-.7,1.4,0,2.4.4,3.2,1.3s1.1,2.3,1.1,4.1v6.9h-2.3v-6.1c0-1.1-.1-1.9-.3-2.5-.2-.6-.5-1-.9-1.2-.4-.2-.8-.3-1.3-.4-.9,0-1.6.3-2.1,1-.5.7-.7,1.7-.7,2.9v6.2h-2.3v-6.1c0-1.1-.1-1.9-.3-2.5-.2-.6-.5-1-.9-1.2-.4-.2-.8-.3-1.4-.4-.9,0-1.6.3-2.1,1-.5.7-.7,1.7-.7,2.9v6.2h-2.3Z"/>
      <path class="st4" d="M120.2,84.3c-.4,0-.7-.1-1-.4s-.4-.6-.4-1,.1-.7.4-1c.3-.3.6-.4,1-.4s.7.1,1,.4c.3.3.4.6.4,1s-.1.7-.4,1-.6.4-1,.4ZM119,98.8v-12h2.3v12h-2.3Z"/>
      <path class="st4" d="M130.1,99.1c-1.2,0-2.3-.3-3.2-.8-.9-.5-1.7-1.3-2.2-2.2-.5-.9-.8-2-.8-3.3s.3-2.3.8-3.3,1.2-1.7,2.2-2.2c.9-.5,2-.8,3.2-.8s2.2.3,3.2.8,1.6,1.3,2.1,2.3l-2.1.9c-.3-.6-.7-1.1-1.3-1.4-.6-.3-1.2-.5-2-.5s-1.4.2-1.9.5c-.6.4-1,.8-1.3,1.5-.3.6-.5,1.4-.5,2.2s.2,1.5.5,2.2c.3.6.8,1.1,1.3,1.5.6.4,1.2.5,1.9.5s1.4-.2,2-.6c.6-.4,1-.9,1.3-1.5l2.1.8c-.5,1.1-1.2,1.9-2.1,2.5s-2,.9-3.2.9Z"/>
      <path class="st4" d="M143.1,99.1c-1.2,0-2.3-.3-3.2-.8-.9-.5-1.6-1.3-2.1-2.2-.5-.9-.8-2-.8-3.3s.3-2.3.8-3.3c.5-.9,1.2-1.7,2.1-2.2.9-.5,2-.8,3.1-.8s2.2.3,3.1.8c.9.5,1.6,1.3,2.1,2.2.5.9.8,2,.8,3.3s-.3,2.3-.8,3.3c-.5.9-1.2,1.7-2.1,2.2-.9.5-1.9.8-3.1.8ZM143.1,97c.7,0,1.4-.2,1.9-.5.6-.4,1-.9,1.3-1.5s.5-1.4.5-2.2-.2-1.6-.5-2.2-.8-1.1-1.3-1.5c-.6-.4-1.2-.5-1.9-.5s-1.4.2-1.9.5c-.6.4-1,.9-1.3,1.5-.3.6-.5,1.4-.5,2.2s.2,1.6.5,2.2c.3.6.8,1.1,1.3,1.5.6.4,1.2.5,2,.5Z"/>
      <path class="st4" d="M155.9,99.1c-.8,0-1.6-.1-2.3-.4s-1.2-.6-1.7-1-.8-.9-1-1.5l2-.9c.3.5.6.9,1.2,1.2.5.3,1.1.5,1.7.5s1.3-.1,1.7-.4c.4-.3.7-.6.7-1.1s-.2-.8-.5-1.1c-.3-.3-.8-.5-1.5-.6l-1.1-.3c-1.1-.3-2-.8-2.6-1.4-.6-.6-.9-1.3-.9-2.1,0-1.2.4-2.1,1.1-2.7.8-.6,1.9-1,3.3-1s1.4.1,2,.3,1.1.5,1.5.9.7.8.9,1.4l-1.9.9c-.2-.5-.5-.8-1-1.1-.5-.2-1-.3-1.6-.3s-1.1.1-1.5.4c-.4.3-.6.7-.6,1.2s.2.5.5.8.8.5,1.4.6l1.3.3c.8.2,1.4.5,1.9.9.5.4.9.8,1.2,1.3.3.5.4,1,.4,1.5s-.2,1.3-.6,1.9c-.4.5-.9.9-1.6,1.2-.7.3-1.5.4-2.3.4Z"/>
      <path class="st4" d="M174,99.1c-1.2,0-2.3-.3-3.2-.8-.9-.5-1.6-1.3-2.1-2.2-.5-.9-.8-2-.8-3.3s.3-2.3.8-3.3c.5-.9,1.2-1.7,2.1-2.2.9-.5,2-.8,3.1-.8s2.2.3,3.1.8c.9.5,1.6,1.3,2.1,2.2.5.9.8,2,.8,3.3s-.3,2.3-.8,3.3c-.5.9-1.2,1.7-2.1,2.2-.9.5-1.9.8-3.1.8ZM174,97c.7,0,1.4-.2,1.9-.5.6-.4,1-.9,1.3-1.5.3-.6.5-1.4.5-2.2s-.2-1.6-.5-2.2c-.3-.6-.8-1.1-1.3-1.5-.6-.4-1.2-.5-1.9-.5s-1.4.2-1.9.5c-.6.4-1,.9-1.3,1.5-.3.6-.5,1.4-.5,2.2s.2,1.6.5,2.2c.3.6.8,1.1,1.3,1.5.6.4,1.2.5,2,.5Z"/>
      <path class="st4" d="M182.2,92.9v-6.1h2.3v6.1h-2.3ZM184.5,92.9c0,1.1.1,1.9.4,2.5s.6,1,1,1.2c.4.2,1,.3,1.5.4,1,0,1.7-.3,2.3-1,.5-.7.8-1.7.8-2.9h1c0,1.3-.2,2.3-.6,3.3-.4.9-.9,1.6-1.6,2.1-.7.5-1.5.7-2.5.7s-1.7-.2-2.4-.6c-.7-.4-1.2-1-1.6-1.8-.4-.8-.6-1.9-.6-3.2v-.6h2.3ZM190.7,98.8v-2.2c-.1,0-.1-9.8-.1-9.8h2.3v12h-2.1Z"/>
      <path class="st4" d="M205.7,99.1c-1.4,0-2.5-.3-3.3-1-.8-.6-1.2-1.5-1.2-2.7s.4-2.2,1.2-2.8c.8-.6,2-1,3.4-1h3.3v1.8h-2.7c-1.1,0-1.9.2-2.3.5-.4.3-.7.8-.7,1.4s.2,1,.6,1.3c.4.3,1,.5,1.8.5s1.2-.1,1.7-.4c.5-.3.9-.7,1.1-1.2.3-.5.4-1.1.4-1.8h.8c0,1.6-.3,2.9-1,3.9-.7,1-1.8,1.4-3.2,1.4ZM209.2,98.8v-2.1c0,0,0-4.2,0-4.2,0-.9-.1-1.6-.3-2.2-.2-.6-.5-1-.9-1.3-.4-.3-.9-.5-1.6-.5s-1.2.1-1.6.4-.8.7-1.1,1.2l-2-.8c.3-.5.6-1,1.1-1.5.4-.4,1-.8,1.6-1,.6-.2,1.3-.4,2.1-.4s2.1.2,2.8.7c.8.4,1.3,1.1,1.7,1.9s.6,1.9.5,3.1v6.5h-2.1Z"/>
      <path class="st4" d="M219,98.6c-1.1,0-2-.3-2.8-.8s-1.4-1.2-1.9-2.1c-.5-.9-.7-1.9-.7-3.1s.2-2.3.7-3.2c.5-.9,1.1-1.6,1.9-2.1.8-.5,1.8-.8,2.8-.8s1.9.3,2.6.8c.7.5,1.3,1.2,1.7,2.1s.6,2,.6,3.2-.2,2.2-.6,3.1-1,1.6-1.7,2.1-1.6.7-2.6.7ZM219.2,103.9c-.8,0-1.5,0-2.2-.2s-1.2-.3-1.7-.5c-.4-.2-.8-.4-1-.5l.9-1.8c.2.1.5.3.9.4s.8.3,1.3.4c.5.1,1.1.2,1.7.2s1.4-.1,2-.4c.6-.3,1-.8,1.4-1.4s.5-1.4.5-2.4v-10.8h2.3v10.8c0,1.4-.3,2.5-.8,3.5-.5.9-1.2,1.6-2.1,2.1-.9.5-1.9.7-3.1.7ZM219.6,96.7c.7,0,1.3-.2,1.8-.5s.9-.8,1.2-1.5.4-1.3.4-2.1-.1-1.5-.4-2.1c-.3-.6-.7-1.1-1.2-1.4s-1.1-.5-1.8-.5-1.3.2-1.9.5-1,.8-1.3,1.4c-.3.6-.5,1.3-.5,2.1s.2,1.5.5,2.1c.3.6.7,1.1,1.3,1.5s1.2.5,1.9.5Z"/>
      <path class="st4" d="M233.7,99.1c-1.2,0-2.2-.3-3.1-.8-.9-.5-1.6-1.3-2.1-2.2-.5-.9-.8-2-.8-3.3s.3-2.3.8-3.3c.5-.9,1.2-1.7,2.1-2.2.9-.5,1.9-.8,3.1-.8s2.1.3,2.9.8,1.5,1.3,2,2.4c.5,1,.7,2.2.7,3.6h-9.7l.4-.4c0,.8.2,1.6.5,2.2.3.6.8,1.1,1.4,1.4.6.3,1.2.5,2,.5s1.5-.2,2-.6c.5-.4,1-.9,1.3-1.4l2,.9c-.3.6-.7,1.2-1.2,1.6-.5.5-1.1.8-1.8,1.1-.7.3-1.5.4-2.3.4ZM230.2,91.8l-.5-.4h7.6l-.4.4c0-.7-.1-1.3-.4-1.8-.3-.5-.7-.9-1.2-1.2-.5-.3-1-.4-1.6-.4s-1.1.1-1.7.4c-.5.3-1,.6-1.3,1.1-.3.5-.5,1.1-.5,1.8Z"/>
      <path class="st4" d="M241.6,98.8v-12h2.1v2.2c.1,0,.1,9.8.1,9.8h-2.3ZM249.9,92.7c0-1.1-.1-1.9-.4-2.5-.2-.6-.6-1-1-1.2-.4-.2-.9-.3-1.5-.4-1,0-1.7.3-2.3,1-.5.7-.8,1.7-.8,2.9h-1c0-1.3.2-2.3.6-3.3.4-.9.9-1.6,1.6-2.1.7-.5,1.5-.7,2.5-.7s1.8.2,2.5.6c.7.4,1.2,1,1.6,1.8s.6,1.9.6,3.2v.6h-2.3ZM249.9,98.8v-6.1h2.3v6.1h-2.3Z"/>
    </g>
    <g class="st3">
      <path class="st4" d="M253.8,88.8v-2h7.7v2h-7.7ZM259.7,99.1c-1.2,0-2.1-.3-2.8-.9s-1-1.5-1-2.7v-12.5h2.3v12.1c0,.6.1,1,.4,1.4.3.3.7.5,1.3.5s.3,0,.5,0c.2,0,.4-.2.7-.4l.9,1.8c-.4.3-.8.5-1.2.6s-.8.2-1.1.2Z"/>
    </g>
    <g class="st3">
      <path class="st4" d="M269.4,99.1c-1.2,0-2.2-.3-3.1-.8-.9-.5-1.6-1.3-2.1-2.2-.5-.9-.8-2-.8-3.3s.3-2.3.8-3.3c.5-.9,1.2-1.7,2.1-2.2.9-.5,1.9-.8,3.1-.8s2.1.3,2.9.8,1.5,1.3,2,2.4c.5,1,.7,2.2.7,3.6h-9.7l.4-.4c0,.8.2,1.6.5,2.2.3.6.8,1.1,1.4,1.4.6.3,1.2.5,2,.5s1.5-.2,2-.6c.5-.4,1-.9,1.3-1.4l2,.9c-.3.6-.7,1.2-1.2,1.6-.5.5-1.1.8-1.8,1.1-.7.3-1.5.4-2.3.4ZM265.9,91.8l-.5-.4h7.6l-.4.4c0-.7-.1-1.3-.4-1.8-.3-.5-.7-.9-1.2-1.2-.5-.3-1-.4-1.6-.4s-1.1.1-1.7.4c-.5.3-1,.6-1.3,1.1-.3.5-.5,1.1-.5,1.8Z"/>
      <path class="st4" d="M281.6,99.1c-.8,0-1.6-.1-2.3-.4s-1.2-.6-1.7-1-.8-.9-1-1.5l2-.9c.3.5.6.9,1.2,1.2.5.3,1.1.5,1.7.5s1.3-.1,1.7-.4.7-.6.7-1.1-.2-.8-.5-1.1c-.3-.3-.8-.5-1.5-.6l-1.1-.3c-1.1-.3-2-.8-2.6-1.4-.6-.6-.9-1.3-.9-2.1,0-1.2.4-2.1,1.1-2.7.8-.6,1.9-1,3.3-1s1.4.1,2,.3c.6.2,1.1.5,1.5.9s.7.8.9,1.4l-1.9.9c-.2-.5-.5-.8-1-1.1-.5-.2-1-.3-1.6-.3s-1.1.1-1.5.4c-.4.3-.6.7-.6,1.2s.2.5.5.8c.3.2.8.5,1.4.6l1.3.3c.8.2,1.4.5,1.9.9.5.4.9.8,1.2,1.3.3.5.4,1,.4,1.5s-.2,1.3-.6,1.9c-.4.5-.9.9-1.6,1.2-.7.3-1.5.4-2.3.4Z"/>
    </g>
    <g class="st3">
      <path class="st4" d="M36.4,131.6v-16.8h2.1v2.2c.1,0,.1,14.6.1,14.6h-2.3ZM42.6,127.1c-1,0-1.9-.3-2.6-.8s-1.3-1.3-1.7-2.2c-.4-.9-.6-2-.6-3.3s.2-2.4.6-3.3c.4-.9,1-1.7,1.7-2.2s1.6-.8,2.6-.8,2,.3,2.8.8,1.5,1.3,1.9,2.2c.5.9.7,2,.7,3.3s-.2,2.3-.7,3.3-1.1,1.7-1.9,2.2-1.8.8-2.8.8ZM42.1,125c.7,0,1.4-.2,1.9-.5.5-.4,1-.9,1.3-1.5s.5-1.4.5-2.2-.2-1.6-.5-2.2c-.3-.6-.7-1.1-1.3-1.5-.5-.4-1.2-.5-1.9-.5s-1.2.2-1.8.5c-.5.4-.9.9-1.2,1.5-.3.6-.4,1.4-.4,2.2s.1,1.6.4,2.2.7,1.1,1.2,1.5c.5.4,1.1.5,1.8.5Z"/>
      <path class="st4" d="M50.6,126.8v-12h2.3v12h-2.3ZM52,120.3c0-1.3.2-2.4.7-3.2.5-.8,1.1-1.4,1.9-1.8.8-.4,1.6-.6,2.5-.6v2.2c-.7,0-1.4.1-2.1.3-.6.2-1.2.6-1.6,1.1-.4.5-.6,1.1-.6,2h-.9Z"/>
      <path class="st4" d="M64.2,127.1c-1.2,0-2.2-.3-3.1-.8-.9-.5-1.6-1.3-2.1-2.2-.5-.9-.8-2-.8-3.3s.3-2.3.8-3.3c.5-.9,1.2-1.7,2.1-2.2.9-.5,1.9-.8,3.1-.8s2.1.3,2.9.8,1.5,1.3,2,2.4c.5,1,.7,2.2.7,3.6h-9.7l.4-.4c0,.8.2,1.6.5,2.2.3.6.8,1.1,1.4,1.4.6.3,1.2.5,2,.5s1.5-.2,2-.6c.5-.4,1-.9,1.3-1.4l2,.9c-.3.6-.7,1.2-1.2,1.6-.5.5-1.1.8-1.8,1.1s-1.5.4-2.3.4ZM60.7,119.8l-.5-.4h7.6l-.4.4c0-.7-.1-1.3-.4-1.8-.3-.5-.7-.9-1.2-1.2-.5-.3-1-.4-1.6-.4s-1.1.1-1.7.4c-.5.3-1,.6-1.3,1.1-.3.5-.5,1.1-.5,1.8Z"/>
      <path class="st4" d="M76.4,127.1c-.8,0-1.6-.1-2.3-.4s-1.2-.6-1.7-1-.8-.9-1-1.5l2-.9c.3.5.6.9,1.2,1.2.5.3,1.1.5,1.7.5s1.3-.1,1.7-.4c.4-.3.7-.6.7-1.1s-.2-.8-.5-1.1c-.3-.3-.8-.5-1.5-.6l-1.1-.3c-1.1-.3-2-.8-2.6-1.4-.6-.6-.9-1.3-.9-2.1,0-1.2.4-2.1,1.1-2.7.8-.6,1.9-1,3.3-1s1.4.1,2,.3,1.1.5,1.5.9.7.8.9,1.4l-1.9.9c-.2-.5-.5-.8-1-1.1-.5-.2-1-.3-1.6-.3s-1.1.1-1.5.4c-.4.3-.6.7-.6,1.2s.2.5.5.8.8.5,1.4.6l1.3.3c.8.2,1.4.5,1.9.9.5.4.9.8,1.2,1.3.3.5.4,1,.4,1.5s-.2,1.3-.6,1.9c-.4.5-.9.9-1.6,1.2-.7.3-1.5.4-2.3.4Z"/>
      <path class="st4" d="M88.6,127.1c-1.2,0-2.2-.3-3.1-.8-.9-.5-1.6-1.3-2.1-2.2-.5-.9-.8-2-.8-3.3s.3-2.3.8-3.3c.5-.9,1.2-1.7,2.1-2.2.9-.5,1.9-.8,3.1-.8s2.1.3,2.9.8,1.5,1.3,2,2.4c.5,1,.7,2.2.7,3.6h-9.7l.4-.4c0,.8.2,1.6.5,2.2.3.6.8,1.1,1.4,1.4.6.3,1.2.5,2,.5s1.5-.2,2-.6c.5-.4,1-.9,1.3-1.4l2,.9c-.3.6-.7,1.2-1.2,1.6-.5.5-1.1.8-1.8,1.1s-1.5.4-2.3.4ZM85.1,119.8l-.5-.4h7.6l-.4.4c0-.7-.1-1.3-.4-1.8-.3-.5-.7-.9-1.2-1.2-.5-.3-1-.4-1.6-.4s-1.1.1-1.7.4c-.5.3-1,.6-1.3,1.1-.3.5-.5,1.1-.5,1.8Z"/>
      <path class="st4" d="M96.4,126.8v-12h2.1v2.2c.1,0,.1,9.8.1,9.8h-2.3ZM104.7,120.7c0-1.1-.1-1.9-.4-2.5-.2-.6-.6-1-1-1.2-.4-.2-.9-.3-1.5-.4-1,0-1.7.3-2.3,1-.5.7-.8,1.7-.8,2.9h-1c0-1.3.2-2.3.6-3.3.4-.9.9-1.6,1.6-2.1.7-.5,1.5-.7,2.5-.7s1.8.2,2.5.6c.7.4,1.2,1,1.6,1.8s.6,1.9.6,3.2v.6h-2.3ZM104.7,126.8v-6.1h2.3v6.1h-2.3Z"/>
    </g>
    <g class="st3">
      <path class="st4" d="M108.7,116.8v-2h7.7v2h-7.7ZM114.5,127.1c-1.2,0-2.1-.3-2.8-.9-.7-.6-1-1.5-1-2.7v-12.5h2.3v12.1c0,.6.1,1,.4,1.4.3.3.7.5,1.3.5s.3,0,.5,0c.2,0,.4-.2.7-.4l.9,1.8c-.4.3-.8.5-1.2.6s-.8.2-1.1.2Z"/>
    </g>
    <g class="st3">
      <path class="st4" d="M124.3,127.1c-1.2,0-2.2-.3-3.1-.8-.9-.5-1.6-1.3-2.1-2.2-.5-.9-.8-2-.8-3.3s.3-2.3.8-3.3c.5-.9,1.2-1.7,2.1-2.2.9-.5,1.9-.8,3.1-.8s2.1.3,2.9.8,1.5,1.3,2,2.4c.5,1,.7,2.2.7,3.6h-9.7l.4-.4c0,.8.2,1.6.5,2.2.3.6.8,1.1,1.4,1.4.6.3,1.2.5,2,.5s1.5-.2,2-.6c.5-.4,1-.9,1.3-1.4l2,.9c-.3.6-.7,1.2-1.2,1.6-.5.5-1.1.8-1.8,1.1s-1.5.4-2.3.4ZM120.8,119.8l-.5-.4h7.6l-.4.4c0-.7-.1-1.3-.4-1.8-.3-.5-.7-.9-1.2-1.2-.5-.3-1-.4-1.6-.4s-1.1.1-1.7.4c-.5.3-1,.6-1.3,1.1-.3.5-.5,1.1-.5,1.8Z"/>
      <path class="st4" d="M136.5,127.1c-.8,0-1.6-.1-2.3-.4s-1.2-.6-1.7-1-.8-.9-1-1.5l2-.9c.3.5.6.9,1.2,1.2.5.3,1.1.5,1.7.5s1.3-.1,1.7-.4c.4-.3.7-.6.7-1.1s-.2-.8-.5-1.1c-.3-.3-.8-.5-1.5-.6l-1.1-.3c-1.1-.3-2-.8-2.6-1.4-.6-.6-.9-1.3-.9-2.1,0-1.2.4-2.1,1.1-2.7.8-.6,1.9-1,3.3-1s1.4.1,2,.3,1.1.5,1.5.9.7.8.9,1.4l-1.9.9c-.2-.5-.5-.8-1-1.1-.5-.2-1-.3-1.6-.3s-1.1.1-1.5.4c-.4.3-.6.7-.6,1.2s.2.5.5.8.8.5,1.4.6l1.3.3c.8.2,1.4.5,1.9.9.5.4.9.8,1.2,1.3.3.5.4,1,.4,1.5s-.2,1.3-.6,1.9c-.4.5-.9.9-1.6,1.2-.7.3-1.5.4-2.3.4Z"/>
      <path class="st4" d="M149.2,126.8v-12h2.1v2.2c.1,0,.1,9.8.1,9.8h-2.3ZM157.5,120.7c0-1.1-.1-1.9-.4-2.5-.2-.6-.6-1-1-1.2-.4-.2-.9-.3-1.5-.4-1,0-1.7.3-2.3,1-.5.7-.8,1.7-.8,2.9h-1c0-1.3.2-2.3.6-3.3.4-.9.9-1.6,1.6-2.1.7-.5,1.5-.7,2.5-.7s1.8.2,2.5.6c.7.4,1.2,1,1.6,1.8s.6,1.9.6,3.2v.6h-2.3ZM157.5,126.8v-6.1h2.3v6.1h-2.3Z"/>
      <path class="st4" d="M168.1,127.1c-1.2,0-2.3-.3-3.2-.8-.9-.5-1.6-1.3-2.1-2.2-.5-.9-.8-2-.8-3.3s.3-2.3.8-3.3c.5-.9,1.2-1.7,2.1-2.2.9-.5,2-.8,3.1-.8s2.2.3,3.1.8c.9.5,1.6,1.3,2.1,2.2.5.9.8,2,.8,3.3s-.3,2.3-.8,3.3c-.5.9-1.2,1.7-2.1,2.2-.9.5-1.9.8-3.1.8ZM168.1,125c.7,0,1.4-.2,1.9-.5.6-.4,1-.9,1.3-1.5s.5-1.4.5-2.2-.2-1.6-.5-2.2-.8-1.1-1.3-1.5c-.6-.4-1.2-.5-1.9-.5s-1.4.2-1.9.5c-.6.4-1,.9-1.3,1.5-.3.6-.5,1.4-.5,2.2s.2,1.6.5,2.2c.3.6.8,1.1,1.3,1.5.6.4,1.2.5,2,.5Z"/>
      <path class="st4" d="M186.3,127.1c-1.4,0-2.5-.3-3.3-1-.8-.6-1.2-1.5-1.2-2.7s.4-2.2,1.2-2.8c.8-.6,2-1,3.4-1h3.3v1.8h-2.7c-1.1,0-1.9.2-2.3.5-.4.3-.7.8-.7,1.4s.2,1,.6,1.3c.4.3,1,.5,1.8.5s1.2-.1,1.7-.4c.5-.3.9-.7,1.1-1.2.3-.5.4-1.1.4-1.8h.8c0,1.6-.3,2.9-1,3.9-.7,1-1.8,1.4-3.2,1.4ZM189.8,126.8v-2.1c0,0,0-4.2,0-4.2,0-.9,0-1.6-.3-2.2s-.5-1-.9-1.3c-.4-.3-.9-.5-1.6-.5s-1.2.1-1.6.4c-.5.3-.8.7-1.1,1.2l-2-.8c.3-.5.6-1,1.1-1.5.4-.4,1-.8,1.6-1s1.3-.4,2.1-.4,2.1.2,2.8.7c.8.4,1.3,1.1,1.7,1.9s.6,1.9.5,3.1v6.5h-2.1Z"/>
      <path class="st4" d="M194.8,126.8v-12h2.1v1.7c.5-.6,1-1.1,1.5-1.5s1.2-.5,2-.5,1.8.2,2.4.7c.7.4,1.2,1.1,1.5,2,.4-.9.8-1.5,1.5-2,.6-.5,1.4-.7,2.3-.7,1.4,0,2.4.4,3.2,1.3.8.9,1.1,2.3,1.1,4.1v6.9h-2.3v-6.1c0-1.1-.1-1.9-.3-2.5-.2-.6-.5-1-.9-1.2-.4-.2-.8-.3-1.3-.4-.9,0-1.6.3-2.1,1-.5.7-.7,1.7-.7,2.9v6.2h-2.3v-6.1c0-1.1-.1-1.9-.3-2.5-.2-.6-.5-1-.9-1.2-.4-.2-.8-.3-1.4-.4-.9,0-1.6.3-2.1,1-.5.7-.7,1.7-.7,2.9v6.2h-2.3Z"/>
      <path class="st4" d="M215.4,126.8v-16.8h2.3v16.8h-2.3ZM221.6,127.1c-1,0-1.9-.3-2.6-.8-.7-.5-1.3-1.3-1.7-2.2s-.6-2-.6-3.3.2-2.4.6-3.3c.4-.9,1-1.7,1.7-2.2.7-.5,1.6-.8,2.6-.8s2,.3,2.8.8c.8.5,1.5,1.3,1.9,2.2.5.9.7,2,.7,3.3s-.2,2.3-.7,3.3-1.1,1.7-1.9,2.2c-.8.5-1.8.8-2.8.8ZM221.1,125c.7,0,1.4-.2,1.9-.5.5-.4,1-.9,1.3-1.5.3-.6.5-1.4.5-2.2s-.2-1.6-.5-2.2c-.3-.6-.7-1.1-1.3-1.5-.5-.4-1.2-.5-1.9-.5s-1.2.2-1.8.5c-.5.4-.9.9-1.2,1.5-.3.6-.4,1.4-.4,2.2s.1,1.6.4,2.2.7,1.1,1.2,1.5c.5.4,1.1.5,1.8.5Z"/>
      <path class="st4" d="M230.8,112.3c-.4,0-.7-.1-1-.4-.3-.3-.4-.6-.4-1s.1-.7.4-1c.3-.3.6-.4,1-.4s.7.1,1,.4c.3.3.4.6.4,1s-.1.7-.4,1c-.3.3-.6.4-1,.4ZM229.7,126.8v-12h2.3v12h-2.3Z"/>
      <path class="st4" d="M240.6,127.1c-1.2,0-2.2-.3-3.1-.8-.9-.5-1.6-1.3-2.1-2.2-.5-.9-.8-2-.8-3.3s.3-2.3.8-3.3c.5-.9,1.2-1.7,2.1-2.2.9-.5,1.9-.8,3.1-.8s2.1.3,2.9.8,1.5,1.3,2,2.4c.5,1,.7,2.2.7,3.6h-9.7l.4-.4c0,.8.2,1.6.5,2.2.3.6.8,1.1,1.4,1.4.6.3,1.2.5,2,.5s1.5-.2,2-.6c.5-.4,1-.9,1.3-1.4l2,.9c-.3.6-.7,1.2-1.2,1.6-.5.5-1.1.8-1.8,1.1-.7.3-1.5.4-2.3.4ZM237.1,119.8l-.5-.4h7.6l-.4.4c0-.7-.1-1.3-.4-1.8-.3-.5-.7-.9-1.2-1.2-.5-.3-1-.4-1.6-.4s-1.1.1-1.7.4c-.5.3-1,.6-1.3,1.1-.3.5-.5,1.1-.5,1.8Z"/>
      <path class="st4" d="M248.4,126.8v-12h2.1v2.2c.1,0,.1,9.8.1,9.8h-2.3ZM256.7,120.7c0-1.1-.1-1.9-.4-2.5-.2-.6-.6-1-1-1.2-.4-.2-.9-.3-1.5-.4-1,0-1.7.3-2.3,1-.5.7-.8,1.7-.8,2.9h-1c0-1.3.2-2.3.6-3.3.4-.9.9-1.6,1.6-2.1.7-.5,1.5-.7,2.5-.7s1.8.2,2.5.6c.7.4,1.2,1,1.6,1.8s.6,1.9.6,3.2v.6h-2.3ZM256.7,126.8v-6.1h2.3v6.1h-2.3Z"/>
    </g>
    <g class="st3">
      <path class="st4" d="M260.7,116.8v-2h7.7v2h-7.7ZM266.5,127.1c-1.2,0-2.1-.3-2.8-.9s-1-1.5-1-2.7v-12.5h2.3v12.1c0,.6.1,1,.4,1.4.3.3.7.5,1.3.5s.3,0,.5,0c.2,0,.4-.2.7-.4l.9,1.8c-.4.3-.8.5-1.2.6s-.8.2-1.1.2Z"/>
    </g>
    <g class="st3">
      <path class="st4" d="M276.3,127.1c-1.2,0-2.2-.3-3.1-.8-.9-.5-1.6-1.3-2.1-2.2-.5-.9-.8-2-.8-3.3s.3-2.3.8-3.3,1.2-1.7,2.1-2.2c.9-.5,1.9-.8,3.1-.8s2.1.3,2.9.8,1.5,1.3,2,2.4c.5,1,.7,2.2.7,3.6h-9.7l.4-.4c0,.8.2,1.6.5,2.2s.8,1.1,1.4,1.4c.6.3,1.2.5,2,.5s1.5-.2,2-.6c.5-.4,1-.9,1.3-1.4l2,.9c-.3.6-.7,1.2-1.2,1.6-.5.5-1.1.8-1.8,1.1-.7.3-1.5.4-2.3.4ZM272.8,119.8l-.5-.4h7.6l-.4.4c0-.7-.1-1.3-.4-1.8-.3-.5-.7-.9-1.2-1.2-.5-.3-1-.4-1.6-.4s-1.1.1-1.7.4c-.5.3-1,.6-1.3,1.1-.3.5-.5,1.1-.5,1.8Z"/>
      <path class="st4" d="M294.8,127.1c-1.1,0-2-.3-2.8-.8s-1.4-1.3-1.9-2.2c-.5-.9-.7-2-.7-3.3s.2-2.4.7-3.3c.5-.9,1.1-1.7,1.9-2.2s1.8-.8,2.8-.8,1.9.3,2.6.8c.7.5,1.3,1.3,1.7,2.2.4.9.6,2,.6,3.3s-.2,2.3-.6,3.3c-.4.9-1,1.7-1.7,2.2-.7.5-1.6.8-2.6.8ZM295.3,125c.7,0,1.3-.2,1.8-.5.5-.4.9-.9,1.2-1.5s.4-1.4.4-2.2-.1-1.6-.4-2.2c-.3-.6-.7-1.1-1.2-1.5-.5-.4-1.1-.5-1.8-.5s-1.3.2-1.9.5c-.5.4-1,.9-1.3,1.5-.3.6-.5,1.4-.5,2.2s.2,1.6.5,2.2c.3.6.7,1.1,1.3,1.5.5.4,1.2.5,1.9.5ZM298.8,126.8v-2.2c0,0,0-14.6,0-14.6h2.3v16.8h-2.2Z"/>
      <path class="st4" d="M309.5,127.1c-1.2,0-2.2-.3-3.1-.8-.9-.5-1.6-1.3-2.1-2.2-.5-.9-.8-2-.8-3.3s.3-2.3.8-3.3,1.2-1.7,2.1-2.2c.9-.5,1.9-.8,3.1-.8s2.1.3,2.9.8,1.5,1.3,2,2.4c.5,1,.7,2.2.7,3.6h-9.7l.4-.4c0,.8.2,1.6.5,2.2s.8,1.1,1.4,1.4c.6.3,1.2.5,2,.5s1.5-.2,2-.6c.5-.4,1-.9,1.3-1.4l2,.9c-.3.6-.7,1.2-1.2,1.6-.5.5-1.1.8-1.8,1.1-.7.3-1.5.4-2.3.4ZM305.9,119.8l-.5-.4h7.6l-.4.4c0-.7-.1-1.3-.4-1.8-.3-.5-.7-.9-1.2-1.2-.5-.3-1-.4-1.6-.4s-1.1.1-1.7.4c-.5.3-1,.6-1.3,1.1-.3.5-.5,1.1-.5,1.8Z"/>
    </g>
    <g class="st3">
      <path class="st4" d="M31.4,144.8v-2h7.7v2h-7.7ZM37.2,155.1c-1.2,0-2.1-.3-2.8-.9-.7-.6-1-1.5-1-2.7v-12.5h2.3v12.1c0,.6.1,1,.4,1.4.3.3.7.5,1.3.5s.3,0,.5,0c.2,0,.4-.2.7-.4l.9,1.8c-.4.3-.8.5-1.2.6s-.8.2-1.1.2Z"/>
      <path class="st4" d="M41.8,154.8v-12h2.3v12h-2.3ZM43.2,148.3c0-1.3.2-2.4.7-3.2.5-.8,1.1-1.4,1.9-1.8.8-.4,1.6-.6,2.5-.6v2.2c-.7,0-1.4.1-2.1.3-.6.2-1.2.6-1.6,1.1-.4.5-.6,1.1-.6,2h-.9Z"/>
      <path class="st4" d="M54,155.1c-1.4,0-2.5-.3-3.3-1-.8-.6-1.2-1.5-1.2-2.7s.4-2.2,1.2-2.8c.8-.6,2-1,3.4-1h3.3v1.8h-2.7c-1.1,0-1.9.2-2.3.5-.4.3-.7.8-.7,1.4s.2,1,.6,1.3c.4.3,1,.5,1.8.5s1.2-.1,1.7-.4c.5-.3.9-.7,1.1-1.2.3-.5.4-1.1.4-1.8h.8c0,1.6-.3,2.9-1,3.9-.7,1-1.8,1.4-3.2,1.4ZM57.6,154.8v-2.1c0,0,0-4.2,0-4.2,0-.9-.1-1.6-.3-2.2-.2-.6-.5-1-.9-1.3-.4-.3-.9-.5-1.6-.5s-1.2.1-1.6.4-.8.7-1.1,1.2l-2-.8c.3-.5.6-1,1.1-1.5.4-.4,1-.8,1.6-1,.6-.2,1.3-.4,2.1-.4s2.1.2,2.8.7c.8.4,1.3,1.1,1.7,1.9s.6,1.9.5,3.1v6.5h-2.1Z"/>
      <path class="st4" d="M62.6,154.8v-16.8h2.3v16.8h-2.3ZM68.8,155.1c-1,0-1.9-.3-2.6-.8-.7-.5-1.3-1.3-1.7-2.2s-.6-2-.6-3.3.2-2.4.6-3.3c.4-.9,1-1.7,1.7-2.2.7-.5,1.6-.8,2.6-.8s2,.3,2.8.8c.8.5,1.5,1.3,1.9,2.2.5.9.7,2,.7,3.3s-.2,2.3-.7,3.3-1.1,1.7-1.9,2.2c-.8.5-1.8.8-2.8.8ZM68.2,153c.7,0,1.4-.2,1.9-.5.5-.4,1-.9,1.3-1.5.3-.6.5-1.4.5-2.2s-.2-1.6-.5-2.2c-.3-.6-.7-1.1-1.3-1.5-.5-.4-1.2-.5-1.9-.5s-1.2.2-1.8.5c-.5.4-.9.9-1.2,1.5-.3.6-.4,1.4-.4,2.2s.1,1.6.4,2.2.7,1.1,1.2,1.5c.5.4,1.1.5,1.8.5Z"/>
      <path class="st4" d="M80.5,155.1c-1.4,0-2.5-.3-3.3-1-.8-.6-1.2-1.5-1.2-2.7s.4-2.2,1.2-2.8c.8-.6,2-1,3.4-1h3.3v1.8h-2.7c-1.1,0-1.9.2-2.3.5-.4.3-.7.8-.7,1.4s.2,1,.6,1.3c.4.3,1,.5,1.8.5s1.2-.1,1.7-.4c.5-.3.9-.7,1.1-1.2.3-.5.4-1.1.4-1.8h.8c0,1.6-.3,2.9-1,3.9-.7,1-1.8,1.4-3.2,1.4ZM84.1,154.8v-2.1c0,0,0-4.2,0-4.2,0-.9-.1-1.6-.3-2.2-.2-.6-.5-1-.9-1.3-.4-.3-.9-.5-1.6-.5s-1.2.1-1.6.4-.8.7-1.1,1.2l-2-.8c.3-.5.6-1,1.1-1.5.4-.4,1-.8,1.6-1,.6-.2,1.3-.4,2.1-.4s2.1.2,2.8.7c.8.4,1.3,1.1,1.7,1.9s.6,1.9.5,3.1v6.5h-2.1Z"/>
      <path class="st4" d="M89.1,154.8v-16.8h2.3v16.8h-2.3Z"/>
      <path class="st4" d="M94.6,154.8v-16.8h2.3v16.8h-2.3ZM102.9,148.7c0-1.1-.1-1.9-.4-2.5-.3-.6-.6-1-1-1.2-.4-.2-.9-.3-1.5-.4-1,0-1.8.3-2.3,1-.5.7-.8,1.7-.8,2.9h-1c0-1.3.2-2.3.6-3.3.4-.9.9-1.6,1.6-2.1.7-.5,1.5-.7,2.5-.7s1.8.2,2.4.6c.7.4,1.2,1,1.6,1.8.4.8.6,1.9.6,3.2v.6h-2.3ZM102.9,154.8v-6.1h2.3v6.1h-2.3Z"/>
      <path class="st4" d="M113.4,155.1c-1.2,0-2.3-.3-3.2-.8-.9-.5-1.6-1.3-2.1-2.2-.5-.9-.8-2-.8-3.3s.3-2.3.8-3.3c.5-.9,1.2-1.7,2.1-2.2.9-.5,2-.8,3.1-.8s2.2.3,3.1.8c.9.5,1.6,1.3,2.1,2.2.5.9.8,2,.8,3.3s-.3,2.3-.8,3.3c-.5.9-1.2,1.7-2.1,2.2-.9.5-1.9.8-3.1.8ZM113.4,153c.7,0,1.4-.2,1.9-.5.6-.4,1-.9,1.3-1.5.3-.6.5-1.4.5-2.2s-.2-1.6-.5-2.2c-.3-.6-.8-1.1-1.3-1.5-.6-.4-1.2-.5-1.9-.5s-1.4.2-1.9.5c-.6.4-1,.9-1.3,1.5s-.5,1.4-.5,2.2.2,1.6.5,2.2.8,1.1,1.3,1.5c.6.4,1.2.5,2,.5Z"/>
      <path class="st4" d="M132.5,155.1c-1.1,0-2-.3-2.8-.8s-1.4-1.3-1.9-2.2c-.5-.9-.7-2-.7-3.3s.2-2.4.7-3.3c.5-.9,1.1-1.7,1.9-2.2s1.8-.8,2.8-.8,1.9.3,2.6.8c.7.5,1.3,1.3,1.7,2.2.4.9.6,2,.6,3.3s-.2,2.3-.6,3.3c-.4.9-1,1.7-1.7,2.2-.7.5-1.6.8-2.6.8ZM133.1,153c.7,0,1.3-.2,1.8-.5.5-.4.9-.9,1.2-1.5s.4-1.4.4-2.2-.1-1.6-.4-2.2c-.3-.6-.7-1.1-1.2-1.5-.5-.4-1.1-.5-1.8-.5s-1.3.2-1.9.5c-.5.4-1,.9-1.3,1.5-.3.6-.5,1.4-.5,2.2s.2,1.6.5,2.2c.3.6.7,1.1,1.3,1.5.5.4,1.2.5,1.9.5ZM136.5,159.6v-16.8h2.3v16.8h-2.3Z"/>
      <path class="st4" d="M141.4,148.9v-6.1h2.3v6.1h-2.3ZM143.7,148.9c0,1.1.1,1.9.4,2.5s.6,1,1,1.2c.4.2,1,.3,1.5.4,1,0,1.7-.3,2.3-1,.5-.7.8-1.7.8-2.9h1c0,1.3-.2,2.3-.6,3.3-.4.9-.9,1.6-1.6,2.1-.7.5-1.5.7-2.5.7s-1.7-.2-2.4-.6c-.7-.4-1.2-1-1.6-1.8-.4-.8-.6-1.9-.6-3.2v-.6h2.3ZM149.9,154.8v-2.2c-.1,0-.1-9.8-.1-9.8h2.3v12h-2.1Z"/>
      <path class="st4" d="M160.5,155.1c-1.2,0-2.2-.3-3.1-.8-.9-.5-1.6-1.3-2.1-2.2-.5-.9-.8-2-.8-3.3s.3-2.3.8-3.3,1.2-1.7,2.1-2.2c.9-.5,1.9-.8,3.1-.8s2.1.3,2.9.8,1.5,1.3,2,2.4c.5,1,.7,2.2.7,3.6h-9.7l.4-.4c0,.8.2,1.6.5,2.2s.8,1.1,1.4,1.4c.6.3,1.2.5,2,.5s1.5-.2,2-.6c.5-.4,1-.9,1.3-1.4l2,.9c-.3.6-.7,1.2-1.2,1.6-.5.5-1.1.8-1.8,1.1-.7.3-1.5.4-2.3.4ZM157,147.8l-.5-.4h7.6l-.4.4c0-.7-.1-1.3-.4-1.8-.3-.5-.7-.9-1.2-1.2-.5-.3-1-.4-1.6-.4s-1.1.1-1.7.4c-.5.3-1,.6-1.3,1.1-.3.5-.5,1.1-.5,1.8Z"/>
      <path class="st4" d="M174.3,159.6v-16.8h2.1v2.2c.1,0,.1,14.6.1,14.6h-2.3ZM180.5,155.1c-1,0-1.9-.3-2.6-.8s-1.3-1.3-1.7-2.2c-.4-.9-.6-2-.6-3.3s.2-2.4.6-3.3c.4-.9,1-1.7,1.7-2.2s1.6-.8,2.6-.8,2,.3,2.8.8c.8.5,1.5,1.3,1.9,2.2.5.9.7,2,.7,3.3s-.2,2.3-.7,3.3-1.1,1.7-1.9,2.2c-.8.5-1.8.8-2.8.8ZM180,153c.7,0,1.4-.2,1.9-.5.5-.4,1-.9,1.3-1.5.3-.6.5-1.4.5-2.2s-.2-1.6-.5-2.2c-.3-.6-.7-1.1-1.3-1.5-.5-.4-1.2-.5-1.9-.5s-1.2.2-1.8.5c-.5.4-.9.9-1.2,1.5-.3.6-.4,1.4-.4,2.2s.1,1.6.4,2.2.7,1.1,1.2,1.5c.5.4,1.1.5,1.8.5Z"/>
      <path class="st4" d="M193.9,155.1c-1.2,0-2.3-.3-3.2-.8-.9-.5-1.6-1.3-2.1-2.2-.5-.9-.8-2-.8-3.3s.3-2.3.8-3.3c.5-.9,1.2-1.7,2.1-2.2.9-.5,2-.8,3.1-.8s2.2.3,3.1.8c.9.5,1.6,1.3,2.1,2.2.5.9.8,2,.8,3.3s-.3,2.3-.8,3.3c-.5.9-1.2,1.7-2.1,2.2-.9.5-1.9.8-3.1.8ZM193.9,153c.7,0,1.4-.2,1.9-.5.6-.4,1-.9,1.3-1.5.3-.6.5-1.4.5-2.2s-.2-1.6-.5-2.2c-.3-.6-.8-1.1-1.3-1.5-.6-.4-1.2-.5-1.9-.5s-1.4.2-1.9.5c-.6.4-1,.9-1.3,1.5s-.5,1.4-.5,2.2.2,1.6.5,2.2.8,1.1,1.3,1.5c.6.4,1.2.5,2,.5Z"/>
      <path class="st4" d="M207.1,155.1c-1.1,0-2-.3-2.8-.8s-1.4-1.3-1.9-2.2c-.5-.9-.7-2-.7-3.3s.2-2.4.7-3.3c.5-.9,1.1-1.7,1.9-2.2s1.8-.8,2.8-.8,1.9.3,2.6.8c.7.5,1.3,1.3,1.7,2.2.4.9.6,2,.6,3.3s-.2,2.3-.6,3.3c-.4.9-1,1.7-1.7,2.2-.7.5-1.6.8-2.6.8ZM207.6,153c.7,0,1.3-.2,1.8-.5.5-.4.9-.9,1.2-1.5s.4-1.4.4-2.2-.1-1.6-.4-2.2c-.3-.6-.7-1.1-1.2-1.5-.5-.4-1.1-.5-1.8-.5s-1.3.2-1.9.5c-.5.4-1,.9-1.3,1.5-.3.6-.5,1.4-.5,2.2s.2,1.6.5,2.2c.3.6.7,1.1,1.3,1.5.5.4,1.2.5,1.9.5ZM211.2,154.8v-2.2c0,0,0-14.6,0-14.6h2.3v16.8h-2.2Z"/>
      <path class="st4" d="M221.8,155.1c-1.2,0-2.2-.3-3.1-.8-.9-.5-1.6-1.3-2.1-2.2-.5-.9-.8-2-.8-3.3s.3-2.3.8-3.3,1.2-1.7,2.1-2.2c.9-.5,1.9-.8,3.1-.8s2.1.3,2.9.8,1.5,1.3,2,2.4c.5,1,.7,2.2.7,3.6h-9.7l.4-.4c0,.8.2,1.6.5,2.2s.8,1.1,1.4,1.4c.6.3,1.2.5,2,.5s1.5-.2,2-.6c.5-.4,1-.9,1.3-1.4l2,.9c-.3.6-.7,1.2-1.2,1.6-.5.5-1.1.8-1.8,1.1-.7.3-1.5.4-2.3.4ZM218.3,147.8l-.5-.4h7.6l-.4.4c0-.7-.1-1.3-.4-1.8-.3-.5-.7-.9-1.2-1.2-.5-.3-1-.4-1.6-.4s-1.1.1-1.7.4c-.5.3-1,.6-1.3,1.1-.3.5-.5,1.1-.5,1.8Z"/>
      <path class="st4" d="M229.6,154.8v-12h2.1v1.7c.5-.6,1-1.1,1.5-1.5.6-.3,1.2-.5,2-.5s1.8.2,2.4.7,1.2,1.1,1.5,2c.4-.9.8-1.5,1.5-2,.6-.5,1.4-.7,2.3-.7,1.4,0,2.4.4,3.2,1.3.8.9,1.1,2.3,1.1,4.1v6.9h-2.3v-6.1c0-1.1-.1-1.9-.3-2.5-.2-.6-.5-1-.9-1.2-.4-.2-.8-.3-1.3-.4-.9,0-1.6.3-2.1,1-.5.7-.7,1.7-.7,2.9v6.2h-2.3v-6.1c0-1.1-.1-1.9-.3-2.5-.2-.6-.5-1-.9-1.2-.4-.2-.8-.3-1.4-.4-.9,0-1.6.3-2.1,1-.5.7-.7,1.7-.7,2.9v6.2h-2.3Z"/>
      <path class="st4" d="M261.4,155.1c-1.2,0-2.2-.3-3.1-.8-.9-.5-1.6-1.3-2.1-2.2-.5-.9-.8-2-.8-3.3s.3-2.3.8-3.3c.5-.9,1.2-1.7,2.1-2.2.9-.5,1.9-.8,3.1-.8s2.1.3,2.9.8,1.5,1.3,2,2.4c.5,1,.7,2.2.7,3.6h-9.7l.4-.4c0,.8.2,1.6.5,2.2.3.6.8,1.1,1.4,1.4.6.3,1.2.5,2,.5s1.5-.2,2-.6c.5-.4,1-.9,1.3-1.4l2,.9c-.3.6-.7,1.2-1.2,1.6-.5.5-1.1.8-1.8,1.1-.7.3-1.5.4-2.3.4ZM257.8,147.8l-.5-.4h7.6l-.4.4c0-.7-.1-1.3-.4-1.8-.3-.5-.7-.9-1.2-1.2-.5-.3-1-.4-1.6-.4s-1.1.1-1.7.4c-.5.3-1,.6-1.3,1.1-.3.5-.5,1.1-.5,1.8Z"/>
      <path class="st4" d="M269.2,154.8v-12h2.1v2.2c.1,0,.1,9.8.1,9.8h-2.3ZM277.5,148.7c0-1.1-.1-1.9-.4-2.5-.2-.6-.6-1-1-1.2-.4-.2-.9-.3-1.5-.4-1,0-1.7.3-2.3,1-.5.7-.8,1.7-.8,2.9h-1c0-1.3.2-2.3.6-3.3.4-.9.9-1.6,1.6-2.1.7-.5,1.5-.7,2.5-.7s1.8.2,2.5.6,1.2,1,1.6,1.8.6,1.9.6,3.2v.6h-2.3ZM277.5,154.8v-6.1h2.3v6.1h-2.3Z"/>
      <path class="st4" d="M281.5,144.8v-2h7.7v2h-7.7ZM287.3,155.1c-1.2,0-2.1-.3-2.8-.9-.7-.6-1-1.5-1-2.7v-12.5h2.3v12.1c0,.6.1,1,.4,1.4.3.3.7.5,1.3.5s.3,0,.5,0c.2,0,.4-.2.7-.4l.9,1.8c-.4.3-.8.5-1.2.6s-.8.2-1.1.2Z"/>
      <path class="st4" d="M291.9,154.8v-12h2.3v12h-2.3ZM293.3,148.3c0-1.3.2-2.4.7-3.2.5-.8,1.1-1.4,1.9-1.8.8-.4,1.6-.6,2.5-.6v2.2c-.7,0-1.4.1-2.1.3-.6.2-1.2.6-1.6,1.1-.4.5-.6,1.1-.6,2h-.9Z"/>
      <path class="st4" d="M304.1,155.1c-1.4,0-2.5-.3-3.3-1-.8-.6-1.2-1.5-1.2-2.7s.4-2.2,1.2-2.8c.8-.6,2-1,3.4-1h3.3v1.8h-2.7c-1.1,0-1.9.2-2.3.5-.4.3-.7.8-.7,1.4s.2,1,.6,1.3c.4.3,1,.5,1.8.5s1.2-.1,1.7-.4c.5-.3.9-.7,1.1-1.2.3-.5.4-1.1.4-1.8h.8c0,1.6-.3,2.9-1,3.9-.7,1-1.8,1.4-3.2,1.4ZM307.6,154.8v-2.1c0,0,0-4.2,0-4.2,0-.9-.1-1.6-.3-2.2-.2-.6-.5-1-.9-1.3-.4-.3-.9-.5-1.6-.5s-1.2.1-1.6.4-.8.7-1.1,1.2l-2-.8c.3-.5.6-1,1.1-1.5.4-.4,1-.8,1.6-1,.6-.2,1.3-.4,2.1-.4s2.1.2,2.8.7c.8.4,1.3,1.1,1.7,1.9s.6,1.9.5,3.1v6.5h-2.1Z"/>
      <path class="st4" d="M312.6,154.8v-12h2.3v12h-2.3ZM314,148.3c0-1.3.2-2.4.7-3.2.5-.8,1.1-1.4,1.9-1.8.8-.4,1.6-.6,2.5-.6v2.2c-.7,0-1.4.1-2.1.3-.6.2-1.2.6-1.6,1.1-.4.5-.6,1.1-.6,2h-.9Z"/>
    </g>
    <g class="st3">
      <path class="st4" d="M36.3,182.8v-12h2.1v2.2c.1,0,.1,9.8.1,9.8h-2.3ZM44.6,176.7c0-1.1-.1-1.9-.4-2.5-.2-.6-.6-1-1-1.2-.4-.2-.9-.3-1.5-.4-1,0-1.7.3-2.3,1-.5.7-.8,1.7-.8,2.9h-1c0-1.3.2-2.3.6-3.3.4-.9.9-1.6,1.6-2.1.7-.5,1.5-.7,2.5-.7s1.8.2,2.5.6c.7.4,1.2,1,1.6,1.8s.6,1.9.6,3.2v.6h-2.3ZM44.6,182.8v-6.1h2.3v6.1h-2.3Z"/>
      <path class="st4" d="M55.2,183.1c-1.2,0-2.3-.3-3.2-.8-.9-.5-1.6-1.3-2.1-2.2-.5-.9-.8-2-.8-3.3s.3-2.3.8-3.3c.5-.9,1.2-1.7,2.1-2.2.9-.5,2-.8,3.1-.8s2.2.3,3.1.8c.9.5,1.6,1.3,2.1,2.2.5.9.8,2,.8,3.3s-.3,2.3-.8,3.3c-.5.9-1.2,1.7-2.1,2.2-.9.5-1.9.8-3.1.8ZM55.2,181c.7,0,1.4-.2,1.9-.5.6-.4,1-.9,1.3-1.5s.5-1.4.5-2.2-.2-1.6-.5-2.2-.8-1.1-1.3-1.5c-.6-.4-1.2-.5-1.9-.5s-1.4.2-1.9.5c-.6.4-1,.9-1.3,1.5-.3.6-.5,1.4-.5,2.2s.2,1.6.5,2.2c.3.6.8,1.1,1.3,1.5.6.4,1.2.5,2,.5Z"/>
      <path class="st4" d="M75,183.1c-1.2,0-2.3-.3-3.2-.8-.9-.5-1.6-1.3-2.1-2.2-.5-.9-.8-2-.8-3.3s.3-2.3.8-3.3c.5-.9,1.2-1.7,2.1-2.2.9-.5,2-.8,3.1-.8s2.2.3,3.1.8c.9.5,1.6,1.3,2.1,2.2.5.9.8,2,.8,3.3s-.3,2.3-.8,3.3c-.5.9-1.2,1.7-2.1,2.2-.9.5-1.9.8-3.1.8ZM75,181c.7,0,1.4-.2,1.9-.5.6-.4,1-.9,1.3-1.5s.5-1.4.5-2.2-.2-1.6-.5-2.2-.8-1.1-1.3-1.5c-.6-.4-1.2-.5-1.9-.5s-1.4.2-1.9.5c-.6.4-1,.9-1.3,1.5-.3.6-.5,1.4-.5,2.2s.2,1.6.5,2.2c.3.6.8,1.1,1.3,1.5.6.4,1.2.5,2,.5Z"/>
      <path class="st4" d="M83.5,182.8v-12h2.3v12h-2.3ZM84.9,176.3c0-1.3.2-2.4.7-3.2.5-.8,1.1-1.4,1.9-1.8.8-.4,1.6-.6,2.5-.6v2.2c-.7,0-1.4.1-2.1.3-.6.2-1.2.6-1.6,1.1-.4.5-.6,1.1-.6,2h-.9Z"/>
      <path class="st4" d="M96.6,182.6c-1.1,0-2-.3-2.8-.8-.8-.5-1.4-1.2-1.9-2.1-.5-.9-.7-1.9-.7-3.1s.2-2.3.7-3.2c.5-.9,1.1-1.6,1.9-2.1.8-.5,1.8-.8,2.8-.8s1.9.3,2.6.8c.7.5,1.3,1.2,1.7,2.1s.6,2,.6,3.2-.2,2.2-.6,3.1-1,1.6-1.7,2.1-1.6.7-2.6.7ZM96.8,187.9c-.8,0-1.5,0-2.2-.2-.7-.2-1.2-.3-1.7-.5-.4-.2-.8-.4-1-.5l.9-1.8c.2.1.5.3.9.4.4.2.8.3,1.3.4.5.1,1.1.2,1.7.2s1.4-.1,2-.4c.6-.3,1-.8,1.4-1.4.3-.6.5-1.4.5-2.4v-10.8h2.3v10.8c0,1.4-.3,2.5-.8,3.5-.5.9-1.2,1.6-2.1,2.1-.9.5-1.9.7-3.1.7ZM97.2,180.7c.7,0,1.3-.2,1.8-.5.5-.4.9-.8,1.2-1.5s.4-1.3.4-2.1-.1-1.5-.4-2.1c-.3-.6-.7-1.1-1.2-1.4s-1.1-.5-1.8-.5-1.3.2-1.9.5-1,.8-1.3,1.4-.5,1.3-.5,2.1.2,1.5.5,2.1.7,1.1,1.3,1.5,1.2.5,1.9.5Z"/>
      <path class="st4" d="M109.9,183.1c-1.4,0-2.5-.3-3.3-1-.8-.6-1.2-1.5-1.2-2.7s.4-2.2,1.2-2.8c.8-.6,2-1,3.4-1h3.3v1.8h-2.7c-1.1,0-1.9.2-2.3.5-.4.3-.7.8-.7,1.4s.2,1,.6,1.3c.4.3,1,.5,1.8.5s1.2-.1,1.7-.4c.5-.3.9-.7,1.1-1.2.3-.5.4-1.1.4-1.8h.8c0,1.6-.3,2.9-1,3.9s-1.8,1.4-3.2,1.4ZM113.4,182.8v-2.1c0,0,0-4.2,0-4.2,0-.9-.1-1.6-.3-2.2-.2-.6-.5-1-.9-1.3-.4-.3-.9-.5-1.6-.5s-1.2.1-1.6.4c-.5.3-.8.7-1.1,1.2l-2-.8c.3-.5.6-1,1.1-1.5.4-.4,1-.8,1.6-1,.6-.2,1.3-.4,2.1-.4s2.1.2,2.8.7c.8.4,1.3,1.1,1.7,1.9s.6,1.9.5,3.1v6.5h-2.1Z"/>
      <path class="st4" d="M118.4,182.8v-12h2.1v2.2c.1,0,.1,9.8.1,9.8h-2.3ZM126.7,176.7c0-1.1-.1-1.9-.4-2.5-.2-.6-.6-1-1-1.2-.4-.2-.9-.3-1.5-.4-1,0-1.7.3-2.3,1-.5.7-.8,1.7-.8,2.9h-1c0-1.3.2-2.3.6-3.3.4-.9.9-1.6,1.6-2.1.7-.5,1.5-.7,2.5-.7s1.8.2,2.5.6c.7.4,1.2,1,1.6,1.8s.6,1.9.6,3.2v.6h-2.3ZM126.7,182.8v-6.1h2.3v6.1h-2.3Z"/>
      <path class="st4" d="M133.2,168.3c-.4,0-.7-.1-1-.4s-.4-.6-.4-1,.1-.7.4-1c.3-.3.6-.4,1-.4s.7.1,1,.4c.3.3.4.6.4,1s-.1.7-.4,1-.6.4-1,.4ZM132,182.8v-12h2.3v12h-2.3Z"/>
      <path class="st4" d="M141.9,183.1c-.8,0-1.6-.1-2.3-.4s-1.2-.6-1.7-1-.8-.9-1-1.5l2-.9c.3.5.6.9,1.2,1.2.5.3,1.1.5,1.7.5s1.3-.1,1.7-.4c.4-.3.7-.6.7-1.1s-.2-.8-.5-1.1c-.3-.3-.8-.5-1.5-.6l-1.1-.3c-1.1-.3-2-.8-2.6-1.4-.6-.6-.9-1.3-.9-2.1,0-1.2.4-2.1,1.1-2.7.8-.6,1.9-1,3.3-1s1.4.1,2,.3,1.1.5,1.5.9.7.8.9,1.4l-1.9.9c-.2-.5-.5-.8-1-1.1-.5-.2-1-.3-1.6-.3s-1.1.1-1.5.4c-.4.3-.6.7-.6,1.2s.2.5.5.8.8.5,1.4.6l1.3.3c.8.2,1.4.5,1.9.9.5.4.9.8,1.2,1.3.3.5.4,1,.4,1.5s-.2,1.3-.6,1.9c-.4.5-.9.9-1.6,1.2-.7.3-1.5.4-2.3.4Z"/>
      <path class="st4" d="M148.8,182.8v-12h2.1v1.7c.5-.6,1-1.1,1.5-1.5.6-.3,1.2-.5,2-.5s1.8.2,2.4.7c.7.4,1.2,1.1,1.5,2,.4-.9.8-1.5,1.5-2,.6-.5,1.4-.7,2.3-.7,1.4,0,2.4.4,3.2,1.3s1.1,2.3,1.1,4.1v6.9h-2.3v-6.1c0-1.1-.1-1.9-.3-2.5-.2-.6-.5-1-.9-1.2-.4-.2-.8-.3-1.3-.4-.9,0-1.6.3-2.1,1-.5.7-.7,1.7-.7,2.9v6.2h-2.3v-6.1c0-1.1-.1-1.9-.3-2.5-.2-.6-.5-1-.9-1.2-.4-.2-.8-.3-1.4-.4-.9,0-1.6.3-2.1,1-.5.7-.7,1.7-.7,2.9v6.2h-2.3Z"/>
      <path class="st4" d="M174.8,183.1c-1.2,0-2.3-.3-3.2-.8-.9-.5-1.6-1.3-2.1-2.2-.5-.9-.8-2-.8-3.3s.3-2.3.8-3.3c.5-.9,1.2-1.7,2.1-2.2.9-.5,2-.8,3.1-.8s2.2.3,3.1.8c.9.5,1.6,1.3,2.1,2.2.5.9.8,2,.8,3.3s-.3,2.3-.8,3.3c-.5.9-1.2,1.7-2.1,2.2-.9.5-1.9.8-3.1.8ZM174.8,181c.7,0,1.4-.2,1.9-.5.6-.4,1-.9,1.3-1.5.3-.6.5-1.4.5-2.2s-.2-1.6-.5-2.2c-.3-.6-.8-1.1-1.3-1.5-.6-.4-1.2-.5-1.9-.5s-1.4.2-1.9.5c-.6.4-1,.9-1.3,1.5-.3.6-.5,1.4-.5,2.2s.2,1.6.5,2.2c.3.6.8,1.1,1.3,1.5.6.4,1.2.5,2,.5Z"/>
      <path class="st4" d="M189.3,187.6v-16.8h2.1v2.2c.1,0,.1,14.6.1,14.6h-2.3ZM195.5,183.1c-1,0-1.9-.3-2.6-.8s-1.3-1.3-1.7-2.2c-.4-.9-.6-2-.6-3.3s.2-2.4.6-3.3c.4-.9,1-1.7,1.7-2.2s1.6-.8,2.6-.8,2,.3,2.8.8c.8.5,1.5,1.3,1.9,2.2.5.9.7,2,.7,3.3s-.2,2.3-.7,3.3-1.1,1.7-1.9,2.2c-.8.5-1.8.8-2.8.8ZM194.9,181c.7,0,1.4-.2,1.9-.5.5-.4,1-.9,1.3-1.5.3-.6.5-1.4.5-2.2s-.2-1.6-.5-2.2c-.3-.6-.7-1.1-1.3-1.5-.5-.4-1.2-.5-1.9-.5s-1.2.2-1.8.5c-.5.4-.9.9-1.2,1.5-.3.6-.4,1.4-.4,2.2s.1,1.6.4,2.2.7,1.1,1.2,1.5c.5.4,1.1.5,1.8.5Z"/>
      <path class="st4" d="M208.8,183.1c-1.2,0-2.3-.3-3.2-.8-.9-.5-1.6-1.3-2.1-2.2-.5-.9-.8-2-.8-3.3s.3-2.3.8-3.3c.5-.9,1.2-1.7,2.1-2.2.9-.5,2-.8,3.1-.8s2.2.3,3.1.8c.9.5,1.6,1.3,2.1,2.2.5.9.8,2,.8,3.3s-.3,2.3-.8,3.3c-.5.9-1.2,1.7-2.1,2.2-.9.5-1.9.8-3.1.8ZM208.8,181c.7,0,1.4-.2,1.9-.5.6-.4,1-.9,1.3-1.5.3-.6.5-1.4.5-2.2s-.2-1.6-.5-2.2c-.3-.6-.8-1.1-1.3-1.5-.6-.4-1.2-.5-1.9-.5s-1.4.2-1.9.5c-.6.4-1,.9-1.3,1.5s-.5,1.4-.5,2.2.2,1.6.5,2.2.8,1.1,1.3,1.5c.6.4,1.2.5,2,.5Z"/>
      <path class="st4" d="M217.3,182.8v-12h2.3v12h-2.3ZM218.7,176.3c0-1.3.2-2.4.7-3.2.5-.8,1.1-1.4,1.9-1.8.8-.4,1.6-.6,2.5-.6v2.2c-.7,0-1.4.1-2.1.3-.6.2-1.2.6-1.6,1.1-.4.5-.6,1.1-.6,2h-.9Z"/>
      <path class="st4" d="M231.6,182.8v-12h2.1v1.7c.5-.6,1-1.1,1.5-1.5.6-.3,1.2-.5,2-.5s1.8.2,2.4.7,1.2,1.1,1.5,2c.4-.9.8-1.5,1.5-2,.6-.5,1.4-.7,2.3-.7,1.4,0,2.4.4,3.2,1.3.8.9,1.1,2.3,1.1,4.1v6.9h-2.3v-6.1c0-1.1-.1-1.9-.3-2.5-.2-.6-.5-1-.9-1.2-.4-.2-.8-.3-1.3-.4-.9,0-1.6.3-2.1,1-.5.7-.7,1.7-.7,2.9v6.2h-2.3v-6.1c0-1.1-.1-1.9-.3-2.5-.2-.6-.5-1-.9-1.2-.4-.2-.8-.3-1.4-.4-.9,0-1.6.3-2.1,1-.5.7-.7,1.7-.7,2.9v6.2h-2.3Z"/>
      <path class="st4" d="M257.4,183.1c-1.2,0-2.2-.3-3.1-.8-.9-.5-1.6-1.3-2.1-2.2-.5-.9-.8-2-.8-3.3s.3-2.3.8-3.3c.5-.9,1.2-1.7,2.1-2.2.9-.5,1.9-.8,3.1-.8s2.1.3,2.9.8,1.5,1.3,2,2.4c.5,1,.7,2.2.7,3.6h-9.7l.4-.4c0,.8.2,1.6.5,2.2.3.6.8,1.1,1.4,1.4.6.3,1.2.5,2,.5s1.5-.2,2-.6c.5-.4,1-.9,1.3-1.4l2,.9c-.3.6-.7,1.2-1.2,1.6-.5.5-1.1.8-1.8,1.1-.7.3-1.5.4-2.3.4ZM253.9,175.8l-.5-.4h7.6l-.4.4c0-.7-.1-1.3-.4-1.8-.3-.5-.7-.9-1.2-1.2-.5-.3-1-.4-1.6-.4s-1.1.1-1.7.4c-.5.3-1,.6-1.3,1.1-.3.5-.5,1.1-.5,1.8Z"/>
      <path class="st4" d="M266.6,168.3c-.4,0-.7-.1-1-.4-.3-.3-.4-.6-.4-1s.1-.7.4-1c.3-.3.6-.4,1-.4s.7.1,1,.4c.3.3.4.6.4,1s-.1.7-.4,1c-.3.3-.6.4-1,.4ZM265.4,182.8v-12h2.3v12h-2.3Z"/>
      <path class="st4" d="M276.5,183.1c-1.2,0-2.3-.3-3.2-.8-.9-.5-1.6-1.3-2.1-2.2-.5-.9-.8-2-.8-3.3s.3-2.3.8-3.3c.5-.9,1.2-1.7,2.1-2.2.9-.5,2-.8,3.1-.8s2.2.3,3.1.8c.9.5,1.6,1.3,2.1,2.2.5.9.8,2,.8,3.3s-.3,2.3-.8,3.3c-.5.9-1.2,1.7-2.1,2.2-.9.5-1.9.8-3.1.8ZM276.5,181c.7,0,1.4-.2,1.9-.5.6-.4,1-.9,1.3-1.5.3-.6.5-1.4.5-2.2s-.2-1.6-.5-2.2c-.3-.6-.8-1.1-1.3-1.5-.6-.4-1.2-.5-1.9-.5s-1.4.2-1.9.5c-.6.4-1,.9-1.3,1.5s-.5,1.4-.5,2.2.2,1.6.5,2.2.8,1.1,1.3,1.5c.6.4,1.2.5,2,.5Z"/>
      <path class="st4" d="M295.6,183.1c-1.1,0-2-.3-2.8-.8s-1.4-1.3-1.9-2.2c-.5-.9-.7-2-.7-3.3s.2-2.4.7-3.3c.5-.9,1.1-1.7,1.9-2.2s1.8-.8,2.8-.8,1.9.3,2.6.8c.7.5,1.3,1.3,1.7,2.2.4.9.6,2,.6,3.3s-.2,2.3-.6,3.3c-.4.9-1,1.7-1.7,2.2-.7.5-1.6.8-2.6.8ZM296.1,181c.7,0,1.3-.2,1.8-.5.5-.4.9-.9,1.2-1.5s.4-1.4.4-2.2-.1-1.6-.4-2.2c-.3-.6-.7-1.1-1.2-1.5-.5-.4-1.1-.5-1.8-.5s-1.3.2-1.9.5c-.5.4-1,.9-1.3,1.5-.3.6-.5,1.4-.5,2.2s.2,1.6.5,2.2c.3.6.7,1.1,1.3,1.5.5.4,1.2.5,1.9.5ZM299.6,182.8v-2.2c0,0,0-14.6,0-14.6h2.3v16.8h-2.2Z"/>
      <path class="st4" d="M308.8,183.1c-1.4,0-2.5-.3-3.3-1-.8-.6-1.2-1.5-1.2-2.7s.4-2.2,1.2-2.8c.8-.6,2-1,3.4-1h3.3v1.8h-2.7c-1.1,0-1.9.2-2.3.5-.4.3-.7.8-.7,1.4s.2,1,.6,1.3c.4.3,1,.5,1.8.5s1.2-.1,1.7-.4c.5-.3.9-.7,1.1-1.2.3-.5.4-1.1.4-1.8h.8c0,1.6-.3,2.9-1,3.9-.7,1-1.8,1.4-3.2,1.4ZM312.3,182.8v-2.1c0,0,0-4.2,0-4.2,0-.9-.1-1.6-.3-2.2-.2-.6-.5-1-.9-1.3-.4-.3-.9-.5-1.6-.5s-1.2.1-1.6.4-.8.7-1.1,1.2l-2-.8c.3-.5.6-1,1.1-1.5.4-.4,1-.8,1.6-1,.6-.2,1.3-.4,2.1-.4s2.1.2,2.8.7c.8.4,1.3,1.1,1.7,1.9s.6,1.9.5,3.1v6.5h-2.1Z"/>
    </g>
    <g class="st3">
      <path class="st4" d="M51,210.8l-5-12h2.3l4.8,12h-2.1ZM51.2,210.8l4.8-12h2.4l-5,12h-2.2Z"/>
      <path class="st4" d="M61.4,196.3c-.4,0-.7-.1-1-.4s-.4-.6-.4-1,.1-.7.4-1c.3-.3.6-.4,1-.4s.7.1,1,.4c.3.3.4.6.4,1s-.1.7-.4,1-.6.4-1,.4ZM60.2,210.8v-12h2.3v12h-2.3Z"/>
      <path class="st4" d="M69.7,211.1c-1.4,0-2.5-.3-3.3-1-.8-.6-1.2-1.5-1.2-2.7s.4-2.2,1.2-2.8c.8-.6,2-1,3.4-1h3.3v1.8h-2.7c-1.1,0-1.9.2-2.3.5-.4.3-.7.8-.7,1.4s.2,1,.6,1.3c.4.3,1,.5,1.8.5s1.2-.1,1.7-.4c.5-.3.9-.7,1.1-1.2.3-.5.4-1.1.4-1.8h.8c0,1.6-.3,2.9-1,3.9s-1.8,1.4-3.2,1.4ZM73.2,210.8v-2.1c0,0,0-4.2,0-4.2,0-.9-.1-1.6-.3-2.2-.2-.6-.5-1-.9-1.3-.4-.3-.9-.5-1.6-.5s-1.2.1-1.6.4c-.5.3-.8.7-1.1,1.2l-2-.8c.3-.5.6-1,1.1-1.5.4-.4,1-.8,1.6-1,.6-.2,1.3-.4,2.1-.4s2.1.2,2.8.7c.8.4,1.3,1.1,1.7,1.9s.6,1.9.5,3.1v6.5h-2.1Z"/>
      <path class="st4" d="M84.1,210.8v-12h2.3v12h-2.3ZM85.5,204.3c0-1.3.2-2.4.7-3.2.5-.8,1.1-1.4,1.9-1.8.8-.4,1.6-.6,2.5-.6v2.2c-.7,0-1.4.1-2.1.3-.6.2-1.2.6-1.6,1.1-.4.5-.6,1.1-.6,2h-.9Z"/>
      <path class="st4" d="M97.8,211.1c-1.2,0-2.2-.3-3.1-.8-.9-.5-1.6-1.3-2.1-2.2-.5-.9-.8-2-.8-3.3s.3-2.3.8-3.3c.5-.9,1.2-1.7,2.1-2.2.9-.5,1.9-.8,3.1-.8s2.1.3,2.9.8,1.5,1.3,2,2.4c.5,1,.7,2.2.7,3.6h-9.7l.4-.4c0,.8.2,1.6.5,2.2.3.6.8,1.1,1.4,1.4.6.3,1.2.5,2,.5s1.5-.2,2-.6c.5-.4,1-.9,1.3-1.4l2,.9c-.3.6-.7,1.2-1.2,1.6-.5.5-1.1.8-1.8,1.1s-1.5.4-2.3.4ZM94.3,203.8l-.5-.4h7.6l-.4.4c0-.7-.1-1.3-.4-1.8-.3-.5-.7-.9-1.2-1.2-.5-.3-1-.4-1.6-.4s-1.1.1-1.7.4c-.5.3-1,.6-1.3,1.1-.3.5-.5,1.1-.5,1.8Z"/>
      <path class="st4" d="M109.9,211.1c-.8,0-1.6-.1-2.3-.4s-1.2-.6-1.7-1-.8-.9-1-1.5l2-.9c.3.5.6.9,1.2,1.2.5.3,1.1.5,1.7.5s1.3-.1,1.7-.4c.4-.3.7-.6.7-1.1s-.2-.8-.5-1.1c-.3-.3-.8-.5-1.5-.6l-1.1-.3c-1.1-.3-2-.8-2.6-1.4-.6-.6-.9-1.3-.9-2.1,0-1.2.4-2.1,1.1-2.7.8-.6,1.9-1,3.3-1s1.4.1,2,.3,1.1.5,1.5.9.7.8.9,1.4l-1.9.9c-.2-.5-.5-.8-1-1.1-.5-.2-1-.3-1.6-.3s-1.1.1-1.5.4c-.4.3-.6.7-.6,1.2s.2.5.5.8.8.5,1.4.6l1.3.3c.8.2,1.4.5,1.9.9.5.4.9.8,1.2,1.3.3.5.4,1,.4,1.5s-.2,1.3-.6,1.9c-.4.5-.9.9-1.6,1.2-.7.3-1.5.4-2.3.4Z"/>
      <path class="st4" d="M116.9,215.6v-16.8h2.1v2.2c.1,0,.1,14.6.1,14.6h-2.3ZM123.2,211.1c-1,0-1.9-.3-2.6-.8s-1.3-1.3-1.7-2.2c-.4-.9-.6-2-.6-3.3s.2-2.4.6-3.3c.4-.9,1-1.7,1.7-2.2s1.6-.8,2.6-.8,2,.3,2.8.8,1.5,1.3,1.9,2.2c.5.9.7,2,.7,3.3s-.2,2.3-.7,3.3-1.1,1.7-1.9,2.2-1.8.8-2.8.8ZM122.6,209c.7,0,1.4-.2,1.9-.5.5-.4,1-.9,1.3-1.5s.5-1.4.5-2.2-.2-1.6-.5-2.2c-.3-.6-.7-1.1-1.3-1.5-.5-.4-1.2-.5-1.9-.5s-1.2.2-1.8.5c-.5.4-.9.9-1.2,1.5-.3.6-.4,1.4-.4,2.2s.1,1.6.4,2.2.7,1.1,1.2,1.5c.5.4,1.1.5,1.8.5Z"/>
      <path class="st4" d="M132.4,196.3c-.4,0-.7-.1-1-.4s-.4-.6-.4-1,.1-.7.4-1c.3-.3.6-.4,1-.4s.7.1,1,.4c.3.3.4.6.4,1s-.1.7-.4,1-.6.4-1,.4ZM131.2,210.8v-12h2.3v12h-2.3Z"/>
      <path class="st4" d="M136.8,210.8v-12h2.3v12h-2.3ZM138.2,204.3c0-1.3.2-2.4.7-3.2.5-.8,1.1-1.4,1.9-1.8.8-.4,1.6-.6,2.5-.6v2.2c-.7,0-1.4.1-2.1.3-.6.2-1.2.6-1.6,1.1-.4.5-.6,1.1-.6,2h-.9Z"/>
      <path class="st4" d="M149,211.1c-1.4,0-2.5-.3-3.3-1-.8-.6-1.2-1.5-1.2-2.7s.4-2.2,1.2-2.8c.8-.6,2-1,3.4-1h3.3v1.8h-2.7c-1.1,0-1.9.2-2.3.5-.4.3-.7.8-.7,1.4s.2,1,.6,1.3c.4.3,1,.5,1.8.5s1.2-.1,1.7-.4c.5-.3.9-.7,1.1-1.2.3-.5.4-1.1.4-1.8h.8c0,1.6-.3,2.9-1,3.9s-1.8,1.4-3.2,1.4ZM152.6,210.8v-2.1c0,0,0-4.2,0-4.2,0-.9-.1-1.6-.3-2.2-.2-.6-.5-1-.9-1.3-.4-.3-.9-.5-1.6-.5s-1.2.1-1.6.4c-.5.3-.8.7-1.1,1.2l-2-.8c.3-.5.6-1,1.1-1.5.4-.4,1-.8,1.6-1,.6-.2,1.3-.4,2.1-.4s2.1.2,2.8.7c.8.4,1.3,1.1,1.7,1.9s.6,1.9.5,3.1v6.5h-2.1Z"/>
    </g>
    <g class="st3">
      <path class="st4" d="M156.4,200.8v-2h7.7v2h-7.7ZM162.2,211.1c-1.2,0-2.1-.3-2.8-.9-.7-.6-1-1.5-1-2.7v-12.5h2.3v12.1c0,.6.1,1,.4,1.4.3.3.7.5,1.3.5s.3,0,.5,0c.2,0,.4-.2.7-.4l.9,1.8c-.4.3-.8.5-1.2.6s-.8.2-1.1.2Z"/>
    </g>
    <g class="st3">
      <path class="st4" d="M172.1,211.1c-1.2,0-2.3-.3-3.2-.8-.9-.5-1.6-1.3-2.1-2.2-.5-.9-.8-2-.8-3.3s.3-2.3.8-3.3c.5-.9,1.2-1.7,2.1-2.2.9-.5,2-.8,3.1-.8s2.2.3,3.1.8c.9.5,1.6,1.3,2.1,2.2.5.9.8,2,.8,3.3s-.3,2.3-.8,3.3c-.5.9-1.2,1.7-2.1,2.2-.9.5-1.9.8-3.1.8ZM172.1,209c.7,0,1.4-.2,1.9-.5.6-.4,1-.9,1.3-1.5s.5-1.4.5-2.2-.2-1.6-.5-2.2-.8-1.1-1.3-1.5c-.6-.4-1.2-.5-1.9-.5s-1.4.2-1.9.5c-.6.4-1,.9-1.3,1.5-.3.6-.5,1.4-.5,2.2s.2,1.6.5,2.2c.3.6.8,1.1,1.3,1.5.6.4,1.2.5,2,.5ZM170.3,197.2l2.8-3.2h2.8l-3.1,3.2h-2.5Z"/>
      <path class="st4" d="M180.6,210.8v-12h2.3v12h-2.3ZM182,204.3c0-1.3.2-2.4.7-3.2s1.1-1.4,1.9-1.8c.8-.4,1.6-.6,2.5-.6v2.2c-.7,0-1.4.1-2.1.3-.6.2-1.2.6-1.6,1.1s-.6,1.1-.6,2h-.9Z"/>
      <path class="st4" d="M190.3,196.3c-.4,0-.7-.1-1-.4-.3-.3-.4-.6-.4-1s.1-.7.4-1c.3-.3.6-.4,1-.4s.7.1,1,.4.4.6.4,1-.1.7-.4,1c-.3.3-.6.4-1,.4ZM189.1,210.8v-12h2.3v12h-2.3Z"/>
      <path class="st4" d="M198.6,211.1c-1.4,0-2.5-.3-3.3-1-.8-.6-1.2-1.5-1.2-2.7s.4-2.2,1.2-2.8c.8-.6,2-1,3.4-1h3.3v1.8h-2.7c-1.1,0-1.9.2-2.3.5-.4.3-.7.8-.7,1.4s.2,1,.6,1.3c.4.3,1,.5,1.8.5s1.2-.1,1.7-.4c.5-.3.9-.7,1.1-1.2.3-.5.4-1.1.4-1.8h.8c0,1.6-.3,2.9-1,3.9-.7,1-1.8,1.4-3.2,1.4ZM202.1,210.8v-2.1c0,0,0-4.2,0-4.2,0-.9,0-1.6-.3-2.2s-.5-1-.9-1.3c-.4-.3-.9-.5-1.6-.5s-1.2.1-1.6.4c-.5.3-.8.7-1.1,1.2l-2-.8c.3-.5.6-1,1.1-1.5.4-.4,1-.8,1.6-1s1.3-.4,2.1-.4,2.1.2,2.8.7c.8.4,1.3,1.1,1.7,1.9s.6,1.9.5,3.1v6.5h-2.1Z"/>
    </g>
    <g class="st3">
      <path class="st4" d="M216.7,213.2c-.7-1-1.4-2-2-3.2-.6-1.1-1.1-2.4-1.4-3.6-.4-1.3-.5-2.6-.5-4s.2-2.7.5-4c.4-1.3.8-2.5,1.4-3.6.6-1.1,1.3-2.2,2-3.2h2.3c-.7,1-1.4,2.1-2,3.3-.6,1.2-1.1,2.4-1.4,3.6-.4,1.3-.5,2.5-.5,3.9s.2,2.6.5,3.9c.4,1.3.8,2.5,1.4,3.6.6,1.2,1.3,2.3,2,3.3h-2.3Z"/>
    </g>
    <g class="st3">
      <path class="st4" d="M221.7,215.6v-16.8h2.1v2.2c.1,0,.1,14.6.1,14.6h-2.3ZM227.9,211.1c-1,0-1.9-.3-2.6-.8s-1.3-1.3-1.7-2.2c-.4-.9-.6-2-.6-3.3s.2-2.4.6-3.3c.4-.9,1-1.7,1.7-2.2s1.6-.8,2.6-.8,2,.3,2.8.8c.8.5,1.5,1.3,1.9,2.2.5.9.7,2,.7,3.3s-.2,2.3-.7,3.3c-.5.9-1.1,1.7-1.9,2.2-.8.5-1.8.8-2.8.8ZM227.3,209c.7,0,1.4-.2,1.9-.5.5-.4,1-.9,1.3-1.5.3-.6.5-1.4.5-2.2s-.2-1.6-.5-2.2c-.3-.6-.7-1.1-1.3-1.5-.5-.4-1.2-.5-1.9-.5s-1.2.2-1.8.5c-.5.4-.9.9-1.2,1.5-.3.6-.4,1.4-.4,2.2s.1,1.6.4,2.2c.3.6.7,1.1,1.2,1.5.5.4,1.1.5,1.8.5Z"/>
      <path class="st4" d="M241.2,211.1c-1.2,0-2.3-.3-3.2-.8-.9-.5-1.6-1.3-2.1-2.2-.5-.9-.8-2-.8-3.3s.3-2.3.8-3.3,1.2-1.7,2.1-2.2c.9-.5,2-.8,3.1-.8s2.2.3,3.1.8c.9.5,1.6,1.3,2.1,2.2.5.9.8,2,.8,3.3s-.3,2.3-.8,3.3c-.5.9-1.2,1.7-2.1,2.2-.9.5-1.9.8-3.1.8ZM241.2,209c.7,0,1.4-.2,1.9-.5.6-.4,1-.9,1.3-1.5s.5-1.4.5-2.2-.2-1.6-.5-2.2-.8-1.1-1.3-1.5c-.6-.4-1.2-.5-1.9-.5s-1.4.2-1.9.5c-.6.4-1,.9-1.3,1.5s-.5,1.4-.5,2.2.2,1.6.5,2.2.8,1.1,1.3,1.5c.6.4,1.2.5,2,.5Z"/>
      <path class="st4" d="M255,211.1c-1.2,0-2.2-.3-3.1-.8-.9-.5-1.6-1.3-2.1-2.2-.5-.9-.8-2-.8-3.3s.3-2.3.8-3.3,1.2-1.7,2.1-2.2c.9-.5,1.9-.8,3.1-.8s2.1.3,2.9.8,1.5,1.3,2,2.4c.5,1,.7,2.2.7,3.6h-9.7l.4-.4c0,.8.2,1.6.5,2.2.3.6.8,1.1,1.4,1.4.6.3,1.2.5,2,.5s1.5-.2,2-.6c.5-.4,1-.9,1.3-1.4l2,.9c-.3.6-.7,1.2-1.2,1.6-.5.5-1.1.8-1.8,1.1s-1.5.4-2.3.4ZM251.5,203.8l-.5-.4h7.6l-.4.4c0-.7-.1-1.3-.4-1.8-.3-.5-.7-.9-1.2-1.2-.5-.3-1-.4-1.6-.4s-1.1.1-1.7.4c-.5.3-1,.6-1.3,1.1-.3.5-.5,1.1-.5,1.8Z"/>
      <path class="st4" d="M264.2,196.3c-.4,0-.7-.1-1-.4-.3-.3-.4-.6-.4-1s.1-.7.4-1c.3-.3.6-.4,1-.4s.7.1,1,.4c.3.3.4.6.4,1s-.1.7-.4,1-.6.4-1,.4ZM263,210.8v-12h2.3v12h-2.3Z"/>
      <path class="st4" d="M268.7,210.8v-12h2.3v12h-2.3ZM270,204.3c0-1.3.2-2.4.7-3.2s1.1-1.4,1.9-1.8c.8-.4,1.6-.6,2.5-.6v2.2c-.7,0-1.4.1-2.1.3-.6.2-1.2.6-1.6,1.1s-.6,1.1-.6,2h-.9Z"/>
      <path class="st4" d="M280.9,211.1c-1.4,0-2.5-.3-3.3-1-.8-.6-1.2-1.5-1.2-2.7s.4-2.2,1.2-2.8c.8-.6,2-1,3.4-1h3.3v1.8h-2.7c-1.1,0-1.9.2-2.3.5-.4.3-.7.8-.7,1.4s.2,1,.6,1.3c.4.3,1,.5,1.8.5s1.2-.1,1.7-.4c.5-.3.9-.7,1.1-1.2s.4-1.1.4-1.8h.8c0,1.6-.3,2.9-1,3.9s-1.8,1.4-3.2,1.4ZM284.4,210.8v-2.1c0,0,0-4.2,0-4.2,0-.9,0-1.6-.3-2.2s-.5-1-.9-1.3c-.4-.3-.9-.5-1.6-.5s-1.2.1-1.6.4-.8.7-1.1,1.2l-2-.8c.3-.5.6-1,1.1-1.5.4-.4,1-.8,1.6-1s1.3-.4,2.1-.4,2.1.2,2.8.7c.8.4,1.3,1.1,1.7,1.9.4.8.6,1.9.5,3.1v6.5h-2.1Z"/>
      <path class="st4" d="M293.7,211.1c-.8,0-1.6-.1-2.3-.4s-1.2-.6-1.7-1-.8-.9-1-1.5l2-.9c.3.5.6.9,1.2,1.2.5.3,1.1.5,1.7.5s1.3-.1,1.7-.4.7-.6.7-1.1-.2-.8-.5-1.1c-.3-.3-.8-.5-1.5-.6l-1.1-.3c-1.1-.3-2-.8-2.6-1.4-.6-.6-.9-1.3-.9-2.1,0-1.2.4-2.1,1.1-2.7.8-.6,1.9-1,3.3-1s1.4.1,2,.3,1.1.5,1.5.9.7.8.9,1.4l-1.9.9c-.2-.5-.5-.8-1-1.1-.5-.2-1-.3-1.6-.3s-1.1.1-1.5.4c-.4.3-.6.7-.6,1.2s.2.5.5.8.8.5,1.4.6l1.3.3c.8.2,1.4.5,1.9.9.5.4.9.8,1.2,1.3.3.5.4,1,.4,1.5s-.2,1.3-.6,1.9c-.4.5-.9.9-1.6,1.2-.7.3-1.5.4-2.3.4Z"/>
      <path class="st4" d="M299.9,213.6l1.4-5.2h2.5l-2,5.2h-1.8Z"/>
    </g>
    <g class="st3">
      <path class="st4" d="M83.7,238.6c-1.1,0-2-.3-2.8-.8-.8-.5-1.4-1.2-1.9-2.1-.5-.9-.7-1.9-.7-3.1s.2-2.3.7-3.2c.5-.9,1.1-1.6,1.9-2.1.8-.5,1.8-.8,2.8-.8s1.9.3,2.6.8c.7.5,1.3,1.2,1.7,2.1s.6,2,.6,3.2-.2,2.2-.6,3.1-1,1.6-1.7,2.1-1.6.7-2.6.7ZM83.9,243.9c-.8,0-1.5,0-2.2-.2-.7-.2-1.2-.3-1.7-.5-.4-.2-.8-.4-1-.5l.9-1.8c.2.1.5.3.9.4.4.2.8.3,1.3.4.5.1,1.1.2,1.7.2s1.4-.1,2-.4c.6-.3,1-.8,1.4-1.4.3-.6.5-1.4.5-2.4v-10.8h2.3v10.8c0,1.4-.3,2.5-.8,3.5-.5.9-1.2,1.6-2.1,2.1-.9.5-1.9.7-3.1.7ZM84.2,236.7c.7,0,1.3-.2,1.8-.5.5-.4.9-.8,1.2-1.5s.4-1.3.4-2.1-.1-1.5-.4-2.1c-.3-.6-.7-1.1-1.2-1.4s-1.1-.5-1.8-.5-1.3.2-1.9.5-1,.8-1.3,1.4-.5,1.3-.5,2.1.2,1.5.5,2.1.7,1.1,1.3,1.5,1.2.5,1.9.5Z"/>
      <path class="st4" d="M96.9,239.1c-1.4,0-2.5-.3-3.3-1-.8-.6-1.2-1.5-1.2-2.7s.4-2.2,1.2-2.8c.8-.6,2-1,3.4-1h3.3v1.8h-2.7c-1.1,0-1.9.2-2.3.5-.4.3-.7.8-.7,1.4s.2,1,.6,1.3c.4.3,1,.5,1.8.5s1.2-.1,1.7-.4c.5-.3.9-.7,1.1-1.2.3-.5.4-1.1.4-1.8h.8c0,1.6-.3,2.9-1,3.9s-1.8,1.4-3.2,1.4ZM100.5,238.8v-2.1c0,0,0-4.2,0-4.2,0-.9-.1-1.6-.3-2.2-.2-.6-.5-1-.9-1.3-.4-.3-.9-.5-1.6-.5s-1.2.1-1.6.4c-.5.3-.8.7-1.1,1.2l-2-.8c.3-.5.6-1,1.1-1.5.4-.4,1-.8,1.6-1,.6-.2,1.3-.4,2.1-.4s2.1.2,2.8.7c.8.4,1.3,1.1,1.7,1.9s.6,1.9.5,3.1v6.5h-2.1Z"/>
      <path class="st4" d="M109.8,239.1c-.8,0-1.6-.1-2.3-.4s-1.2-.6-1.7-1-.8-.9-1-1.5l2-.9c.3.5.6.9,1.2,1.2.5.3,1.1.5,1.7.5s1.3-.1,1.7-.4c.4-.3.7-.6.7-1.1s-.2-.8-.5-1.1c-.3-.3-.8-.5-1.5-.6l-1.1-.3c-1.1-.3-2-.8-2.6-1.4-.6-.6-.9-1.3-.9-2.1,0-1.2.4-2.1,1.1-2.7.8-.6,1.9-1,3.3-1s1.4.1,2,.3,1.1.5,1.5.9.7.8.9,1.4l-1.9.9c-.2-.5-.5-.8-1-1.1-.5-.2-1-.3-1.6-.3s-1.1.1-1.5.4c-.4.3-.6.7-.6,1.2s.2.5.5.8.8.5,1.4.6l1.3.3c.8.2,1.4.5,1.9.9.5.4.9.8,1.2,1.3.3.5.4,1,.4,1.5s-.2,1.3-.6,1.9c-.4.5-.9.9-1.6,1.2-.7.3-1.5.4-2.3.4Z"/>
      <path class="st4" d="M122,239.1c-1.2,0-2.2-.3-3.1-.8-.9-.5-1.6-1.3-2.1-2.2-.5-.9-.8-2-.8-3.3s.3-2.3.8-3.3c.5-.9,1.2-1.7,2.1-2.2.9-.5,1.9-.8,3.1-.8s2.1.3,2.9.8,1.5,1.3,2,2.4c.5,1,.7,2.2.7,3.6h-9.7l.4-.4c0,.8.2,1.6.5,2.2.3.6.8,1.1,1.4,1.4.6.3,1.2.5,2,.5s1.5-.2,2-.6c.5-.4,1-.9,1.3-1.4l2,.9c-.3.6-.7,1.2-1.2,1.6-.5.5-1.1.8-1.8,1.1s-1.5.4-2.3.4ZM118.4,231.8l-.5-.4h7.6l-.4.4c0-.7-.1-1.3-.4-1.8-.3-.5-.7-.9-1.2-1.2-.5-.3-1-.4-1.6-.4s-1.1.1-1.7.4c-.5.3-1,.6-1.3,1.1-.3.5-.5,1.1-.5,1.8Z"/>
      <path class="st4" d="M134.1,239.1c-.8,0-1.6-.1-2.3-.4s-1.2-.6-1.7-1-.8-.9-1-1.5l2-.9c.3.5.6.9,1.2,1.2.5.3,1.1.5,1.7.5s1.3-.1,1.7-.4c.4-.3.7-.6.7-1.1s-.2-.8-.5-1.1c-.3-.3-.8-.5-1.5-.6l-1.1-.3c-1.1-.3-2-.8-2.6-1.4-.6-.6-.9-1.3-.9-2.1,0-1.2.4-2.1,1.1-2.7.8-.6,1.9-1,3.3-1s1.4.1,2,.3,1.1.5,1.5.9.7.8.9,1.4l-1.9.9c-.2-.5-.5-.8-1-1.1-.5-.2-1-.3-1.6-.3s-1.1.1-1.5.4c-.4.3-.6.7-.6,1.2s.2.5.5.8.8.5,1.4.6l1.3.3c.8.2,1.4.5,1.9.9.5.4.9.8,1.2,1.3.3.5.4,1,.4,1.5s-.2,1.3-.6,1.9c-.4.5-.9.9-1.6,1.2-.7.3-1.5.4-2.3.4Z"/>
      <path class="st4" d="M140.3,241.6l1.4-5.2h2.5l-2,5.2h-1.8Z"/>
      <path class="st4" d="M152.5,238.8v-12h2.1v2.2c.1,0,.1,9.8.1,9.8h-2.3ZM160.8,232.7c0-1.1-.1-1.9-.4-2.5-.2-.6-.6-1-1-1.2-.4-.2-.9-.3-1.5-.4-1,0-1.7.3-2.3,1-.5.7-.8,1.7-.8,2.9h-1c0-1.3.2-2.3.6-3.3.4-.9.9-1.6,1.6-2.1.7-.5,1.5-.7,2.5-.7s1.8.2,2.5.6c.7.4,1.2,1,1.6,1.8s.6,1.9.6,3.2v.6h-2.3ZM160.8,238.8v-6.1h2.3v6.1h-2.3Z"/>
      <path class="st4" d="M171.3,239.1c-1.2,0-2.2-.3-3.1-.8-.9-.5-1.6-1.3-2.1-2.2-.5-.9-.8-2-.8-3.3s.3-2.3.8-3.3c.5-.9,1.2-1.7,2.1-2.2.9-.5,1.9-.8,3.1-.8s2.1.3,2.9.8,1.5,1.3,2,2.4c.5,1,.7,2.2.7,3.6h-9.7l.4-.4c0,.8.2,1.6.5,2.2.3.6.8,1.1,1.4,1.4.6.3,1.2.5,2,.5s1.5-.2,2-.6c.5-.4,1-.9,1.3-1.4l2,.9c-.3.6-.7,1.2-1.2,1.6-.5.5-1.1.8-1.8,1.1s-1.5.4-2.3.4ZM167.7,231.8l-.5-.4h7.6l-.4.4c0-.7-.1-1.3-.4-1.8-.3-.5-.7-.9-1.2-1.2-.5-.3-1-.4-1.6-.4s-1.1.1-1.7.4c-.5.3-1,.6-1.3,1.1-.3.5-.5,1.1-.5,1.8Z"/>
      <path class="st4" d="M179.1,238.8v-16.8h2.3v16.8h-2.3ZM185.3,239.1c-1,0-1.9-.3-2.6-.8s-1.3-1.3-1.7-2.2c-.4-.9-.6-2-.6-3.3s.2-2.4.6-3.3c.4-.9,1-1.7,1.7-2.2s1.6-.8,2.6-.8,2,.3,2.8.8,1.5,1.3,1.9,2.2c.5.9.7,2,.7,3.3s-.2,2.3-.7,3.3-1.1,1.7-1.9,2.2-1.8.8-2.8.8ZM184.8,237c.7,0,1.4-.2,1.9-.5.5-.4,1-.9,1.3-1.5.3-.6.5-1.4.5-2.2s-.2-1.6-.5-2.2c-.3-.6-.7-1.1-1.3-1.5-.5-.4-1.2-.5-1.9-.5s-1.2.2-1.8.5c-.5.4-.9.9-1.2,1.5-.3.6-.4,1.4-.4,2.2s.1,1.6.4,2.2.7,1.1,1.2,1.5c.5.4,1.1.5,1.8.5Z"/>
      <path class="st4" d="M193.2,238.8v-16.8h2.3v16.8h-2.3Z"/>
      <path class="st4" d="M200,224.3c-.4,0-.7-.1-1-.4-.3-.3-.4-.6-.4-1s.1-.7.4-1c.3-.3.6-.4,1-.4s.7.1,1,.4.4.6.4,1-.1.7-.4,1c-.3.3-.6.4-1,.4ZM198.8,238.8v-12h2.3v12h-2.3Z"/>
      <path class="st4" d="M204.4,238.8v-12h2.1v2.2c.1,0,.1,9.8.1,9.8h-2.3ZM212.7,232.7c0-1.1-.1-1.9-.4-2.5-.2-.6-.6-1-1-1.2-.4-.2-.9-.3-1.5-.4-1,0-1.7.3-2.3,1-.5.7-.8,1.7-.8,2.9h-1c0-1.3.2-2.3.6-3.3.4-.9.9-1.6,1.6-2.1.7-.5,1.5-.7,2.5-.7s1.8.2,2.5.6c.7.4,1.2,1,1.6,1.8s.6,1.9.6,3.2v.6h-2.3ZM212.7,238.8v-6.1h2.3v6.1h-2.3Z"/>
      <path class="st4" d="M221.7,239.1c-1.4,0-2.5-.3-3.3-1-.8-.6-1.2-1.5-1.2-2.7s.4-2.2,1.2-2.8c.8-.6,2-1,3.4-1h3.3v1.8h-2.7c-1.1,0-1.9.2-2.3.5-.4.3-.7.8-.7,1.4s.2,1,.6,1.3c.4.3,1,.5,1.8.5s1.2-.1,1.7-.4c.5-.3.9-.7,1.1-1.2.3-.5.4-1.1.4-1.8h.8c0,1.6-.3,2.9-1,3.9-.7,1-1.8,1.4-3.2,1.4ZM225.3,238.8v-2.1c0,0,0-4.2,0-4.2,0-.9-.1-1.6-.3-2.2-.2-.6-.5-1-.9-1.3-.4-.3-.9-.5-1.6-.5s-1.2.1-1.6.4-.8.7-1.1,1.2l-2-.8c.3-.5.6-1,1.1-1.5.4-.4,1-.8,1.6-1,.6-.2,1.3-.4,2.1-.4s2.1.2,2.8.7c.8.4,1.3,1.1,1.7,1.9s.6,1.9.5,3.1v6.5h-2.1Z"/>
      <path class="st4" d="M234.6,239.1c-.8,0-1.6-.1-2.3-.4s-1.2-.6-1.7-1-.8-.9-1-1.5l2-.9c.3.5.6.9,1.2,1.2.5.3,1.1.5,1.7.5s1.3-.1,1.7-.4c.4-.3.7-.6.7-1.1s-.2-.8-.5-1.1c-.3-.3-.8-.5-1.5-.6l-1.1-.3c-1.1-.3-2-.8-2.6-1.4s-.9-1.3-.9-2.1c0-1.2.4-2.1,1.1-2.7.8-.6,1.9-1,3.3-1s1.4.1,2,.3c.6.2,1.1.5,1.5.9s.7.8.9,1.4l-1.9.9c-.2-.5-.5-.8-1-1.1-.5-.2-1-.3-1.6-.3s-1.1.1-1.5.4c-.4.3-.6.7-.6,1.2s.2.5.5.8c.3.2.8.5,1.4.6l1.3.3c.8.2,1.4.5,1.9.9.5.4.9.8,1.2,1.3.3.5.4,1,.4,1.5s-.2,1.3-.6,1.9c-.4.5-.9.9-1.6,1.2-.7.3-1.5.4-2.3.4Z"/>
      <path class="st4" d="M252.8,239.1c-1.2,0-2.3-.3-3.2-.8-.9-.5-1.6-1.3-2.1-2.2-.5-.9-.8-2-.8-3.3s.3-2.3.8-3.3,1.2-1.7,2.1-2.2c.9-.5,2-.8,3.1-.8s2.2.3,3.1.8c.9.5,1.6,1.3,2.1,2.2.5.9.8,2,.8,3.3s-.3,2.3-.8,3.3c-.5.9-1.2,1.7-2.1,2.2-.9.5-1.9.8-3.1.8ZM252.8,237c.7,0,1.4-.2,1.9-.5.6-.4,1-.9,1.3-1.5.3-.6.5-1.4.5-2.2s-.2-1.6-.5-2.2c-.3-.6-.8-1.1-1.3-1.5-.6-.4-1.2-.5-1.9-.5s-1.4.2-1.9.5c-.6.4-1,.9-1.3,1.5-.3.6-.5,1.4-.5,2.2s.2,1.6.5,2.2c.3.6.8,1.1,1.3,1.5.6.4,1.2.5,2,.5Z"/>
      <path class="st4" d="M261,232.9v-6.1h2.3v6.1h-2.3ZM263.2,232.9c0,1.1.1,1.9.4,2.5.2.6.6,1,1,1.2.4.2,1,.3,1.5.4,1,0,1.7-.3,2.3-1,.5-.7.8-1.7.8-2.9h1c0,1.3-.2,2.3-.6,3.3s-.9,1.6-1.6,2.1c-.7.5-1.5.7-2.5.7s-1.7-.2-2.4-.6-1.2-1-1.6-1.8c-.4-.8-.6-1.9-.6-3.2v-.6h2.3ZM269.4,238.8v-2.2c-.1,0-.1-9.8-.1-9.8h2.3v12h-2.1Z"/>
    </g>
    <g class="st3">
      <path class="st4" d="M50.1,266.8l-5-12h2.3l4.8,12h-2.1ZM50.2,266.8l4.8-12h2.4l-5,12h-2.2Z"/>
    </g>
    <g class="st3">
      <path class="st4" d="M62.7,267.1c-1.4,0-2.5-.3-3.3-1-.8-.6-1.2-1.5-1.2-2.7s.4-2.2,1.2-2.8c.8-.6,2-1,3.4-1h3.3v1.8h-2.7c-1.1,0-1.9.2-2.3.5-.4.3-.7.8-.7,1.4s.2,1,.6,1.3c.4.3,1,.5,1.8.5s1.2-.1,1.7-.4c.5-.3.9-.7,1.1-1.2.3-.5.4-1.1.4-1.8h.8c0,1.6-.3,2.9-1,3.9-.7,1-1.8,1.4-3.2,1.4ZM66.2,266.8v-2.1c0,0,0-4.2,0-4.2,0-.9-.1-1.6-.3-2.2-.2-.6-.5-1-.9-1.3-.4-.3-.9-.5-1.6-.5s-1.2.1-1.6.4-.8.7-1.1,1.2l-2-.8c.3-.5.6-1,1.1-1.5.4-.4,1-.8,1.6-1,.6-.2,1.3-.4,2.1-.4s2.1.2,2.8.7c.8.4,1.3,1.1,1.7,1.9s.6,1.9.5,3.1v6.5h-2.1Z"/>
      <path class="st4" d="M71.3,271.6v-16.8h2.1v2.2c.1,0,.1,14.6.1,14.6h-2.3ZM77.6,267.1c-1,0-1.9-.3-2.6-.8s-1.3-1.3-1.7-2.2c-.4-.9-.6-2-.6-3.3s.2-2.4.6-3.3c.4-.9,1-1.7,1.7-2.2s1.6-.8,2.6-.8,2,.3,2.8.8c.8.5,1.5,1.3,1.9,2.2.5.9.7,2,.7,3.3s-.2,2.3-.7,3.3-1.1,1.7-1.9,2.2c-.8.5-1.8.8-2.8.8ZM77,265c.7,0,1.4-.2,1.9-.5.5-.4,1-.9,1.3-1.5.3-.6.5-1.4.5-2.2s-.2-1.6-.5-2.2c-.3-.6-.7-1.1-1.3-1.5-.5-.4-1.2-.5-1.9-.5s-1.2.2-1.8.5c-.5.4-.9.9-1.2,1.5-.3.6-.4,1.4-.4,2.2s.1,1.6.4,2.2.7,1.1,1.2,1.5c.5.4,1.1.5,1.8.5Z"/>
      <path class="st4" d="M90.9,267.1c-1.2,0-2.3-.3-3.2-.8-.9-.5-1.6-1.3-2.1-2.2-.5-.9-.8-2-.8-3.3s.3-2.3.8-3.3c.5-.9,1.2-1.7,2.1-2.2.9-.5,2-.8,3.1-.8s2.2.3,3.1.8c.9.5,1.6,1.3,2.1,2.2.5.9.8,2,.8,3.3s-.3,2.3-.8,3.3c-.5.9-1.2,1.7-2.1,2.2-.9.5-1.9.8-3.1.8ZM90.9,265c.7,0,1.4-.2,1.9-.5.6-.4,1-.9,1.3-1.5.3-.6.5-1.4.5-2.2s-.2-1.6-.5-2.2c-.3-.6-.8-1.1-1.3-1.5-.6-.4-1.2-.5-1.9-.5s-1.4.2-1.9.5c-.6.4-1,.9-1.3,1.5s-.5,1.4-.5,2.2.2,1.6.5,2.2.8,1.1,1.3,1.5c.6.4,1.2.5,2,.5Z"/>
      <path class="st4" d="M99.4,266.8v-12h2.3v12h-2.3ZM100.8,260.3c0-1.3.2-2.4.7-3.2.5-.8,1.1-1.4,1.9-1.8.8-.4,1.6-.6,2.5-.6v2.2c-.7,0-1.4.1-2.1.3-.6.2-1.2.6-1.6,1.1-.4.5-.6,1.1-.6,2h-.9Z"/>
      <path class="st4" d="M113.1,267.1c-1.2,0-2.2-.3-3.1-.8-.9-.5-1.6-1.3-2.1-2.2-.5-.9-.8-2-.8-3.3s.3-2.3.8-3.3c.5-.9,1.2-1.7,2.1-2.2.9-.5,1.9-.8,3.1-.8s2.1.3,2.9.8,1.5,1.3,2,2.4c.5,1,.7,2.2.7,3.6h-9.7l.4-.4c0,.8.2,1.6.5,2.2.3.6.8,1.1,1.4,1.4.6.3,1.2.5,2,.5s1.5-.2,2-.6c.5-.4,1-.9,1.3-1.4l2,.9c-.3.6-.7,1.2-1.2,1.6-.5.5-1.1.8-1.8,1.1-.7.3-1.5.4-2.3.4ZM109.6,259.8l-.5-.4h7.6l-.4.4c0-.7-.1-1.3-.4-1.8-.3-.5-.7-.9-1.2-1.2-.5-.3-1-.4-1.6-.4s-1.1.1-1.7.4c-.5.3-1,.6-1.3,1.1-.3.5-.5,1.1-.5,1.8Z"/>
      <path class="st4" d="M125.2,267.1c-.8,0-1.6-.1-2.3-.4s-1.2-.6-1.7-1-.8-.9-1-1.5l2-.9c.3.5.6.9,1.2,1.2.5.3,1.1.5,1.7.5s1.3-.1,1.7-.4c.4-.3.7-.6.7-1.1s-.2-.8-.5-1.1c-.3-.3-.8-.5-1.5-.6l-1.1-.3c-1.1-.3-2-.8-2.6-1.4s-.9-1.3-.9-2.1c0-1.2.4-2.1,1.1-2.7.8-.6,1.9-1,3.3-1s1.4.1,2,.3c.6.2,1.1.5,1.5.9s.7.8.9,1.4l-1.9.9c-.2-.5-.5-.8-1-1.1-.5-.2-1-.3-1.6-.3s-1.1.1-1.5.4c-.4.3-.6.7-.6,1.2s.2.5.5.8c.3.2.8.5,1.4.6l1.3.3c.8.2,1.4.5,1.9.9.5.4.9.8,1.2,1.3.3.5.4,1,.4,1.5s-.2,1.3-.6,1.9c-.4.5-.9.9-1.6,1.2-.7.3-1.5.4-2.3.4Z"/>
      <path class="st4" d="M133.9,269.2h-2.3c.8-1,1.4-2.1,2-3.3.6-1.2,1.1-2.4,1.4-3.6.4-1.3.5-2.6.5-3.9s-.2-2.6-.5-3.9c-.4-1.3-.8-2.5-1.4-3.6-.6-1.2-1.3-2.3-2-3.3h2.3c.8,1,1.4,2,2,3.2.6,1.1,1.1,2.4,1.4,3.6.4,1.3.5,2.6.5,4s-.2,2.7-.5,4c-.4,1.3-.8,2.5-1.4,3.6-.6,1.1-1.3,2.2-2,3.2Z"/>
      <path class="st4" d="M152,267.1c-1.2,0-2.3-.3-3.2-.8-.9-.5-1.6-1.3-2.1-2.2-.5-.9-.8-2-.8-3.3s.3-2.3.8-3.3,1.2-1.7,2.1-2.2c.9-.5,2-.8,3.1-.8s2.2.3,3.1.8c.9.5,1.6,1.3,2.1,2.2.5.9.8,2,.8,3.3s-.3,2.3-.8,3.3c-.5.9-1.2,1.7-2.1,2.2-.9.5-1.9.8-3.1.8ZM152,265c.7,0,1.4-.2,1.9-.5.6-.4,1-.9,1.3-1.5.3-.6.5-1.4.5-2.2s-.2-1.6-.5-2.2c-.3-.6-.8-1.1-1.3-1.5-.6-.4-1.2-.5-1.9-.5s-1.4.2-1.9.5c-.6.4-1,.9-1.3,1.5-.3.6-.5,1.4-.5,2.2s.2,1.6.5,2.2c.3.6.8,1.1,1.3,1.5.6.4,1.2.5,2,.5Z"/>
      <path class="st4" d="M160.2,260.9v-6.1h2.3v6.1h-2.3ZM162.5,260.9c0,1.1.1,1.9.4,2.5s.6,1,1,1.2c.4.2,1,.3,1.5.4,1,0,1.7-.3,2.3-1,.5-.7.8-1.7.8-2.9h1c0,1.3-.2,2.3-.6,3.3-.4.9-.9,1.6-1.6,2.1-.7.5-1.5.7-2.5.7s-1.7-.2-2.4-.6c-.7-.4-1.2-1-1.6-1.8-.4-.8-.6-1.9-.6-3.2v-.6h2.3ZM168.7,266.8v-2.2c-.1,0-.1-9.8-.1-9.8h2.3v12h-2.1Z"/>
      <path class="st4" d="M180,271.6v-16.8h2.1v2.2c.1,0,.1,14.6.1,14.6h-2.3ZM186.2,267.1c-1,0-1.9-.3-2.6-.8s-1.3-1.3-1.7-2.2c-.4-.9-.6-2-.6-3.3s.2-2.4.6-3.3c.4-.9,1-1.7,1.7-2.2s1.6-.8,2.6-.8,2,.3,2.8.8c.8.5,1.5,1.3,1.9,2.2.5.9.7,2,.7,3.3s-.2,2.3-.7,3.3-1.1,1.7-1.9,2.2c-.8.5-1.8.8-2.8.8ZM185.6,265c.7,0,1.4-.2,1.9-.5.5-.4,1-.9,1.3-1.5.3-.6.5-1.4.5-2.2s-.2-1.6-.5-2.2c-.3-.6-.7-1.1-1.3-1.5-.5-.4-1.2-.5-1.9-.5s-1.2.2-1.8.5c-.5.4-.9.9-1.2,1.5-.3.6-.4,1.4-.4,2.2s.1,1.6.4,2.2.7,1.1,1.2,1.5c.5.4,1.1.5,1.8.5Z"/>
      <path class="st4" d="M199.5,267.1c-1.2,0-2.3-.3-3.2-.8-.9-.5-1.6-1.3-2.1-2.2-.5-.9-.8-2-.8-3.3s.3-2.3.8-3.3,1.2-1.7,2.1-2.2c.9-.5,2-.8,3.1-.8s2.2.3,3.1.8c.9.5,1.6,1.3,2.1,2.2.5.9.8,2,.8,3.3s-.3,2.3-.8,3.3c-.5.9-1.2,1.7-2.1,2.2-.9.5-1.9.8-3.1.8ZM199.5,265c.7,0,1.4-.2,1.9-.5.6-.4,1-.9,1.3-1.5.3-.6.5-1.4.5-2.2s-.2-1.6-.5-2.2c-.3-.6-.8-1.1-1.3-1.5-.6-.4-1.2-.5-1.9-.5s-1.4.2-1.9.5c-.6.4-1,.9-1.3,1.5-.3.6-.5,1.4-.5,2.2s.2,1.6.5,2.2c.3.6.8,1.1,1.3,1.5.6.4,1.2.5,2,.5Z"/>
      <path class="st4" d="M208,266.8v-12h2.3v12h-2.3ZM209.4,260.3c0-1.3.2-2.4.7-3.2.5-.8,1.1-1.4,1.9-1.8.8-.4,1.6-.6,2.5-.6v2.2c-.7,0-1.4.1-2.1.3-.6.2-1.2.6-1.6,1.1-.4.5-.6,1.1-.6,2h-.9Z"/>
      <path class="st4" d="M227.7,267.1c-1.2,0-2.3-.3-3.2-.8-.9-.5-1.7-1.3-2.2-2.2-.5-.9-.8-2-.8-3.3s.3-2.3.8-3.3c.5-.9,1.2-1.7,2.2-2.2.9-.5,2-.8,3.2-.8s2.2.3,3.2.8c.9.5,1.6,1.3,2.1,2.3l-2.1.9c-.3-.6-.7-1.1-1.3-1.4s-1.2-.5-2-.5-1.4.2-1.9.5c-.6.4-1,.8-1.3,1.5-.3.6-.5,1.4-.5,2.2s.2,1.5.5,2.2c.3.6.8,1.1,1.3,1.5.6.4,1.2.5,1.9.5s1.4-.2,2-.6c.6-.4,1-.9,1.3-1.5l2.1.8c-.5,1.1-1.2,1.9-2.1,2.5-.9.6-2,.9-3.2.9Z"/>
      <path class="st4" d="M240.7,267.1c-1.2,0-2.3-.3-3.2-.8-.9-.5-1.6-1.3-2.1-2.2-.5-.9-.8-2-.8-3.3s.3-2.3.8-3.3,1.2-1.7,2.1-2.2c.9-.5,2-.8,3.1-.8s2.2.3,3.1.8c.9.5,1.6,1.3,2.1,2.2.5.9.8,2,.8,3.3s-.3,2.3-.8,3.3c-.5.9-1.2,1.7-2.1,2.2-.9.5-1.9.8-3.1.8ZM240.7,265c.7,0,1.4-.2,1.9-.5.6-.4,1-.9,1.3-1.5.3-.6.5-1.4.5-2.2s-.2-1.6-.5-2.2c-.3-.6-.8-1.1-1.3-1.5-.6-.4-1.2-.5-1.9-.5s-1.4.2-1.9.5c-.6.4-1,.9-1.3,1.5-.3.6-.5,1.4-.5,2.2s.2,1.6.5,2.2c.3.6.8,1.1,1.3,1.5.6.4,1.2.5,2,.5Z"/>
      <path class="st4" d="M249.2,266.8v-12h2.1v2.2c.1,0,.1,9.8.1,9.8h-2.3ZM257.5,260.7c0-1.1-.1-1.9-.4-2.5-.2-.6-.6-1-1-1.2-.4-.2-.9-.3-1.5-.4-1,0-1.7.3-2.3,1-.5.7-.8,1.7-.8,2.9h-1c0-1.3.2-2.3.6-3.3.4-.9.9-1.6,1.6-2.1.7-.5,1.5-.7,2.5-.7s1.8.2,2.5.6,1.2,1,1.6,1.8.6,1.9.6,3.2v.6h-2.3ZM257.5,266.8v-6.1h2.3v6.1h-2.3Z"/>
    </g>
    <g class="st3">
      <path class="st4" d="M261.5,256.8v-2h7.7v2h-7.7ZM267.3,267.1c-1.2,0-2.1-.3-2.8-.9-.7-.6-1-1.5-1-2.7v-12.5h2.3v12.1c0,.6.1,1,.4,1.4.3.3.7.5,1.3.5s.3,0,.5,0c.2,0,.4-.2.7-.4l.9,1.8c-.4.3-.8.5-1.2.6s-.8.2-1.1.2Z"/>
    </g>
    <g class="st3">
      <path class="st4" d="M275.6,267.1c-1.4,0-2.5-.3-3.3-1-.8-.6-1.2-1.5-1.2-2.7s.4-2.2,1.2-2.8c.8-.6,2-1,3.4-1h3.3v1.8h-2.7c-1.1,0-1.9.2-2.3.5-.4.3-.7.8-.7,1.4s.2,1,.6,1.3c.4.3,1,.5,1.8.5s1.2-.1,1.7-.4c.5-.3.9-.7,1.1-1.2.3-.5.4-1.1.4-1.8h.8c0,1.6-.3,2.9-1,3.9-.7,1-1.8,1.4-3.2,1.4ZM279.1,266.8v-2.1c0,0,0-4.2,0-4.2,0-.9-.1-1.6-.3-2.2-.2-.6-.5-1-.9-1.3-.4-.3-.9-.5-1.6-.5s-1.2.1-1.6.4-.8.7-1.1,1.2l-2-.8c.3-.5.6-1,1.1-1.5.4-.4,1-.8,1.6-1,.6-.2,1.3-.4,2.1-.4s2.1.2,2.8.7c.8.4,1.3,1.1,1.7,1.9s.6,1.9.5,3.1v6.5h-2.1Z"/>
    </g>
    <g class="st3">
      <path class="st4" d="M283,256.8v-2h7.7v2h-7.7ZM288.8,267.1c-1.2,0-2.1-.3-2.8-.9-.7-.6-1-1.5-1-2.7v-12.5h2.3v12.1c0,.6.1,1,.4,1.4.3.3.7.5,1.3.5s.3,0,.5,0c.2,0,.4-.2.7-.4l.9,1.8c-.4.3-.8.5-1.2.6s-.8.2-1.1.2Z"/>
    </g>
    <g class="st3">
      <path class="st4" d="M298.7,267.1c-1.2,0-2.3-.3-3.2-.8-.9-.5-1.6-1.3-2.1-2.2-.5-.9-.8-2-.8-3.3s.3-2.3.8-3.3c.5-.9,1.2-1.7,2.1-2.2.9-.5,2-.8,3.1-.8s2.2.3,3.1.8c.9.5,1.6,1.3,2.1,2.2.5.9.8,2,.8,3.3s-.3,2.3-.8,3.3c-.5.9-1.2,1.7-2.1,2.2-.9.5-1.9.8-3.1.8ZM298.7,265c.7,0,1.4-.2,1.9-.5.6-.4,1-.9,1.3-1.5.3-.6.5-1.4.5-2.2s-.2-1.6-.5-2.2c-.3-.6-.8-1.1-1.3-1.5-.6-.4-1.2-.5-1.9-.5s-1.4.2-1.9.5c-.6.4-1,.9-1.3,1.5s-.5,1.4-.5,2.2.2,1.6.5,2.2.8,1.1,1.3,1.5c.6.4,1.2.5,2,.5Z"/>
    </g>
    <g class="st3">
      <path class="st4" d="M71,295.1c-1.1,0-2-.3-2.8-.8-.8-.5-1.4-1.3-1.9-2.2-.5-.9-.7-2-.7-3.3s.2-2.4.7-3.3c.5-.9,1.1-1.7,1.9-2.2.8-.5,1.8-.8,2.8-.8s1.9.3,2.6.8c.7.5,1.3,1.3,1.7,2.2.4.9.6,2,.6,3.3s-.2,2.3-.6,3.3c-.4.9-1,1.7-1.7,2.2-.7.5-1.6.8-2.6.8ZM71.5,293c.7,0,1.3-.2,1.8-.5.5-.4.9-.9,1.2-1.5s.4-1.4.4-2.2-.1-1.6-.4-2.2c-.3-.6-.7-1.1-1.2-1.5-.5-.4-1.1-.5-1.8-.5s-1.3.2-1.9.5c-.5.4-1,.9-1.3,1.5-.3.6-.5,1.4-.5,2.2s.2,1.6.5,2.2.7,1.1,1.3,1.5c.5.4,1.2.5,1.9.5ZM75,294.8v-2.2c0,0,0-14.6,0-14.6h2.3v16.8h-2.2Z"/>
      <path class="st4" d="M81.7,280.3c-.4,0-.7-.1-1-.4s-.4-.6-.4-1,.1-.7.4-1c.3-.3.6-.4,1-.4s.7.1,1,.4c.3.3.4.6.4,1s-.1.7-.4,1-.6.4-1,.4ZM80.5,294.8v-12h2.3v12h-2.3Z"/>
      <path class="st4" d="M86.1,294.8v-12h2.3v12h-2.3ZM87.5,288.3c0-1.3.2-2.4.7-3.2.5-.8,1.1-1.4,1.9-1.8.8-.4,1.6-.6,2.5-.6v2.2c-.7,0-1.4.1-2.1.3-.6.2-1.2.6-1.6,1.1-.4.5-.6,1.1-.6,2h-.9Z"/>
      <path class="st4" d="M99.8,295.1c-1.2,0-2.2-.3-3.1-.8-.9-.5-1.6-1.3-2.1-2.2-.5-.9-.8-2-.8-3.3s.3-2.3.8-3.3c.5-.9,1.2-1.7,2.1-2.2.9-.5,1.9-.8,3.1-.8s2.1.3,2.9.8,1.5,1.3,2,2.4c.5,1,.7,2.2.7,3.6h-9.7l.4-.4c0,.8.2,1.6.5,2.2.3.6.8,1.1,1.4,1.4.6.3,1.2.5,2,.5s1.5-.2,2-.6c.5-.4,1-.9,1.3-1.4l2,.9c-.3.6-.7,1.2-1.2,1.6-.5.5-1.1.8-1.8,1.1s-1.5.4-2.3.4ZM96.3,287.8l-.5-.4h7.6l-.4.4c0-.7-.1-1.3-.4-1.8-.3-.5-.7-.9-1.2-1.2-.5-.3-1-.4-1.6-.4s-1.1.1-1.7.4c-.5.3-1,.6-1.3,1.1-.3.5-.5,1.1-.5,1.8Z"/>
    </g>
    <g class="st3">
      <path class="st4" d="M106.5,284.8v-2h7.7v2h-7.7ZM112.3,295.1c-1.2,0-2.1-.3-2.8-.9-.7-.6-1-1.5-1-2.7v-12.5h2.3v12.1c0,.6.1,1,.4,1.4.3.3.7.5,1.3.5s.3,0,.5,0c.2,0,.4-.2.7-.4l.9,1.8c-.4.3-.8.5-1.2.6s-.8.2-1.1.2Z"/>
    </g>
    <g class="st3">
      <path class="st4" d="M122.2,295.1c-1.2,0-2.3-.3-3.2-.8-.9-.5-1.6-1.3-2.1-2.2-.5-.9-.8-2-.8-3.3s.3-2.3.8-3.3c.5-.9,1.2-1.7,2.1-2.2.9-.5,2-.8,3.1-.8s2.2.3,3.1.8c.9.5,1.6,1.3,2.1,2.2.5.9.8,2,.8,3.3s-.3,2.3-.8,3.3c-.5.9-1.2,1.7-2.1,2.2-.9.5-1.9.8-3.1.8ZM122.2,293c.7,0,1.4-.2,1.9-.5.6-.4,1-.9,1.3-1.5s.5-1.4.5-2.2-.2-1.6-.5-2.2-.8-1.1-1.3-1.5c-.6-.4-1.2-.5-1.9-.5s-1.4.2-1.9.5c-.6.4-1,.9-1.3,1.5-.3.6-.5,1.4-.5,2.2s.2,1.6.5,2.2c.3.6.8,1.1,1.3,1.5.6.4,1.2.5,2,.5Z"/>
      <path class="st4" d="M142,295.1c-1.2,0-2.3-.3-3.2-.8-.9-.5-1.7-1.3-2.2-2.2-.5-.9-.8-2-.8-3.3s.3-2.3.8-3.3,1.2-1.7,2.2-2.2c.9-.5,2-.8,3.2-.8s2.2.3,3.2.8,1.6,1.3,2.1,2.3l-2.1.9c-.3-.6-.7-1.1-1.3-1.4-.6-.3-1.2-.5-2-.5s-1.4.2-1.9.5c-.6.4-1,.8-1.3,1.5-.3.6-.5,1.4-.5,2.2s.2,1.5.5,2.2c.3.6.8,1.1,1.3,1.5.6.4,1.2.5,1.9.5s1.4-.2,2-.6c.6-.4,1-.9,1.3-1.5l2.1.8c-.5,1.1-1.2,1.9-2.1,2.5s-2,.9-3.2.9Z"/>
      <path class="st4" d="M155,295.1c-1.2,0-2.3-.3-3.2-.8-.9-.5-1.6-1.3-2.1-2.2-.5-.9-.8-2-.8-3.3s.3-2.3.8-3.3c.5-.9,1.2-1.7,2.1-2.2.9-.5,2-.8,3.1-.8s2.2.3,3.1.8c.9.5,1.6,1.3,2.1,2.2.5.9.8,2,.8,3.3s-.3,2.3-.8,3.3c-.5.9-1.2,1.7-2.1,2.2-.9.5-1.9.8-3.1.8ZM155,293c.7,0,1.4-.2,1.9-.5.6-.4,1-.9,1.3-1.5s.5-1.4.5-2.2-.2-1.6-.5-2.2-.8-1.1-1.3-1.5c-.6-.4-1.2-.5-1.9-.5s-1.4.2-1.9.5c-.6.4-1,.9-1.3,1.5-.3.6-.5,1.4-.5,2.2s.2,1.6.5,2.2c.3.6.8,1.1,1.3,1.5.6.4,1.2.5,2,.5Z"/>
      <path class="st4" d="M163.5,294.8v-12h2.1v1.7c.5-.6,1-1.1,1.5-1.5.6-.3,1.2-.5,2-.5s1.8.2,2.4.7c.7.4,1.2,1.1,1.5,2,.4-.9.8-1.5,1.5-2,.6-.5,1.4-.7,2.3-.7,1.4,0,2.4.4,3.2,1.3.8.9,1.1,2.3,1.1,4.1v6.9h-2.3v-6.1c0-1.1-.1-1.9-.3-2.5-.2-.6-.5-1-.9-1.2-.4-.2-.8-.3-1.3-.4-.9,0-1.6.3-2.1,1-.5.7-.7,1.7-.7,2.9v6.2h-2.3v-6.1c0-1.1-.1-1.9-.3-2.5-.2-.6-.5-1-.9-1.2-.4-.2-.8-.3-1.4-.4-.9,0-1.6.3-2.1,1-.5.7-.7,1.7-.7,2.9v6.2h-2.3Z"/>
      <path class="st4" d="M193.7,295.1c-1.4,0-2.5-.3-3.3-1-.8-.6-1.2-1.5-1.2-2.7s.4-2.2,1.2-2.8c.8-.6,2-1,3.4-1h3.3v1.8h-2.7c-1.1,0-1.9.2-2.3.5-.4.3-.7.8-.7,1.4s.2,1,.6,1.3c.4.3,1,.5,1.8.5s1.2-.1,1.7-.4c.5-.3.9-.7,1.1-1.2.3-.5.4-1.1.4-1.8h.8c0,1.6-.3,2.9-1,3.9-.7,1-1.8,1.4-3.2,1.4ZM197.3,294.8v-2.1c0,0,0-4.2,0-4.2,0-.9,0-1.6-.3-2.2s-.5-1-.9-1.3c-.4-.3-.9-.5-1.6-.5s-1.2.1-1.6.4c-.5.3-.8.7-1.1,1.2l-2-.8c.3-.5.6-1,1.1-1.5.4-.4,1-.8,1.6-1s1.3-.4,2.1-.4,2.1.2,2.8.7c.8.4,1.3,1.1,1.7,1.9s.6,1.9.5,3.1v6.5h-2.1Z"/>
      <path class="st4" d="M208.2,299.6v-16.8h2.1v2.2c.1,0,.1,14.6.1,14.6h-2.3ZM214.5,295.1c-1,0-1.9-.3-2.6-.8s-1.3-1.3-1.7-2.2c-.4-.9-.6-2-.6-3.3s.2-2.4.6-3.3c.4-.9,1-1.7,1.7-2.2s1.6-.8,2.6-.8,2,.3,2.8.8c.8.5,1.5,1.3,1.9,2.2.5.9.7,2,.7,3.3s-.2,2.3-.7,3.3-1.1,1.7-1.9,2.2c-.8.5-1.8.8-2.8.8ZM213.9,293c.7,0,1.4-.2,1.9-.5.5-.4,1-.9,1.3-1.5.3-.6.5-1.4.5-2.2s-.2-1.6-.5-2.2c-.3-.6-.7-1.1-1.3-1.5-.5-.4-1.2-.5-1.9-.5s-1.2.2-1.8.5c-.5.4-.9.9-1.2,1.5-.3.6-.4,1.4-.4,2.2s.1,1.6.4,2.2.7,1.1,1.2,1.5c.5.4,1.1.5,1.8.5Z"/>
      <path class="st4" d="M227.7,295.1c-1.2,0-2.2-.3-3.1-.8-.9-.5-1.6-1.3-2.1-2.2-.5-.9-.8-2-.8-3.3s.3-2.3.8-3.3c.5-.9,1.2-1.7,2.1-2.2.9-.5,1.9-.8,3.1-.8s2.1.3,2.9.8,1.5,1.3,2,2.4c.5,1,.7,2.2.7,3.6h-9.7l.4-.4c0,.8.2,1.6.5,2.2.3.6.8,1.1,1.4,1.4.6.3,1.2.5,2,.5s1.5-.2,2-.6c.5-.4,1-.9,1.3-1.4l2,.9c-.3.6-.7,1.2-1.2,1.6-.5.5-1.1.8-1.8,1.1-.7.3-1.5.4-2.3.4ZM224.2,287.8l-.5-.4h7.6l-.4.4c0-.7-.1-1.3-.4-1.8-.3-.5-.7-.9-1.2-1.2-.5-.3-1-.4-1.6-.4s-1.1.1-1.7.4c-.5.3-1,.6-1.3,1.1-.3.5-.5,1.1-.5,1.8Z"/>
      <path class="st4" d="M235.5,294.8v-16.8h2.3v16.8h-2.3Z"/>
      <path class="st4" d="M246.3,295.1c-1.2,0-2.2-.3-3.1-.8-.9-.5-1.6-1.3-2.1-2.2-.5-.9-.8-2-.8-3.3s.3-2.3.8-3.3,1.2-1.7,2.1-2.2c.9-.5,1.9-.8,3.1-.8s2.1.3,2.9.8,1.5,1.3,2,2.4c.5,1,.7,2.2.7,3.6h-9.7l.4-.4c0,.8.2,1.6.5,2.2s.8,1.1,1.4,1.4c.6.3,1.2.5,2,.5s1.5-.2,2-.6c.5-.4,1-.9,1.3-1.4l2,.9c-.3.6-.7,1.2-1.2,1.6-.5.5-1.1.8-1.8,1.1-.7.3-1.5.4-2.3.4ZM242.8,287.8l-.5-.4h7.6l-.4.4c0-.7-.1-1.3-.4-1.8-.3-.5-.7-.9-1.2-1.2-.5-.3-1-.4-1.6-.4s-1.1.1-1.7.4c-.5.3-1,.6-1.3,1.1-.3.5-.5,1.1-.5,1.8Z"/>
      <path class="st4" d="M265.4,295.1c-1.2,0-2.3-.3-3.2-.8-.9-.5-1.6-1.3-2.1-2.2-.5-.9-.8-2-.8-3.3s.3-2.3.8-3.3c.5-.9,1.2-1.7,2.1-2.2.9-.5,2-.8,3.1-.8s2.2.3,3.1.8c.9.5,1.6,1.3,2.1,2.2.5.9.8,2,.8,3.3s-.3,2.3-.8,3.3c-.5.9-1.2,1.7-2.1,2.2-.9.5-1.9.8-3.1.8ZM265.4,293c.7,0,1.4-.2,1.9-.5.6-.4,1-.9,1.3-1.5.3-.6.5-1.4.5-2.2s-.2-1.6-.5-2.2c-.3-.6-.8-1.1-1.3-1.5-.6-.4-1.2-.5-1.9-.5s-1.4.2-1.9.5c-.6.4-1,.9-1.3,1.5s-.5,1.4-.5,2.2.2,1.6.5,2.2.8,1.1,1.3,1.5c.6.4,1.2.5,2,.5Z"/>
      <path class="st4" d="M273.6,288.9v-6.1h2.3v6.1h-2.3ZM275.9,288.9c0,1.1.1,1.9.4,2.5s.6,1,1,1.2c.4.2,1,.3,1.5.4,1,0,1.7-.3,2.3-1,.5-.7.8-1.7.8-2.9h1c0,1.3-.2,2.3-.6,3.3-.4.9-.9,1.6-1.6,2.1-.7.5-1.5.7-2.5.7s-1.7-.2-2.4-.6c-.7-.4-1.2-1-1.6-1.8-.4-.8-.6-1.9-.6-3.2v-.6h2.3ZM282.1,294.8v-2.2c-.1,0-.1-9.8-.1-9.8h2.3v12h-2.1Z"/>
    </g>
    <g class="st3">
      <path class="st4" d="M128.9,308.3c-.4,0-.7-.1-1-.4s-.4-.6-.4-1,.1-.7.4-1c.3-.3.6-.4,1-.4s.7.1,1,.4c.3.3.4.6.4,1s-.1.7-.4,1-.6.4-1,.4ZM127.8,322.8v-12h2.3v12h-2.3Z"/>
      <path class="st4" d="M133.4,322.8v-12h2.1v2.2c.1,0,.1,9.8.1,9.8h-2.3ZM141.7,316.7c0-1.1-.1-1.9-.4-2.5-.2-.6-.6-1-1-1.2-.4-.2-.9-.3-1.5-.4-1,0-1.7.3-2.3,1-.5.7-.8,1.7-.8,2.9h-1c0-1.3.2-2.3.6-3.3.4-.9.9-1.6,1.6-2.1.7-.5,1.5-.7,2.5-.7s1.8.2,2.5.6c.7.4,1.2,1,1.6,1.8s.6,1.9.6,3.2v.6h-2.3ZM141.7,322.8v-6.1h2.3v6.1h-2.3Z"/>
      <path class="st4" d="M151.6,322.6c-1.1,0-2-.3-2.8-.8-.8-.5-1.4-1.2-1.9-2.1-.5-.9-.7-1.9-.7-3.1s.2-2.3.7-3.2c.5-.9,1.1-1.6,1.9-2.1.8-.5,1.8-.8,2.8-.8s1.9.3,2.6.8c.7.5,1.3,1.2,1.7,2.1s.6,2,.6,3.2-.2,2.2-.6,3.1-1,1.6-1.7,2.1-1.6.7-2.6.7ZM151.8,327.9c-.8,0-1.5,0-2.2-.2-.7-.2-1.2-.3-1.7-.5-.4-.2-.8-.4-1-.5l.9-1.8c.2.1.5.3.9.4.4.2.8.3,1.3.4.5.1,1.1.2,1.7.2s1.4-.1,2-.4c.6-.3,1-.8,1.4-1.4.3-.6.5-1.4.5-2.4v-10.8h2.3v10.8c0,1.4-.3,2.5-.8,3.5-.5.9-1.2,1.6-2.1,2.1-.9.5-1.9.7-3.1.7ZM152.2,320.7c.7,0,1.3-.2,1.8-.5.5-.4.9-.8,1.2-1.5s.4-1.3.4-2.1-.1-1.5-.4-2.1c-.3-.6-.7-1.1-1.2-1.4s-1.1-.5-1.8-.5-1.3.2-1.9.5-1,.8-1.3,1.4-.5,1.3-.5,2.1.2,1.5.5,2.1.7,1.1,1.3,1.5,1.2.5,1.9.5Z"/>
      <path class="st4" d="M166.3,323.1c-1.2,0-2.2-.3-3.1-.8-.9-.5-1.6-1.3-2.1-2.2-.5-.9-.8-2-.8-3.3s.3-2.3.8-3.3c.5-.9,1.2-1.7,2.1-2.2.9-.5,1.9-.8,3.1-.8s2.1.3,2.9.8,1.5,1.3,2,2.4c.5,1,.7,2.2.7,3.6h-9.7l.4-.4c0,.8.2,1.6.5,2.2.3.6.8,1.1,1.4,1.4.6.3,1.2.5,2,.5s1.5-.2,2-.6c.5-.4,1-.9,1.3-1.4l2,.9c-.3.6-.7,1.2-1.2,1.6-.5.5-1.1.8-1.8,1.1s-1.5.4-2.3.4ZM162.8,315.8l-.5-.4h7.6l-.4.4c0-.7-.1-1.3-.4-1.8-.3-.5-.7-.9-1.2-1.2-.5-.3-1-.4-1.6-.4s-1.1.1-1.7.4c-.5.3-1,.6-1.3,1.1-.3.5-.5,1.1-.5,1.8Z"/>
      <path class="st4" d="M178.5,323.1c-.8,0-1.6-.1-2.3-.4s-1.2-.6-1.7-1-.8-.9-1-1.5l2-.9c.3.5.6.9,1.2,1.2.5.3,1.1.5,1.7.5s1.3-.1,1.7-.4c.4-.3.7-.6.7-1.1s-.2-.8-.5-1.1c-.3-.3-.8-.5-1.5-.6l-1.1-.3c-1.1-.3-2-.8-2.6-1.4-.6-.6-.9-1.3-.9-2.1,0-1.2.4-2.1,1.1-2.7.8-.6,1.9-1,3.3-1s1.4.1,2,.3c.6.2,1.1.5,1.5.9s.7.8.9,1.4l-1.9.9c-.2-.5-.5-.8-1-1.1-.5-.2-1-.3-1.6-.3s-1.1.1-1.5.4c-.4.3-.6.7-.6,1.2s.2.5.5.8c.3.2.8.5,1.4.6l1.3.3c.8.2,1.4.5,1.9.9.5.4.9.8,1.2,1.3.3.5.4,1,.4,1.5s-.2,1.3-.6,1.9c-.4.5-.9.9-1.6,1.2-.7.3-1.5.4-2.3.4Z"/>
    </g>
    <g class="st3">
      <path class="st4" d="M184.2,312.8v-2h7.7v2h-7.7ZM190,323.1c-1.2,0-2.1-.3-2.8-.9s-1-1.5-1-2.7v-12.5h2.3v12.1c0,.6.1,1,.4,1.4.3.3.7.5,1.3.5s.3,0,.5,0c.2,0,.4-.2.7-.4l.9,1.8c-.4.3-.8.5-1.2.6s-.8.2-1.1.2Z"/>
    </g>
    <g class="st3">
      <path class="st4" d="M198.3,323.1c-1.4,0-2.5-.3-3.3-1-.8-.6-1.2-1.5-1.2-2.7s.4-2.2,1.2-2.8c.8-.6,2-1,3.4-1h3.3v1.8h-2.7c-1.1,0-1.9.2-2.3.5-.4.3-.7.8-.7,1.4s.2,1,.6,1.3c.4.3,1,.5,1.8.5s1.2-.1,1.7-.4c.5-.3.9-.7,1.1-1.2.3-.5.4-1.1.4-1.8h.8c0,1.6-.3,2.9-1,3.9-.7,1-1.8,1.4-3.2,1.4ZM201.9,322.8v-2.1c0,0,0-4.2,0-4.2,0-.9,0-1.6-.3-2.2s-.5-1-.9-1.3c-.4-.3-.9-.5-1.6-.5s-1.2.1-1.6.4c-.5.3-.8.7-1.1,1.2l-2-.8c.3-.5.6-1,1.1-1.5.4-.4,1-.8,1.6-1s1.3-.4,2.1-.4,2.1.2,2.8.7c.8.4,1.3,1.1,1.7,1.9s.6,1.9.5,3.1v6.5h-2.1ZM200.9,309.3c-.5,0-.9,0-1.2-.3-.3-.2-.5-.4-.7-.6-.2-.2-.3-.4-.5-.6-.2-.2-.4-.3-.6-.3s-.4,0-.6.2-.2.4-.3.7h-1.7c0-.5.2-.9.4-1.3.2-.4.5-.7.9-.9.4-.2.8-.3,1.3-.3s.8,0,1.1.3c.3.2.5.4.7.6.2.2.4.4.5.6.2.2.4.3.6.3s.5,0,.6-.3c.1-.2.2-.4.3-.7h1.7c0,.7-.4,1.3-.8,1.8-.4.5-1,.8-1.8.8Z"/>
      <path class="st4" d="M212.2,323.1c-1.2,0-2.3-.3-3.2-.8-.9-.5-1.6-1.3-2.1-2.2-.5-.9-.8-2-.8-3.3s.3-2.3.8-3.3,1.2-1.7,2.1-2.2c.9-.5,2-.8,3.1-.8s2.2.3,3.1.8c.9.5,1.6,1.3,2.1,2.2.5.9.8,2,.8,3.3s-.3,2.3-.8,3.3c-.5.9-1.2,1.7-2.1,2.2-.9.5-1.9.8-3.1.8ZM212.2,321c.7,0,1.4-.2,1.9-.5.6-.4,1-.9,1.3-1.5.3-.6.5-1.4.5-2.2s-.2-1.6-.5-2.2c-.3-.6-.8-1.1-1.3-1.5-.6-.4-1.2-.5-1.9-.5s-1.4.2-1.9.5c-.6.4-1,.9-1.3,1.5-.3.6-.5,1.4-.5,2.2s.2,1.6.5,2.2c.3.6.8,1.1,1.3,1.5.6.4,1.2.5,2,.5Z"/>
      <path class="st4" d="M221.8,323.1c-.4,0-.7-.1-1-.4s-.4-.6-.4-1.1.1-.8.4-1.1.6-.4,1-.4.8.1,1.1.4c.3.3.4.6.4,1.1s-.1.8-.4,1.1c-.3.3-.7.4-1.1.4Z"/>
    </g>
  </g>
</svg>