<?xml version="1.0" encoding="UTF-8"?>
<svg id="Camada_1" xmlns="http://www.w3.org/2000/svg" version="1.1" xmlns:xlink="http://www.w3.org/1999/xlink" viewBox="0 0 350 350">
  <!-- Generator: Adobe Illustrator 29.5.0, SVG Export Plug-In . SVG Version: 2.1.0 Build 137)  -->
  <defs>
    <style>
      .st0 {
        opacity: .4;
      }

      .st1 {
        fill: none;
      }

      .st2 {
        clip-path: url(#clippath-1);
      }

      .st3 {
        isolation: isolate;
      }

      .st4 {
        fill: #1d1d1b;
      }

      .st5 {
        clip-path: url(#clippath-2);
      }

      .st6 {
        clip-path: url(#clippath);
      }
    </style>
    <clipPath id="clippath">
      <rect class="st1" x="-.7" y="-1.1" width="352" height="352"/>
    </clipPath>
    <clipPath id="clippath-1">
      <rect class="st1" x="-5.7" y="-6.1" width="362" height="362"/>
    </clipPath>
    <clipPath id="clippath-2">
      <rect class="st1" x="-5.7" y="-6.1" width="362" height="362"/>
    </clipPath>
  </defs>
  <g class="st0">
    <g class="st6">
      <g class="st2">
        <g class="st5">
          <image class="st3" width="755" height="755" transform="translate(-5.8 -6.1) scale(.5)" xlink:href="card2_02verso-1.png"/>
        </g>
      </g>
    </g>
  </g>
  <g class="st3">
    <g class="st3">
      <path class="st4" d="M65.7,110.3v-16.8h10.1v2.2h-7.8v5h7v2.1h-7v5.4h7.8v2.2h-10.2Z"/>
      <path class="st4" d="M79.3,110.3v-12h2.1v2.2c.1,0,.1,9.8.1,9.8h-2.3ZM87.6,104.2c0-1.1-.1-1.9-.4-2.5-.2-.6-.6-1-1-1.2-.4-.2-.9-.3-1.5-.4-1,0-1.7.3-2.3,1-.5.7-.8,1.7-.8,2.9h-1c0-1.3.2-2.3.6-3.3.4-.9.9-1.6,1.6-2.1.7-.5,1.5-.7,2.5-.7s1.8.2,2.5.6c.7.4,1.2,1,1.6,1.8s.6,1.9.6,3.2v.6h-2.3ZM87.6,110.3v-6.1h2.3v6.1h-2.3Z"/>
      <path class="st4" d="M97.5,110.2c-1.1,0-2-.3-2.8-.8-.8-.5-1.4-1.2-1.9-2.1-.5-.9-.7-1.9-.7-3.1s.2-2.3.7-3.2,1.1-1.6,1.9-2.1c.8-.5,1.8-.8,2.8-.8s1.9.3,2.6.8c.7.5,1.3,1.2,1.7,2.1s.6,2,.6,3.2-.2,2.2-.6,3.1-1,1.6-1.7,2.1-1.6.7-2.6.7ZM97.7,115.4c-.8,0-1.5,0-2.2-.2-.7-.2-1.2-.3-1.7-.5-.4-.2-.8-.4-1-.5l.9-1.8c.2.1.5.3.9.4.4.2.8.3,1.3.4.5.1,1.1.2,1.7.2s1.4-.1,2-.4,1-.8,1.4-1.4c.3-.6.5-1.4.5-2.4v-10.8h2.3v10.8c0,1.4-.3,2.5-.8,3.5-.5.9-1.2,1.6-2.1,2.1-.9.5-1.9.7-3.1.7ZM98.1,108.2c.7,0,1.3-.2,1.8-.5.5-.4.9-.8,1.2-1.5s.4-1.3.4-2.1-.1-1.5-.4-2.1c-.3-.6-.7-1.1-1.2-1.4s-1.1-.5-1.8-.5-1.3.2-1.9.5-1,.8-1.3,1.4c-.3.6-.5,1.3-.5,2.1s.2,1.5.5,2.1c.3.6.7,1.1,1.3,1.5s1.2.5,1.9.5Z"/>
      <path class="st4" d="M106.9,110.3v-16.8h2.3v16.8h-2.3Z"/>
      <path class="st4" d="M117.8,110.6c-1.2,0-2.3-.3-3.2-.8-.9-.5-1.6-1.3-2.1-2.2-.5-.9-.8-2-.8-3.3s.3-2.3.8-3.3c.5-.9,1.2-1.7,2.1-2.2.9-.5,2-.8,3.1-.8s2.2.3,3.1.8c.9.5,1.6,1.3,2.1,2.2.5.9.8,2,.8,3.3s-.3,2.3-.8,3.3c-.5.9-1.2,1.7-2.1,2.2-.9.5-1.9.8-3.1.8ZM117.8,108.5c.7,0,1.4-.2,1.9-.5.6-.4,1-.9,1.3-1.5.3-.6.5-1.4.5-2.2s-.2-1.6-.5-2.2c-.3-.6-.8-1.1-1.3-1.5-.6-.4-1.2-.5-1.9-.5s-1.4.2-1.9.5c-.6.4-1,.9-1.3,1.5s-.5,1.4-.5,2.2.2,1.6.5,2.2.8,1.1,1.3,1.5c.6.4,1.2.5,2,.5Z"/>
      <path class="st4" d="M126.3,110.3v-16.8h2.3v16.8h-2.3ZM132.5,110.6c-1,0-1.9-.3-2.6-.8-.7-.5-1.3-1.3-1.7-2.2s-.6-2-.6-3.3.2-2.4.6-3.3c.4-.9,1-1.7,1.7-2.2.7-.5,1.6-.8,2.6-.8s2,.3,2.8.8c.8.5,1.5,1.3,1.9,2.2.5.9.7,2,.7,3.3s-.2,2.3-.7,3.3-1.1,1.7-1.9,2.2c-.8.5-1.8.8-2.8.8ZM132,108.5c.7,0,1.4-.2,1.9-.5.5-.4,1-.9,1.3-1.5.3-.6.5-1.4.5-2.2s-.2-1.6-.5-2.2c-.3-.6-.7-1.1-1.3-1.5-.5-.4-1.2-.5-1.9-.5s-1.2.2-1.8.5c-.5.4-.9.9-1.2,1.5-.3.6-.4,1.4-.4,2.2s.1,1.6.4,2.2.7,1.1,1.2,1.5c.5.4,1.1.5,1.8.5Z"/>
      <path class="st4" d="M144.3,110.6c-1.4,0-2.5-.3-3.3-1-.8-.6-1.2-1.5-1.2-2.7s.4-2.2,1.2-2.8c.8-.6,2-1,3.4-1h3.3v1.8h-2.7c-1.1,0-1.9.2-2.3.5-.4.3-.7.8-.7,1.4s.2,1,.6,1.3c.4.3,1,.5,1.8.5s1.2-.1,1.7-.4c.5-.3.9-.7,1.1-1.2.3-.5.4-1.1.4-1.8h.8c0,1.6-.3,2.9-1,3.9-.7,1-1.8,1.4-3.2,1.4ZM147.8,110.3v-2.1c0,0,0-4.2,0-4.2,0-.9-.1-1.6-.3-2.2-.2-.6-.5-1-.9-1.3-.4-.3-.9-.5-1.6-.5s-1.2.1-1.6.4-.8.7-1.1,1.2l-2-.8c.3-.5.6-1,1.1-1.5.4-.4,1-.8,1.6-1,.6-.2,1.3-.4,2.1-.4s2.1.2,2.8.7c.8.4,1.3,1.1,1.7,1.9s.6,1.9.5,3.1v6.5h-2.1Z"/>
      <path class="st4" d="M152.8,110.3v-12h2.1v1.7c.5-.6,1-1.1,1.5-1.5.6-.3,1.2-.5,2-.5s1.8.2,2.4.7,1.2,1.1,1.5,2c.4-.9.8-1.5,1.5-2,.6-.5,1.4-.7,2.3-.7,1.4,0,2.4.4,3.2,1.3.8.9,1.1,2.3,1.1,4.1v6.9h-2.3v-6.1c0-1.1-.1-1.9-.3-2.5-.2-.6-.5-1-.9-1.2-.4-.2-.8-.3-1.3-.4-.9,0-1.6.3-2.1,1-.5.7-.7,1.7-.7,2.9v6.2h-2.3v-6.1c0-1.1-.1-1.9-.3-2.5-.2-.6-.5-1-.9-1.2-.4-.2-.8-.3-1.4-.4-.9,0-1.6.3-2.1,1-.5.7-.7,1.7-.7,2.9v6.2h-2.3Z"/>
    </g>
    <g class="st3">
      <path class="st4" d="M178.3,100.2v-1.9h7.7v1.9h-7.7ZM180.5,110.3v-13.3c0-1.3.3-2.2.9-2.9.6-.6,1.5-1,2.8-1s.8,0,1.2.2c.4.1.9.3,1.3.5l-.8,1.8c-.3-.2-.6-.3-.9-.3s-.5-.1-.6-.1c-.5,0-.9.2-1.2.5s-.4.9-.4,1.6v13.1h-2.3Z"/>
    </g>
    <g class="st3">
      <path class="st4" d="M193.6,110.6c-1.2,0-2.3-.3-3.2-.8-.9-.5-1.6-1.3-2.1-2.2-.5-.9-.8-2-.8-3.3s.3-2.3.8-3.3c.5-.9,1.2-1.7,2.1-2.2.9-.5,2-.8,3.1-.8s2.2.3,3.1.8c.9.5,1.6,1.3,2.1,2.2.5.9.8,2,.8,3.3s-.3,2.3-.8,3.3c-.5.9-1.2,1.7-2.1,2.2-.9.5-1.9.8-3.1.8ZM193.6,108.5c.7,0,1.4-.2,1.9-.5.6-.4,1-.9,1.3-1.5.3-.6.5-1.4.5-2.2s-.2-1.6-.5-2.2c-.3-.6-.8-1.1-1.3-1.5-.6-.4-1.2-.5-1.9-.5s-1.4.2-1.9.5c-.6.4-1,.9-1.3,1.5s-.5,1.4-.5,2.2.2,1.6.5,2.2.8,1.1,1.3,1.5c.6.4,1.2.5,2,.5Z"/>
      <path class="st4" d="M202.1,110.3v-12h2.3v12h-2.3ZM203.4,103.9c0-1.3.2-2.4.7-3.2.5-.8,1.1-1.4,1.9-1.8.8-.4,1.6-.6,2.5-.6v2.2c-.7,0-1.4.1-2.1.3-.6.2-1.2.6-1.6,1.1-.4.5-.6,1.1-.6,2h-.9Z"/>
      <path class="st4" d="M210.4,110.3v-12h2.1v1.7c.5-.6,1-1.1,1.5-1.5.6-.3,1.2-.5,2-.5s1.8.2,2.4.7,1.2,1.1,1.5,2c.4-.9.8-1.5,1.5-2,.6-.5,1.4-.7,2.3-.7,1.4,0,2.4.4,3.2,1.3.8.9,1.1,2.3,1.1,4.1v6.9h-2.3v-6.1c0-1.1-.1-1.9-.3-2.5-.2-.6-.5-1-.9-1.2-.4-.2-.8-.3-1.3-.4-.9,0-1.6.3-2.1,1-.5.7-.7,1.7-.7,2.9v6.2h-2.3v-6.1c0-1.1-.1-1.9-.3-2.5-.2-.6-.5-1-.9-1.2-.4-.2-.8-.3-1.4-.4-.9,0-1.6.3-2.1,1-.5.7-.7,1.7-.7,2.9v6.2h-2.3Z"/>
      <path class="st4" d="M234.8,110.6c-1.4,0-2.5-.3-3.3-1-.8-.6-1.2-1.5-1.2-2.7s.4-2.2,1.2-2.8c.8-.6,2-1,3.4-1h3.3v1.8h-2.7c-1.1,0-1.9.2-2.3.5-.4.3-.7.8-.7,1.4s.2,1,.6,1.3c.4.3,1,.5,1.8.5s1.2-.1,1.7-.4c.5-.3.9-.7,1.1-1.2.3-.5.4-1.1.4-1.8h.8c0,1.6-.3,2.9-1,3.9-.7,1-1.8,1.4-3.2,1.4ZM238.4,110.3v-2.1c0,0,0-4.2,0-4.2,0-.9-.1-1.6-.3-2.2-.2-.6-.5-1-.9-1.3-.4-.3-.9-.5-1.6-.5s-1.2.1-1.6.4-.8.7-1.1,1.2l-2-.8c.3-.5.6-1,1.1-1.5.4-.4,1-.8,1.6-1,.6-.2,1.3-.4,2.1-.4s2.1.2,2.8.7c.8.4,1.3,1.1,1.7,1.9s.6,1.9.5,3.1v6.5h-2.1Z"/>
      <path class="st4" d="M247.7,110.6c-.8,0-1.6-.1-2.3-.4s-1.2-.6-1.7-1-.8-.9-1-1.5l2-.9c.3.5.6.9,1.2,1.2.5.3,1.1.5,1.7.5s1.3-.1,1.7-.4c.4-.3.7-.6.7-1.1s-.2-.8-.5-1.1c-.3-.3-.8-.5-1.5-.6l-1.1-.3c-1.1-.3-2-.8-2.6-1.4s-.9-1.3-.9-2.1c0-1.2.4-2.1,1.1-2.7.8-.6,1.9-1,3.3-1s1.4.1,2,.3c.6.2,1.1.5,1.5.9s.7.8.9,1.4l-1.9.9c-.2-.5-.5-.8-1-1.1-.5-.2-1-.3-1.6-.3s-1.1.1-1.5.4c-.4.3-.6.7-.6,1.2s.2.5.5.8c.3.2.8.5,1.4.6l1.3.3c.8.2,1.4.5,1.9.9.5.4.9.8,1.2,1.3.3.5.4,1,.4,1.5s-.2,1.3-.6,1.9c-.4.5-.9.9-1.6,1.2-.7.3-1.5.4-2.3.4Z"/>
      <path class="st4" d="M265.2,110.6c-1.1,0-2-.3-2.8-.8-.8-.5-1.4-1.3-1.9-2.2s-.7-2-.7-3.3.2-2.4.7-3.3c.5-.9,1.1-1.7,1.9-2.2.8-.5,1.8-.8,2.8-.8s1.9.3,2.6.8,1.3,1.3,1.7,2.2c.4.9.6,2,.6,3.3s-.2,2.3-.6,3.3c-.4.9-1,1.7-1.7,2.2s-1.6.8-2.6.8ZM265.7,108.5c.7,0,1.3-.2,1.8-.5.5-.4.9-.9,1.2-1.5s.4-1.4.4-2.2-.1-1.6-.4-2.2c-.3-.6-.7-1.1-1.2-1.5-.5-.4-1.1-.5-1.8-.5s-1.3.2-1.9.5c-.5.4-1,.9-1.3,1.5-.3.6-.5,1.4-.5,2.2s.2,1.6.5,2.2c.3.6.7,1.1,1.3,1.5.5.4,1.2.5,1.9.5ZM269.2,110.3v-2.2c0,0,0-14.6,0-14.6h2.3v16.8h-2.2Z"/>
      <path class="st4" d="M279.8,110.6c-1.2,0-2.2-.3-3.1-.8-.9-.5-1.6-1.3-2.1-2.2-.5-.9-.8-2-.8-3.3s.3-2.3.8-3.3c.5-.9,1.2-1.7,2.1-2.2.9-.5,1.9-.8,3.1-.8s2.1.3,2.9.8,1.5,1.3,2,2.4c.5,1,.7,2.2.7,3.6h-9.7l.4-.4c0,.8.2,1.6.5,2.2.3.6.8,1.1,1.4,1.4.6.3,1.2.5,2,.5s1.5-.2,2-.6c.5-.4,1-.9,1.3-1.4l2,.9c-.3.6-.7,1.2-1.2,1.6-.5.5-1.1.8-1.8,1.1-.7.3-1.5.4-2.3.4ZM276.3,103.4l-.5-.4h7.6l-.4.4c0-.7-.1-1.3-.4-1.8-.3-.5-.7-.9-1.2-1.2-.5-.3-1-.4-1.6-.4s-1.1.1-1.7.4c-.5.3-1,.6-1.3,1.1-.3.5-.5,1.1-.5,1.8Z"/>
    </g>
    <g class="st3">
      <path class="st4" d="M65.9,138.6c-1.2,0-2.2-.3-3.1-.8-.9-.5-1.6-1.3-2.1-2.2-.5-.9-.8-2-.8-3.3s.3-2.3.8-3.3c.5-.9,1.2-1.7,2.1-2.2.9-.5,1.9-.8,3.1-.8s2.1.3,2.9.8,1.5,1.3,2,2.4c.5,1,.7,2.2.7,3.6h-9.7l.4-.4c0,.8.2,1.6.5,2.2.3.6.8,1.1,1.4,1.4.6.3,1.2.5,2,.5s1.5-.2,2-.6c.5-.4,1-.9,1.3-1.4l2,.9c-.3.6-.7,1.2-1.2,1.6-.5.5-1.1.8-1.8,1.1-.7.3-1.5.4-2.3.4ZM62.3,131.4l-.5-.4h7.6l-.4.4c0-.7-.1-1.3-.4-1.8-.3-.5-.7-.9-1.2-1.2-.5-.3-1-.4-1.6-.4s-1.1.1-1.7.4c-.5.3-1,.6-1.3,1.1-.3.5-.5,1.1-.5,1.8Z"/>
      <path class="st4" d="M73.7,138.3v-12h2.1v2.2c.1,0,.1,9.8.1,9.8h-2.3ZM82,132.2c0-1.1-.1-1.9-.4-2.5-.2-.6-.6-1-1-1.2-.4-.2-.9-.3-1.5-.4-1,0-1.7.3-2.3,1-.5.7-.8,1.7-.8,2.9h-1c0-1.3.2-2.3.6-3.3.4-.9.9-1.6,1.6-2.1.7-.5,1.5-.7,2.5-.7s1.8.2,2.5.6c.7.4,1.2,1,1.6,1.8s.6,1.9.6,3.2v.6h-2.3ZM82,138.3v-6.1h2.3v6.1h-2.3Z"/>
      <path class="st4" d="M92.5,138.6c-1.2,0-2.2-.3-3.1-.8-.9-.5-1.6-1.3-2.1-2.2-.5-.9-.8-2-.8-3.3s.3-2.3.8-3.3c.5-.9,1.2-1.7,2.1-2.2.9-.5,1.9-.8,3.1-.8s2.1.3,2.9.8,1.5,1.3,2,2.4c.5,1,.7,2.2.7,3.6h-9.7l.4-.4c0,.8.2,1.6.5,2.2.3.6.8,1.1,1.4,1.4.6.3,1.2.5,2,.5s1.5-.2,2-.6c.5-.4,1-.9,1.3-1.4l2,.9c-.3.6-.7,1.2-1.2,1.6-.5.5-1.1.8-1.8,1.1-.7.3-1.5.4-2.3.4ZM88.9,131.4l-.5-.4h7.6l-.4.4c0-.7-.1-1.3-.4-1.8-.3-.5-.7-.9-1.2-1.2-.5-.3-1-.4-1.6-.4s-1.1.1-1.7.4c-.5.3-1,.6-1.3,1.1-.3.5-.5,1.1-.5,1.8Z"/>
      <path class="st4" d="M100.3,138.3v-12h2.3v12h-2.3ZM101.7,131.9c0-1.3.2-2.4.7-3.2s1.1-1.4,1.9-1.8c.8-.4,1.6-.6,2.5-.6v2.2c-.7,0-1.4.1-2.1.3-.6.2-1.2.6-1.6,1.1s-.6,1.1-.6,2h-.9Z"/>
      <path class="st4" d="M113.4,138.2c-1.1,0-2-.3-2.8-.8-.8-.5-1.4-1.2-1.9-2.1-.5-.9-.7-1.9-.7-3.1s.2-2.3.7-3.2,1.1-1.6,1.9-2.1c.8-.5,1.8-.8,2.8-.8s1.9.3,2.6.8c.7.5,1.3,1.2,1.7,2.1s.6,2,.6,3.2-.2,2.2-.6,3.1-1,1.6-1.7,2.1-1.6.7-2.6.7ZM113.7,143.4c-.8,0-1.5,0-2.2-.2-.7-.2-1.2-.3-1.7-.5-.4-.2-.8-.4-1-.5l.9-1.8c.2.1.5.3.9.4.4.2.8.3,1.3.4.5.1,1.1.2,1.7.2s1.4-.1,2-.4,1-.8,1.4-1.4c.3-.6.5-1.4.5-2.4v-10.8h2.3v10.8c0,1.4-.3,2.5-.8,3.5-.5.9-1.2,1.6-2.1,2.1-.9.5-1.9.7-3.1.7ZM114,136.2c.7,0,1.3-.2,1.8-.5.5-.4.9-.8,1.2-1.5s.4-1.3.4-2.1-.1-1.5-.4-2.1c-.3-.6-.7-1.1-1.2-1.4s-1.1-.5-1.8-.5-1.3.2-1.9.5-1,.8-1.3,1.4c-.3.6-.5,1.3-.5,2.1s.2,1.5.5,2.1c.3.6.7,1.1,1.3,1.5s1.2.5,1.9.5Z"/>
      <path class="st4" d="M124.2,123.8c-.4,0-.7-.1-1-.4-.3-.3-.4-.6-.4-1s.1-.7.4-1c.3-.3.6-.4,1-.4s.7.1,1,.4c.3.3.4.6.4,1s-.1.7-.4,1c-.3.3-.6.4-1,.4ZM123,138.3v-12h2.3v12h-2.3Z"/>
      <path class="st4" d="M132.5,138.6c-1.4,0-2.5-.3-3.3-1-.8-.6-1.2-1.5-1.2-2.7s.4-2.2,1.2-2.8c.8-.6,2-1,3.4-1h3.3v1.8h-2.7c-1.1,0-1.9.2-2.3.5-.4.3-.7.8-.7,1.4s.2,1,.6,1.3c.4.3,1,.5,1.8.5s1.2-.1,1.7-.4c.5-.3.9-.7,1.1-1.2.3-.5.4-1.1.4-1.8h.8c0,1.6-.3,2.9-1,3.9-.7,1-1.8,1.4-3.2,1.4ZM136,138.3v-2.1c0,0,0-4.2,0-4.2,0-.9-.1-1.6-.3-2.2-.2-.6-.5-1-.9-1.3-.4-.3-.9-.5-1.6-.5s-1.2.1-1.6.4-.8.7-1.1,1.2l-2-.8c.3-.5.6-1,1.1-1.5.4-.4,1-.8,1.6-1,.6-.2,1.3-.4,2.1-.4s2.1.2,2.8.7c.8.4,1.3,1.1,1.7,1.9s.6,1.9.5,3.1v6.5h-2.1Z"/>
      <path class="st4" d="M140.3,141.1l1.4-5.2h2.5l-2,5.2h-1.8Z"/>
      <path class="st4" d="M158,138.6c-1.2,0-2.3-.3-3.2-.8-.9-.5-1.7-1.3-2.2-2.2-.5-.9-.8-2-.8-3.3s.3-2.3.8-3.3c.5-.9,1.2-1.7,2.2-2.2.9-.5,2-.8,3.2-.8s2.2.3,3.2.8c.9.5,1.6,1.3,2.1,2.3l-2.1.9c-.3-.6-.7-1.1-1.3-1.4-.6-.3-1.2-.5-2-.5s-1.4.2-1.9.5c-.6.4-1,.8-1.3,1.5s-.5,1.4-.5,2.2.2,1.5.5,2.2.8,1.1,1.3,1.5c.6.4,1.2.5,1.9.5s1.4-.2,2-.6,1-.9,1.3-1.5l2.1.8c-.5,1.1-1.2,1.9-2.1,2.5-.9.6-2,.9-3.2.9Z"/>
      <path class="st4" d="M171,138.6c-1.2,0-2.3-.3-3.2-.8-.9-.5-1.6-1.3-2.1-2.2-.5-.9-.8-2-.8-3.3s.3-2.3.8-3.3c.5-.9,1.2-1.7,2.1-2.2.9-.5,2-.8,3.1-.8s2.2.3,3.1.8c.9.5,1.6,1.3,2.1,2.2.5.9.8,2,.8,3.3s-.3,2.3-.8,3.3c-.5.9-1.2,1.7-2.1,2.2-.9.5-1.9.8-3.1.8ZM171,136.5c.7,0,1.4-.2,1.9-.5.6-.4,1-.9,1.3-1.5.3-.6.5-1.4.5-2.2s-.2-1.6-.5-2.2c-.3-.6-.8-1.1-1.3-1.5-.6-.4-1.2-.5-1.9-.5s-1.4.2-1.9.5c-.6.4-1,.9-1.3,1.5s-.5,1.4-.5,2.2.2,1.6.5,2.2.8,1.1,1.3,1.5c.6.4,1.2.5,2,.5Z"/>
      <path class="st4" d="M179.4,138.3v-12h2.1v1.7c.5-.6,1-1.1,1.5-1.5.6-.3,1.2-.5,2-.5s1.8.2,2.4.7,1.2,1.1,1.5,2c.4-.9.8-1.5,1.5-2,.6-.5,1.4-.7,2.3-.7,1.4,0,2.4.4,3.2,1.3.8.9,1.1,2.3,1.1,4.1v6.9h-2.3v-6.1c0-1.1-.1-1.9-.3-2.5-.2-.6-.5-1-.9-1.2-.4-.2-.8-.3-1.3-.4-.9,0-1.6.3-2.1,1-.5.7-.7,1.7-.7,2.9v6.2h-2.3v-6.1c0-1.1-.1-1.9-.3-2.5-.2-.6-.5-1-.9-1.2-.4-.2-.8-.3-1.4-.4-.9,0-1.6.3-2.1,1-.5.7-.7,1.7-.7,2.9v6.2h-2.3Z"/>
      <path class="st4" d="M205.4,138.6c-1.2,0-2.3-.3-3.2-.8-.9-.5-1.6-1.3-2.1-2.2-.5-.9-.8-2-.8-3.3s.3-2.3.8-3.3c.5-.9,1.2-1.7,2.1-2.2.9-.5,2-.8,3.1-.8s2.2.3,3.1.8c.9.5,1.6,1.3,2.1,2.2.5.9.8,2,.8,3.3s-.3,2.3-.8,3.3c-.5.9-1.2,1.7-2.1,2.2-.9.5-1.9.8-3.1.8ZM205.4,136.5c.7,0,1.4-.2,1.9-.5.6-.4,1-.9,1.3-1.5.3-.6.5-1.4.5-2.2s-.2-1.6-.5-2.2c-.3-.6-.8-1.1-1.3-1.5-.6-.4-1.2-.5-1.9-.5s-1.4.2-1.9.5c-.6.4-1,.9-1.3,1.5s-.5,1.4-.5,2.2.2,1.6.5,2.2.8,1.1,1.3,1.5c.6.4,1.2.5,2,.5Z"/>
      <path class="st4" d="M219.8,138.3v-12h2.3v12h-2.3ZM221.2,131.9c0-1.3.2-2.4.7-3.2.5-.8,1.1-1.4,1.9-1.8.8-.4,1.6-.6,2.5-.6v2.2c-.7,0-1.4.1-2.1.3-.6.2-1.2.6-1.6,1.1-.4.5-.6,1.1-.6,2h-.9Z"/>
      <path class="st4" d="M227.9,132.5v-6.1h2.3v6.1h-2.3ZM230.2,132.5c0,1.1.1,1.9.4,2.5s.6,1,1,1.2c.4.2,1,.3,1.5.4,1,0,1.7-.3,2.3-1,.5-.7.8-1.7.8-2.9h1c0,1.3-.2,2.3-.6,3.3-.4.9-.9,1.6-1.6,2.1-.7.5-1.5.7-2.5.7s-1.7-.2-2.4-.6c-.7-.4-1.2-1-1.6-1.8-.4-.8-.6-1.9-.6-3.2v-.6h2.3ZM236.3,138.3v-2.2c-.1,0-.1-9.8-.1-9.8h2.3v12h-2.1Z"/>
      <path class="st4" d="M241.2,124.7l2.8-3.2h2.8l-3.1,3.2h-2.5ZM241.8,138.3v-12h2.3v12h-2.3Z"/>
      <path class="st4" d="M252.1,138.6c-1.1,0-2-.3-2.8-.8s-1.4-1.3-1.9-2.2c-.5-.9-.7-2-.7-3.3s.2-2.4.7-3.3c.5-.9,1.1-1.7,1.9-2.2s1.8-.8,2.8-.8,1.9.3,2.6.8c.7.5,1.3,1.3,1.7,2.2.4.9.6,2,.6,3.3s-.2,2.3-.6,3.3c-.4.9-1,1.7-1.7,2.2-.7.5-1.6.8-2.6.8ZM252.7,136.5c.7,0,1.3-.2,1.8-.5.5-.4.9-.9,1.2-1.5s.4-1.4.4-2.2-.1-1.6-.4-2.2c-.3-.6-.7-1.1-1.2-1.5-.5-.4-1.1-.5-1.8-.5s-1.3.2-1.9.5c-.5.4-1,.9-1.3,1.5-.3.6-.5,1.4-.5,2.2s.2,1.6.5,2.2c.3.6.7,1.1,1.3,1.5.5.4,1.2.5,1.9.5ZM256.2,138.3v-2.2c0,0,0-14.6,0-14.6h2.3v16.8h-2.2Z"/>
      <path class="st4" d="M266.9,138.6c-1.2,0-2.3-.3-3.2-.8-.9-.5-1.6-1.3-2.1-2.2-.5-.9-.8-2-.8-3.3s.3-2.3.8-3.3c.5-.9,1.2-1.7,2.1-2.2.9-.5,2-.8,3.1-.8s2.2.3,3.1.8c.9.5,1.6,1.3,2.1,2.2.5.9.8,2,.8,3.3s-.3,2.3-.8,3.3c-.5.9-1.2,1.7-2.1,2.2-.9.5-1.9.8-3.1.8ZM266.9,136.5c.7,0,1.4-.2,1.9-.5.6-.4,1-.9,1.3-1.5.3-.6.5-1.4.5-2.2s-.2-1.6-.5-2.2c-.3-.6-.8-1.1-1.3-1.5-.6-.4-1.2-.5-1.9-.5s-1.4.2-1.9.5c-.6.4-1,.9-1.3,1.5s-.5,1.4-.5,2.2.2,1.6.5,2.2.8,1.1,1.3,1.5c.6.4,1.2.5,2,.5Z"/>
      <path class="st4" d="M279.7,138.6c-.8,0-1.6-.1-2.3-.4s-1.2-.6-1.7-1-.8-.9-1-1.5l2-.9c.3.5.6.9,1.2,1.2.5.3,1.1.5,1.7.5s1.3-.1,1.7-.4.7-.6.7-1.1-.2-.8-.5-1.1c-.3-.3-.8-.5-1.5-.6l-1.1-.3c-1.1-.3-2-.8-2.6-1.4-.6-.6-.9-1.3-.9-2.1,0-1.2.4-2.1,1.1-2.7.8-.6,1.9-1,3.3-1s1.4.1,2,.3c.6.2,1.1.5,1.5.9s.7.8.9,1.4l-1.9.9c-.2-.5-.5-.8-1-1.1-.5-.2-1-.3-1.6-.3s-1.1.1-1.5.4c-.4.3-.6.7-.6,1.2s.2.5.5.8c.3.2.8.5,1.4.6l1.3.3c.8.2,1.4.5,1.9.9.5.4.9.8,1.2,1.3.3.5.4,1,.4,1.5s-.2,1.3-.6,1.9c-.4.5-.9.9-1.6,1.2-.7.3-1.5.4-2.3.4Z"/>
      <path class="st4" d="M285.9,141.1l1.4-5.2h2.5l-2,5.2h-1.8Z"/>
    </g>
    <g class="st3">
      <path class="st4" d="M80.3,166.6c-1.2,0-2.3-.3-3.2-.8-.9-.5-1.7-1.3-2.2-2.2-.5-.9-.8-2-.8-3.3s.3-2.3.8-3.3,1.2-1.7,2.2-2.2c.9-.5,2-.8,3.2-.8s2.2.3,3.2.8,1.6,1.3,2.1,2.3l-2.1.9c-.3-.6-.7-1.1-1.3-1.4-.6-.3-1.2-.5-2-.5s-1.4.2-1.9.5c-.6.4-1,.8-1.3,1.5-.3.6-.5,1.4-.5,2.2s.2,1.5.5,2.2c.3.6.8,1.1,1.3,1.5.6.4,1.2.5,1.9.5s1.4-.2,2-.6c.6-.4,1-.9,1.3-1.5l2.1.8c-.5,1.1-1.2,1.9-2.1,2.5s-2,.9-3.2.9Z"/>
      <path class="st4" d="M91.6,166.6c-1.4,0-2.5-.3-3.3-1-.8-.6-1.2-1.5-1.2-2.7s.4-2.2,1.2-2.8c.8-.6,2-1,3.4-1h3.3v1.8h-2.7c-1.1,0-1.9.2-2.3.5-.4.3-.7.8-.7,1.4s.2,1,.6,1.3c.4.3,1,.5,1.8.5s1.2-.1,1.7-.4c.5-.3.9-.7,1.1-1.2.3-.5.4-1.1.4-1.8h.8c0,1.6-.3,2.9-1,3.9s-1.8,1.4-3.2,1.4ZM95.2,166.3v-2.1c0,0,0-4.2,0-4.2,0-.9-.1-1.6-.3-2.2-.2-.6-.5-1-.9-1.3-.4-.3-.9-.5-1.6-.5s-1.2.1-1.6.4c-.5.3-.8.7-1.1,1.2l-2-.8c.3-.5.6-1,1.1-1.5.4-.4,1-.8,1.6-1,.6-.2,1.3-.4,2.1-.4s2.1.2,2.8.7c.8.4,1.3,1.1,1.7,1.9s.6,1.9.5,3.1v6.5h-2.1Z"/>
      <path class="st4" d="M100.2,166.3v-16.8h2.3v16.8h-2.3Z"/>
      <path class="st4" d="M111,166.6c-1.2,0-2.3-.3-3.2-.8-.9-.5-1.6-1.3-2.1-2.2-.5-.9-.8-2-.8-3.3s.3-2.3.8-3.3c.5-.9,1.2-1.7,2.1-2.2.9-.5,2-.8,3.1-.8s2.2.3,3.1.8c.9.5,1.6,1.3,2.1,2.2.5.9.8,2,.8,3.3s-.3,2.3-.8,3.3c-.5.9-1.2,1.7-2.1,2.2-.9.5-1.9.8-3.1.8ZM111,164.5c.7,0,1.4-.2,1.9-.5.6-.4,1-.9,1.3-1.5s.5-1.4.5-2.2-.2-1.6-.5-2.2-.8-1.1-1.3-1.5c-.6-.4-1.2-.5-1.9-.5s-1.4.2-1.9.5c-.6.4-1,.9-1.3,1.5-.3.6-.5,1.4-.5,2.2s.2,1.6.5,2.2c.3.6.8,1.1,1.3,1.5.6.4,1.2.5,2,.5Z"/>
      <path class="st4" d="M119.5,166.3v-12h2.3v12h-2.3ZM120.9,159.9c0-1.3.2-2.4.7-3.2.5-.8,1.1-1.4,1.9-1.8.8-.4,1.6-.6,2.5-.6v2.2c-.7,0-1.4.1-2.1.3-.6.2-1.2.6-1.6,1.1-.4.5-.6,1.1-.6,2h-.9Z"/>
      <path class="st4" d="M127.2,169.1l1.4-5.2h2.5l-2,5.2h-1.8Z"/>
      <path class="st4" d="M138.5,156.2v-1.9h7.7v1.9h-7.7ZM140.6,166.3v-13.3c0-1.3.3-2.2.9-2.9.6-.6,1.5-1,2.8-1s.8,0,1.2.2c.4.1.9.3,1.3.5l-.8,1.8c-.3-.2-.6-.3-.9-.3s-.5-.1-.6-.1c-.5,0-.9.2-1.2.5-.3.3-.4.9-.4,1.6v13.1h-2.3Z"/>
      <path class="st4" d="M148.4,166.3v-12h2.3v12h-2.3ZM149.8,159.9c0-1.3.2-2.4.7-3.2.5-.8,1.1-1.4,1.9-1.8.8-.4,1.6-.6,2.5-.6v2.2c-.7,0-1.4.1-2.1.3-.6.2-1.2.6-1.6,1.1-.4.5-.6,1.1-.6,2h-.9Z"/>
      <path class="st4" d="M158.1,151.8c-.4,0-.7-.1-1-.4s-.4-.6-.4-1,.1-.7.4-1c.3-.3.6-.4,1-.4s.7.1,1,.4c.3.3.4.6.4,1s-.1.7-.4,1-.6.4-1,.4ZM157,166.3v-12h2.3v12h-2.3Z"/>
      <path class="st4" d="M168,166.6c-1.2,0-2.3-.3-3.2-.8-.9-.5-1.6-1.3-2.1-2.2-.5-.9-.8-2-.8-3.3s.3-2.3.8-3.3c.5-.9,1.2-1.7,2.1-2.2.9-.5,2-.8,3.1-.8s2.2.3,3.1.8c.9.5,1.6,1.3,2.1,2.2.5.9.8,2,.8,3.3s-.3,2.3-.8,3.3c-.5.9-1.2,1.7-2.1,2.2-.9.5-1.9.8-3.1.8ZM168,164.5c.7,0,1.4-.2,1.9-.5.6-.4,1-.9,1.3-1.5s.5-1.4.5-2.2-.2-1.6-.5-2.2-.8-1.1-1.3-1.5c-.6-.4-1.2-.5-1.9-.5s-1.4.2-1.9.5c-.6.4-1,.9-1.3,1.5-.3.6-.5,1.4-.5,2.2s.2,1.6.5,2.2c.3.6.8,1.1,1.3,1.5.6.4,1.2.5,2,.5Z"/>
      <path class="st4" d="M175.8,169.1l1.4-5.2h2.5l-2,5.2h-1.8Z"/>
      <path class="st4" d="M188.1,171.1v-16.8h2.1v2.2c.1,0,.1,14.6.1,14.6h-2.3ZM194.3,166.6c-1,0-1.9-.3-2.6-.8s-1.3-1.3-1.7-2.2c-.4-.9-.6-2-.6-3.3s.2-2.4.6-3.3c.4-.9,1-1.7,1.7-2.2s1.6-.8,2.6-.8,2,.3,2.8.8c.8.5,1.5,1.3,1.9,2.2.5.9.7,2,.7,3.3s-.2,2.3-.7,3.3-1.1,1.7-1.9,2.2c-.8.5-1.8.8-2.8.8ZM193.8,164.5c.7,0,1.4-.2,1.9-.5.5-.4,1-.9,1.3-1.5.3-.6.5-1.4.5-2.2s-.2-1.6-.5-2.2c-.3-.6-.7-1.1-1.3-1.5-.5-.4-1.2-.5-1.9-.5s-1.2.2-1.8.5c-.5.4-.9.9-1.2,1.5-.3.6-.4,1.4-.4,2.2s.1,1.6.4,2.2.7,1.1,1.2,1.5c.5.4,1.1.5,1.8.5Z"/>
      <path class="st4" d="M202.2,166.3v-12h2.3v12h-2.3ZM203.6,159.9c0-1.3.2-2.4.7-3.2s1.1-1.4,1.9-1.8c.8-.4,1.6-.6,2.5-.6v2.2c-.7,0-1.4.1-2.1.3-.6.2-1.2.6-1.6,1.1s-.6,1.1-.6,2h-.9Z"/>
      <path class="st4" d="M215.9,166.6c-1.2,0-2.2-.3-3.1-.8-.9-.5-1.6-1.3-2.1-2.2-.5-.9-.8-2-.8-3.3s.3-2.3.8-3.3,1.2-1.7,2.1-2.2c.9-.5,1.9-.8,3.1-.8s2.1.3,2.9.8,1.5,1.3,2,2.4c.5,1,.7,2.2.7,3.6h-9.7l.4-.4c0,.8.2,1.6.5,2.2s.8,1.1,1.4,1.4c.6.3,1.2.5,2,.5s1.5-.2,2-.6c.5-.4,1-.9,1.3-1.4l2,.9c-.3.6-.7,1.2-1.2,1.6-.5.5-1.1.8-1.8,1.1-.7.3-1.5.4-2.3.4ZM212.4,159.4l-.5-.4h7.6l-.4.4c0-.7-.1-1.3-.4-1.8-.3-.5-.7-.9-1.2-1.2-.5-.3-1-.4-1.6-.4s-1.1.1-1.7.4c-.5.3-1,.6-1.3,1.1-.3.5-.5,1.1-.5,1.8Z"/>
    </g>
    <g class="st3">
      <path class="st4" d="M228.1,166.6c-.8,0-1.6-.1-2.3-.4s-1.2-.6-1.7-1-.8-.9-1-1.5l2-.9c.3.5.6.9,1.2,1.2.5.3,1.1.5,1.7.5s1.3-.1,1.7-.4.7-.6.7-1.1-.2-.8-.5-1.1c-.3-.3-.8-.5-1.5-.6l-1.1-.3c-1.1-.3-2-.8-2.6-1.4-.6-.6-.9-1.3-.9-2.1,0-1.2.4-2.1,1.1-2.7.8-.6,1.9-1,3.3-1s1.4.1,2,.3c.6.2,1.1.5,1.5.9s.7.8.9,1.4l-1.9.9c-.2-.5-.5-.8-1-1.1-.5-.2-1-.3-1.6-.3s-1.1.1-1.5.4c-.4.3-.6.7-.6,1.2s.2.5.5.8c.3.2.8.5,1.4.6l1.3.3c.8.2,1.4.5,1.9.9.5.4.9.8,1.2,1.3.3.5.4,1,.4,1.5s-.2,1.3-.6,1.9c-.4.5-.9.9-1.6,1.2-.7.3-1.5.4-2.3.4Z"/>
    </g>
    <g class="st3">
      <path class="st4" d="M239.2,166.6c-.8,0-1.6-.1-2.3-.4s-1.2-.6-1.7-1-.8-.9-1-1.5l2-.9c.3.5.6.9,1.2,1.2.5.3,1.1.5,1.7.5s1.3-.1,1.7-.4c.4-.3.7-.6.7-1.1s-.2-.8-.5-1.1c-.3-.3-.8-.5-1.5-.6l-1.1-.3c-1.1-.3-2-.8-2.6-1.4s-.9-1.3-.9-2.1c0-1.2.4-2.1,1.1-2.7.8-.6,1.9-1,3.3-1s1.4.1,2,.3c.6.2,1.1.5,1.5.9s.7.8.9,1.4l-1.9.9c-.2-.5-.5-.8-1-1.1-.5-.2-1-.3-1.6-.3s-1.1.1-1.5.4c-.4.3-.6.7-.6,1.2s.2.5.5.8c.3.2.8.5,1.4.6l1.3.3c.8.2,1.4.5,1.9.9.5.4.9.8,1.2,1.3.3.5.4,1,.4,1.5s-.2,1.3-.6,1.9c-.4.5-.9.9-1.6,1.2-.7.3-1.5.4-2.3.4Z"/>
      <path class="st4" d="M250,166.6c-1.4,0-2.5-.3-3.3-1-.8-.6-1.2-1.5-1.2-2.7s.4-2.2,1.2-2.8c.8-.6,2-1,3.4-1h3.3v1.8h-2.7c-1.1,0-1.9.2-2.3.5-.4.3-.7.8-.7,1.4s.2,1,.6,1.3c.4.3,1,.5,1.8.5s1.2-.1,1.7-.4c.5-.3.9-.7,1.1-1.2.3-.5.4-1.1.4-1.8h.8c0,1.6-.3,2.9-1,3.9-.7,1-1.8,1.4-3.2,1.4ZM253.5,166.3v-2.1c0,0,0-4.2,0-4.2,0-.9-.1-1.6-.3-2.2-.2-.6-.5-1-.9-1.3-.4-.3-.9-.5-1.6-.5s-1.2.1-1.6.4-.8.7-1.1,1.2l-2-.8c.3-.5.6-1,1.1-1.5.4-.4,1-.8,1.6-1,.6-.2,1.3-.4,2.1-.4s2.1.2,2.8.7c.8.4,1.3,1.1,1.7,1.9s.6,1.9.5,3.1v6.5h-2.1ZM252.5,152.9c-.5,0-.9,0-1.2-.3-.3-.2-.5-.4-.7-.6-.2-.2-.3-.4-.5-.6s-.4-.3-.6-.3-.4,0-.6.2c-.1.1-.2.4-.3.7h-1.7c0-.5.2-.9.4-1.3.2-.4.5-.7.9-.9.4-.2.8-.3,1.3-.3s.8,0,1.1.3c.3.2.5.4.7.6s.4.4.5.6c.2.2.4.3.6.3s.5,0,.6-.3c.1-.2.2-.4.3-.7h1.7c0,.7-.4,1.3-.8,1.8-.4.5-1,.8-1.8.8Z"/>
      <path class="st4" d="M263.9,166.6c-1.2,0-2.3-.3-3.2-.8-.9-.5-1.6-1.3-2.1-2.2-.5-.9-.8-2-.8-3.3s.3-2.3.8-3.3c.5-.9,1.2-1.7,2.1-2.2.9-.5,2-.8,3.1-.8s2.2.3,3.1.8c.9.5,1.6,1.3,2.1,2.2.5.9.8,2,.8,3.3s-.3,2.3-.8,3.3c-.5.9-1.2,1.7-2.1,2.2-.9.5-1.9.8-3.1.8ZM263.9,164.5c.7,0,1.4-.2,1.9-.5.6-.4,1-.9,1.3-1.5.3-.6.5-1.4.5-2.2s-.2-1.6-.5-2.2c-.3-.6-.8-1.1-1.3-1.5-.6-.4-1.2-.5-1.9-.5s-1.4.2-1.9.5c-.6.4-1,.9-1.3,1.5s-.5,1.4-.5,2.2.2,1.6.5,2.2.8,1.1,1.3,1.5c.6.4,1.2.5,2,.5Z"/>
      <path class="st4" d="M271.7,169.1l1.4-5.2h2.5l-2,5.2h-1.8Z"/>
    </g>
    <g class="st3">
      <path class="st4" d="M66.3,194.3l-5-12h2.3l4.8,12h-2.1ZM66.5,194.3l4.8-12h2.4l-5,12h-2.2Z"/>
      <path class="st4" d="M76.7,179.8c-.4,0-.7-.1-1-.4s-.4-.6-.4-1,.1-.7.4-1c.3-.3.6-.4,1-.4s.7.1,1,.4c.3.3.4.6.4,1s-.1.7-.4,1-.6.4-1,.4ZM75.6,194.3v-12h2.3v12h-2.3Z"/>
      <path class="st4" d="M81.2,194.3v-16.8h2.3v16.8h-2.3ZM87.4,194.6c-1,0-1.9-.3-2.6-.8-.7-.5-1.3-1.3-1.7-2.2-.4-.9-.6-2-.6-3.3s.2-2.4.6-3.3c.4-.9,1-1.7,1.7-2.2.7-.5,1.6-.8,2.6-.8s2,.3,2.8.8c.8.5,1.5,1.3,1.9,2.2.5.9.7,2,.7,3.3s-.2,2.3-.7,3.3-1.1,1.7-1.9,2.2c-.8.5-1.8.8-2.8.8ZM86.8,192.5c.7,0,1.4-.2,1.9-.5.5-.4,1-.9,1.3-1.5s.5-1.4.5-2.2-.2-1.6-.5-2.2c-.3-.6-.7-1.1-1.3-1.5-.5-.4-1.2-.5-1.9-.5s-1.2.2-1.8.5c-.5.4-.9.9-1.2,1.5-.3.6-.4,1.4-.4,2.2s.1,1.6.4,2.2.7,1.1,1.2,1.5c.5.4,1.1.5,1.8.5Z"/>
      <path class="st4" d="M95.3,194.3v-12h2.3v12h-2.3ZM96.7,187.9c0-1.3.2-2.4.7-3.2.5-.8,1.1-1.4,1.9-1.8.8-.4,1.6-.6,2.5-.6v2.2c-.7,0-1.4.1-2.1.3-.6.2-1.2.6-1.6,1.1-.4.5-.6,1.1-.6,2h-.9Z"/>
      <path class="st4" d="M107.5,194.6c-1.4,0-2.5-.3-3.3-1-.8-.6-1.2-1.5-1.2-2.7s.4-2.2,1.2-2.8c.8-.6,2-1,3.4-1h3.3v1.8h-2.7c-1.1,0-1.9.2-2.3.5-.4.3-.7.8-.7,1.4s.2,1,.6,1.3c.4.3,1,.5,1.8.5s1.2-.1,1.7-.4c.5-.3.9-.7,1.1-1.2.3-.5.4-1.1.4-1.8h.8c0,1.6-.3,2.9-1,3.9s-1.8,1.4-3.2,1.4ZM111.1,194.3v-2.1c0,0,0-4.2,0-4.2,0-.9-.1-1.6-.3-2.2-.2-.6-.5-1-.9-1.3-.4-.3-.9-.5-1.6-.5s-1.2.1-1.6.4c-.5.3-.8.7-1.1,1.2l-2-.8c.3-.5.6-1,1.1-1.5.4-.4,1-.8,1.6-1,.6-.2,1.3-.4,2.1-.4s2.1.2,2.8.7c.8.4,1.3,1.1,1.7,1.9s.6,1.9.5,3.1v6.5h-2.1Z"/>
      <path class="st4" d="M121.5,194.6c-1.2,0-2.3-.3-3.2-.8-.9-.5-1.7-1.3-2.2-2.2-.5-.9-.8-2-.8-3.3s.3-2.3.8-3.3,1.2-1.7,2.2-2.2c.9-.5,2-.8,3.2-.8s2.2.3,3.2.8,1.6,1.3,2.1,2.3l-2.1.9c-.3-.6-.7-1.1-1.3-1.4-.6-.3-1.2-.5-2-.5s-1.4.2-1.9.5c-.6.4-1,.8-1.3,1.5-.3.6-.5,1.4-.5,2.2s.2,1.5.5,2.2c.3.6.8,1.1,1.3,1.5.6.4,1.2.5,1.9.5s1.4-.2,2-.6c.6-.4,1-.9,1.3-1.5l2.1.8c-.5,1.1-1.2,1.9-2.1,2.5s-2,.9-3.2.9ZM120.7,199.4c-.3,0-.7,0-1-.1-.4,0-.8-.3-1.2-.5l.5-1.3c.3.1.5.2.8.3.3.1.5.2.7.2s.5,0,.8-.2c.2-.1.3-.3.3-.6s-.1-.7-.4-.9c-.3-.2-.7-.3-1.3-.4l.7-1.7,1.4.2-.3.6c.6.2,1,.5,1.3.9.2.4.4.8.4,1.2,0,.6-.2,1.2-.6,1.6-.4.4-1,.6-1.9.6Z"/>
      <path class="st4" d="M134.5,194.6c-1.2,0-2.3-.3-3.2-.8-.9-.5-1.6-1.3-2.1-2.2-.5-.9-.8-2-.8-3.3s.3-2.3.8-3.3c.5-.9,1.2-1.7,2.1-2.2.9-.5,2-.8,3.1-.8s2.2.3,3.1.8c.9.5,1.6,1.3,2.1,2.2.5.9.8,2,.8,3.3s-.3,2.3-.8,3.3c-.5.9-1.2,1.7-2.1,2.2-.9.5-1.9.8-3.1.8ZM134.5,192.5c.7,0,1.4-.2,1.9-.5.6-.4,1-.9,1.3-1.5s.5-1.4.5-2.2-.2-1.6-.5-2.2-.8-1.1-1.3-1.5c-.6-.4-1.2-.5-1.9-.5s-1.4.2-1.9.5c-.6.4-1,.9-1.3,1.5-.3.6-.5,1.4-.5,2.2s.2,1.6.5,2.2c.3.6.8,1.1,1.3,1.5.6.4,1.2.5,2,.5ZM136.4,180.9c-.5,0-.9,0-1.2-.3-.3-.2-.5-.4-.7-.6-.2-.2-.3-.4-.5-.6-.2-.2-.4-.3-.6-.3s-.4,0-.6.2-.2.4-.3.7h-1.7c0-.5.2-.9.4-1.3.2-.4.5-.7.9-.9.4-.2.8-.3,1.3-.3s.8,0,1.1.3c.3.2.5.4.7.6s.4.4.5.6c.2.2.4.3.6.3s.5,0,.6-.3c.1-.2.2-.4.3-.7h1.7c0,.7-.4,1.3-.8,1.8-.4.5-1,.8-1.8.8Z"/>
      <path class="st4" d="M148.3,194.6c-1.2,0-2.2-.3-3.1-.8-.9-.5-1.6-1.3-2.1-2.2-.5-.9-.8-2-.8-3.3s.3-2.3.8-3.3c.5-.9,1.2-1.7,2.1-2.2.9-.5,1.9-.8,3.1-.8s2.1.3,2.9.8,1.5,1.3,2,2.4c.5,1,.7,2.2.7,3.6h-9.7l.4-.4c0,.8.2,1.6.5,2.2.3.6.8,1.1,1.4,1.4.6.3,1.2.5,2,.5s1.5-.2,2-.6c.5-.4,1-.9,1.3-1.4l2,.9c-.3.6-.7,1.2-1.2,1.6-.5.5-1.1.8-1.8,1.1s-1.5.4-2.3.4ZM144.8,187.4l-.5-.4h7.6l-.4.4c0-.7-.1-1.3-.4-1.8-.3-.5-.7-.9-1.2-1.2-.5-.3-1-.4-1.6-.4s-1.1.1-1.7.4c-.5.3-1,.6-1.3,1.1-.3.5-.5,1.1-.5,1.8Z"/>
      <path class="st4" d="M160.4,194.6c-.8,0-1.6-.1-2.3-.4s-1.2-.6-1.7-1-.8-.9-1-1.5l2-.9c.3.5.6.9,1.2,1.2.5.3,1.1.5,1.7.5s1.3-.1,1.7-.4c.4-.3.7-.6.7-1.1s-.2-.8-.5-1.1c-.3-.3-.8-.5-1.5-.6l-1.1-.3c-1.1-.3-2-.8-2.6-1.4-.6-.6-.9-1.3-.9-2.1,0-1.2.4-2.1,1.1-2.7.8-.6,1.9-1,3.3-1s1.4.1,2,.3,1.1.5,1.5.9.7.8.9,1.4l-1.9.9c-.2-.5-.5-.8-1-1.1-.5-.2-1-.3-1.6-.3s-1.1.1-1.5.4c-.4.3-.6.7-.6,1.2s.2.5.5.8.8.5,1.4.6l1.3.3c.8.2,1.4.5,1.9.9.5.4.9.8,1.2,1.3.3.5.4,1,.4,1.5s-.2,1.3-.6,1.9c-.4.5-.9.9-1.6,1.2-.7.3-1.5.4-2.3.4Z"/>
      <path class="st4" d="M178.5,194.6c-1.2,0-2.2-.3-3.1-.8-.9-.5-1.6-1.3-2.1-2.2-.5-.9-.8-2-.8-3.3s.3-2.3.8-3.3c.5-.9,1.2-1.7,2.1-2.2.9-.5,1.9-.8,3.1-.8s2.1.3,2.9.8,1.5,1.3,2,2.4c.5,1,.7,2.2.7,3.6h-9.7l.4-.4c0,.8.2,1.6.5,2.2.3.6.8,1.1,1.4,1.4.6.3,1.2.5,2,.5s1.5-.2,2-.6c.5-.4,1-.9,1.3-1.4l2,.9c-.3.6-.7,1.2-1.2,1.6-.5.5-1.1.8-1.8,1.1-.7.3-1.5.4-2.3.4ZM175,187.4l-.5-.4h7.6l-.4.4c0-.7-.1-1.3-.4-1.8-.3-.5-.7-.9-1.2-1.2-.5-.3-1-.4-1.6-.4s-1.1.1-1.7.4c-.5.3-1,.6-1.3,1.1-.3.5-.5,1.1-.5,1.8Z"/>
      <path class="st4" d="M192.2,194.3v-12h2.3v12h-2.3ZM193.6,187.9c0-1.3.2-2.4.7-3.2.5-.8,1.1-1.4,1.9-1.8.8-.4,1.6-.6,2.5-.6v2.2c-.7,0-1.4.1-2.1.3-.6.2-1.2.6-1.6,1.1-.4.5-.6,1.1-.6,2h-.9Z"/>
      <path class="st4" d="M204.4,194.6c-1.4,0-2.5-.3-3.3-1-.8-.6-1.2-1.5-1.2-2.7s.4-2.2,1.2-2.8c.8-.6,2-1,3.4-1h3.3v1.8h-2.7c-1.1,0-1.9.2-2.3.5-.4.3-.7.8-.7,1.4s.2,1,.6,1.3c.4.3,1,.5,1.8.5s1.2-.1,1.7-.4c.5-.3.9-.7,1.1-1.2.3-.5.4-1.1.4-1.8h.8c0,1.6-.3,2.9-1,3.9-.7,1-1.8,1.4-3.2,1.4ZM207.9,194.3v-2.1c0,0,0-4.2,0-4.2,0-.9-.1-1.6-.3-2.2-.2-.6-.5-1-.9-1.3-.4-.3-.9-.5-1.6-.5s-1.2.1-1.6.4-.8.7-1.1,1.2l-2-.8c.3-.5.6-1,1.1-1.5.4-.4,1-.8,1.6-1,.6-.2,1.3-.4,2.1-.4s2.1.2,2.8.7c.8.4,1.3,1.1,1.7,1.9s.6,1.9.5,3.1v6.5h-2.1Z"/>
      <path class="st4" d="M217.7,194.6c-1.1,0-2-.3-2.8-.8s-1.4-1.3-1.9-2.2c-.5-.9-.7-2-.7-3.3s.2-2.4.7-3.3c.5-.9,1.1-1.7,1.9-2.2s1.8-.8,2.8-.8,1.9.3,2.6.8c.7.5,1.3,1.3,1.7,2.2.4.9.6,2,.6,3.3s-.2,2.3-.6,3.3c-.4.9-1,1.7-1.7,2.2-.7.5-1.6.8-2.6.8ZM218.2,192.5c.7,0,1.3-.2,1.8-.5.5-.4.9-.9,1.2-1.5s.4-1.4.4-2.2-.1-1.6-.4-2.2c-.3-.6-.7-1.1-1.2-1.5-.5-.4-1.1-.5-1.8-.5s-1.3.2-1.9.5c-.5.4-1,.9-1.3,1.5-.3.6-.5,1.4-.5,2.2s.2,1.6.5,2.2c.3.6.7,1.1,1.3,1.5.5.4,1.2.5,1.9.5ZM221.7,194.3v-2.2c0,0,0-14.6,0-14.6h2.3v16.8h-2.2Z"/>
      <path class="st4" d="M228.4,179.8c-.4,0-.7-.1-1-.4-.3-.3-.4-.6-.4-1s.1-.7.4-1c.3-.3.6-.4,1-.4s.7.1,1,.4.4.6.4,1-.1.7-.4,1c-.3.3-.6.4-1,.4ZM227.2,194.3v-12h2.3v12h-2.3Z"/>
      <path class="st4" d="M236.7,194.6c-1.4,0-2.5-.3-3.3-1-.8-.6-1.2-1.5-1.2-2.7s.4-2.2,1.2-2.8c.8-.6,2-1,3.4-1h3.3v1.8h-2.7c-1.1,0-1.9.2-2.3.5-.4.3-.7.8-.7,1.4s.2,1,.6,1.3c.4.3,1,.5,1.8.5s1.2-.1,1.7-.4c.5-.3.9-.7,1.1-1.2.3-.5.4-1.1.4-1.8h.8c0,1.6-.3,2.9-1,3.9-.7,1-1.8,1.4-3.2,1.4ZM240.2,194.3v-2.1c0,0,0-4.2,0-4.2,0-.9,0-1.6-.3-2.2s-.5-1-.9-1.3c-.4-.3-.9-.5-1.6-.5s-1.2.1-1.6.4c-.5.3-.8.7-1.1,1.2l-2-.8c.3-.5.6-1,1.1-1.5.4-.4,1-.8,1.6-1s1.3-.4,2.1-.4,2.1.2,2.8.7c.8.4,1.3,1.1,1.7,1.9s.6,1.9.5,3.1v6.5h-2.1Z"/>
      <path class="st4" d="M250.7,194.6c-1.2,0-2.3-.3-3.2-.8-.9-.5-1.7-1.3-2.2-2.2-.5-.9-.8-2-.8-3.3s.3-2.3.8-3.3c.5-.9,1.2-1.7,2.2-2.2.9-.5,2-.8,3.2-.8s2.2.3,3.2.8c.9.5,1.6,1.3,2.1,2.3l-2.1.9c-.3-.6-.7-1.1-1.3-1.4s-1.2-.5-2-.5-1.4.2-1.9.5c-.6.4-1,.8-1.3,1.5-.3.6-.5,1.4-.5,2.2s.2,1.5.5,2.2c.3.6.8,1.1,1.3,1.5.6.4,1.2.5,1.9.5s1.4-.2,2-.6c.6-.4,1-.9,1.3-1.5l2.1.8c-.5,1.1-1.2,1.9-2.1,2.5-.9.6-2,.9-3.2.9ZM249.8,199.4c-.3,0-.7,0-1-.1s-.8-.3-1.2-.5l.5-1.3c.3.1.5.2.8.3s.5.2.7.2.5,0,.8-.2c.2-.1.3-.3.3-.6s-.1-.7-.4-.9c-.3-.2-.7-.3-1.3-.4l.7-1.7,1.4.2-.3.6c.6.2,1,.5,1.3.9.2.4.4.8.4,1.2,0,.6-.2,1.2-.6,1.6-.4.4-1,.6-1.9.6Z"/>
      <path class="st4" d="M262.1,194.6c-1.4,0-2.5-.3-3.3-1-.8-.6-1.2-1.5-1.2-2.7s.4-2.2,1.2-2.8c.8-.6,2-1,3.4-1h3.3v1.8h-2.7c-1.1,0-1.9.2-2.3.5-.4.3-.7.8-.7,1.4s.2,1,.6,1.3c.4.3,1,.5,1.8.5s1.2-.1,1.7-.4c.5-.3.9-.7,1.1-1.2.3-.5.4-1.1.4-1.8h.8c0,1.6-.3,2.9-1,3.9-.7,1-1.8,1.4-3.2,1.4ZM265.6,194.3v-2.1c0,0,0-4.2,0-4.2,0-.9,0-1.6-.3-2.2s-.5-1-.9-1.3c-.4-.3-.9-.5-1.6-.5s-1.2.1-1.6.4c-.5.3-.8.7-1.1,1.2l-2-.8c.3-.5.6-1,1.1-1.5.4-.4,1-.8,1.6-1s1.3-.4,2.1-.4,2.1.2,2.8.7c.8.4,1.3,1.1,1.7,1.9s.6,1.9.5,3.1v6.5h-2.1ZM264.6,180.9c-.5,0-.9,0-1.2-.3-.3-.2-.5-.4-.7-.6-.2-.2-.3-.4-.5-.6-.2-.2-.4-.3-.6-.3s-.4,0-.6.2-.2.4-.3.7h-1.7c0-.5.2-.9.4-1.3.2-.4.5-.7.9-.9.4-.2.8-.3,1.3-.3s.8,0,1.1.3c.3.2.5.4.7.6.2.2.4.4.5.6.2.2.4.3.6.3s.5,0,.6-.3c.1-.2.2-.4.3-.7h1.7c0,.7-.4,1.3-.8,1.8-.4.5-1,.8-1.8.8Z"/>
      <path class="st4" d="M276,194.6c-1.2,0-2.3-.3-3.2-.8-.9-.5-1.6-1.3-2.1-2.2-.5-.9-.8-2-.8-3.3s.3-2.3.8-3.3,1.2-1.7,2.1-2.2c.9-.5,2-.8,3.1-.8s2.2.3,3.1.8c.9.5,1.6,1.3,2.1,2.2.5.9.8,2,.8,3.3s-.3,2.3-.8,3.3c-.5.9-1.2,1.7-2.1,2.2-.9.5-1.9.8-3.1.8ZM276,192.5c.7,0,1.4-.2,1.9-.5.6-.4,1-.9,1.3-1.5.3-.6.5-1.4.5-2.2s-.2-1.6-.5-2.2c-.3-.6-.8-1.1-1.3-1.5-.6-.4-1.2-.5-1.9-.5s-1.4.2-1.9.5c-.6.4-1,.9-1.3,1.5-.3.6-.5,1.4-.5,2.2s.2,1.6.5,2.2c.3.6.8,1.1,1.3,1.5.6.4,1.2.5,2,.5Z"/>
      <path class="st4" d="M283.8,197.1l1.4-5.2h2.5l-2,5.2h-1.8Z"/>
    </g>
    <g class="st3">
      <path class="st4" d="M75,222.6c-1.1,0-2-.3-2.8-.8-.8-.5-1.4-1.3-1.9-2.2-.5-.9-.7-2-.7-3.3s.2-2.4.7-3.3c.5-.9,1.1-1.7,1.9-2.2.8-.5,1.8-.8,2.8-.8s1.9.3,2.6.8c.7.5,1.3,1.3,1.7,2.2.4.9.6,2,.6,3.3s-.2,2.3-.6,3.3c-.4.9-1,1.7-1.7,2.2-.7.5-1.6.8-2.6.8ZM75.5,220.5c.7,0,1.3-.2,1.8-.5.5-.4.9-.9,1.2-1.5s.4-1.4.4-2.2-.1-1.6-.4-2.2c-.3-.6-.7-1.1-1.2-1.5-.5-.4-1.1-.5-1.8-.5s-1.3.2-1.9.5c-.5.4-1,.9-1.3,1.5-.3.6-.5,1.4-.5,2.2s.2,1.6.5,2.2.7,1.1,1.3,1.5c.5.4,1.2.5,1.9.5ZM78.9,227.1v-16.8h2.3v16.8h-2.3Z"/>
      <path class="st4" d="M83.9,216.5v-6.1h2.3v6.1h-2.3ZM86.2,216.5c0,1.1.1,1.9.4,2.5.2.6.6,1,1,1.2.4.2,1,.3,1.5.4,1,0,1.7-.3,2.3-1,.5-.7.8-1.7.8-2.9h1c0,1.3-.2,2.3-.6,3.3-.4.9-.9,1.6-1.6,2.1-.7.5-1.5.7-2.5.7s-1.7-.2-2.4-.6c-.7-.4-1.2-1-1.6-1.8-.4-.8-.6-1.9-.6-3.2v-.6h2.3ZM92.3,222.3v-2.2c-.1,0-.1-9.8-.1-9.8h2.3v12h-2.1Z"/>
      <path class="st4" d="M102.9,222.6c-1.2,0-2.2-.3-3.1-.8-.9-.5-1.6-1.3-2.1-2.2-.5-.9-.8-2-.8-3.3s.3-2.3.8-3.3c.5-.9,1.2-1.7,2.1-2.2.9-.5,1.9-.8,3.1-.8s2.1.3,2.9.8,1.5,1.3,2,2.4c.5,1,.7,2.2.7,3.6h-9.7l.4-.4c0,.8.2,1.6.5,2.2.3.6.8,1.1,1.4,1.4.6.3,1.2.5,2,.5s1.5-.2,2-.6c.5-.4,1-.9,1.3-1.4l2,.9c-.3.6-.7,1.2-1.2,1.6-.5.5-1.1.8-1.8,1.1s-1.5.4-2.3.4ZM99.4,215.4l-.5-.4h7.6l-.4.4c0-.7-.1-1.3-.4-1.8-.3-.5-.7-.9-1.2-1.2-.5-.3-1-.4-1.6-.4s-1.1.1-1.7.4c-.5.3-1,.6-1.3,1.1-.3.5-.5,1.1-.5,1.8Z"/>
      <path class="st4" d="M116.8,227.1v-16.8h2.1v2.2c.1,0,.1,14.6.1,14.6h-2.3ZM123,222.6c-1,0-1.9-.3-2.6-.8s-1.3-1.3-1.7-2.2c-.4-.9-.6-2-.6-3.3s.2-2.4.6-3.3c.4-.9,1-1.7,1.7-2.2s1.6-.8,2.6-.8,2,.3,2.8.8,1.5,1.3,1.9,2.2c.5.9.7,2,.7,3.3s-.2,2.3-.7,3.3-1.1,1.7-1.9,2.2-1.8.8-2.8.8ZM122.4,220.5c.7,0,1.4-.2,1.9-.5.5-.4,1-.9,1.3-1.5s.5-1.4.5-2.2-.2-1.6-.5-2.2c-.3-.6-.7-1.1-1.3-1.5-.5-.4-1.2-.5-1.9-.5s-1.2.2-1.8.5c-.5.4-.9.9-1.2,1.5-.3.6-.4,1.4-.4,2.2s.1,1.6.4,2.2.7,1.1,1.2,1.5c.5.4,1.1.5,1.8.5Z"/>
      <path class="st4" d="M136.3,222.6c-1.2,0-2.3-.3-3.2-.8-.9-.5-1.6-1.3-2.1-2.2-.5-.9-.8-2-.8-3.3s.3-2.3.8-3.3c.5-.9,1.2-1.7,2.1-2.2.9-.5,2-.8,3.1-.8s2.2.3,3.1.8c.9.5,1.6,1.3,2.1,2.2.5.9.8,2,.8,3.3s-.3,2.3-.8,3.3c-.5.9-1.2,1.7-2.1,2.2-.9.5-1.9.8-3.1.8ZM136.3,220.5c.7,0,1.4-.2,1.9-.5.6-.4,1-.9,1.3-1.5s.5-1.4.5-2.2-.2-1.6-.5-2.2-.8-1.1-1.3-1.5c-.6-.4-1.2-.5-1.9-.5s-1.4.2-1.9.5c-.6.4-1,.9-1.3,1.5-.3.6-.5,1.4-.5,2.2s.2,1.6.5,2.2c.3.6.8,1.1,1.3,1.5.6.4,1.2.5,2,.5Z"/>
      <path class="st4" d="M149.6,222.6c-1.1,0-2-.3-2.8-.8-.8-.5-1.4-1.3-1.9-2.2-.5-.9-.7-2-.7-3.3s.2-2.4.7-3.3c.5-.9,1.1-1.7,1.9-2.2.8-.5,1.8-.8,2.8-.8s1.9.3,2.6.8c.7.5,1.3,1.3,1.7,2.2.4.9.6,2,.6,3.3s-.2,2.3-.6,3.3c-.4.9-1,1.7-1.7,2.2-.7.5-1.6.8-2.6.8ZM150.1,220.5c.7,0,1.3-.2,1.8-.5.5-.4.9-.9,1.2-1.5s.4-1.4.4-2.2-.1-1.6-.4-2.2c-.3-.6-.7-1.1-1.2-1.5-.5-.4-1.1-.5-1.8-.5s-1.3.2-1.9.5c-.5.4-1,.9-1.3,1.5-.3.6-.5,1.4-.5,2.2s.2,1.6.5,2.2.7,1.1,1.3,1.5c.5.4,1.2.5,1.9.5ZM153.6,222.3v-2.2c0,0,0-14.6,0-14.6h2.3v16.8h-2.2Z"/>
      <path class="st4" d="M164.2,222.6c-1.2,0-2.2-.3-3.1-.8-.9-.5-1.6-1.3-2.1-2.2-.5-.9-.8-2-.8-3.3s.3-2.3.8-3.3c.5-.9,1.2-1.7,2.1-2.2.9-.5,1.9-.8,3.1-.8s2.1.3,2.9.8,1.5,1.3,2,2.4c.5,1,.7,2.2.7,3.6h-9.7l.4-.4c0,.8.2,1.6.5,2.2.3.6.8,1.1,1.4,1.4.6.3,1.2.5,2,.5s1.5-.2,2-.6c.5-.4,1-.9,1.3-1.4l2,.9c-.3.6-.7,1.2-1.2,1.6-.5.5-1.1.8-1.8,1.1s-1.5.4-2.3.4ZM160.7,215.4l-.5-.4h7.6l-.4.4c0-.7-.1-1.3-.4-1.8-.3-.5-.7-.9-1.2-1.2-.5-.3-1-.4-1.6-.4s-1.1.1-1.7.4c-.5.3-1,.6-1.3,1.1-.3.5-.5,1.1-.5,1.8Z"/>
      <path class="st4" d="M172.1,222.3v-12h2.1v1.7c.5-.6,1-1.1,1.5-1.5s1.2-.5,2-.5,1.8.2,2.4.7,1.2,1.1,1.5,2c.4-.9.8-1.5,1.5-2,.6-.5,1.4-.7,2.3-.7,1.4,0,2.4.4,3.2,1.3.8.9,1.1,2.3,1.1,4.1v6.9h-2.3v-6.1c0-1.1-.1-1.9-.3-2.5-.2-.6-.5-1-.9-1.2-.4-.2-.8-.3-1.3-.4-.9,0-1.6.3-2.1,1-.5.7-.7,1.7-.7,2.9v6.2h-2.3v-6.1c0-1.1-.1-1.9-.3-2.5-.2-.6-.5-1-.9-1.2-.4-.2-.8-.3-1.4-.4-.9,0-1.6.3-2.1,1-.5.7-.7,1.7-.7,2.9v6.2h-2.3Z"/>
      <path class="st4" d="M202.3,222.6c-1.4,0-2.5-.3-3.3-1-.8-.6-1.2-1.5-1.2-2.7s.4-2.2,1.2-2.8c.8-.6,2-1,3.4-1h3.3v1.8h-2.7c-1.1,0-1.9.2-2.3.5-.4.3-.7.8-.7,1.4s.2,1,.6,1.3c.4.3,1,.5,1.8.5s1.2-.1,1.7-.4c.5-.3.9-.7,1.1-1.2.3-.5.4-1.1.4-1.8h.8c0,1.6-.3,2.9-1,3.9-.7,1-1.8,1.4-3.2,1.4ZM205.9,222.3v-2.1c0,0,0-4.2,0-4.2,0-.9,0-1.6-.3-2.2s-.5-1-.9-1.3c-.4-.3-.9-.5-1.6-.5s-1.2.1-1.6.4c-.5.3-.8.7-1.1,1.2l-2-.8c.3-.5.6-1,1.1-1.5.4-.4,1-.8,1.6-1s1.3-.4,2.1-.4,2.1.2,2.8.7c.8.4,1.3,1.1,1.7,1.9s.6,1.9.5,3.1v6.5h-2.1Z"/>
    </g>
    <g class="st3">
      <path class="st4" d="M209.9,212.2v-1.9h7.7v1.9h-7.7ZM212.1,222.3v-13.3c0-1.3.3-2.2.9-2.9.6-.6,1.5-1,2.8-1s.8,0,1.2.2c.4.1.9.3,1.3.5l-.8,1.8c-.3-.2-.6-.3-.9-.3s-.5-.1-.6-.1c-.5,0-.9.2-1.2.5s-.4.9-.4,1.6v13.1h-2.3Z"/>
    </g>
    <g class="st3">
      <path class="st4" d="M225.1,222.6c-1.2,0-2.2-.3-3.1-.8-.9-.5-1.6-1.3-2.1-2.2-.5-.9-.8-2-.8-3.3s.3-2.3.8-3.3c.5-.9,1.2-1.7,2.1-2.2.9-.5,1.9-.8,3.1-.8s2.1.3,2.9.8,1.5,1.3,2,2.4c.5,1,.7,2.2.7,3.6h-9.7l.4-.4c0,.8.2,1.6.5,2.2.3.6.8,1.1,1.4,1.4.6.3,1.2.5,2,.5s1.5-.2,2-.6c.5-.4,1-.9,1.3-1.4l2,.9c-.3.6-.7,1.2-1.2,1.6-.5.5-1.1.8-1.8,1.1-.7.3-1.5.4-2.3.4ZM221.5,215.4l-.5-.4h7.6l-.4.4c0-.7-.1-1.3-.4-1.8-.3-.5-.7-.9-1.2-1.2-.5-.3-1-.4-1.6-.4s-1.1.1-1.7.4c-.5.3-1,.6-1.3,1.1-.3.5-.5,1.1-.5,1.8Z"/>
    </g>
    <g class="st3">
      <path class="st4" d="M231.7,212.3v-2h7.7v2h-7.7ZM237.6,222.6c-1.2,0-2.1-.3-2.8-.9-.7-.6-1-1.5-1-2.7v-12.5h2.3v12.1c0,.6.1,1,.4,1.4.3.3.7.5,1.3.5s.3,0,.5,0c.2,0,.4-.2.7-.4l.9,1.8c-.4.3-.8.5-1.2.6s-.8.2-1.1.2Z"/>
    </g>
    <g class="st3">
      <path class="st4" d="M245.9,222.6c-1.4,0-2.5-.3-3.3-1-.8-.6-1.2-1.5-1.2-2.7s.4-2.2,1.2-2.8c.8-.6,2-1,3.4-1h3.3v1.8h-2.7c-1.1,0-1.9.2-2.3.5-.4.3-.7.8-.7,1.4s.2,1,.6,1.3c.4.3,1,.5,1.8.5s1.2-.1,1.7-.4c.5-.3.9-.7,1.1-1.2.3-.5.4-1.1.4-1.8h.8c0,1.6-.3,2.9-1,3.9-.7,1-1.8,1.4-3.2,1.4ZM249.4,222.3v-2.1c0,0,0-4.2,0-4.2,0-.9,0-1.6-.3-2.2s-.5-1-.9-1.3c-.4-.3-.9-.5-1.6-.5s-1.2.1-1.6.4c-.5.3-.8.7-1.1,1.2l-2-.8c.3-.5.6-1,1.1-1.5.4-.4,1-.8,1.6-1s1.3-.4,2.1-.4,2.1.2,2.8.7c.8.4,1.3,1.1,1.7,1.9s.6,1.9.5,3.1v6.5h-2.1Z"/>
      <path class="st4" d="M254.4,222.3v-12h2.3v12h-2.3ZM255.8,215.9c0-1.3.2-2.4.7-3.2s1.1-1.4,1.9-1.8c.8-.4,1.6-.6,2.5-.6v2.2c-.7,0-1.4.1-2.1.3-.6.2-1.2.6-1.6,1.1s-.6,1.1-.6,2h-.9Z"/>
      <path class="st4" d="M274.1,222.6c-1.2,0-2.3-.3-3.2-.8-.9-.5-1.6-1.3-2.1-2.2-.5-.9-.8-2-.8-3.3s.3-2.3.8-3.3,1.2-1.7,2.1-2.2c.9-.5,2-.8,3.1-.8s2.2.3,3.1.8c.9.5,1.6,1.3,2.1,2.2.5.9.8,2,.8,3.3s-.3,2.3-.8,3.3c-.5.9-1.2,1.7-2.1,2.2-.9.5-1.9.8-3.1.8ZM274.1,220.5c.7,0,1.4-.2,1.9-.5.6-.4,1-.9,1.3-1.5.3-.6.5-1.4.5-2.2s-.2-1.6-.5-2.2c-.3-.6-.8-1.1-1.3-1.5-.6-.4-1.2-.5-1.9-.5s-1.4.2-1.9.5c-.6.4-1,.9-1.3,1.5-.3.6-.5,1.4-.5,2.2s.2,1.6.5,2.2c.3.6.8,1.1,1.3,1.5.6.4,1.2.5,2,.5Z"/>
    </g>
    <g class="st3">
      <path class="st4" d="M100.9,250.6c-1.2,0-2.3-.3-3.2-.8-.9-.5-1.7-1.3-2.2-2.2-.5-.9-.8-2-.8-3.3s.3-2.3.8-3.3,1.2-1.7,2.2-2.2c.9-.5,2-.8,3.2-.8s2.2.3,3.2.8,1.6,1.3,2.1,2.3l-2.1.9c-.3-.6-.7-1.1-1.3-1.4-.6-.3-1.2-.5-2-.5s-1.4.2-1.9.5c-.6.4-1,.8-1.3,1.5-.3.6-.5,1.4-.5,2.2s.2,1.5.5,2.2c.3.6.8,1.1,1.3,1.5.6.4,1.2.5,1.9.5s1.4-.2,2-.6c.6-.4,1-.9,1.3-1.5l2.1.8c-.5,1.1-1.2,1.9-2.1,2.5s-2,.9-3.2.9Z"/>
      <path class="st4" d="M113.9,250.6c-1.2,0-2.3-.3-3.2-.8-.9-.5-1.6-1.3-2.1-2.2-.5-.9-.8-2-.8-3.3s.3-2.3.8-3.3c.5-.9,1.2-1.7,2.1-2.2.9-.5,2-.8,3.1-.8s2.2.3,3.1.8c.9.5,1.6,1.3,2.1,2.2.5.9.8,2,.8,3.3s-.3,2.3-.8,3.3c-.5.9-1.2,1.7-2.1,2.2-.9.5-1.9.8-3.1.8ZM113.9,248.5c.7,0,1.4-.2,1.9-.5.6-.4,1-.9,1.3-1.5s.5-1.4.5-2.2-.2-1.6-.5-2.2-.8-1.1-1.3-1.5c-.6-.4-1.2-.5-1.9-.5s-1.4.2-1.9.5c-.6.4-1,.9-1.3,1.5-.3.6-.5,1.4-.5,2.2s.2,1.6.5,2.2c.3.6.8,1.1,1.3,1.5.6.4,1.2.5,2,.5Z"/>
      <path class="st4" d="M122.4,250.3v-12h2.3v12h-2.3ZM123.8,243.9c0-1.3.2-2.4.7-3.2.5-.8,1.1-1.4,1.9-1.8.8-.4,1.6-.6,2.5-.6v2.2c-.7,0-1.4.1-2.1.3-.6.2-1.2.6-1.6,1.1-.4.5-.6,1.1-.6,2h-.9Z"/>
      <path class="st4" d="M130.9,255.1v-16.8h2.1v2.2c.1,0,.1,14.6.1,14.6h-2.3ZM137.1,250.6c-1,0-1.9-.3-2.6-.8s-1.3-1.3-1.7-2.2c-.4-.9-.6-2-.6-3.3s.2-2.4.6-3.3c.4-.9,1-1.7,1.7-2.2s1.6-.8,2.6-.8,2,.3,2.8.8,1.5,1.3,1.9,2.2c.5.9.7,2,.7,3.3s-.2,2.3-.7,3.3-1.1,1.7-1.9,2.2-1.8.8-2.8.8ZM136.6,248.5c.7,0,1.4-.2,1.9-.5.5-.4,1-.9,1.3-1.5s.5-1.4.5-2.2-.2-1.6-.5-2.2c-.3-.6-.7-1.1-1.3-1.5-.5-.4-1.2-.5-1.9-.5s-1.2.2-1.8.5c-.5.4-.9.9-1.2,1.5-.3.6-.4,1.4-.4,2.2s.1,1.6.4,2.2.7,1.1,1.2,1.5c.5.4,1.1.5,1.8.5Z"/>
      <path class="st4" d="M150.5,250.6c-1.2,0-2.3-.3-3.2-.8-.9-.5-1.6-1.3-2.1-2.2-.5-.9-.8-2-.8-3.3s.3-2.3.8-3.3c.5-.9,1.2-1.7,2.1-2.2.9-.5,2-.8,3.1-.8s2.2.3,3.1.8c.9.5,1.6,1.3,2.1,2.2.5.9.8,2,.8,3.3s-.3,2.3-.8,3.3c-.5.9-1.2,1.7-2.1,2.2-.9.5-1.9.8-3.1.8ZM150.5,248.5c.7,0,1.4-.2,1.9-.5.6-.4,1-.9,1.3-1.5s.5-1.4.5-2.2-.2-1.6-.5-2.2-.8-1.1-1.3-1.5c-.6-.4-1.2-.5-1.9-.5s-1.4.2-1.9.5c-.6.4-1,.9-1.3,1.5-.3.6-.5,1.4-.5,2.2s.2,1.6.5,2.2c.3.6.8,1.1,1.3,1.5.6.4,1.2.5,2,.5Z"/>
      <path class="st4" d="M164.8,250.3v-16.8h2.3v16.8h-2.3ZM173.1,244.2c0-1.1-.1-1.9-.4-2.5-.3-.6-.6-1-1-1.2-.4-.2-.9-.3-1.5-.4-1,0-1.8.3-2.3,1-.5.7-.8,1.7-.8,2.9h-1c0-1.3.2-2.3.6-3.3.4-.9.9-1.6,1.6-2.1.7-.5,1.5-.7,2.5-.7s1.8.2,2.4.6,1.2,1,1.6,1.8c.4.8.6,1.9.6,3.2v.6h-2.3ZM173.1,250.3v-6.1h2.3v6.1h-2.3Z"/>
      <path class="st4" d="M178,244.5v-6.1h2.3v6.1h-2.3ZM180.3,244.5c0,1.1.1,1.9.4,2.5.2.6.6,1,1,1.2.4.2,1,.3,1.5.4,1,0,1.7-.3,2.3-1,.5-.7.8-1.7.8-2.9h1c0,1.3-.2,2.3-.6,3.3s-.9,1.6-1.6,2.1c-.7.5-1.5.7-2.5.7s-1.7-.2-2.4-.6-1.2-1-1.6-1.8c-.4-.8-.6-1.9-.6-3.2v-.6h2.3ZM186.4,250.3v-2.2c-.1,0-.1-9.8-.1-9.8h2.3v12h-2.1Z"/>
      <path class="st4" d="M191.7,250.3v-12h2.1v1.7c.5-.6,1-1.1,1.5-1.5s1.2-.5,2-.5,1.8.2,2.4.7c.7.4,1.2,1.1,1.5,2,.4-.9.8-1.5,1.5-2,.6-.5,1.4-.7,2.3-.7,1.4,0,2.4.4,3.2,1.3.8.9,1.1,2.3,1.1,4.1v6.9h-2.3v-6.1c0-1.1-.1-1.9-.3-2.5-.2-.6-.5-1-.9-1.2-.4-.2-.8-.3-1.3-.4-.9,0-1.6.3-2.1,1-.5.7-.7,1.7-.7,2.9v6.2h-2.3v-6.1c0-1.1-.1-1.9-.3-2.5-.2-.6-.5-1-.9-1.2-.4-.2-.8-.3-1.4-.4-.9,0-1.6.3-2.1,1-.5.7-.7,1.7-.7,2.9v6.2h-2.3Z"/>
      <path class="st4" d="M216.1,250.6c-1.4,0-2.5-.3-3.3-1-.8-.6-1.2-1.5-1.2-2.7s.4-2.2,1.2-2.8c.8-.6,2-1,3.4-1h3.3v1.8h-2.7c-1.1,0-1.9.2-2.3.5-.4.3-.7.8-.7,1.4s.2,1,.6,1.3c.4.3,1,.5,1.8.5s1.2-.1,1.7-.4c.5-.3.9-.7,1.1-1.2.3-.5.4-1.1.4-1.8h.8c0,1.6-.3,2.9-1,3.9-.7,1-1.8,1.4-3.2,1.4ZM219.7,250.3v-2.1c0,0,0-4.2,0-4.2,0-.9-.1-1.6-.3-2.2-.2-.6-.5-1-.9-1.3-.4-.3-.9-.5-1.6-.5s-1.2.1-1.6.4-.8.7-1.1,1.2l-2-.8c.3-.5.6-1,1.1-1.5.4-.4,1-.8,1.6-1,.6-.2,1.3-.4,2.1-.4s2.1.2,2.8.7c.8.4,1.3,1.1,1.7,1.9s.6,1.9.5,3.1v6.5h-2.1Z"/>
      <path class="st4" d="M224.7,250.3v-12h2.1v2.2c.1,0,.1,9.8.1,9.8h-2.3ZM233,244.2c0-1.1-.1-1.9-.4-2.5-.2-.6-.6-1-1-1.2-.4-.2-.9-.3-1.5-.4-1,0-1.7.3-2.3,1-.5.7-.8,1.7-.8,2.9h-1c0-1.3.2-2.3.6-3.3.4-.9.9-1.6,1.6-2.1.7-.5,1.5-.7,2.5-.7s1.8.2,2.5.6,1.2,1,1.6,1.8.6,1.9.6,3.2v.6h-2.3ZM233,250.3v-6.1h2.3v6.1h-2.3Z"/>
      <path class="st4" d="M243.6,250.6c-1.2,0-2.3-.3-3.2-.8-.9-.5-1.6-1.3-2.1-2.2-.5-.9-.8-2-.8-3.3s.3-2.3.8-3.3c.5-.9,1.2-1.7,2.1-2.2.9-.5,2-.8,3.1-.8s2.2.3,3.1.8c.9.5,1.6,1.3,2.1,2.2.5.9.8,2,.8,3.3s-.3,2.3-.8,3.3c-.5.9-1.2,1.7-2.1,2.2-.9.5-1.9.8-3.1.8ZM243.6,248.5c.7,0,1.4-.2,1.9-.5.6-.4,1-.9,1.3-1.5.3-.6.5-1.4.5-2.2s-.2-1.6-.5-2.2c-.3-.6-.8-1.1-1.3-1.5-.6-.4-1.2-.5-1.9-.5s-1.4.2-1.9.5c-.6.4-1,.9-1.3,1.5s-.5,1.4-.5,2.2.2,1.6.5,2.2.8,1.1,1.3,1.5c.6.4,1.2.5,2,.5Z"/>
      <path class="st4" d="M253.1,250.7c-.4,0-.7-.1-1-.4s-.4-.6-.4-1.1.1-.8.4-1.1.6-.4,1-.4.8.1,1.1.4.4.6.4,1.1-.1.8-.4,1.1-.7.4-1.1.4Z"/>
    </g>
  </g>
</svg>