<?xml version="1.0" encoding="UTF-8"?>
<svg id="Camada_1" xmlns="http://www.w3.org/2000/svg" version="1.1" xmlns:xlink="http://www.w3.org/1999/xlink" viewBox="0 0 350 350">
  <!-- Generator: Adobe Illustrator 29.5.0, SVG Export Plug-In . SVG Version: 2.1.0 Build 137)  -->
  <defs>
    <style>
      .st0 {
        isolation: isolate;
      }

      .st1 {
        fill: #1d1d1b;
      }

      .st2 {
        fill: #92acce;
      }
    </style>
  </defs>
  <image class="st0" width="1463" height="1464" transform="translate(-.3 -1.2) scale(.2)" xlink:href="img_card01verso-1.png"/>
  <g class="st0">
    <g class="st0">
      <path class="st1" d="M104.7,143.1c-.9,0-1.7-.1-2.4-.3-.7-.2-1.4-.5-1.9-.9-.5-.4-1-.8-1.3-1.2-.4-.4-.6-.9-.7-1.4l2.3-.7c.2.7.7,1.2,1.4,1.7.7.5,1.5.7,2.5.7,1.2,0,2.1-.2,2.8-.7s1-1.1,1-1.9-.3-1.3-.9-1.8c-.6-.5-1.4-.8-2.4-1l-1.9-.5c-.8-.2-1.5-.5-2.1-.9-.6-.4-1.1-.9-1.5-1.5-.4-.6-.6-1.3-.6-2.1,0-1.5.5-2.7,1.5-3.6s2.4-1.3,4.3-1.3,2,.2,2.8.5c.8.3,1.5.8,2,1.4.5.6.9,1.2,1.1,1.8l-2.3.8c-.3-.7-.7-1.3-1.4-1.7s-1.5-.7-2.4-.7-1.8.2-2.4.7c-.6.5-.9,1.1-.9,2s.2,1.2.7,1.6c.5.4,1.1.7,1.8.9l1.9.5c1.6.4,2.8,1,3.6,1.9s1.3,1.9,1.3,2.9-.2,1.7-.7,2.5c-.5.7-1.1,1.3-2,1.7-.9.4-2,.6-3.3.6Z"/>
      <path class="st1" d="M117.3,143.1c-1.4,0-2.5-.3-3.3-1-.8-.6-1.2-1.5-1.2-2.7s.4-2.2,1.2-2.8c.8-.6,2-1,3.4-1h3.3v1.8h-2.7c-1.1,0-1.9.2-2.3.5-.4.3-.7.8-.7,1.4s.2,1,.6,1.3c.4.3,1,.5,1.8.5s1.2-.1,1.7-.4c.5-.3.9-.7,1.1-1.2.3-.5.4-1.1.4-1.8h.8c0,1.6-.3,2.9-1,3.9s-1.8,1.4-3.2,1.4ZM120.8,142.8v-2.1c0,0,0-4.2,0-4.2,0-.9-.1-1.6-.3-2.2-.2-.6-.5-1-.9-1.3-.4-.3-.9-.5-1.6-.5s-1.2.1-1.6.4c-.5.3-.8.7-1.1,1.2l-2-.8c.3-.5.6-1,1.1-1.5.4-.4,1-.8,1.6-1,.6-.2,1.3-.4,2.1-.4s2.1.2,2.8.7c.8.4,1.3,1.1,1.7,1.9s.6,1.9.5,3.1v6.5h-2.1ZM119.8,129.4c-.5,0-.9,0-1.2-.3-.3-.2-.5-.4-.7-.6-.2-.2-.3-.4-.5-.6-.2-.2-.4-.3-.6-.3s-.4,0-.6.2c-.1.1-.2.4-.3.7h-1.7c0-.5.2-.9.4-1.3.2-.4.5-.7.9-.9.4-.2.8-.3,1.3-.3s.8,0,1.1.3c.3.2.5.4.7.6.2.2.4.4.5.6.2.2.4.3.6.3s.5,0,.6-.3c.1-.2.2-.4.3-.7h1.7c0,.7-.4,1.3-.8,1.8-.4.5-1,.8-1.8.8Z"/>
      <path class="st1" d="M131.2,143.1c-1.2,0-2.3-.3-3.2-.8-.9-.5-1.6-1.3-2.1-2.2-.5-.9-.8-2-.8-3.3s.3-2.3.8-3.3c.5-.9,1.2-1.7,2.1-2.2.9-.5,2-.8,3.1-.8s2.2.3,3.1.8c.9.5,1.6,1.3,2.1,2.2.5.9.8,2,.8,3.3s-.3,2.3-.8,3.3c-.5.9-1.2,1.7-2.1,2.2-.9.5-1.9.8-3.1.8ZM131.2,141c.7,0,1.4-.2,1.9-.5.6-.4,1-.9,1.3-1.5s.5-1.4.5-2.2-.2-1.6-.5-2.2-.8-1.1-1.3-1.5c-.6-.4-1.2-.5-1.9-.5s-1.4.2-1.9.5c-.6.4-1,.9-1.3,1.5-.3.6-.5,1.4-.5,2.2s.2,1.6.5,2.2c.3.6.8,1.1,1.3,1.5.6.4,1.2.5,2,.5Z"/>
      <path class="st1" d="M145.5,142.8v-12h2.3v12h-2.3ZM146.9,136.4c0-1.3.2-2.4.7-3.2.5-.8,1.1-1.4,1.9-1.8.8-.4,1.6-.6,2.5-.6v2.2c-.7,0-1.4.1-2.1.3-.6.2-1.2.6-1.6,1.1-.4.5-.6,1.1-.6,2h-.9Z"/>
      <path class="st1" d="M159.2,143.1c-1.2,0-2.2-.3-3.1-.8-.9-.5-1.6-1.3-2.1-2.2-.5-.9-.8-2-.8-3.3s.3-2.3.8-3.3c.5-.9,1.2-1.7,2.1-2.2.9-.5,1.9-.8,3.1-.8s2.1.3,2.9.8,1.5,1.3,2,2.4c.5,1,.7,2.2.7,3.6h-9.7l.4-.4c0,.8.2,1.6.5,2.2.3.6.8,1.1,1.4,1.4.6.3,1.2.5,2,.5s1.5-.2,2-.6c.5-.4,1-.9,1.3-1.4l2,.9c-.3.6-.7,1.2-1.2,1.6-.5.5-1.1.8-1.8,1.1s-1.5.4-2.3.4ZM155.7,135.9l-.5-.4h7.6l-.4.4c0-.7-.1-1.3-.4-1.8-.3-.5-.7-.9-1.2-1.2-.5-.3-1-.4-1.6-.4s-1.1.1-1.7.4c-.5.3-1,.6-1.3,1.1-.3.5-.5,1.1-.5,1.8Z"/>
      <path class="st1" d="M167.1,142.8v-16.8h2.3v16.8h-2.3Z"/>
      <path class="st1" d="M176.3,143.1c-1.4,0-2.5-.3-3.3-1-.8-.6-1.2-1.5-1.2-2.7s.4-2.2,1.2-2.8c.8-.6,2-1,3.4-1h3.3v1.8h-2.7c-1.1,0-1.9.2-2.3.5-.4.3-.7.8-.7,1.4s.2,1,.6,1.3c.4.3,1,.5,1.8.5s1.2-.1,1.7-.4c.5-.3.9-.7,1.1-1.2.3-.5.4-1.1.4-1.8h.8c0,1.6-.3,2.9-1,3.9-.7,1-1.8,1.4-3.2,1.4ZM179.9,142.8v-2.1c0,0,0-4.2,0-4.2,0-.9-.1-1.6-.3-2.2-.2-.6-.5-1-.9-1.3-.4-.3-.9-.5-1.6-.5s-1.2.1-1.6.4c-.5.3-.8.7-1.1,1.2l-2-.8c.3-.5.6-1,1.1-1.5.4-.4,1-.8,1.6-1,.6-.2,1.3-.4,2.1-.4s2.1.2,2.8.7c.8.4,1.3,1.1,1.7,1.9s.6,1.9.5,3.1v6.5h-2.1Z"/>
      <path class="st1" d="M183.7,132.8v-2h7.7v2h-7.7ZM189.5,143.1c-1.2,0-2.1-.3-2.8-.9-.7-.6-1-1.5-1-2.7v-12.5h2.3v12.1c0,.6.1,1,.4,1.4.3.3.7.5,1.3.5s.3,0,.5,0c.2,0,.4-.2.7-.4l.9,1.8c-.4.3-.8.5-1.2.6s-.8.2-1.1.2Z"/>
      <path class="st1" d="M195.4,128.3c-.4,0-.7-.1-1-.4-.3-.3-.4-.6-.4-1s.1-.7.4-1c.3-.3.6-.4,1-.4s.7.1,1,.4c.3.3.4.6.4,1s-.1.7-.4,1c-.3.3-.6.4-1,.4ZM194.2,142.8v-12h2.3v12h-2.3Z"/>
    </g>
    <g class="st0">
      <path class="st1" d="M203.5,142.8l-5-12h2.3l4.8,12h-2.1ZM203.6,142.8l4.8-12h2.4l-5,12h-2.2Z"/>
    </g>
    <g class="st0">
      <path class="st1" d="M217.7,143.1c-1.2,0-2.3-.3-3.2-.8-.9-.5-1.6-1.3-2.1-2.2-.5-.9-.8-2-.8-3.3s.3-2.3.8-3.3c.5-.9,1.2-1.7,2.1-2.2.9-.5,2-.8,3.1-.8s2.2.3,3.1.8c.9.5,1.6,1.3,2.1,2.2.5.9.8,2,.8,3.3s-.3,2.3-.8,3.3c-.5.9-1.2,1.7-2.1,2.2-.9.5-1.9.8-3.1.8ZM217.7,141c.7,0,1.4-.2,1.9-.5.6-.4,1-.9,1.3-1.5.3-.6.5-1.4.5-2.2s-.2-1.6-.5-2.2c-.3-.6-.8-1.1-1.3-1.5-.6-.4-1.2-.5-1.9-.5s-1.4.2-1.9.5c-.6.4-1,.9-1.3,1.5s-.5,1.4-.5,2.2.2,1.6.5,2.2.8,1.1,1.3,1.5c.6.4,1.2.5,2,.5Z"/>
      <path class="st1" d="M230.5,143.1c-.8,0-1.6-.1-2.3-.4s-1.2-.6-1.7-1-.8-.9-1-1.5l2-.9c.3.5.6.9,1.2,1.2.5.3,1.1.5,1.7.5s1.3-.1,1.7-.4c.4-.3.7-.6.7-1.1s-.2-.8-.5-1.1c-.3-.3-.8-.5-1.5-.6l-1.1-.3c-1.1-.3-2-.8-2.6-1.4s-.9-1.3-.9-2.1c0-1.2.4-2.1,1.1-2.7.8-.6,1.9-1,3.3-1s1.4.1,2,.3c.6.2,1.1.5,1.5.9s.7.8.9,1.4l-1.9.9c-.2-.5-.5-.8-1-1.1-.5-.2-1-.3-1.6-.3s-1.1.1-1.5.4c-.4.3-.6.7-.6,1.2s.2.5.5.8c.3.2.8.5,1.4.6l1.3.3c.8.2,1.4.5,1.9.9.5.4.9.8,1.2,1.3.3.5.4,1,.4,1.5s-.2,1.3-.6,1.9c-.4.5-.9.9-1.6,1.2-.7.3-1.5.4-2.3.4Z"/>
      <path class="st1" d="M247.1,143.1c-1.4,0-2.5-.3-3.3-1-.8-.6-1.2-1.5-1.2-2.7s.4-2.2,1.2-2.8c.8-.6,2-1,3.4-1h3.3v1.8h-2.7c-1.1,0-1.9.2-2.3.5-.4.3-.7.8-.7,1.4s.2,1,.6,1.3c.4.3,1,.5,1.8.5s1.2-.1,1.7-.4c.5-.3.9-.7,1.1-1.2.3-.5.4-1.1.4-1.8h.8c0,1.6-.3,2.9-1,3.9-.7,1-1.8,1.4-3.2,1.4ZM250.6,142.8v-2.1c0,0,0-4.2,0-4.2,0-.9-.1-1.6-.3-2.2-.2-.6-.5-1-.9-1.3-.4-.3-.9-.5-1.6-.5s-1.2.1-1.6.4-.8.7-1.1,1.2l-2-.8c.3-.5.6-1,1.1-1.5.4-.4,1-.8,1.6-1,.6-.2,1.3-.4,2.1-.4s2.1.2,2.8.7c.8.4,1.3,1.1,1.7,1.9s.6,1.9.5,3.1v6.5h-2.1Z"/>
    </g>
    <g class="st0">
      <path class="st1" d="M109.1,171.1c-1.2,0-2.2-.3-3.1-.8-.9-.5-1.6-1.3-2.1-2.2-.5-.9-.8-2-.8-3.3s.3-2.3.8-3.3c.5-.9,1.2-1.7,2.1-2.2.9-.5,1.9-.8,3.1-.8s2.1.3,2.9.8,1.5,1.3,2,2.4c.5,1,.7,2.2.7,3.6h-9.7l.4-.4c0,.8.2,1.6.5,2.2.3.6.8,1.1,1.4,1.4.6.3,1.2.5,2,.5s1.5-.2,2-.6c.5-.4,1-.9,1.3-1.4l2,.9c-.3.6-.7,1.2-1.2,1.6-.5.5-1.1.8-1.8,1.1s-1.5.4-2.3.4ZM105.5,163.9l-.5-.4h7.6l-.4.4c0-.7-.1-1.3-.4-1.8-.3-.5-.7-.9-1.2-1.2-.5-.3-1-.4-1.6-.4s-1.1.1-1.7.4c-.5.3-1,.6-1.3,1.1-.3.5-.5,1.1-.5,1.8Z"/>
    </g>
    <g class="st0">
      <path class="st1" d="M115.4,170.8l4.9-6.9,3.4-5.1h2.7l-4.6,6.6-3.7,5.4h-2.7ZM124,170.8l-3.6-5.4-4.7-6.6h2.7l3.5,5.1,4.9,6.9h-2.7Z"/>
      <path class="st1" d="M129.8,156.3c-.4,0-.7-.1-1-.4s-.4-.6-.4-1,.1-.7.4-1c.3-.3.6-.4,1-.4s.7.1,1,.4c.3.3.4.6.4,1s-.1.7-.4,1-.6.4-1,.4ZM128.7,170.8v-12h2.3v12h-2.3Z"/>
      <path class="st1" d="M139,170.7c-1.1,0-2-.3-2.8-.8-.8-.5-1.4-1.2-1.9-2.1-.5-.9-.7-1.9-.7-3.1s.2-2.3.7-3.2c.5-.9,1.1-1.6,1.9-2.1.8-.5,1.8-.8,2.8-.8s1.9.3,2.6.8c.7.5,1.3,1.2,1.7,2.1s.6,2,.6,3.2-.2,2.2-.6,3.1-1,1.6-1.7,2.1-1.6.7-2.6.7ZM139.2,175.9c-.8,0-1.5,0-2.2-.2-.7-.2-1.2-.3-1.7-.5-.4-.2-.8-.4-1-.5l.9-1.8c.2.1.5.3.9.4.4.2.8.3,1.3.4.5.1,1.1.2,1.7.2s1.4-.1,2-.4c.6-.3,1-.8,1.4-1.4.3-.6.5-1.4.5-2.4v-10.8h2.3v10.8c0,1.4-.3,2.5-.8,3.5-.5.9-1.2,1.6-2.1,2.1-.9.5-1.9.7-3.1.7ZM139.6,168.7c.7,0,1.3-.2,1.8-.5.5-.4.9-.8,1.2-1.5s.4-1.3.4-2.1-.1-1.5-.4-2.1c-.3-.6-.7-1.1-1.2-1.4s-1.1-.5-1.8-.5-1.3.2-1.9.5-1,.8-1.3,1.4-.5,1.3-.5,2.1.2,1.5.5,2.1.7,1.1,1.3,1.5,1.2.5,1.9.5Z"/>
      <path class="st1" d="M153.8,171.1c-1.2,0-2.2-.3-3.1-.8-.9-.5-1.6-1.3-2.1-2.2-.5-.9-.8-2-.8-3.3s.3-2.3.8-3.3c.5-.9,1.2-1.7,2.1-2.2.9-.5,1.9-.8,3.1-.8s2.1.3,2.9.8,1.5,1.3,2,2.4c.5,1,.7,2.2.7,3.6h-9.7l.4-.4c0,.8.2,1.6.5,2.2.3.6.8,1.1,1.4,1.4.6.3,1.2.5,2,.5s1.5-.2,2-.6c.5-.4,1-.9,1.3-1.4l2,.9c-.3.6-.7,1.2-1.2,1.6-.5.5-1.1.8-1.8,1.1s-1.5.4-2.3.4ZM149.5,156.9l2.9-3.2h2.6c0,0-3.2,3.2-3.2,3.2h-2.3ZM150.2,163.9l-.5-.4h7.6l-.4.4c0-.7-.1-1.3-.4-1.8-.3-.5-.7-.9-1.2-1.2-.5-.3-1-.4-1.6-.4s-1.1.1-1.7.4c-.5.3-1,.6-1.3,1.1-.3.5-.5,1.1-.5,1.8ZM155.7,156.9l-3.2-3.1h0c0,0,2.6,0,2.6,0l2.9,3.2h-2.4Z"/>
      <path class="st1" d="M161.7,170.8v-12h2.1v2.2c.1,0,.1,9.8.1,9.8h-2.3ZM170,164.7c0-1.1-.1-1.9-.4-2.5-.2-.6-.6-1-1-1.2-.4-.2-.9-.3-1.5-.4-1,0-1.7.3-2.3,1-.5.7-.8,1.7-.8,2.9h-1c0-1.3.2-2.3.6-3.3.4-.9.9-1.6,1.6-2.1.7-.5,1.5-.7,2.5-.7s1.8.2,2.5.6c.7.4,1.2,1,1.6,1.8s.6,1.9.6,3.2v.6h-2.3ZM170,170.8v-6.1h2.3v6.1h-2.3Z"/>
      <path class="st1" d="M180.6,171.1c-1.2,0-2.3-.3-3.2-.8-.9-.5-1.7-1.3-2.2-2.2-.5-.9-.8-2-.8-3.3s.3-2.3.8-3.3,1.2-1.7,2.2-2.2c.9-.5,2-.8,3.2-.8s2.2.3,3.2.8c.9.5,1.6,1.3,2.1,2.3l-2.1.9c-.3-.6-.7-1.1-1.3-1.4-.6-.3-1.2-.5-2-.5s-1.4.2-1.9.5c-.6.4-1,.8-1.3,1.5s-.5,1.4-.5,2.2.2,1.5.5,2.2.8,1.1,1.3,1.5c.6.4,1.2.5,1.9.5s1.4-.2,2-.6,1-.9,1.3-1.5l2.1.8c-.5,1.1-1.2,1.9-2.1,2.5-.9.6-2,.9-3.2.9Z"/>
      <path class="st1" d="M189.4,156.3c-.4,0-.7-.1-1-.4-.3-.3-.4-.6-.4-1s.1-.7.4-1c.3-.3.6-.4,1-.4s.7.1,1,.4c.3.3.4.6.4,1s-.1.7-.4,1c-.3.3-.6.4-1,.4ZM188.3,170.8v-12h2.3v12h-2.3Z"/>
      <path class="st1" d="M197.7,171.1c-1.4,0-2.5-.3-3.3-1-.8-.6-1.2-1.5-1.2-2.7s.4-2.2,1.2-2.8c.8-.6,2-1,3.4-1h3.3v1.8h-2.7c-1.1,0-1.9.2-2.3.5-.4.3-.7.8-.7,1.4s.2,1,.6,1.3c.4.3,1,.5,1.8.5s1.2-.1,1.7-.4c.5-.3.9-.7,1.1-1.2.3-.5.4-1.1.4-1.8h.8c0,1.6-.3,2.9-1,3.9-.7,1-1.8,1.4-3.2,1.4ZM201.3,170.8v-2.1c0,0,0-4.2,0-4.2,0-.9-.1-1.6-.3-2.2-.2-.6-.5-1-.9-1.3-.4-.3-.9-.5-1.6-.5s-1.2.1-1.6.4-.8.7-1.1,1.2l-2-.8c.3-.5.6-1,1.1-1.5.4-.4,1-.8,1.6-1,.6-.2,1.3-.4,2.1-.4s2.1.2,2.8.7c.8.4,1.3,1.1,1.7,1.9s.6,1.9.5,3.1v6.5h-2.1Z"/>
      <path class="st1" d="M210.6,171.1c-.8,0-1.6-.1-2.3-.4s-1.2-.6-1.7-1-.8-.9-1-1.5l2-.9c.3.5.6.9,1.2,1.2.5.3,1.1.5,1.7.5s1.3-.1,1.7-.4c.4-.3.7-.6.7-1.1s-.2-.8-.5-1.1c-.3-.3-.8-.5-1.5-.6l-1.1-.3c-1.1-.3-2-.8-2.6-1.4s-.9-1.3-.9-2.1c0-1.2.4-2.1,1.1-2.7.8-.6,1.9-1,3.3-1s1.4.1,2,.3c.6.2,1.1.5,1.5.9s.7.8.9,1.4l-1.9.9c-.2-.5-.5-.8-1-1.1-.5-.2-1-.3-1.6-.3s-1.1.1-1.5.4c-.4.3-.6.7-.6,1.2s.2.5.5.8c.3.2.8.5,1.4.6l1.3.3c.8.2,1.4.5,1.9.9.5.4.9.8,1.2,1.3.3.5.4,1,.4,1.5s-.2,1.3-.6,1.9c-.4.5-.9.9-1.6,1.2-.7.3-1.5.4-2.3.4Z"/>
      <path class="st1" d="M228.1,171.1c-1.1,0-2-.3-2.8-.8-.8-.5-1.4-1.3-1.9-2.2s-.7-2-.7-3.3.2-2.4.7-3.3c.5-.9,1.1-1.7,1.9-2.2.8-.5,1.8-.8,2.8-.8s1.9.3,2.6.8,1.3,1.3,1.7,2.2c.4.9.6,2,.6,3.3s-.2,2.3-.6,3.3c-.4.9-1,1.7-1.7,2.2s-1.6.8-2.6.8ZM228.6,169.1c.7,0,1.3-.2,1.8-.5.5-.4.9-.9,1.2-1.5s.4-1.4.4-2.2-.1-1.6-.4-2.2c-.3-.6-.7-1.1-1.2-1.5-.5-.4-1.1-.5-1.8-.5s-1.3.2-1.9.5c-.5.4-1,.9-1.3,1.5-.3.6-.5,1.4-.5,2.2s.2,1.6.5,2.2c.3.6.7,1.1,1.3,1.5.5.4,1.2.5,1.9.5ZM232.1,170.8v-2.2c0,0,0-14.6,0-14.6h2.3v16.8h-2.2Z"/>
      <path class="st1" d="M242.7,171.1c-1.2,0-2.2-.3-3.1-.8-.9-.5-1.6-1.3-2.1-2.2-.5-.9-.8-2-.8-3.3s.3-2.3.8-3.3c.5-.9,1.2-1.7,2.1-2.2.9-.5,1.9-.8,3.1-.8s2.1.3,2.9.8,1.5,1.3,2,2.4c.5,1,.7,2.2.7,3.6h-9.7l.4-.4c0,.8.2,1.6.5,2.2.3.6.8,1.1,1.4,1.4.6.3,1.2.5,2,.5s1.5-.2,2-.6c.5-.4,1-.9,1.3-1.4l2,.9c-.3.6-.7,1.2-1.2,1.6-.5.5-1.1.8-1.8,1.1-.7.3-1.5.4-2.3.4ZM239.2,163.9l-.5-.4h7.6l-.4.4c0-.7-.1-1.3-.4-1.8-.3-.5-.7-.9-1.2-1.2-.5-.3-1-.4-1.6-.4s-1.1.1-1.7.4c-.5.3-1,.6-1.3,1.1-.3.5-.5,1.1-.5,1.8Z"/>
    </g>
    <g class="st0">
      <path class="st1" d="M54.6,198.8v-12h2.1v1.7c.5-.6,1-1.1,1.5-1.5.6-.3,1.2-.5,2-.5s1.8.2,2.4.7c.7.4,1.2,1.1,1.5,2,.4-.9.8-1.5,1.5-2,.6-.5,1.4-.7,2.3-.7,1.4,0,2.4.4,3.2,1.3s1.1,2.3,1.1,4.1v6.9h-2.3v-6.1c0-1.1-.1-1.9-.3-2.5-.2-.6-.5-1-.9-1.2-.4-.2-.8-.3-1.3-.4-.9,0-1.6.3-2.1,1-.5.7-.7,1.7-.7,2.9v6.2h-2.3v-6.1c0-1.1-.1-1.9-.3-2.5-.2-.6-.5-1-.9-1.2-.4-.2-.8-.3-1.4-.4-.9,0-1.6.3-2.1,1-.5.7-.7,1.7-.7,2.9v6.2h-2.3Z"/>
      <path class="st1" d="M80.5,199.1c-1.2,0-2.2-.3-3.1-.8-.9-.5-1.6-1.3-2.1-2.2-.5-.9-.8-2-.8-3.3s.3-2.3.8-3.3c.5-.9,1.2-1.7,2.1-2.2.9-.5,1.9-.8,3.1-.8s2.1.3,2.9.8,1.5,1.3,2,2.4c.5,1,.7,2.2.7,3.6h-9.7l.4-.4c0,.8.2,1.6.5,2.2.3.6.8,1.1,1.4,1.4.6.3,1.2.5,2,.5s1.5-.2,2-.6c.5-.4,1-.9,1.3-1.4l2,.9c-.3.6-.7,1.2-1.2,1.6-.5.5-1.1.8-1.8,1.1s-1.5.4-2.3.4ZM77,191.9l-.5-.4h7.6l-.4.4c0-.7-.1-1.3-.4-1.8-.3-.5-.7-.9-1.2-1.2-.5-.3-1-.4-1.6-.4s-1.1.1-1.7.4c-.5.3-1,.6-1.3,1.1-.3.5-.5,1.1-.5,1.8Z"/>
      <path class="st1" d="M88.3,198.8v-16.8h2.3v16.8h-2.3Z"/>
      <path class="st1" d="M93.8,198.8v-16.8h2.3v16.8h-2.3ZM102.1,192.7c0-1.1-.1-1.9-.4-2.5-.3-.6-.6-1-1-1.2-.4-.2-.9-.3-1.5-.4-1,0-1.8.3-2.3,1-.5.7-.8,1.7-.8,2.9h-1c0-1.3.2-2.3.6-3.3.4-.9.9-1.6,1.6-2.1.7-.5,1.5-.7,2.5-.7s1.8.2,2.4.6,1.2,1,1.6,1.8c.4.8.6,1.9.6,3.2v.6h-2.3ZM102.1,198.8v-6.1h2.3v6.1h-2.3Z"/>
      <path class="st1" d="M112.7,199.1c-1.2,0-2.3-.3-3.2-.8-.9-.5-1.6-1.3-2.1-2.2-.5-.9-.8-2-.8-3.3s.3-2.3.8-3.3c.5-.9,1.2-1.7,2.1-2.2.9-.5,2-.8,3.1-.8s2.2.3,3.1.8c.9.5,1.6,1.3,2.1,2.2.5.9.8,2,.8,3.3s-.3,2.3-.8,3.3c-.5.9-1.2,1.7-2.1,2.2-.9.5-1.9.8-3.1.8ZM112.7,197c.7,0,1.4-.2,1.9-.5.6-.4,1-.9,1.3-1.5s.5-1.4.5-2.2-.2-1.6-.5-2.2-.8-1.1-1.3-1.5c-.6-.4-1.2-.5-1.9-.5s-1.4.2-1.9.5c-.6.4-1,.9-1.3,1.5-.3.6-.5,1.4-.5,2.2s.2,1.6.5,2.2c.3.6.8,1.1,1.3,1.5.6.4,1.2.5,2,.5Z"/>
      <path class="st1" d="M121.2,198.8v-12h2.3v12h-2.3ZM122.6,192.4c0-1.3.2-2.4.7-3.2.5-.8,1.1-1.4,1.9-1.8.8-.4,1.6-.6,2.5-.6v2.2c-.7,0-1.4.1-2.1.3-.6.2-1.2.6-1.6,1.1-.4.5-.6,1.1-.6,2h-.9Z"/>
      <path class="st1" d="M130.8,184.3c-.4,0-.7-.1-1-.4s-.4-.6-.4-1,.1-.7.4-1c.3-.3.6-.4,1-.4s.7.1,1,.4c.3.3.4.6.4,1s-.1.7-.4,1-.6.4-1,.4ZM129.7,198.8v-12h2.3v12h-2.3Z"/>
      <path class="st1" d="M139.2,199.1c-1.4,0-2.5-.3-3.3-1-.8-.6-1.2-1.5-1.2-2.7s.4-2.2,1.2-2.8c.8-.6,2-1,3.4-1h3.3v1.8h-2.7c-1.1,0-1.9.2-2.3.5-.4.3-.7.8-.7,1.4s.2,1,.6,1.3c.4.3,1,.5,1.8.5s1.2-.1,1.7-.4c.5-.3.9-.7,1.1-1.2.3-.5.4-1.1.4-1.8h.8c0,1.6-.3,2.9-1,3.9s-1.8,1.4-3.2,1.4ZM142.7,198.8v-2.1c0,0,0-4.2,0-4.2,0-.9-.1-1.6-.3-2.2-.2-.6-.5-1-.9-1.3-.4-.3-.9-.5-1.6-.5s-1.2.1-1.6.4c-.5.3-.8.7-1.1,1.2l-2-.8c.3-.5.6-1,1.1-1.5.4-.4,1-.8,1.6-1,.6-.2,1.3-.4,2.1-.4s2.1.2,2.8.7c.8.4,1.3,1.1,1.7,1.9s.6,1.9.5,3.1v6.5h-2.1Z"/>
      <path class="st1" d="M152,199.1c-.8,0-1.6-.1-2.3-.4s-1.2-.6-1.7-1-.8-.9-1-1.5l2-.9c.3.5.6.9,1.2,1.2.5.3,1.1.5,1.7.5s1.3-.1,1.7-.4c.4-.3.7-.6.7-1.1s-.2-.8-.5-1.1c-.3-.3-.8-.5-1.5-.6l-1.1-.3c-1.1-.3-2-.8-2.6-1.4-.6-.6-.9-1.3-.9-2.1,0-1.2.4-2.1,1.1-2.7.8-.6,1.9-1,3.3-1s1.4.1,2,.3,1.1.5,1.5.9.7.8.9,1.4l-1.9.9c-.2-.5-.5-.8-1-1.1-.5-.2-1-.3-1.6-.3s-1.1.1-1.5.4c-.4.3-.6.7-.6,1.2s.2.5.5.8.8.5,1.4.6l1.3.3c.8.2,1.4.5,1.9.9.5.4.9.8,1.2,1.3.3.5.4,1,.4,1.5s-.2,1.3-.6,1.9c-.4.5-.9.9-1.6,1.2-.7.3-1.5.4-2.3.4Z"/>
      <path class="st1" d="M164.7,198.8v-12h2.1v2.2c.1,0,.1,9.8.1,9.8h-2.3ZM173,192.7c0-1.1-.1-1.9-.4-2.5-.2-.6-.6-1-1-1.2-.4-.2-.9-.3-1.5-.4-1,0-1.7.3-2.3,1-.5.7-.8,1.7-.8,2.9h-1c0-1.3.2-2.3.6-3.3.4-.9.9-1.6,1.6-2.1.7-.5,1.5-.7,2.5-.7s1.8.2,2.5.6c.7.4,1.2,1,1.6,1.8s.6,1.9.6,3.2v.6h-2.3ZM173,198.8v-6.1h2.3v6.1h-2.3Z"/>
      <path class="st1" d="M183.6,199.1c-1.2,0-2.3-.3-3.2-.8-.9-.5-1.6-1.3-2.1-2.2-.5-.9-.8-2-.8-3.3s.3-2.3.8-3.3,1.2-1.7,2.1-2.2c.9-.5,2-.8,3.1-.8s2.2.3,3.1.8c.9.5,1.6,1.3,2.1,2.2.5.9.8,2,.8,3.3s-.3,2.3-.8,3.3c-.5.9-1.2,1.7-2.1,2.2-.9.5-1.9.8-3.1.8ZM183.6,197c.7,0,1.4-.2,1.9-.5.6-.4,1-.9,1.3-1.5.3-.6.5-1.4.5-2.2s-.2-1.6-.5-2.2c-.3-.6-.8-1.1-1.3-1.5-.6-.4-1.2-.5-1.9-.5s-1.4.2-1.9.5c-.6.4-1,.9-1.3,1.5-.3.6-.5,1.4-.5,2.2s.2,1.6.5,2.2c.3.6.8,1.1,1.3,1.5.6.4,1.2.5,2,.5Z"/>
      <path class="st1" d="M201.8,199.1c-1.4,0-2.5-.3-3.3-1-.8-.6-1.2-1.5-1.2-2.7s.4-2.2,1.2-2.8c.8-.6,2-1,3.4-1h3.3v1.8h-2.7c-1.1,0-1.9.2-2.3.5-.4.3-.7.8-.7,1.4s.2,1,.6,1.3c.4.3,1,.5,1.8.5s1.2-.1,1.7-.4c.5-.3.9-.7,1.1-1.2.3-.5.4-1.1.4-1.8h.8c0,1.6-.3,2.9-1,3.9-.7,1-1.8,1.4-3.2,1.4ZM205.3,198.8v-2.1c0,0,0-4.2,0-4.2,0-.9,0-1.6-.3-2.2s-.5-1-.9-1.3c-.4-.3-.9-.5-1.6-.5s-1.2.1-1.6.4c-.5.3-.8.7-1.1,1.2l-2-.8c.3-.5.6-1,1.1-1.5.4-.4,1-.8,1.6-1s1.3-.4,2.1-.4,2.1.2,2.8.7c.8.4,1.3,1.1,1.7,1.9s.6,1.9.5,3.1v6.5h-2.1Z"/>
      <path class="st1" d="M210.4,198.8v-12h2.1v1.7c.5-.6,1-1.1,1.5-1.5s1.2-.5,2-.5,1.8.2,2.4.7c.7.4,1.2,1.1,1.5,2,.4-.9.8-1.5,1.5-2,.6-.5,1.4-.7,2.3-.7,1.4,0,2.4.4,3.2,1.3.8.9,1.1,2.3,1.1,4.1v6.9h-2.3v-6.1c0-1.1-.1-1.9-.3-2.5-.2-.6-.5-1-.9-1.2-.4-.2-.8-.3-1.3-.4-.9,0-1.6.3-2.1,1-.5.7-.7,1.7-.7,2.9v6.2h-2.3v-6.1c0-1.1-.1-1.9-.3-2.5-.2-.6-.5-1-.9-1.2-.4-.2-.8-.3-1.4-.4-.9,0-1.6.3-2.1,1-.5.7-.7,1.7-.7,2.9v6.2h-2.3Z"/>
      <path class="st1" d="M230.9,198.8v-16.8h2.3v16.8h-2.3ZM237.1,199.1c-1,0-1.9-.3-2.6-.8s-1.3-1.3-1.7-2.2c-.4-.9-.6-2-.6-3.3s.2-2.4.6-3.3c.4-.9,1-1.7,1.7-2.2s1.6-.8,2.6-.8,2,.3,2.8.8,1.5,1.3,1.9,2.2c.5.9.7,2,.7,3.3s-.2,2.3-.7,3.3-1.1,1.7-1.9,2.2-1.8.8-2.8.8ZM236.6,197.1c.7,0,1.4-.2,1.9-.5.5-.4,1-.9,1.3-1.5.3-.6.5-1.4.5-2.2s-.2-1.6-.5-2.2c-.3-.6-.7-1.1-1.3-1.5-.5-.4-1.2-.5-1.9-.5s-1.2.2-1.8.5c-.5.4-.9.9-1.2,1.5-.3.6-.4,1.4-.4,2.2s.1,1.6.4,2.2.7,1.1,1.2,1.5c.5.4,1.1.5,1.8.5Z"/>
      <path class="st1" d="M246.4,184.3c-.4,0-.7-.1-1-.4-.3-.3-.4-.6-.4-1s.1-.7.4-1c.3-.3.6-.4,1-.4s.7.1,1,.4.4.6.4,1-.1.7-.4,1c-.3.3-.6.4-1,.4ZM245.2,198.8v-12h2.3v12h-2.3Z"/>
      <path class="st1" d="M256.1,199.1c-1.2,0-2.2-.3-3.1-.8-.9-.5-1.6-1.3-2.1-2.2-.5-.9-.8-2-.8-3.3s.3-2.3.8-3.3,1.2-1.7,2.1-2.2c.9-.5,1.9-.8,3.1-.8s2.1.3,2.9.8,1.5,1.3,2,2.4c.5,1,.7,2.2.7,3.6h-9.7l.4-.4c0,.8.2,1.6.5,2.2s.8,1.1,1.4,1.4c.6.3,1.2.5,2,.5s1.5-.2,2-.6c.5-.4,1-.9,1.3-1.4l2,.9c-.3.6-.7,1.2-1.2,1.6-.5.5-1.1.8-1.8,1.1-.7.3-1.5.4-2.3.4ZM252.6,191.9l-.5-.4h7.6l-.4.4c0-.7-.1-1.3-.4-1.8-.3-.5-.7-.9-1.2-1.2-.5-.3-1-.4-1.6-.4s-1.1.1-1.7.4c-.5.3-1,.6-1.3,1.1-.3.5-.5,1.1-.5,1.8Z"/>
      <path class="st1" d="M264,198.8v-12h2.1v2.2c.1,0,.1,9.8.1,9.8h-2.3ZM272.3,192.7c0-1.1-.1-1.9-.4-2.5-.2-.6-.6-1-1-1.2-.4-.2-.9-.3-1.5-.4-1,0-1.7.3-2.3,1-.5.7-.8,1.7-.8,2.9h-1c0-1.3.2-2.3.6-3.3.4-.9.9-1.6,1.6-2.1.7-.5,1.5-.7,2.5-.7s1.8.2,2.5.6c.7.4,1.2,1,1.6,1.8s.6,1.9.6,3.2v.6h-2.3ZM272.3,198.8v-6.1h2.3v6.1h-2.3Z"/>
    </g>
    <g class="st0">
      <path class="st1" d="M276.3,188.8v-2h7.7v2h-7.7ZM282.1,199.1c-1.2,0-2.1-.3-2.8-.9-.7-.6-1-1.5-1-2.7v-12.5h2.3v12.1c0,.6.1,1,.4,1.4.3.3.7.5,1.3.5s.3,0,.5,0c.2,0,.4-.2.7-.4l.9,1.8c-.4.3-.8.5-1.2.6s-.8.2-1.1.2Z"/>
    </g>
    <g class="st0">
      <path class="st1" d="M291.9,199.1c-1.2,0-2.2-.3-3.1-.8-.9-.5-1.6-1.3-2.1-2.2-.5-.9-.8-2-.8-3.3s.3-2.3.8-3.3c.5-.9,1.2-1.7,2.1-2.2.9-.5,1.9-.8,3.1-.8s2.1.3,2.9.8,1.5,1.3,2,2.4c.5,1,.7,2.2.7,3.6h-9.7l.4-.4c0,.8.2,1.6.5,2.2.3.6.8,1.1,1.4,1.4.6.3,1.2.5,2,.5s1.5-.2,2-.6c.5-.4,1-.9,1.3-1.4l2,.9c-.3.6-.7,1.2-1.2,1.6-.5.5-1.1.8-1.8,1.1-.7.3-1.5.4-2.3.4ZM288.3,191.9l-.5-.4h7.6l-.4.4c0-.7-.1-1.3-.4-1.8-.3-.5-.7-.9-1.2-1.2-.5-.3-1-.4-1.6-.4s-1.1.1-1.7.4c-.5.3-1,.6-1.3,1.1-.3.5-.5,1.1-.5,1.8Z"/>
    </g>
    <g class="st0">
      <path class="st1" d="M58.9,227.1c-1.1,0-2-.3-2.8-.8-.8-.5-1.4-1.3-1.9-2.2-.5-.9-.7-2-.7-3.3s.2-2.4.7-3.3c.5-.9,1.1-1.7,1.9-2.2.8-.5,1.8-.8,2.8-.8s1.9.3,2.6.8c.7.5,1.3,1.3,1.7,2.2.4.9.6,2,.6,3.3s-.2,2.3-.6,3.3c-.4.9-1,1.7-1.7,2.2-.7.5-1.6.8-2.6.8ZM59.4,225.1c.7,0,1.3-.2,1.8-.5.5-.4.9-.9,1.2-1.5s.4-1.4.4-2.2-.1-1.6-.4-2.2c-.3-.6-.7-1.1-1.2-1.5-.5-.4-1.1-.5-1.8-.5s-1.3.2-1.9.5c-.5.4-1,.9-1.3,1.5-.3.6-.5,1.4-.5,2.2s.2,1.6.5,2.2.7,1.1,1.3,1.5c.5.4,1.2.5,1.9.5ZM62.9,226.8v-2.2c0,0,0-14.6,0-14.6h2.3v16.8h-2.2Z"/>
      <path class="st1" d="M73.6,227.1c-1.2,0-2.2-.3-3.1-.8-.9-.5-1.6-1.3-2.1-2.2-.5-.9-.8-2-.8-3.3s.3-2.3.8-3.3c.5-.9,1.2-1.7,2.1-2.2.9-.5,1.9-.8,3.1-.8s2.1.3,2.9.8,1.5,1.3,2,2.4c.5,1,.7,2.2.7,3.6h-9.7l.4-.4c0,.8.2,1.6.5,2.2.3.6.8,1.1,1.4,1.4.6.3,1.2.5,2,.5s1.5-.2,2-.6c.5-.4,1-.9,1.3-1.4l2,.9c-.3.6-.7,1.2-1.2,1.6-.5.5-1.1.8-1.8,1.1s-1.5.4-2.3.4ZM70,219.9l-.5-.4h7.6l-.4.4c0-.7-.1-1.3-.4-1.8-.3-.5-.7-.9-1.2-1.2-.5-.3-1-.4-1.6-.4s-1.1.1-1.7.4c-.5.3-1,.6-1.3,1.1-.3.5-.5,1.1-.5,1.8Z"/>
      <path class="st1" d="M86.1,216.8v-2h7.7v2h-7.7ZM91.9,227.1c-1.2,0-2.1-.3-2.8-.9-.7-.6-1-1.5-1-2.7v-12.5h2.3v12.1c0,.6.1,1,.4,1.4.3.3.7.5,1.3.5s.3,0,.5,0c.2,0,.4-.2.7-.4l.9,1.8c-.4.3-.8.5-1.2.6s-.8.2-1.1.2Z"/>
      <path class="st1" d="M96.5,226.8v-12h2.3v12h-2.3ZM97.9,220.4c0-1.3.2-2.4.7-3.2.5-.8,1.1-1.4,1.9-1.8.8-.4,1.6-.6,2.5-.6v2.2c-.7,0-1.4.1-2.1.3-.6.2-1.2.6-1.6,1.1-.4.5-.6,1.1-.6,2h-.9Z"/>
      <path class="st1" d="M108.7,227.1c-1.4,0-2.5-.3-3.3-1-.8-.6-1.2-1.5-1.2-2.7s.4-2.2,1.2-2.8c.8-.6,2-1,3.4-1h3.3v1.8h-2.7c-1.1,0-1.9.2-2.3.5-.4.3-.7.8-.7,1.4s.2,1,.6,1.3c.4.3,1,.5,1.8.5s1.2-.1,1.7-.4c.5-.3.9-.7,1.1-1.2.3-.5.4-1.1.4-1.8h.8c0,1.6-.3,2.9-1,3.9s-1.8,1.4-3.2,1.4ZM112.2,226.8v-2.1c0,0,0-4.2,0-4.2,0-.9-.1-1.6-.3-2.2-.2-.6-.5-1-.9-1.3-.4-.3-.9-.5-1.6-.5s-1.2.1-1.6.4c-.5.3-.8.7-1.1,1.2l-2-.8c.3-.5.6-1,1.1-1.5.4-.4,1-.8,1.6-1,.6-.2,1.3-.4,2.1-.4s2.1.2,2.8.7c.8.4,1.3,1.1,1.7,1.9s.6,1.9.5,3.1v6.5h-2.1Z"/>
      <path class="st1" d="M117.2,226.8v-16.8h2.3v16.8h-2.3ZM123.5,227.1c-1,0-1.9-.3-2.6-.8-.7-.5-1.3-1.3-1.7-2.2-.4-.9-.6-2-.6-3.3s.2-2.4.6-3.3c.4-.9,1-1.7,1.7-2.2.7-.5,1.6-.8,2.6-.8s2,.3,2.8.8c.8.5,1.5,1.3,1.9,2.2.5.9.7,2,.7,3.3s-.2,2.3-.7,3.3-1.1,1.7-1.9,2.2c-.8.5-1.8.8-2.8.8ZM122.9,225.1c.7,0,1.4-.2,1.9-.5.5-.4,1-.9,1.3-1.5s.5-1.4.5-2.2-.2-1.6-.5-2.2c-.3-.6-.7-1.1-1.3-1.5-.5-.4-1.2-.5-1.9-.5s-1.2.2-1.8.5c-.5.4-.9.9-1.2,1.5-.3.6-.4,1.4-.4,2.2s.1,1.6.4,2.2.7,1.1,1.2,1.5c.5.4,1.1.5,1.8.5Z"/>
      <path class="st1" d="M135.2,227.1c-1.4,0-2.5-.3-3.3-1-.8-.6-1.2-1.5-1.2-2.7s.4-2.2,1.2-2.8c.8-.6,2-1,3.4-1h3.3v1.8h-2.7c-1.1,0-1.9.2-2.3.5-.4.3-.7.8-.7,1.4s.2,1,.6,1.3c.4.3,1,.5,1.8.5s1.2-.1,1.7-.4c.5-.3.9-.7,1.1-1.2.3-.5.4-1.1.4-1.8h.8c0,1.6-.3,2.9-1,3.9s-1.8,1.4-3.2,1.4ZM138.7,226.8v-2.1c0,0,0-4.2,0-4.2,0-.9-.1-1.6-.3-2.2-.2-.6-.5-1-.9-1.3-.4-.3-.9-.5-1.6-.5s-1.2.1-1.6.4c-.5.3-.8.7-1.1,1.2l-2-.8c.3-.5.6-1,1.1-1.5.4-.4,1-.8,1.6-1,.6-.2,1.3-.4,2.1-.4s2.1.2,2.8.7c.8.4,1.3,1.1,1.7,1.9s.6,1.9.5,3.1v6.5h-2.1Z"/>
      <path class="st1" d="M143.8,226.8v-16.8h2.3v16.8h-2.3Z"/>
      <path class="st1" d="M149.2,226.8v-16.8h2.3v16.8h-2.3ZM157.5,220.7c0-1.1-.1-1.9-.4-2.5-.3-.6-.6-1-1-1.2-.4-.2-.9-.3-1.5-.4-1,0-1.8.3-2.3,1-.5.7-.8,1.7-.8,2.9h-1c0-1.3.2-2.3.6-3.3.4-.9.9-1.6,1.6-2.1.7-.5,1.5-.7,2.5-.7s1.8.2,2.4.6,1.2,1,1.6,1.8c.4.8.6,1.9.6,3.2v.6h-2.3ZM157.5,226.8v-6.1h2.3v6.1h-2.3Z"/>
      <path class="st1" d="M168.1,227.1c-1.2,0-2.3-.3-3.2-.8-.9-.5-1.6-1.3-2.1-2.2-.5-.9-.8-2-.8-3.3s.3-2.3.8-3.3c.5-.9,1.2-1.7,2.1-2.2.9-.5,2-.8,3.1-.8s2.2.3,3.1.8c.9.5,1.6,1.3,2.1,2.2.5.9.8,2,.8,3.3s-.3,2.3-.8,3.3c-.5.9-1.2,1.7-2.1,2.2-.9.5-1.9.8-3.1.8ZM168.1,225c.7,0,1.4-.2,1.9-.5.6-.4,1-.9,1.3-1.5s.5-1.4.5-2.2-.2-1.6-.5-2.2-.8-1.1-1.3-1.5c-.6-.4-1.2-.5-1.9-.5s-1.4.2-1.9.5c-.6.4-1,.9-1.3,1.5-.3.6-.5,1.4-.5,2.2s.2,1.6.5,2.2c.3.6.8,1.1,1.3,1.5.6.4,1.2.5,2,.5Z"/>
      <path class="st1" d="M175.9,229.6l1.4-5.2h2.5l-2,5.2h-1.8Z"/>
    </g>
    <g class="st0">
      <path class="st1" d="M186.9,216.8v-2h7.7v2h-7.7ZM192.7,227.1c-1.2,0-2.1-.3-2.8-.9s-1-1.5-1-2.7v-12.5h2.3v12.1c0,.6.1,1,.4,1.4.3.3.7.5,1.3.5s.3,0,.5,0c.2,0,.4-.2.7-.4l.9,1.8c-.4.3-.8.5-1.2.6-.4.1-.8.2-1.1.2Z"/>
    </g>
    <g class="st0">
      <path class="st1" d="M201,227.1c-1.4,0-2.5-.3-3.3-1-.8-.6-1.2-1.5-1.2-2.7s.4-2.2,1.2-2.8c.8-.6,2-1,3.4-1h3.3v1.8h-2.7c-1.1,0-1.9.2-2.3.5-.4.3-.7.8-.7,1.4s.2,1,.6,1.3c.4.3,1,.5,1.8.5s1.2-.1,1.7-.4c.5-.3.9-.7,1.1-1.2.3-.5.4-1.1.4-1.8h.8c0,1.6-.3,2.9-1,3.9-.7,1-1.8,1.4-3.2,1.4ZM204.6,226.8v-2.1c0,0,0-4.2,0-4.2,0-.9,0-1.6-.3-2.2s-.5-1-.9-1.3c-.4-.3-.9-.5-1.6-.5s-1.2.1-1.6.4c-.5.3-.8.7-1.1,1.2l-2-.8c.3-.5.6-1,1.1-1.5.4-.4,1-.8,1.6-1s1.3-.4,2.1-.4,2.1.2,2.8.7c.8.4,1.3,1.1,1.7,1.9s.6,1.9.5,3.1v6.5h-2.1Z"/>
      <path class="st1" d="M210.9,212.3c-.4,0-.7-.1-1-.4-.3-.3-.4-.6-.4-1s.1-.7.4-1c.3-.3.6-.4,1-.4s.7.1,1,.4.4.6.4,1-.1.7-.4,1c-.3.3-.6.4-1,.4ZM209.7,226.8v-12h2.3v12h-2.3Z"/>
      <path class="st1" d="M219.6,227.1c-.8,0-1.6-.1-2.3-.4s-1.2-.6-1.7-1-.8-.9-1-1.5l2-.9c.3.5.6.9,1.2,1.2.5.3,1.1.5,1.7.5s1.3-.1,1.7-.4.7-.6.7-1.1-.2-.8-.5-1.1c-.3-.3-.8-.5-1.5-.6l-1.1-.3c-1.1-.3-2-.8-2.6-1.4-.6-.6-.9-1.3-.9-2.1,0-1.2.4-2.1,1.1-2.7.8-.6,1.9-1,3.3-1s1.4.1,2,.3c.6.2,1.1.5,1.5.9s.7.8.9,1.4l-1.9.9c-.2-.5-.5-.8-1-1.1-.5-.2-1-.3-1.6-.3s-1.1.1-1.5.4c-.4.3-.6.7-.6,1.2s.2.5.5.8c.3.2.8.5,1.4.6l1.3.3c.8.2,1.4.5,1.9.9.5.4.9.8,1.2,1.3.3.5.4,1,.4,1.5s-.2,1.3-.6,1.9c-.4.5-.9.9-1.6,1.2-.7.3-1.5.4-2.3.4Z"/>
      <path class="st1" d="M237.9,227.1c-1.2,0-2.3-.3-3.2-.8-.9-.5-1.7-1.3-2.2-2.2-.5-.9-.8-2-.8-3.3s.3-2.3.8-3.3c.5-.9,1.2-1.7,2.2-2.2.9-.5,2-.8,3.2-.8s2.2.3,3.2.8c.9.5,1.6,1.3,2.1,2.3l-2.1.9c-.3-.6-.7-1.1-1.3-1.4-.6-.3-1.2-.5-2-.5s-1.4.2-1.9.5c-.6.4-1,.8-1.3,1.5s-.5,1.4-.5,2.2.2,1.5.5,2.2.8,1.1,1.3,1.5c.6.4,1.2.5,1.9.5s1.4-.2,2-.6,1-.9,1.3-1.5l2.1.8c-.5,1.1-1.2,1.9-2.1,2.5-.9.6-2,.9-3.2.9Z"/>
      <path class="st1" d="M250.8,227.1c-1.2,0-2.3-.3-3.2-.8-.9-.5-1.6-1.3-2.1-2.2-.5-.9-.8-2-.8-3.3s.3-2.3.8-3.3c.5-.9,1.2-1.7,2.1-2.2.9-.5,2-.8,3.1-.8s2.2.3,3.1.8c.9.5,1.6,1.3,2.1,2.2.5.9.8,2,.8,3.3s-.3,2.3-.8,3.3c-.5.9-1.2,1.7-2.1,2.2-.9.5-1.9.8-3.1.8ZM250.8,225c.7,0,1.4-.2,1.9-.5.6-.4,1-.9,1.3-1.5.3-.6.5-1.4.5-2.2s-.2-1.6-.5-2.2c-.3-.6-.8-1.1-1.3-1.5-.6-.4-1.2-.5-1.9-.5s-1.4.2-1.9.5c-.6.4-1,.9-1.3,1.5s-.5,1.4-.5,2.2.2,1.6.5,2.2.8,1.1,1.3,1.5c.6.4,1.2.5,2,.5Z"/>
      <path class="st1" d="M259.3,226.8v-12h2.1v1.7c.5-.6,1-1.1,1.5-1.5s1.2-.5,2-.5,1.8.2,2.4.7c.7.4,1.2,1.1,1.5,2,.4-.9.8-1.5,1.5-2,.6-.5,1.4-.7,2.3-.7,1.4,0,2.4.4,3.2,1.3.8.9,1.1,2.3,1.1,4.1v6.9h-2.3v-6.1c0-1.1-.1-1.9-.3-2.5-.2-.6-.5-1-.9-1.2-.4-.2-.8-.3-1.3-.4-.9,0-1.6.3-2.1,1-.5.7-.7,1.7-.7,2.9v6.2h-2.3v-6.1c0-1.1-.1-1.9-.3-2.5-.2-.6-.5-1-.9-1.2-.4-.2-.8-.3-1.4-.4-.9,0-1.6.3-2.1,1-.5.7-.7,1.7-.7,2.9v6.2h-2.3Z"/>
      <path class="st1" d="M285.3,227.1c-1.2,0-2.3-.3-3.2-.8-.9-.5-1.6-1.3-2.1-2.2-.5-.9-.8-2-.8-3.3s.3-2.3.8-3.3c.5-.9,1.2-1.7,2.1-2.2.9-.5,2-.8,3.1-.8s2.2.3,3.1.8c.9.5,1.6,1.3,2.1,2.2.5.9.8,2,.8,3.3s-.3,2.3-.8,3.3c-.5.9-1.2,1.7-2.1,2.2-.9.5-1.9.8-3.1.8ZM285.3,225c.7,0,1.4-.2,1.9-.5.6-.4,1-.9,1.3-1.5.3-.6.5-1.4.5-2.2s-.2-1.6-.5-2.2c-.3-.6-.8-1.1-1.3-1.5-.6-.4-1.2-.5-1.9-.5s-1.4.2-1.9.5c-.6.4-1,.9-1.3,1.5s-.5,1.4-.5,2.2.2,1.6.5,2.2.8,1.1,1.3,1.5c.6.4,1.2.5,2,.5Z"/>
      <path class="st1" d="M295.4,217.8c-.4,0-.7-.1-1-.4-.3-.3-.4-.6-.4-1.1s.1-.8.4-1.1.6-.4,1-.4.8.1,1.1.4.4.6.4,1.1-.1.8-.4,1.1c-.3.3-.7.4-1.1.4ZM295.4,226.9c-.4,0-.8-.1-1.1-.4-.3-.3-.4-.7-.4-1.1s.1-.7.4-1c.3-.3.7-.4,1.1-.4s.7.1,1,.4.4.6.4,1-.1.8-.4,1.1c-.3.3-.6.4-1,.4Z"/>
    </g>
    <g class="st0">
      <path class="st1" d="M72.9,255.1c-1.2,0-2.3-.3-3.2-.8-.9-.5-1.7-1.3-2.2-2.2-.5-.9-.8-2-.8-3.3s.3-2.3.8-3.3,1.2-1.7,2.2-2.2c.9-.5,2-.8,3.2-.8s2.2.3,3.2.8,1.6,1.3,2.1,2.3l-2.1.9c-.3-.6-.7-1.1-1.3-1.4-.6-.3-1.2-.5-2-.5s-1.4.2-1.9.5c-.6.4-1,.8-1.3,1.5-.3.6-.5,1.4-.5,2.2s.2,1.5.5,2.2c.3.6.8,1.1,1.3,1.5.6.4,1.2.5,1.9.5s1.4-.2,2-.6c.6-.4,1-.9,1.3-1.5l2.1.8c-.5,1.1-1.2,1.9-2.1,2.5s-2,.9-3.2.9Z"/>
      <path class="st1" d="M85.8,255.1c-1.2,0-2.3-.3-3.2-.8-.9-.5-1.6-1.3-2.1-2.2-.5-.9-.8-2-.8-3.3s.3-2.3.8-3.3c.5-.9,1.2-1.7,2.1-2.2.9-.5,2-.8,3.1-.8s2.2.3,3.1.8c.9.5,1.6,1.3,2.1,2.2.5.9.8,2,.8,3.3s-.3,2.3-.8,3.3c-.5.9-1.2,1.7-2.1,2.2-.9.5-1.9.8-3.1.8ZM85.8,253c.7,0,1.4-.2,1.9-.5.6-.4,1-.9,1.3-1.5s.5-1.4.5-2.2-.2-1.6-.5-2.2-.8-1.1-1.3-1.5c-.6-.4-1.2-.5-1.9-.5s-1.4.2-1.9.5c-.6.4-1,.9-1.3,1.5-.3.6-.5,1.4-.5,2.2s.2,1.6.5,2.2c.3.6.8,1.1,1.3,1.5.6.4,1.2.5,2,.5Z"/>
      <path class="st1" d="M94.3,254.8v-12h2.3v12h-2.3ZM95.7,248.4c0-1.3.2-2.4.7-3.2.5-.8,1.1-1.4,1.9-1.8.8-.4,1.6-.6,2.5-.6v2.2c-.7,0-1.4.1-2.1.3-.6.2-1.2.6-1.6,1.1-.4.5-.6,1.1-.6,2h-.9Z"/>
      <path class="st1" d="M108,255.1c-1.2,0-2.2-.3-3.1-.8-.9-.5-1.6-1.3-2.1-2.2-.5-.9-.8-2-.8-3.3s.3-2.3.8-3.3c.5-.9,1.2-1.7,2.1-2.2.9-.5,1.9-.8,3.1-.8s2.1.3,2.9.8,1.5,1.3,2,2.4c.5,1,.7,2.2.7,3.6h-9.7l.4-.4c0,.8.2,1.6.5,2.2.3.6.8,1.1,1.4,1.4.6.3,1.2.5,2,.5s1.5-.2,2-.6c.5-.4,1-.9,1.3-1.4l2,.9c-.3.6-.7,1.2-1.2,1.6-.5.5-1.1.8-1.8,1.1s-1.5.4-2.3.4ZM104.5,247.9l-.5-.4h7.6l-.4.4c0-.7-.1-1.3-.4-1.8-.3-.5-.7-.9-1.2-1.2-.5-.3-1-.4-1.6-.4s-1.1.1-1.7.4c-.5.3-1,.6-1.3,1.1-.3.5-.5,1.1-.5,1.8Z"/>
      <path class="st1" d="M120.2,255.1c-.8,0-1.6-.1-2.3-.4s-1.2-.6-1.7-1-.8-.9-1-1.5l2-.9c.3.5.6.9,1.2,1.2.5.3,1.1.5,1.7.5s1.3-.1,1.7-.4c.4-.3.7-.6.7-1.1s-.2-.8-.5-1.1c-.3-.3-.8-.5-1.5-.6l-1.1-.3c-1.1-.3-2-.8-2.6-1.4-.6-.6-.9-1.3-.9-2.1,0-1.2.4-2.1,1.1-2.7.8-.6,1.9-1,3.3-1s1.4.1,2,.3,1.1.5,1.5.9.7.8.9,1.4l-1.9.9c-.2-.5-.5-.8-1-1.1-.5-.2-1-.3-1.6-.3s-1.1.1-1.5.4c-.4.3-.6.7-.6,1.2s.2.5.5.8.8.5,1.4.6l1.3.3c.8.2,1.4.5,1.9.9.5.4.9.8,1.2,1.3.3.5.4,1,.4,1.5s-.2,1.3-.6,1.9c-.4.5-.9.9-1.6,1.2-.7.3-1.5.4-2.3.4Z"/>
      <path class="st1" d="M138.2,255.1c-1.2,0-2.2-.3-3.1-.8-.9-.5-1.6-1.3-2.1-2.2-.5-.9-.8-2-.8-3.3s.3-2.3.8-3.3c.5-.9,1.2-1.7,2.1-2.2.9-.5,1.9-.8,3.1-.8s2.1.3,2.9.8,1.5,1.3,2,2.4c.5,1,.7,2.2.7,3.6h-9.7l.4-.4c0,.8.2,1.6.5,2.2.3.6.8,1.1,1.4,1.4.6.3,1.2.5,2,.5s1.5-.2,2-.6c.5-.4,1-.9,1.3-1.4l2,.9c-.3.6-.7,1.2-1.2,1.6-.5.5-1.1.8-1.8,1.1s-1.5.4-2.3.4ZM134.7,247.9l-.5-.4h7.6l-.4.4c0-.7-.1-1.3-.4-1.8-.3-.5-.7-.9-1.2-1.2-.5-.3-1-.4-1.6-.4s-1.1.1-1.7.4c-.5.3-1,.6-1.3,1.1-.3.5-.5,1.1-.5,1.8Z"/>
      <path class="st1" d="M156.2,255.1c-.8,0-1.6-.1-2.3-.4s-1.2-.6-1.7-1-.8-.9-1-1.5l2-.9c.3.5.6.9,1.2,1.2.5.3,1.1.5,1.7.5s1.3-.1,1.7-.4c.4-.3.7-.6.7-1.1s-.2-.8-.5-1.1c-.3-.3-.8-.5-1.5-.6l-1.1-.3c-1.1-.3-2-.8-2.6-1.4-.6-.6-.9-1.3-.9-2.1,0-1.2.4-2.1,1.1-2.7.8-.6,1.9-1,3.3-1s1.4.1,2,.3,1.1.5,1.5.9.7.8.9,1.4l-1.9.9c-.2-.5-.5-.8-1-1.1-.5-.2-1-.3-1.6-.3s-1.1.1-1.5.4c-.4.3-.6.7-.6,1.2s.2.5.5.8.8.5,1.4.6l1.3.3c.8.2,1.4.5,1.9.9.5.4.9.8,1.2,1.3.3.5.4,1,.4,1.5s-.2,1.3-.6,1.9c-.4.5-.9.9-1.6,1.2-.7.3-1.5.4-2.3.4Z"/>
      <path class="st1" d="M164.4,240.3c-.4,0-.7-.1-1-.4s-.4-.6-.4-1,.1-.7.4-1c.3-.3.6-.4,1-.4s.7.1,1,.4c.3.3.4.6.4,1s-.1.7-.4,1-.6.4-1,.4ZM163.2,254.8v-12h2.3v12h-2.3Z"/>
      <path class="st1" d="M168.9,254.8v-12h2.1v2.2c.1,0,.1,9.8.1,9.8h-2.3ZM177.2,248.7c0-1.1-.1-1.9-.4-2.5-.2-.6-.6-1-1-1.2-.4-.2-.9-.3-1.5-.4-1,0-1.7.3-2.3,1-.5.7-.8,1.7-.8,2.9h-1c0-1.3.2-2.3.6-3.3.4-.9.9-1.6,1.6-2.1.7-.5,1.5-.7,2.5-.7s1.8.2,2.5.6c.7.4,1.2,1,1.6,1.8s.6,1.9.6,3.2v.6h-2.3ZM177.2,254.8v-6.1h2.3v6.1h-2.3Z"/>
      <path class="st1" d="M186.2,255.1c-1.4,0-2.5-.3-3.3-1-.8-.6-1.2-1.5-1.2-2.7s.4-2.2,1.2-2.8c.8-.6,2-1,3.4-1h3.3v1.8h-2.7c-1.1,0-1.9.2-2.3.5-.4.3-.7.8-.7,1.4s.2,1,.6,1.3c.4.3,1,.5,1.8.5s1.2-.1,1.7-.4c.5-.3.9-.7,1.1-1.2.3-.5.4-1.1.4-1.8h.8c0,1.6-.3,2.9-1,3.9-.7,1-1.8,1.4-3.2,1.4ZM189.7,254.8v-2.1c0,0,0-4.2,0-4.2,0-.9,0-1.6-.3-2.2s-.5-1-.9-1.3c-.4-.3-.9-.5-1.6-.5s-1.2.1-1.6.4c-.5.3-.8.7-1.1,1.2l-2-.8c.3-.5.6-1,1.1-1.5.4-.4,1-.8,1.6-1s1.3-.4,2.1-.4,2.1.2,2.8.7c.8.4,1.3,1.1,1.7,1.9s.6,1.9.5,3.1v6.5h-2.1Z"/>
      <path class="st1" d="M194.7,254.8v-16.8h2.3v16.8h-2.3Z"/>
      <path class="st1" d="M201.5,240.3c-.4,0-.7-.1-1-.4-.3-.3-.4-.6-.4-1s.1-.7.4-1c.3-.3.6-.4,1-.4s.7.1,1,.4c.3.3.4.6.4,1s-.1.7-.4,1c-.3.3-.6.4-1,.4ZM200.3,254.8v-12h2.3v12h-2.3Z"/>
      <path class="st1" d="M205.3,254.8v-1.8l6.8-8.3h-6.8v-1.9h9.7v1.7l-6.8,8.4h6.8v1.9h-9.7Z"/>
      <path class="st1" d="M221.5,255.1c-1.4,0-2.5-.3-3.3-1-.8-.6-1.2-1.5-1.2-2.7s.4-2.2,1.2-2.8c.8-.6,2-1,3.4-1h3.3v1.8h-2.7c-1.1,0-1.9.2-2.3.5-.4.3-.7.8-.7,1.4s.2,1,.6,1.3c.4.3,1,.5,1.8.5s1.2-.1,1.7-.4c.5-.3.9-.7,1.1-1.2.3-.5.4-1.1.4-1.8h.8c0,1.6-.3,2.9-1,3.9-.7,1-1.8,1.4-3.2,1.4ZM225,254.8v-2.1c0,0,0-4.2,0-4.2,0-.9-.1-1.6-.3-2.2-.2-.6-.5-1-.9-1.3-.4-.3-.9-.5-1.6-.5s-1.2.1-1.6.4-.8.7-1.1,1.2l-2-.8c.3-.5.6-1,1.1-1.5.4-.4,1-.8,1.6-1,.6-.2,1.3-.4,2.1-.4s2.1.2,2.8.7c.8.4,1.3,1.1,1.7,1.9s.6,1.9.5,3.1v6.5h-2.1Z"/>
      <path class="st1" d="M235.5,255.1c-1.2,0-2.3-.3-3.2-.8-.9-.5-1.7-1.3-2.2-2.2-.5-.9-.8-2-.8-3.3s.3-2.3.8-3.3c.5-.9,1.2-1.7,2.2-2.2.9-.5,2-.8,3.2-.8s2.2.3,3.2.8c.9.5,1.6,1.3,2.1,2.3l-2.1.9c-.3-.6-.7-1.1-1.3-1.4-.6-.3-1.2-.5-2-.5s-1.4.2-1.9.5c-.6.4-1,.8-1.3,1.5s-.5,1.4-.5,2.2.2,1.5.5,2.2.8,1.1,1.3,1.5c.6.4,1.2.5,1.9.5s1.4-.2,2-.6,1-.9,1.3-1.5l2.1.8c-.5,1.1-1.2,1.9-2.1,2.5-.9.6-2,.9-3.2.9ZM234.6,259.9c-.3,0-.7,0-1-.1-.4,0-.8-.3-1.2-.5l.5-1.3c.3.1.5.2.8.3.3.1.5.2.7.2s.5,0,.8-.2c.2-.1.3-.3.3-.6s-.1-.7-.4-.9c-.3-.2-.7-.3-1.3-.4l.7-1.7,1.4.2-.3.6c.6.2,1,.5,1.3.9.2.4.4.8.4,1.2,0,.6-.2,1.2-.6,1.6-.4.4-1,.6-1.9.6Z"/>
      <path class="st1" d="M248.4,255.1c-1.2,0-2.3-.3-3.2-.8-.9-.5-1.6-1.3-2.1-2.2-.5-.9-.8-2-.8-3.3s.3-2.3.8-3.3c.5-.9,1.2-1.7,2.1-2.2.9-.5,2-.8,3.1-.8s2.2.3,3.1.8c.9.5,1.6,1.3,2.1,2.2.5.9.8,2,.8,3.3s-.3,2.3-.8,3.3c-.5.9-1.2,1.7-2.1,2.2-.9.5-1.9.8-3.1.8ZM248.4,253c.7,0,1.4-.2,1.9-.5.6-.4,1-.9,1.3-1.5.3-.6.5-1.4.5-2.2s-.2-1.6-.5-2.2c-.3-.6-.8-1.1-1.3-1.5-.6-.4-1.2-.5-1.9-.5s-1.4.2-1.9.5c-.6.4-1,.9-1.3,1.5s-.5,1.4-.5,2.2.2,1.6.5,2.2.8,1.1,1.3,1.5c.6.4,1.2.5,2,.5ZM250.3,241.4c-.5,0-.9,0-1.2-.3-.3-.2-.5-.4-.7-.6-.2-.2-.3-.4-.5-.6s-.4-.3-.6-.3-.4,0-.6.2-.2.4-.3.7h-1.7c0-.5.2-.9.4-1.3.2-.4.5-.7.9-.9.4-.2.8-.3,1.3-.3s.8,0,1.1.3c.3.2.5.4.7.6.2.2.4.4.5.6.2.2.4.3.6.3s.5,0,.6-.3c.1-.2.2-.4.3-.7h1.7c0,.7-.4,1.3-.8,1.8-.4.5-1,.8-1.8.8Z"/>
      <path class="st1" d="M262.2,255.1c-1.2,0-2.2-.3-3.1-.8-.9-.5-1.6-1.3-2.1-2.2-.5-.9-.8-2-.8-3.3s.3-2.3.8-3.3,1.2-1.7,2.1-2.2c.9-.5,1.9-.8,3.1-.8s2.1.3,2.9.8,1.5,1.3,2,2.4c.5,1,.7,2.2.7,3.6h-9.7l.4-.4c0,.8.2,1.6.5,2.2s.8,1.1,1.4,1.4c.6.3,1.2.5,2,.5s1.5-.2,2-.6c.5-.4,1-.9,1.3-1.4l2,.9c-.3.6-.7,1.2-1.2,1.6-.5.5-1.1.8-1.8,1.1-.7.3-1.5.4-2.3.4ZM258.7,247.9l-.5-.4h7.6l-.4.4c0-.7-.1-1.3-.4-1.8-.3-.5-.7-.9-1.2-1.2-.5-.3-1-.4-1.6-.4s-1.1.1-1.7.4c-.5.3-1,.6-1.3,1.1-.3.5-.5,1.1-.5,1.8Z"/>
      <path class="st1" d="M274.4,255.1c-.8,0-1.6-.1-2.3-.4s-1.2-.6-1.7-1-.8-.9-1-1.5l2-.9c.3.5.6.9,1.2,1.2.5.3,1.1.5,1.7.5s1.3-.1,1.7-.4c.4-.3.7-.6.7-1.1s-.2-.8-.5-1.1c-.3-.3-.8-.5-1.5-.6l-1.1-.3c-1.1-.3-2-.8-2.6-1.4s-.9-1.3-.9-2.1c0-1.2.4-2.1,1.1-2.7.8-.6,1.9-1,3.3-1s1.4.1,2,.3c.6.2,1.1.5,1.5.9s.7.8.9,1.4l-1.9.9c-.2-.5-.5-.8-1-1.1-.5-.2-1-.3-1.6-.3s-1.1.1-1.5.4c-.4.3-.6.7-.6,1.2s.2.5.5.8c.3.2.8.5,1.4.6l1.3.3c.8.2,1.4.5,1.9.9.5.4.9.8,1.2,1.3.3.5.4,1,.4,1.5s-.2,1.3-.6,1.9c-.4.5-.9.9-1.6,1.2-.7.3-1.5.4-2.3.4Z"/>
      <path class="st1" d="M280.6,257.6l1.4-5.2h2.5l-2,5.2h-1.8Z"/>
    </g>
    <g class="st0">
      <path class="st1" d="M101.4,283.1c-1.2,0-2.2-.3-3.1-.8-.9-.5-1.6-1.3-2.1-2.2-.5-.9-.8-2-.8-3.3s.3-2.3.8-3.3c.5-.9,1.2-1.7,2.1-2.2.9-.5,1.9-.8,3.1-.8s2.1.3,2.9.8,1.5,1.3,2,2.4c.5,1,.7,2.2.7,3.6h-9.7l.4-.4c0,.8.2,1.6.5,2.2.3.6.8,1.1,1.4,1.4.6.3,1.2.5,2,.5s1.5-.2,2-.6c.5-.4,1-.9,1.3-1.4l2,.9c-.3.6-.7,1.2-1.2,1.6-.5.5-1.1.8-1.8,1.1s-1.5.4-2.3.4ZM97.9,275.9l-.5-.4h7.6l-.4.4c0-.7-.1-1.3-.4-1.8-.3-.5-.7-.9-1.2-1.2-.5-.3-1-.4-1.6-.4s-1.1.1-1.7.4c-.5.3-1,.6-1.3,1.1-.3.5-.5,1.1-.5,1.8Z"/>
      <path class="st1" d="M109.3,282.8v-12h2.3v12h-2.3ZM110.6,276.4c0-1.3.2-2.4.7-3.2.5-.8,1.1-1.4,1.9-1.8.8-.4,1.6-.6,2.5-.6v2.2c-.7,0-1.4.1-2.1.3-.6.2-1.2.6-1.6,1.1-.4.5-.6,1.1-.6,2h-.9Z"/>
      <path class="st1" d="M122.4,282.7c-1.1,0-2-.3-2.8-.8-.8-.5-1.4-1.2-1.9-2.1-.5-.9-.7-1.9-.7-3.1s.2-2.3.7-3.2c.5-.9,1.1-1.6,1.9-2.1.8-.5,1.8-.8,2.8-.8s1.9.3,2.6.8c.7.5,1.3,1.2,1.7,2.1s.6,2,.6,3.2-.2,2.2-.6,3.1-1,1.6-1.7,2.1-1.6.7-2.6.7ZM122.6,287.9c-.8,0-1.5,0-2.2-.2-.7-.2-1.2-.3-1.7-.5-.4-.2-.8-.4-1-.5l.9-1.8c.2.1.5.3.9.4.4.2.8.3,1.3.4.5.1,1.1.2,1.7.2s1.4-.1,2-.4c.6-.3,1-.8,1.4-1.4.3-.6.5-1.4.5-2.4v-10.8h2.3v10.8c0,1.4-.3,2.5-.8,3.5-.5.9-1.2,1.6-2.1,2.1-.9.5-1.9.7-3.1.7ZM123,280.7c.7,0,1.3-.2,1.8-.5.5-.4.9-.8,1.2-1.5s.4-1.3.4-2.1-.1-1.5-.4-2.1c-.3-.6-.7-1.1-1.2-1.4s-1.1-.5-1.8-.5-1.3.2-1.9.5-1,.8-1.3,1.4-.5,1.3-.5,2.1.2,1.5.5,2.1.7,1.1,1.3,1.5,1.2.5,1.9.5Z"/>
      <path class="st1" d="M137.2,283.1c-1.2,0-2.3-.3-3.2-.8-.9-.5-1.6-1.3-2.1-2.2-.5-.9-.8-2-.8-3.3s.3-2.3.8-3.3c.5-.9,1.2-1.7,2.1-2.2.9-.5,2-.8,3.1-.8s2.2.3,3.1.8c.9.5,1.6,1.3,2.1,2.2.5.9.8,2,.8,3.3s-.3,2.3-.8,3.3c-.5.9-1.2,1.7-2.1,2.2-.9.5-1.9.8-3.1.8ZM137.2,281c.7,0,1.4-.2,1.9-.5.6-.4,1-.9,1.3-1.5s.5-1.4.5-2.2-.2-1.6-.5-2.2-.8-1.1-1.3-1.5c-.6-.4-1.2-.5-1.9-.5s-1.4.2-1.9.5c-.6.4-1,.9-1.3,1.5-.3.6-.5,1.4-.5,2.2s.2,1.6.5,2.2c.3.6.8,1.1,1.3,1.5.6.4,1.2.5,2,.5Z"/>
      <path class="st1" d="M145.7,282.8v-12h2.1v2.2c.1,0,.1,9.8.1,9.8h-2.3ZM154,276.7c0-1.1-.1-1.9-.4-2.5-.2-.6-.6-1-1-1.2-.4-.2-.9-.3-1.5-.4-1,0-1.7.3-2.3,1-.5.7-.8,1.7-.8,2.9h-1c0-1.3.2-2.3.6-3.3.4-.9.9-1.6,1.6-2.1.7-.5,1.5-.7,2.5-.7s1.8.2,2.5.6c.7.4,1.2,1,1.6,1.8s.6,1.9.6,3.2v.6h-2.3ZM154,282.8v-6.1h2.3v6.1h-2.3Z"/>
      <path class="st1" d="M164.6,283.1c-1.2,0-2.3-.3-3.2-.8-.9-.5-1.6-1.3-2.1-2.2-.5-.9-.8-2-.8-3.3s.3-2.3.8-3.3c.5-.9,1.2-1.7,2.1-2.2.9-.5,2-.8,3.1-.8s2.2.3,3.1.8c.9.5,1.6,1.3,2.1,2.2.5.9.8,2,.8,3.3s-.3,2.3-.8,3.3c-.5.9-1.2,1.7-2.1,2.2-.9.5-1.9.8-3.1.8ZM164.6,281c.7,0,1.4-.2,1.9-.5.6-.4,1-.9,1.3-1.5s.5-1.4.5-2.2-.2-1.6-.5-2.2-.8-1.1-1.3-1.5c-.6-.4-1.2-.5-1.9-.5s-1.4.2-1.9.5c-.6.4-1,.9-1.3,1.5-.3.6-.5,1.4-.5,2.2s.2,1.6.5,2.2c.3.6.8,1.1,1.3,1.5.6.4,1.2.5,2,.5Z"/>
      <path class="st1" d="M173.1,282.8v-12h2.1v1.7c.5-.6,1-1.1,1.5-1.5s1.2-.5,2-.5,1.8.2,2.4.7,1.2,1.1,1.5,2c.4-.9.8-1.5,1.5-2,.6-.5,1.4-.7,2.3-.7,1.4,0,2.4.4,3.2,1.3.8.9,1.1,2.3,1.1,4.1v6.9h-2.3v-6.1c0-1.1-.1-1.9-.3-2.5-.2-.6-.5-1-.9-1.2-.4-.2-.8-.3-1.3-.4-.9,0-1.6.3-2.1,1-.5.7-.7,1.7-.7,2.9v6.2h-2.3v-6.1c0-1.1-.1-1.9-.3-2.5-.2-.6-.5-1-.9-1.2-.4-.2-.8-.3-1.4-.4-.9,0-1.6.3-2.1,1-.5.7-.7,1.7-.7,2.9v6.2h-2.3Z"/>
      <path class="st1" d="M195,268.3c-.4,0-.7-.1-1-.4s-.4-.6-.4-1,.1-.7.4-1c.3-.3.6-.4,1-.4s.7.1,1,.4c.3.3.4.6.4,1s-.1.7-.4,1c-.3.3-.6.4-1,.4ZM193.8,282.8v-12h2.3v12h-2.3Z"/>
      <path class="st1" d="M203.3,283.1c-1.4,0-2.5-.3-3.3-1-.8-.6-1.2-1.5-1.2-2.7s.4-2.2,1.2-2.8c.8-.6,2-1,3.4-1h3.3v1.8h-2.7c-1.1,0-1.9.2-2.3.5-.4.3-.7.8-.7,1.4s.2,1,.6,1.3c.4.3,1,.5,1.8.5s1.2-.1,1.7-.4c.5-.3.9-.7,1.1-1.2.3-.5.4-1.1.4-1.8h.8c0,1.6-.3,2.9-1,3.9-.7,1-1.8,1.4-3.2,1.4ZM206.8,282.8v-2.1c0,0,0-4.2,0-4.2,0-.9-.1-1.6-.3-2.2-.2-.6-.5-1-.9-1.3-.4-.3-.9-.5-1.6-.5s-1.2.1-1.6.4c-.5.3-.8.7-1.1,1.2l-2-.8c.3-.5.6-1,1.1-1.5.4-.4,1-.8,1.6-1,.6-.2,1.3-.4,2.1-.4s2.1.2,2.8.7c.8.4,1.3,1.1,1.7,1.9s.6,1.9.5,3.1v6.5h-2.1Z"/>
      <path class="st1" d="M223,283.1c-1.2,0-2.2-.3-3.1-.8-.9-.5-1.6-1.3-2.1-2.2-.5-.9-.8-2-.8-3.3s.3-2.3.8-3.3,1.2-1.7,2.1-2.2c.9-.5,1.9-.8,3.1-.8s2.1.3,2.9.8,1.5,1.3,2,2.4c.5,1,.7,2.2.7,3.6h-9.7l.4-.4c0,.8.2,1.6.5,2.2.3.6.8,1.1,1.4,1.4.6.3,1.2.5,2,.5s1.5-.2,2-.6c.5-.4,1-.9,1.3-1.4l2,.9c-.3.6-.7,1.2-1.2,1.6-.5.5-1.1.8-1.8,1.1-.7.3-1.5.4-2.3.4ZM219.5,275.9l-.5-.4h7.6l-.4.4c0-.7-.1-1.3-.4-1.8-.3-.5-.7-.9-1.2-1.2-.5-.3-1-.4-1.6-.4s-1.1.1-1.7.4c-.5.3-1,.6-1.3,1.1-.3.5-.5,1.1-.5,1.8Z"/>
    </g>
    <g class="st0">
      <path class="st1" d="M229.7,272.8v-2h7.7v2h-7.7ZM235.5,283.1c-1.2,0-2.1-.3-2.8-.9-.7-.6-1-1.5-1-2.7v-12.5h2.3v12.1c0,.6.1,1,.4,1.4.3.3.7.5,1.3.5s.3,0,.5,0c.2,0,.4-.2.7-.4l.9,1.8c-.4.3-.8.5-1.2.6s-.8.2-1.1.2Z"/>
    </g>
    <g class="st0">
      <path class="st1" d="M245.4,283.1c-1.2,0-2.3-.3-3.2-.8-.9-.5-1.7-1.3-2.2-2.2-.5-.9-.8-2-.8-3.3s.3-2.3.8-3.3c.5-.9,1.2-1.7,2.2-2.2.9-.5,2-.8,3.2-.8s2.2.3,3.2.8c.9.5,1.6,1.3,2.1,2.3l-2.1.9c-.3-.6-.7-1.1-1.3-1.4-.6-.3-1.2-.5-2-.5s-1.4.2-1.9.5c-.6.4-1,.8-1.3,1.5s-.5,1.4-.5,2.2.2,1.5.5,2.2.8,1.1,1.3,1.5c.6.4,1.2.5,1.9.5s1.4-.2,2-.6,1-.9,1.3-1.5l2.1.8c-.5,1.1-1.2,1.9-2.1,2.5-.9.6-2,.9-3.2.9Z"/>
      <path class="st1" d="M254,283.2c-.4,0-.7-.1-1-.4s-.4-.6-.4-1.1.1-.8.4-1.1.6-.4,1-.4.8.1,1.1.4c.3.3.4.6.4,1.1s-.1.8-.4,1.1c-.3.3-.7.4-1.1.4Z"/>
    </g>
  </g>
  <g>
    <path class="st2" d="M157.5,68l-1.9,2.1,1.2,1.5,1.2,1.5,2.5-1.3c.9.7,1.9,1.3,3,1.7l.2,2.8,1.9.2,1.9.2.9-2.7c1.2-.1,2.3-.4,3.4-.9l2.1,1.9,1.5-1.2,1.5-1.2-1.3-2.5c.7-.9,1.3-1.9,1.7-3l2.9-.2.2-1.9.2-1.9-2.7-.9c-.1-1.2-.4-2.3-.9-3.3l1.9-2.1-1.2-1.5-1.2-1.5-2.5,1.3c-.9-.7-1.9-1.3-3-1.7l-.2-2.8-1.9-.2-1.9-.2-.9,2.7c-1.2.1-2.3.4-3.4.9l-2.1-1.9-1.5,1.2-1.5,1.2,1.3,2.5c-.7.9-1.3,1.9-1.7,3l-2.9.2-.2,1.9-.2,1.9,2.7.9c.1,1.2.4,2.3.9,3.4ZM164.7,56.6c3.8-1.4,8,.5,9.4,4.2,1.4,3.8-.5,8-4.2,9.4-3.8,1.4-8-.5-9.4-4.2-1.4-3.8.5-8,4.2-9.4h0Z"/>
    <path class="st2" d="M193.4,74.8l1.5-1.7-.9-1.2-.9-1.2-2,1c-.7-.6-1.5-1-2.4-1.3v-2.2c-.1,0-1.7-.2-1.7-.2l-1.5-.2-.7,2.1c-.9,0-1.8.3-2.6.7l-1.7-1.5-1.2.9-1.2.9,1,2c-.6.7-1,1.5-1.4,2.4h-2.2c0,.1-.2,1.6-.2,1.6l-.2,1.5,2.1.7c.1.9.4,1.8.7,2.6l-1.5,1.7.9,1.2.9,1.2,2-1c.7.6,1.5,1,2.4,1.3v2.2c.1,0,1.7.2,1.7.2l1.5.2.7-2.1c.9,0,1.8-.3,2.6-.7l1.7,1.5,1.2-.9,1.2-.9-1-2c.6-.7,1-1.5,1.4-2.4h2.2c0-.1.2-1.6.2-1.6l.2-1.5-2.1-.7c-.1-.9-.4-1.8-.7-2.6ZM187.7,83.8c-3,1.1-6.3-.4-7.4-3.3-1.1-3,.4-6.3,3.3-7.4s6.3.4,7.4,3.3c1.1,3-.4,6.3-3.3,7.4Z"/>
    <path class="st2" d="M175,91.4l-4.3-1.6c-.6-.2-1.3,0-1.5.7-.2.6.1,1.3.7,1.5l2,.7c-5.6,1.4-11.4,0-15.7-4.1-4.7-4.5-6.4-11.1-4.4-17.2h0c.2-.7-.1-1.4-.8-1.6s-1.3.1-1.5.8h0c-2.3,7.1-.3,14.7,5,19.8,3.6,3.5,8.3,5.3,13.2,5.3s2.9-.2,4.4-.5l-.8,1.2c-.4.6-.2,1.3.3,1.7.2.1.4.2.7.2.4,0,.8-.2,1-.5l2.5-3.7c.3-.4.4-1,.2-1.5-.2-.5-.6-.9-1.1-1.1h0Z"/>
    <path class="st2" d="M195.9,49.7c-4.8-4.5-11.3-6.2-17.6-4.7l.8-1.2c.4-.5.2-1.3-.3-1.7s-1.3-.2-1.6.3l-2.5,3.8c-.3.5-.4,1-.2,1.5.2.5.6.9,1.1,1.1l4.3,1.5c.1,0,.3,0,.4,0,.5,0,.9-.3,1.1-.8.2-.6-.1-1.3-.7-1.5l-2-.7c5.6-1.4,11.4,0,15.7,4,4.7,4.5,6.4,11,4.5,17.2h0c-.2.7.1,1.4.8,1.6.1,0,.2,0,.4,0,.5,0,1-.3,1.1-.8h0c2.2-7.1.3-14.7-5.1-19.8h0Z"/>
  </g>
</svg>