<?xml version="1.0" encoding="UTF-8"?>
<svg id="Camada_1" xmlns="http://www.w3.org/2000/svg" version="1.1" xmlns:xlink="http://www.w3.org/1999/xlink" viewBox="0 0 350 350">
  <!-- Generator: Adobe Illustrator 29.5.0, SVG Export Plug-In . SVG Version: 2.1.0 Build 137)  -->
  <defs>
    <style>
      .st0 {
        isolation: isolate;
      }

      .st1 {
        fill: #1d1d1b;
      }

      .st2 {
        fill: #92acce;
      }
    </style>
  </defs>
  <image class="st0" width="1463" height="1464" transform="translate(.2 -.2) scale(.2)" xlink:href="img_card02verso-1.png"/>
  <g class="st0">
    <g class="st0">
      <path class="st1" d="M50.7,143.1c-.9,0-1.7-.1-2.4-.3-.7-.2-1.4-.5-1.9-.9-.5-.4-1-.8-1.3-1.2-.4-.4-.6-.9-.7-1.4l2.3-.7c.2.7.7,1.2,1.4,1.7.7.5,1.5.7,2.5.7,1.2,0,2.1-.2,2.8-.7s1-1.1,1-1.9-.3-1.3-.9-1.8c-.6-.5-1.4-.8-2.4-1l-1.9-.5c-.8-.2-1.5-.5-2.1-.9-.6-.4-1.1-.9-1.5-1.5-.4-.6-.6-1.3-.6-2.1,0-1.5.5-2.7,1.5-3.6s2.4-1.3,4.3-1.3,2,.2,2.8.5c.8.3,1.5.8,2,1.4.5.6.9,1.2,1.1,1.8l-2.3.8c-.3-.7-.7-1.3-1.4-1.7s-1.5-.7-2.4-.7-1.8.2-2.4.7c-.6.5-.9,1.1-.9,2s.2,1.2.7,1.6c.5.4,1.1.7,1.8.9l1.9.5c1.6.4,2.8,1,3.6,1.9s1.3,1.9,1.3,2.9-.2,1.7-.7,2.5c-.5.7-1.1,1.3-2,1.7-.9.4-2,.6-3.3.6Z"/>
      <path class="st1" d="M63.3,143.1c-1.4,0-2.5-.3-3.3-1-.8-.6-1.2-1.5-1.2-2.7s.4-2.2,1.2-2.8c.8-.6,2-1,3.4-1h3.3v1.8h-2.7c-1.1,0-1.9.2-2.3.5-.4.3-.7.8-.7,1.4s.2,1,.6,1.3c.4.3,1,.5,1.8.5s1.2-.1,1.7-.4c.5-.3.9-.7,1.1-1.2.3-.5.4-1.1.4-1.8h.8c0,1.6-.3,2.9-1,3.9s-1.8,1.4-3.2,1.4ZM66.8,142.8v-2.1c0,0,0-4.2,0-4.2,0-.9-.1-1.6-.3-2.2-.2-.6-.5-1-.9-1.3-.4-.3-.9-.5-1.6-.5s-1.2.1-1.6.4c-.5.3-.8.7-1.1,1.2l-2-.8c.3-.5.6-1,1.1-1.5.4-.4,1-.8,1.6-1,.6-.2,1.3-.4,2.1-.4s2.1.2,2.8.7c.8.4,1.3,1.1,1.7,1.9s.6,1.9.5,3.1v6.5h-2.1ZM65.9,129.4c-.5,0-.9,0-1.2-.3-.3-.2-.5-.4-.7-.6-.2-.2-.3-.4-.5-.6-.2-.2-.4-.3-.6-.3s-.4,0-.6.2c-.1.1-.2.4-.3.7h-1.7c0-.5.2-.9.4-1.3.2-.4.5-.7.9-.9.4-.2.8-.3,1.3-.3s.8,0,1.1.3c.3.2.5.4.7.6.2.2.4.4.5.6.2.2.4.3.6.3s.5,0,.6-.3c.1-.2.2-.4.3-.7h1.7c0,.7-.4,1.3-.8,1.8-.4.5-1,.8-1.8.8Z"/>
      <path class="st1" d="M77.2,143.1c-1.2,0-2.3-.3-3.2-.8-.9-.5-1.6-1.3-2.1-2.2-.5-.9-.8-2-.8-3.3s.3-2.3.8-3.3c.5-.9,1.2-1.7,2.1-2.2.9-.5,2-.8,3.1-.8s2.2.3,3.1.8c.9.5,1.6,1.3,2.1,2.2.5.9.8,2,.8,3.3s-.3,2.3-.8,3.3c-.5.9-1.2,1.7-2.1,2.2-.9.5-1.9.8-3.1.8ZM77.2,141c.7,0,1.4-.2,1.9-.5.6-.4,1-.9,1.3-1.5s.5-1.4.5-2.2-.2-1.6-.5-2.2-.8-1.1-1.3-1.5c-.6-.4-1.2-.5-1.9-.5s-1.4.2-1.9.5c-.6.4-1,.9-1.3,1.5-.3.6-.5,1.4-.5,2.2s.2,1.6.5,2.2c.3.6.8,1.1,1.3,1.5.6.4,1.2.5,2,.5Z"/>
      <path class="st1" d="M91.6,142.8v-12h2.3v12h-2.3ZM92.9,136.4c0-1.3.2-2.4.7-3.2.5-.8,1.1-1.4,1.9-1.8.8-.4,1.6-.6,2.5-.6v2.2c-.7,0-1.4.1-2.1.3-.6.2-1.2.6-1.6,1.1-.4.5-.6,1.1-.6,2h-.9Z"/>
      <path class="st1" d="M105.2,143.1c-1.2,0-2.2-.3-3.1-.8-.9-.5-1.6-1.3-2.1-2.2-.5-.9-.8-2-.8-3.3s.3-2.3.8-3.3c.5-.9,1.2-1.7,2.1-2.2.9-.5,1.9-.8,3.1-.8s2.1.3,2.9.8,1.5,1.3,2,2.4c.5,1,.7,2.2.7,3.6h-9.7l.4-.4c0,.8.2,1.6.5,2.2.3.6.8,1.1,1.4,1.4.6.3,1.2.5,2,.5s1.5-.2,2-.6c.5-.4,1-.9,1.3-1.4l2,.9c-.3.6-.7,1.2-1.2,1.6-.5.5-1.1.8-1.8,1.1s-1.5.4-2.3.4ZM101.7,135.9l-.5-.4h7.6l-.4.4c0-.7-.1-1.3-.4-1.8-.3-.5-.7-.9-1.2-1.2-.5-.3-1-.4-1.6-.4s-1.1.1-1.7.4c-.5.3-1,.6-1.3,1.1-.3.5-.5,1.1-.5,1.8Z"/>
      <path class="st1" d="M113.1,142.8v-16.8h2.3v16.8h-2.3Z"/>
      <path class="st1" d="M122.4,143.1c-1.4,0-2.5-.3-3.3-1-.8-.6-1.2-1.5-1.2-2.7s.4-2.2,1.2-2.8c.8-.6,2-1,3.4-1h3.3v1.8h-2.7c-1.1,0-1.9.2-2.3.5-.4.3-.7.8-.7,1.4s.2,1,.6,1.3c.4.3,1,.5,1.8.5s1.2-.1,1.7-.4c.5-.3.9-.7,1.1-1.2.3-.5.4-1.1.4-1.8h.8c0,1.6-.3,2.9-1,3.9s-1.8,1.4-3.2,1.4ZM125.9,142.8v-2.1c0,0,0-4.2,0-4.2,0-.9-.1-1.6-.3-2.2-.2-.6-.5-1-.9-1.3-.4-.3-.9-.5-1.6-.5s-1.2.1-1.6.4c-.5.3-.8.7-1.1,1.2l-2-.8c.3-.5.6-1,1.1-1.5.4-.4,1-.8,1.6-1,.6-.2,1.3-.4,2.1-.4s2.1.2,2.8.7c.8.4,1.3,1.1,1.7,1.9s.6,1.9.5,3.1v6.5h-2.1Z"/>
      <path class="st1" d="M129.7,132.8v-2h7.7v2h-7.7ZM135.5,143.1c-1.2,0-2.1-.3-2.8-.9-.7-.6-1-1.5-1-2.7v-12.5h2.3v12.1c0,.6.1,1,.4,1.4.3.3.7.5,1.3.5s.3,0,.5,0c.2,0,.4-.2.7-.4l.9,1.8c-.4.3-.8.5-1.2.6s-.8.2-1.1.2Z"/>
      <path class="st1" d="M141.4,128.3c-.4,0-.7-.1-1-.4s-.4-.6-.4-1,.1-.7.4-1c.3-.3.6-.4,1-.4s.7.1,1,.4c.3.3.4.6.4,1s-.1.7-.4,1-.6.4-1,.4ZM140.3,142.8v-12h2.3v12h-2.3Z"/>
    </g>
    <g class="st0">
      <path class="st1" d="M149.5,142.8l-5-12h2.3l4.8,12h-2.1ZM149.7,142.8l4.8-12h2.4l-5,12h-2.2Z"/>
    </g>
    <g class="st0">
      <path class="st1" d="M163.7,143.1c-1.2,0-2.3-.3-3.2-.8-.9-.5-1.6-1.3-2.1-2.2-.5-.9-.8-2-.8-3.3s.3-2.3.8-3.3c.5-.9,1.2-1.7,2.1-2.2.9-.5,2-.8,3.1-.8s2.2.3,3.1.8c.9.5,1.6,1.3,2.1,2.2.5.9.8,2,.8,3.3s-.3,2.3-.8,3.3c-.5.9-1.2,1.7-2.1,2.2-.9.5-1.9.8-3.1.8ZM163.7,141c.7,0,1.4-.2,1.9-.5.6-.4,1-.9,1.3-1.5s.5-1.4.5-2.2-.2-1.6-.5-2.2-.8-1.1-1.3-1.5c-.6-.4-1.2-.5-1.9-.5s-1.4.2-1.9.5c-.6.4-1,.9-1.3,1.5-.3.6-.5,1.4-.5,2.2s.2,1.6.5,2.2c.3.6.8,1.1,1.3,1.5.6.4,1.2.5,2,.5Z"/>
      <path class="st1" d="M176.5,143.1c-.8,0-1.6-.1-2.3-.4s-1.2-.6-1.7-1-.8-.9-1-1.5l2-.9c.3.5.6.9,1.2,1.2.5.3,1.1.5,1.7.5s1.3-.1,1.7-.4c.4-.3.7-.6.7-1.1s-.2-.8-.5-1.1c-.3-.3-.8-.5-1.5-.6l-1.1-.3c-1.1-.3-2-.8-2.6-1.4-.6-.6-.9-1.3-.9-2.1,0-1.2.4-2.1,1.1-2.7.8-.6,1.9-1,3.3-1s1.4.1,2,.3c.6.2,1.1.5,1.5.9s.7.8.9,1.4l-1.9.9c-.2-.5-.5-.8-1-1.1-.5-.2-1-.3-1.6-.3s-1.1.1-1.5.4c-.4.3-.6.7-.6,1.2s.2.5.5.8.8.5,1.4.6l1.3.3c.8.2,1.4.5,1.9.9.5.4.9.8,1.2,1.3.3.5.4,1,.4,1.5s-.2,1.3-.6,1.9-.9.9-1.6,1.2c-.7.3-1.5.4-2.3.4Z"/>
      <path class="st1" d="M193.1,143.1c-1.4,0-2.5-.3-3.3-1-.8-.6-1.2-1.5-1.2-2.7s.4-2.2,1.2-2.8c.8-.6,2-1,3.4-1h3.3v1.8h-2.7c-1.1,0-1.9.2-2.3.5-.4.3-.7.8-.7,1.4s.2,1,.6,1.3c.4.3,1,.5,1.8.5s1.2-.1,1.7-.4c.5-.3.9-.7,1.1-1.2.3-.5.4-1.1.4-1.8h.8c0,1.6-.3,2.9-1,3.9-.7,1-1.8,1.4-3.2,1.4ZM196.6,142.8v-2.1c0,0,0-4.2,0-4.2,0-.9-.1-1.6-.3-2.2-.2-.6-.5-1-.9-1.3-.4-.3-.9-.5-1.6-.5s-1.2.1-1.6.4c-.5.3-.8.7-1.1,1.2l-2-.8c.3-.5.6-1,1.1-1.5.4-.4,1-.8,1.6-1,.6-.2,1.3-.4,2.1-.4s2.1.2,2.8.7c.8.4,1.3,1.1,1.7,1.9s.6,1.9.5,3.1v6.5h-2.1ZM193.8,129.2l-3.1-3.2h2.8l2.9,3.2h-2.5Z"/>
    </g>
    <g class="st0">
      <path class="st1" d="M212.7,143.1c-1.2,0-2.2-.3-3.1-.8-.9-.5-1.6-1.3-2.1-2.2-.5-.9-.8-2-.8-3.3s.3-2.3.8-3.3,1.2-1.7,2.1-2.2c.9-.5,1.9-.8,3.1-.8s2.1.3,2.9.8,1.5,1.3,2,2.4c.5,1,.7,2.2.7,3.6h-9.7l.4-.4c0,.8.2,1.6.5,2.2s.8,1.1,1.4,1.4c.6.3,1.2.5,2,.5s1.5-.2,2-.6c.5-.4,1-.9,1.3-1.4l2,.9c-.3.6-.7,1.2-1.2,1.6-.5.5-1.1.8-1.8,1.1-.7.3-1.5.4-2.3.4ZM209.2,135.9l-.5-.4h7.6l-.4.4c0-.7-.1-1.3-.4-1.8-.3-.5-.7-.9-1.2-1.2-.5-.3-1-.4-1.6-.4s-1.1.1-1.7.4c-.5.3-1,.6-1.3,1.1-.3.5-.5,1.1-.5,1.8Z"/>
    </g>
    <g class="st0">
      <path class="st1" d="M219,142.8l4.9-6.9,3.4-5.1h2.7l-4.6,6.6-3.7,5.4h-2.7ZM227.7,142.8l-3.6-5.4-4.7-6.6h2.7l3.5,5.1,4.9,6.9h-2.7Z"/>
      <path class="st1" d="M233.5,128.3c-.4,0-.7-.1-1-.4-.3-.3-.4-.6-.4-1s.1-.7.4-1c.3-.3.6-.4,1-.4s.7.1,1,.4c.3.3.4.6.4,1s-.1.7-.4,1c-.3.3-.6.4-1,.4ZM232.3,142.8v-12h2.3v12h-2.3Z"/>
      <path class="st1" d="M242.7,142.7c-1.1,0-2-.3-2.8-.8s-1.4-1.2-1.9-2.1c-.5-.9-.7-1.9-.7-3.1s.2-2.3.7-3.2c.5-.9,1.1-1.6,1.9-2.1.8-.5,1.8-.8,2.8-.8s1.9.3,2.6.8c.7.5,1.3,1.2,1.7,2.1s.6,2,.6,3.2-.2,2.2-.6,3.1-1,1.6-1.7,2.1-1.6.7-2.6.7ZM242.9,147.9c-.8,0-1.5,0-2.2-.2s-1.2-.3-1.7-.5c-.4-.2-.8-.4-1-.5l.9-1.8c.2.1.5.3.9.4s.8.3,1.3.4c.5.1,1.1.2,1.7.2s1.4-.1,2-.4c.6-.3,1-.8,1.4-1.4s.5-1.4.5-2.4v-10.8h2.3v10.8c0,1.4-.3,2.5-.8,3.5-.5.9-1.2,1.6-2.1,2.1-.9.5-1.9.7-3.1.7ZM243.3,140.7c.7,0,1.3-.2,1.8-.5s.9-.8,1.2-1.5.4-1.3.4-2.1-.1-1.5-.4-2.1c-.3-.6-.7-1.1-1.2-1.4s-1.1-.5-1.8-.5-1.3.2-1.9.5-1,.8-1.3,1.4c-.3.6-.5,1.3-.5,2.1s.2,1.5.5,2.1c.3.6.7,1.1,1.3,1.5s1.2.5,1.9.5Z"/>
      <path class="st1" d="M257.4,143.1c-1.2,0-2.2-.3-3.1-.8-.9-.5-1.6-1.3-2.1-2.2-.5-.9-.8-2-.8-3.3s.3-2.3.8-3.3c.5-.9,1.2-1.7,2.1-2.2.9-.5,1.9-.8,3.1-.8s2.1.3,2.9.8,1.5,1.3,2,2.4c.5,1,.7,2.2.7,3.6h-9.7l.4-.4c0,.8.2,1.6.5,2.2.3.6.8,1.1,1.4,1.4.6.3,1.2.5,2,.5s1.5-.2,2-.6c.5-.4,1-.9,1.3-1.4l2,.9c-.3.6-.7,1.2-1.2,1.6-.5.5-1.1.8-1.8,1.1-.7.3-1.5.4-2.3.4ZM253.2,128.9l2.9-3.2h2.6c0,0-3.2,3.2-3.2,3.2h-2.3ZM253.9,135.9l-.5-.4h7.6l-.4.4c0-.7-.1-1.3-.4-1.8-.3-.5-.7-.9-1.2-1.2-.5-.3-1-.4-1.6-.4s-1.1.1-1.7.4c-.5.3-1,.6-1.3,1.1-.3.5-.5,1.1-.5,1.8ZM259.3,128.9l-3.2-3.1h0c0,0,2.6,0,2.6,0l2.9,3.2h-2.4Z"/>
      <path class="st1" d="M265.3,142.8v-12h2.1v2.2c.1,0,.1,9.8.1,9.8h-2.3ZM273.6,136.7c0-1.1-.1-1.9-.4-2.5-.2-.6-.6-1-1-1.2-.4-.2-.9-.3-1.5-.4-1,0-1.7.3-2.3,1-.5.7-.8,1.7-.8,2.9h-1c0-1.3.2-2.3.6-3.3.4-.9.9-1.6,1.6-2.1.7-.5,1.5-.7,2.5-.7s1.8.2,2.5.6,1.2,1,1.6,1.8.6,1.9.6,3.2v.6h-2.3ZM273.6,142.8v-6.1h2.3v6.1h-2.3Z"/>
      <path class="st1" d="M284.3,143.1c-1.2,0-2.3-.3-3.2-.8-.9-.5-1.7-1.3-2.2-2.2-.5-.9-.8-2-.8-3.3s.3-2.3.8-3.3c.5-.9,1.2-1.7,2.2-2.2.9-.5,2-.8,3.2-.8s2.2.3,3.2.8c.9.5,1.6,1.3,2.1,2.3l-2.1.9c-.3-.6-.7-1.1-1.3-1.4s-1.2-.5-2-.5-1.4.2-1.9.5c-.6.4-1,.8-1.3,1.5-.3.6-.5,1.4-.5,2.2s.2,1.5.5,2.2c.3.6.8,1.1,1.3,1.5.6.4,1.2.5,1.9.5s1.4-.2,2-.6c.6-.4,1-.9,1.3-1.5l2.1.8c-.5,1.1-1.2,1.9-2.1,2.5-.9.6-2,.9-3.2.9Z"/>
      <path class="st1" d="M293.1,128.3c-.4,0-.7-.1-1-.4-.3-.3-.4-.6-.4-1s.1-.7.4-1c.3-.3.6-.4,1-.4s.7.1,1,.4.4.6.4,1-.1.7-.4,1c-.3.3-.6.4-1,.4ZM292,142.8v-12h2.3v12h-2.3Z"/>
      <path class="st1" d="M301.4,143.1c-1.4,0-2.5-.3-3.3-1-.8-.6-1.2-1.5-1.2-2.7s.4-2.2,1.2-2.8c.8-.6,2-1,3.4-1h3.3v1.8h-2.7c-1.1,0-1.9.2-2.3.5-.4.3-.7.8-.7,1.4s.2,1,.6,1.3c.4.3,1,.5,1.8.5s1.2-.1,1.7-.4c.5-.3.9-.7,1.1-1.2.3-.5.4-1.1.4-1.8h.8c0,1.6-.3,2.9-1,3.9-.7,1-1.8,1.4-3.2,1.4ZM304.9,142.8v-2.1c0,0,0-4.2,0-4.2,0-.9,0-1.6-.3-2.2s-.5-1-.9-1.3c-.4-.3-.9-.5-1.6-.5s-1.2.1-1.6.4c-.5.3-.8.7-1.1,1.2l-2-.8c.3-.5.6-1,1.1-1.5.4-.4,1-.8,1.6-1s1.3-.4,2.1-.4,2.1.2,2.8.7c.8.4,1.3,1.1,1.7,1.9s.6,1.9.5,3.1v6.5h-2.1Z"/>
    </g>
    <g class="st0">
      <path class="st1" d="M42.7,171.1c-1.1,0-2-.3-2.8-.8-.8-.5-1.4-1.3-1.9-2.2-.5-.9-.7-2-.7-3.3s.2-2.4.7-3.3c.5-.9,1.1-1.7,1.9-2.2.8-.5,1.8-.8,2.8-.8s1.9.3,2.6.8c.7.5,1.3,1.3,1.7,2.2.4.9.6,2,.6,3.3s-.2,2.3-.6,3.3c-.4.9-1,1.7-1.7,2.2-.7.5-1.6.8-2.6.8ZM43.3,169.1c.7,0,1.3-.2,1.8-.5.5-.4.9-.9,1.2-1.5s.4-1.4.4-2.2-.1-1.6-.4-2.2c-.3-.6-.7-1.1-1.2-1.5-.5-.4-1.1-.5-1.8-.5s-1.3.2-1.9.5c-.5.4-1,.9-1.3,1.5-.3.6-.5,1.4-.5,2.2s.2,1.6.5,2.2.7,1.1,1.3,1.5c.5.4,1.2.5,1.9.5ZM46.8,170.8v-2.2c0,0,0-14.6,0-14.6h2.3v16.8h-2.2Z"/>
      <path class="st1" d="M57.4,171.1c-1.2,0-2.2-.3-3.1-.8-.9-.5-1.6-1.3-2.1-2.2-.5-.9-.8-2-.8-3.3s.3-2.3.8-3.3c.5-.9,1.2-1.7,2.1-2.2.9-.5,1.9-.8,3.1-.8s2.1.3,2.9.8,1.5,1.3,2,2.4c.5,1,.7,2.2.7,3.6h-9.7l.4-.4c0,.8.2,1.6.5,2.2.3.6.8,1.1,1.4,1.4.6.3,1.2.5,2,.5s1.5-.2,2-.6c.5-.4,1-.9,1.3-1.4l2,.9c-.3.6-.7,1.2-1.2,1.6-.5.5-1.1.8-1.8,1.1s-1.5.4-2.3.4ZM53.9,163.9l-.5-.4h7.6l-.4.4c0-.7-.1-1.3-.4-1.8-.3-.5-.7-.9-1.2-1.2-.5-.3-1-.4-1.6-.4s-1.1.1-1.7.4c-.5.3-1,.6-1.3,1.1-.3.5-.5,1.1-.5,1.8Z"/>
      <path class="st1" d="M74.9,171.1c-1.4,0-2.5-.3-3.3-1-.8-.6-1.2-1.5-1.2-2.7s.4-2.2,1.2-2.8c.8-.6,2-1,3.4-1h3.3v1.8h-2.7c-1.1,0-1.9.2-2.3.5-.4.3-.7.8-.7,1.4s.2,1,.6,1.3c.4.3,1,.5,1.8.5s1.2-.1,1.7-.4c.5-.3.9-.7,1.1-1.2.3-.5.4-1.1.4-1.8h.8c0,1.6-.3,2.9-1,3.9s-1.8,1.4-3.2,1.4ZM78.5,170.8v-2.1c0,0,0-4.2,0-4.2,0-.9-.1-1.6-.3-2.2-.2-.6-.5-1-.9-1.3-.4-.3-.9-.5-1.6-.5s-1.2.1-1.6.4c-.5.3-.8.7-1.1,1.2l-2-.8c.3-.5.6-1,1.1-1.5.4-.4,1-.8,1.6-1,.6-.2,1.3-.4,2.1-.4s2.1.2,2.8.7c.8.4,1.3,1.1,1.7,1.9s.6,1.9.5,3.1v6.5h-2.1Z"/>
      <path class="st1" d="M83.6,175.6v-16.8h2.1v2.2c.1,0,.1,14.6.1,14.6h-2.3ZM89.8,171.1c-1,0-1.9-.3-2.6-.8s-1.3-1.3-1.7-2.2c-.4-.9-.6-2-.6-3.3s.2-2.4.6-3.3c.4-.9,1-1.7,1.7-2.2s1.6-.8,2.6-.8,2,.3,2.8.8,1.5,1.3,1.9,2.2c.5.9.7,2,.7,3.3s-.2,2.3-.7,3.3-1.1,1.7-1.9,2.2-1.8.8-2.8.8ZM89.3,169.1c.7,0,1.4-.2,1.9-.5.5-.4,1-.9,1.3-1.5s.5-1.4.5-2.2-.2-1.6-.5-2.2c-.3-.6-.7-1.1-1.3-1.5-.5-.4-1.2-.5-1.9-.5s-1.2.2-1.8.5c-.5.4-.9.9-1.2,1.5-.3.6-.4,1.4-.4,2.2s.1,1.6.4,2.2.7,1.1,1.2,1.5c.5.4,1.1.5,1.8.5Z"/>
      <path class="st1" d="M103.2,171.1c-1.2,0-2.3-.3-3.2-.8-.9-.5-1.6-1.3-2.1-2.2-.5-.9-.8-2-.8-3.3s.3-2.3.8-3.3c.5-.9,1.2-1.7,2.1-2.2.9-.5,2-.8,3.1-.8s2.2.3,3.1.8c.9.5,1.6,1.3,2.1,2.2.5.9.8,2,.8,3.3s-.3,2.3-.8,3.3c-.5.9-1.2,1.7-2.1,2.2-.9.5-1.9.8-3.1.8ZM103.2,169c.7,0,1.4-.2,1.9-.5.6-.4,1-.9,1.3-1.5s.5-1.4.5-2.2-.2-1.6-.5-2.2-.8-1.1-1.3-1.5c-.6-.4-1.2-.5-1.9-.5s-1.4.2-1.9.5c-.6.4-1,.9-1.3,1.5-.3.6-.5,1.4-.5,2.2s.2,1.6.5,2.2c.3.6.8,1.1,1.3,1.5.6.4,1.2.5,2,.5Z"/>
      <path class="st1" d="M113,156.3c-.4,0-.7-.1-1-.4s-.4-.6-.4-1,.1-.7.4-1c.3-.3.6-.4,1-.4s.7.1,1,.4c.3.3.4.6.4,1s-.1.7-.4,1-.6.4-1,.4ZM111.8,170.8v-12h2.3v12h-2.3Z"/>
      <path class="st1" d="M122.8,171.1c-1.2,0-2.3-.3-3.2-.8-.9-.5-1.6-1.3-2.1-2.2-.5-.9-.8-2-.8-3.3s.3-2.3.8-3.3c.5-.9,1.2-1.7,2.1-2.2.9-.5,2-.8,3.1-.8s2.2.3,3.1.8c.9.5,1.6,1.3,2.1,2.2.5.9.8,2,.8,3.3s-.3,2.3-.8,3.3c-.5.9-1.2,1.7-2.1,2.2-.9.5-1.9.8-3.1.8ZM122.8,169c.7,0,1.4-.2,1.9-.5.6-.4,1-.9,1.3-1.5s.5-1.4.5-2.2-.2-1.6-.5-2.2-.8-1.1-1.3-1.5c-.6-.4-1.2-.5-1.9-.5s-1.4.2-1.9.5c-.6.4-1,.9-1.3,1.5-.3.6-.5,1.4-.5,2.2s.2,1.6.5,2.2c.3.6.8,1.1,1.3,1.5.6.4,1.2.5,2,.5Z"/>
      <path class="st1" d="M137.3,175.6v-16.8h2.1v2.2c.1,0,.1,14.6.1,14.6h-2.3ZM143.5,171.1c-1,0-1.9-.3-2.6-.8s-1.3-1.3-1.7-2.2c-.4-.9-.6-2-.6-3.3s.2-2.4.6-3.3c.4-.9,1-1.7,1.7-2.2s1.6-.8,2.6-.8,2,.3,2.8.8,1.5,1.3,1.9,2.2c.5.9.7,2,.7,3.3s-.2,2.3-.7,3.3-1.1,1.7-1.9,2.2-1.8.8-2.8.8ZM143,169.1c.7,0,1.4-.2,1.9-.5.5-.4,1-.9,1.3-1.5s.5-1.4.5-2.2-.2-1.6-.5-2.2c-.3-.6-.7-1.1-1.3-1.5-.5-.4-1.2-.5-1.9-.5s-1.2.2-1.8.5c-.5.4-.9.9-1.2,1.5-.3.6-.4,1.4-.4,2.2s.1,1.6.4,2.2.7,1.1,1.2,1.5c.5.4,1.1.5,1.8.5Z"/>
      <path class="st1" d="M155.3,171.1c-1.4,0-2.5-.3-3.3-1-.8-.6-1.2-1.5-1.2-2.7s.4-2.2,1.2-2.8c.8-.6,2-1,3.4-1h3.3v1.8h-2.7c-1.1,0-1.9.2-2.3.5-.4.3-.7.8-.7,1.4s.2,1,.6,1.3c.4.3,1,.5,1.8.5s1.2-.1,1.7-.4c.5-.3.9-.7,1.1-1.2.3-.5.4-1.1.4-1.8h.8c0,1.6-.3,2.9-1,3.9s-1.8,1.4-3.2,1.4ZM158.8,170.8v-2.1c0,0,0-4.2,0-4.2,0-.9-.1-1.6-.3-2.2-.2-.6-.5-1-.9-1.3-.4-.3-.9-.5-1.6-.5s-1.2.1-1.6.4c-.5.3-.8.7-1.1,1.2l-2-.8c.3-.5.6-1,1.1-1.5.4-.4,1-.8,1.6-1,.6-.2,1.3-.4,2.1-.4s2.1.2,2.8.7c.8.4,1.3,1.1,1.7,1.9s.6,1.9.5,3.1v6.5h-2.1Z"/>
      <path class="st1" d="M163.8,170.8v-12h2.3v12h-2.3ZM165.2,164.4c0-1.3.2-2.4.7-3.2.5-.8,1.1-1.4,1.9-1.8.8-.4,1.6-.6,2.5-.6v2.2c-.7,0-1.4.1-2.1.3-.6.2-1.2.6-1.6,1.1-.4.5-.6,1.1-.6,2h-.9Z"/>
      <path class="st1" d="M176.1,171.1c-1.4,0-2.5-.3-3.3-1-.8-.6-1.2-1.5-1.2-2.7s.4-2.2,1.2-2.8c.8-.6,2-1,3.4-1h3.3v1.8h-2.7c-1.1,0-1.9.2-2.3.5-.4.3-.7.8-.7,1.4s.2,1,.6,1.3c.4.3,1,.5,1.8.5s1.2-.1,1.7-.4c.5-.3.9-.7,1.1-1.2.3-.5.4-1.1.4-1.8h.8c0,1.6-.3,2.9-1,3.9-.7,1-1.8,1.4-3.2,1.4ZM179.6,170.8v-2.1c0,0,0-4.2,0-4.2,0-.9,0-1.6-.3-2.2s-.5-1-.9-1.3c-.4-.3-.9-.5-1.6-.5s-1.2.1-1.6.4c-.5.3-.8.7-1.1,1.2l-2-.8c.3-.5.6-1,1.1-1.5.4-.4,1-.8,1.6-1,.6-.2,1.3-.4,2.1-.4s2.1.2,2.8.7c.8.4,1.3,1.1,1.7,1.9s.6,1.9.5,3.1v6.5h-2.1Z"/>
      <path class="st1" d="M194.3,171.1c-1.4,0-2.5-.3-3.3-1-.8-.6-1.2-1.5-1.2-2.7s.4-2.2,1.2-2.8c.8-.6,2-1,3.4-1h3.3v1.8h-2.7c-1.1,0-1.9.2-2.3.5-.4.3-.7.8-.7,1.4s.2,1,.6,1.3c.4.3,1,.5,1.8.5s1.2-.1,1.7-.4c.5-.3.9-.7,1.1-1.2.3-.5.4-1.1.4-1.8h.8c0,1.6-.3,2.9-1,3.9-.7,1-1.8,1.4-3.2,1.4ZM197.8,170.8v-2.1c0,0,0-4.2,0-4.2,0-.9,0-1.6-.3-2.2s-.5-1-.9-1.3c-.4-.3-.9-.5-1.6-.5s-1.2.1-1.6.4c-.5.3-.8.7-1.1,1.2l-2-.8c.3-.5.6-1,1.1-1.5.4-.4,1-.8,1.6-1s1.3-.4,2.1-.4,2.1.2,2.8.7c.8.4,1.3,1.1,1.7,1.9s.6,1.9.5,3.1v6.5h-2.1Z"/>
      <path class="st1" d="M214.1,171.1c-1.2,0-2.3-.3-3.2-.8-.9-.5-1.6-1.3-2.1-2.2-.5-.9-.8-2-.8-3.3s.3-2.3.8-3.3c.5-.9,1.2-1.7,2.1-2.2.9-.5,2-.8,3.1-.8s2.2.3,3.1.8c.9.5,1.6,1.3,2.1,2.2.5.9.8,2,.8,3.3s-.3,2.3-.8,3.3c-.5.9-1.2,1.7-2.1,2.2-.9.5-1.9.8-3.1.8ZM214.1,169c.7,0,1.4-.2,1.9-.5.6-.4,1-.9,1.3-1.5.3-.6.5-1.4.5-2.2s-.2-1.6-.5-2.2c-.3-.6-.8-1.1-1.3-1.5-.6-.4-1.2-.5-1.9-.5s-1.4.2-1.9.5c-.6.4-1,.9-1.3,1.5s-.5,1.4-.5,2.2.2,1.6.5,2.2.8,1.1,1.3,1.5c.6.4,1.2.5,2,.5Z"/>
      <path class="st1" d="M222.6,170.8v-16.8h2.3v16.8h-2.3ZM228.8,171.1c-1,0-1.9-.3-2.6-.8s-1.3-1.3-1.7-2.2c-.4-.9-.6-2-.6-3.3s.2-2.4.6-3.3c.4-.9,1-1.7,1.7-2.2s1.6-.8,2.6-.8,2,.3,2.8.8,1.5,1.3,1.9,2.2c.5.9.7,2,.7,3.3s-.2,2.3-.7,3.3-1.1,1.7-1.9,2.2-1.8.8-2.8.8ZM228.3,169.1c.7,0,1.4-.2,1.9-.5.5-.4,1-.9,1.3-1.5.3-.6.5-1.4.5-2.2s-.2-1.6-.5-2.2c-.3-.6-.7-1.1-1.3-1.5-.5-.4-1.2-.5-1.9-.5s-1.2.2-1.8.5c-.5.4-.9.9-1.2,1.5-.3.6-.4,1.4-.4,2.2s.1,1.6.4,2.2.7,1.1,1.2,1.5c.5.4,1.1.5,1.8.5Z"/>
      <path class="st1" d="M236.7,170.8v-12h2.3v12h-2.3ZM238.1,164.4c0-1.3.2-2.4.7-3.2s1.1-1.4,1.9-1.8c.8-.4,1.6-.6,2.5-.6v2.2c-.7,0-1.4.1-2.1.3-.6.2-1.2.6-1.6,1.1s-.6,1.1-.6,2h-.9Z"/>
      <path class="st1" d="M246.4,156.3c-.4,0-.7-.1-1-.4-.3-.3-.4-.6-.4-1s.1-.7.4-1c.3-.3.6-.4,1-.4s.7.1,1,.4.4.6.4,1-.1.7-.4,1c-.3.3-.6.4-1,.4ZM245.3,170.8v-12h2.3v12h-2.3Z"/>
      <path class="st1" d="M255.6,170.7c-1.1,0-2-.3-2.8-.8-.8-.5-1.4-1.2-1.9-2.1-.5-.9-.7-1.9-.7-3.1s.2-2.3.7-3.2,1.1-1.6,1.9-2.1c.8-.5,1.8-.8,2.8-.8s1.9.3,2.6.8c.7.5,1.3,1.2,1.7,2.1s.6,2,.6,3.2-.2,2.2-.6,3.1-1,1.6-1.7,2.1-1.6.7-2.6.7ZM255.9,175.9c-.8,0-1.5,0-2.2-.2-.7-.2-1.2-.3-1.7-.5-.4-.2-.8-.4-1-.5l.9-1.8c.2.1.5.3.9.4.4.2.8.3,1.3.4.5.1,1.1.2,1.7.2s1.4-.1,2-.4,1-.8,1.4-1.4c.3-.6.5-1.4.5-2.4v-10.8h2.3v10.8c0,1.4-.3,2.5-.8,3.5-.5.9-1.2,1.6-2.1,2.1-.9.5-1.9.7-3.1.7ZM256.2,168.7c.7,0,1.3-.2,1.8-.5.5-.4.9-.8,1.2-1.5s.4-1.3.4-2.1-.1-1.5-.4-2.1c-.3-.6-.7-1.1-1.2-1.4s-1.1-.5-1.8-.5-1.3.2-1.9.5-1,.8-1.3,1.4c-.3.6-.5,1.3-.5,2.1s.2,1.5.5,2.1c.3.6.7,1.1,1.3,1.5s1.2.5,1.9.5Z"/>
      <path class="st1" d="M268.9,171.1c-1.4,0-2.5-.3-3.3-1-.8-.6-1.2-1.5-1.2-2.7s.4-2.2,1.2-2.8c.8-.6,2-1,3.4-1h3.3v1.8h-2.7c-1.1,0-1.9.2-2.3.5-.4.3-.7.8-.7,1.4s.2,1,.6,1.3c.4.3,1,.5,1.8.5s1.2-.1,1.7-.4c.5-.3.9-.7,1.1-1.2.3-.5.4-1.1.4-1.8h.8c0,1.6-.3,2.9-1,3.9-.7,1-1.8,1.4-3.2,1.4ZM272.4,170.8v-2.1c0,0,0-4.2,0-4.2,0-.9-.1-1.6-.3-2.2-.2-.6-.5-1-.9-1.3-.4-.3-.9-.5-1.6-.5s-1.2.1-1.6.4-.8.7-1.1,1.2l-2-.8c.3-.5.6-1,1.1-1.5.4-.4,1-.8,1.6-1,.6-.2,1.3-.4,2.1-.4s2.1.2,2.8.7c.8.4,1.3,1.1,1.7,1.9s.6,1.9.5,3.1v6.5h-2.1Z"/>
      <path class="st1" d="M282.9,171.1c-1.2,0-2.3-.3-3.2-.8-.9-.5-1.7-1.3-2.2-2.2-.5-.9-.8-2-.8-3.3s.3-2.3.8-3.3c.5-.9,1.2-1.7,2.2-2.2.9-.5,2-.8,3.2-.8s2.2.3,3.2.8c.9.5,1.6,1.3,2.1,2.3l-2.1.9c-.3-.6-.7-1.1-1.3-1.4-.6-.3-1.2-.5-2-.5s-1.4.2-1.9.5c-.6.4-1,.8-1.3,1.5s-.5,1.4-.5,2.2.2,1.5.5,2.2.8,1.1,1.3,1.5c.6.4,1.2.5,1.9.5s1.4-.2,2-.6,1-.9,1.3-1.5l2.1.8c-.5,1.1-1.2,1.9-2.1,2.5-.9.6-2,.9-3.2.9ZM282.1,175.9c-.3,0-.7,0-1-.1-.4,0-.8-.3-1.2-.5l.5-1.3c.3.1.5.2.8.3.3.1.5.2.7.2s.5,0,.8-.2c.2-.1.3-.3.3-.6s-.1-.7-.4-.9c-.3-.2-.7-.3-1.3-.4l.7-1.7,1.4.2-.3.6c.6.2,1,.5,1.3.9.2.4.4.8.4,1.2,0,.6-.2,1.2-.6,1.6-.4.4-1,.6-1.9.6Z"/>
      <path class="st1" d="M294.3,171.1c-1.4,0-2.5-.3-3.3-1-.8-.6-1.2-1.5-1.2-2.7s.4-2.2,1.2-2.8c.8-.6,2-1,3.4-1h3.3v1.8h-2.7c-1.1,0-1.9.2-2.3.5-.4.3-.7.8-.7,1.4s.2,1,.6,1.3c.4.3,1,.5,1.8.5s1.2-.1,1.7-.4c.5-.3.9-.7,1.1-1.2.3-.5.4-1.1.4-1.8h.8c0,1.6-.3,2.9-1,3.9-.7,1-1.8,1.4-3.2,1.4ZM297.8,170.8v-2.1c0,0,0-4.2,0-4.2,0-.9-.1-1.6-.3-2.2-.2-.6-.5-1-.9-1.3-.4-.3-.9-.5-1.6-.5s-1.2.1-1.6.4-.8.7-1.1,1.2l-2-.8c.3-.5.6-1,1.1-1.5.4-.4,1-.8,1.6-1,.6-.2,1.3-.4,2.1-.4s2.1.2,2.8.7c.8.4,1.3,1.1,1.7,1.9s.6,1.9.5,3.1v6.5h-2.1ZM296.9,157.4c-.5,0-.9,0-1.2-.3-.3-.2-.5-.4-.7-.6-.2-.2-.3-.4-.5-.6s-.4-.3-.6-.3-.4,0-.6.2c-.1.1-.2.4-.3.7h-1.7c0-.5.2-.9.4-1.3.2-.4.5-.7.9-.9.4-.2.8-.3,1.3-.3s.8,0,1.1.3c.3.2.5.4.7.6s.4.4.5.6c.2.2.4.3.6.3s.5,0,.6-.3c.1-.2.2-.4.3-.7h1.7c0,.7-.4,1.3-.8,1.8-.4.5-1,.8-1.8.8Z"/>
      <path class="st1" d="M308.2,171.1c-1.2,0-2.3-.3-3.2-.8-.9-.5-1.6-1.3-2.1-2.2-.5-.9-.8-2-.8-3.3s.3-2.3.8-3.3,1.2-1.7,2.1-2.2c.9-.5,2-.8,3.1-.8s2.2.3,3.1.8c.9.5,1.6,1.3,2.1,2.2.5.9.8,2,.8,3.3s-.3,2.3-.8,3.3c-.5.9-1.2,1.7-2.1,2.2-.9.5-1.9.8-3.1.8ZM308.2,169c.7,0,1.4-.2,1.9-.5.6-.4,1-.9,1.3-1.5.3-.6.5-1.4.5-2.2s-.2-1.6-.5-2.2c-.3-.6-.8-1.1-1.3-1.5-.6-.4-1.2-.5-1.9-.5s-1.4.2-1.9.5c-.6.4-1,.9-1.3,1.5-.3.6-.5,1.4-.5,2.2s.2,1.6.5,2.2c.3.6.8,1.1,1.3,1.5.6.4,1.2.5,2,.5Z"/>
    </g>
    <g class="st0">
      <path class="st1" d="M74.4,188.8v-2h7.7v2h-7.7ZM80.2,199.1c-1.2,0-2.1-.3-2.8-.9-.7-.6-1-1.5-1-2.7v-12.5h2.3v12.1c0,.6.1,1,.4,1.4.3.3.7.5,1.3.5s.3,0,.5,0c.2,0,.4-.2.7-.4l.9,1.8c-.4.3-.8.5-1.2.6s-.8.2-1.1.2Z"/>
    </g>
    <g class="st0">
      <path class="st1" d="M90,199.1c-1.2,0-2.2-.3-3.1-.8-.9-.5-1.6-1.3-2.1-2.2-.5-.9-.8-2-.8-3.3s.3-2.3.8-3.3c.5-.9,1.2-1.7,2.1-2.2.9-.5,1.9-.8,3.1-.8s2.1.3,2.9.8,1.5,1.3,2,2.4c.5,1,.7,2.2.7,3.6h-9.7l.4-.4c0,.8.2,1.6.5,2.2.3.6.8,1.1,1.4,1.4.6.3,1.2.5,2,.5s1.5-.2,2-.6c.5-.4,1-.9,1.3-1.4l2,.9c-.3.6-.7,1.2-1.2,1.6-.5.5-1.1.8-1.8,1.1s-1.5.4-2.3.4ZM86.5,191.9l-.5-.4h7.6l-.4.4c0-.7-.1-1.3-.4-1.8-.3-.5-.7-.9-1.2-1.2-.5-.3-1-.4-1.6-.4s-1.1.1-1.7.4c-.5.3-1,.6-1.3,1.1-.3.5-.5,1.1-.5,1.8ZM88.3,185.2l2.8-3.2h2.8l-3.1,3.2h-2.5Z"/>
      <path class="st1" d="M103.4,199.1c-1.2,0-2.3-.3-3.2-.8-.9-.5-1.7-1.3-2.2-2.2-.5-.9-.8-2-.8-3.3s.3-2.3.8-3.3,1.2-1.7,2.2-2.2c.9-.5,2-.8,3.2-.8s2.2.3,3.2.8,1.6,1.3,2.1,2.3l-2.1.9c-.3-.6-.7-1.1-1.3-1.4-.6-.3-1.2-.5-2-.5s-1.4.2-1.9.5c-.6.4-1,.8-1.3,1.5-.3.6-.5,1.4-.5,2.2s.2,1.5.5,2.2c.3.6.8,1.1,1.3,1.5.6.4,1.2.5,1.9.5s1.4-.2,2-.6c.6-.4,1-.9,1.3-1.5l2.1.8c-.5,1.1-1.2,1.9-2.1,2.5s-2,.9-3.2.9Z"/>
      <path class="st1" d="M110.9,198.8v-12h2.1v2.2c.1,0,.1,9.8.1,9.8h-2.3ZM119.2,192.7c0-1.1-.1-1.9-.4-2.5-.2-.6-.6-1-1-1.2-.4-.2-.9-.3-1.5-.4-1,0-1.7.3-2.3,1-.5.7-.8,1.7-.8,2.9h-1c0-1.3.2-2.3.6-3.3.4-.9.9-1.6,1.6-2.1.7-.5,1.5-.7,2.5-.7s1.8.2,2.5.6c.7.4,1.2,1,1.6,1.8s.6,1.9.6,3.2v.6h-2.3ZM119.2,198.8v-6.1h2.3v6.1h-2.3Z"/>
      <path class="st1" d="M125.7,184.3c-.4,0-.7-.1-1-.4s-.4-.6-.4-1,.1-.7.4-1c.3-.3.6-.4,1-.4s.7.1,1,.4c.3.3.4.6.4,1s-.1.7-.4,1-.6.4-1,.4ZM124.5,198.8v-12h2.3v12h-2.3Z"/>
      <path class="st1" d="M135.6,199.1c-1.2,0-2.3-.3-3.2-.8-.9-.5-1.7-1.3-2.2-2.2-.5-.9-.8-2-.8-3.3s.3-2.3.8-3.3,1.2-1.7,2.2-2.2c.9-.5,2-.8,3.2-.8s2.2.3,3.2.8,1.6,1.3,2.1,2.3l-2.1.9c-.3-.6-.7-1.1-1.3-1.4-.6-.3-1.2-.5-2-.5s-1.4.2-1.9.5c-.6.4-1,.8-1.3,1.5-.3.6-.5,1.4-.5,2.2s.2,1.5.5,2.2c.3.6.8,1.1,1.3,1.5.6.4,1.2.5,1.9.5s1.4-.2,2-.6c.6-.4,1-.9,1.3-1.5l2.1.8c-.5,1.1-1.2,1.9-2.1,2.5s-2,.9-3.2.9Z"/>
      <path class="st1" d="M147,199.1c-1.4,0-2.5-.3-3.3-1-.8-.6-1.2-1.5-1.2-2.7s.4-2.2,1.2-2.8c.8-.6,2-1,3.4-1h3.3v1.8h-2.7c-1.1,0-1.9.2-2.3.5-.4.3-.7.8-.7,1.4s.2,1,.6,1.3c.4.3,1,.5,1.8.5s1.2-.1,1.7-.4c.5-.3.9-.7,1.1-1.2.3-.5.4-1.1.4-1.8h.8c0,1.6-.3,2.9-1,3.9s-1.8,1.4-3.2,1.4ZM150.5,198.8v-2.1c0,0,0-4.2,0-4.2,0-.9-.1-1.6-.3-2.2-.2-.6-.5-1-.9-1.3-.4-.3-.9-.5-1.6-.5s-1.2.1-1.6.4c-.5.3-.8.7-1.1,1.2l-2-.8c.3-.5.6-1,1.1-1.5.4-.4,1-.8,1.6-1,.6-.2,1.3-.4,2.1-.4s2.1.2,2.8.7c.8.4,1.3,1.1,1.7,1.9s.6,1.9.5,3.1v6.5h-2.1Z"/>
      <path class="st1" d="M154.8,201.6l1.4-5.2h2.5l-2,5.2h-1.8Z"/>
    </g>
    <g class="st0">
      <path class="st1" d="M165.8,188.8v-2h7.7v2h-7.7ZM171.7,199.1c-1.2,0-2.1-.3-2.8-.9-.7-.6-1-1.5-1-2.7v-12.5h2.3v12.1c0,.6.1,1,.4,1.4.3.3.7.5,1.3.5s.3,0,.5,0c.2,0,.4-.2.7-.4l.9,1.8c-.4.3-.8.5-1.2.6s-.8.2-1.1.2Z"/>
    </g>
    <g class="st0">
      <path class="st1" d="M180,199.1c-1.4,0-2.5-.3-3.3-1-.8-.6-1.2-1.5-1.2-2.7s.4-2.2,1.2-2.8c.8-.6,2-1,3.4-1h3.3v1.8h-2.7c-1.1,0-1.9.2-2.3.5-.4.3-.7.8-.7,1.4s.2,1,.6,1.3c.4.3,1,.5,1.8.5s1.2-.1,1.7-.4c.5-.3.9-.7,1.1-1.2.3-.5.4-1.1.4-1.8h.8c0,1.6-.3,2.9-1,3.9-.7,1-1.8,1.4-3.2,1.4ZM183.5,198.8v-2.1c0,0,0-4.2,0-4.2,0-.9-.1-1.6-.3-2.2-.2-.6-.5-1-.9-1.3-.4-.3-.9-.5-1.6-.5s-1.2.1-1.6.4-.8.7-1.1,1.2l-2-.8c.3-.5.6-1,1.1-1.5.4-.4,1-.8,1.6-1,.6-.2,1.3-.4,2.1-.4s2.1.2,2.8.7c.8.4,1.3,1.1,1.7,1.9s.6,1.9.5,3.1v6.5h-2.1Z"/>
      <path class="st1" d="M189.8,184.3c-.4,0-.7-.1-1-.4-.3-.3-.4-.6-.4-1s.1-.7.4-1c.3-.3.6-.4,1-.4s.7.1,1,.4c.3.3.4.6.4,1s-.1.7-.4,1c-.3.3-.6.4-1,.4ZM188.7,198.8v-12h2.3v12h-2.3Z"/>
      <path class="st1" d="M198.6,199.1c-.8,0-1.6-.1-2.3-.4s-1.2-.6-1.7-1-.8-.9-1-1.5l2-.9c.3.5.6.9,1.2,1.2.5.3,1.1.5,1.7.5s1.3-.1,1.7-.4c.4-.3.7-.6.7-1.1s-.2-.8-.5-1.1c-.3-.3-.8-.5-1.5-.6l-1.1-.3c-1.1-.3-2-.8-2.6-1.4s-.9-1.3-.9-2.1c0-1.2.4-2.1,1.1-2.7.8-.6,1.9-1,3.3-1s1.4.1,2,.3c.6.2,1.1.5,1.5.9s.7.8.9,1.4l-1.9.9c-.2-.5-.5-.8-1-1.1-.5-.2-1-.3-1.6-.3s-1.1.1-1.5.4c-.4.3-.6.7-.6,1.2s.2.5.5.8c.3.2.8.5,1.4.6l1.3.3c.8.2,1.4.5,1.9.9.5.4.9.8,1.2,1.3.3.5.4,1,.4,1.5s-.2,1.3-.6,1.9c-.4.5-.9.9-1.6,1.2-.7.3-1.5.4-2.3.4Z"/>
      <path class="st1" d="M216.8,199.1c-1.2,0-2.3-.3-3.2-.8-.9-.5-1.7-1.3-2.2-2.2-.5-.9-.8-2-.8-3.3s.3-2.3.8-3.3c.5-.9,1.2-1.7,2.2-2.2.9-.5,2-.8,3.2-.8s2.2.3,3.2.8c.9.5,1.6,1.3,2.1,2.3l-2.1.9c-.3-.6-.7-1.1-1.3-1.4s-1.2-.5-2-.5-1.4.2-1.9.5c-.6.4-1,.8-1.3,1.5-.3.6-.5,1.4-.5,2.2s.2,1.5.5,2.2c.3.6.8,1.1,1.3,1.5.6.4,1.2.5,1.9.5s1.4-.2,2-.6c.6-.4,1-.9,1.3-1.5l2.1.8c-.5,1.1-1.2,1.9-2.1,2.5-.9.6-2,.9-3.2.9Z"/>
      <path class="st1" d="M229.8,199.1c-1.2,0-2.3-.3-3.2-.8-.9-.5-1.6-1.3-2.1-2.2-.5-.9-.8-2-.8-3.3s.3-2.3.8-3.3,1.2-1.7,2.1-2.2c.9-.5,2-.8,3.1-.8s2.2.3,3.1.8c.9.5,1.6,1.3,2.1,2.2.5.9.8,2,.8,3.3s-.3,2.3-.8,3.3c-.5.9-1.2,1.7-2.1,2.2-.9.5-1.9.8-3.1.8ZM229.8,197c.7,0,1.4-.2,1.9-.5.6-.4,1-.9,1.3-1.5.3-.6.5-1.4.5-2.2s-.2-1.6-.5-2.2c-.3-.6-.8-1.1-1.3-1.5-.6-.4-1.2-.5-1.9-.5s-1.4.2-1.9.5c-.6.4-1,.9-1.3,1.5-.3.6-.5,1.4-.5,2.2s.2,1.6.5,2.2c.3.6.8,1.1,1.3,1.5.6.4,1.2.5,2,.5Z"/>
      <path class="st1" d="M238.3,198.8v-12h2.1v1.7c.5-.6,1-1.1,1.5-1.5.6-.3,1.2-.5,2-.5s1.8.2,2.4.7,1.2,1.1,1.5,2c.4-.9.8-1.5,1.5-2,.6-.5,1.4-.7,2.3-.7,1.4,0,2.4.4,3.2,1.3.8.9,1.1,2.3,1.1,4.1v6.9h-2.3v-6.1c0-1.1-.1-1.9-.3-2.5-.2-.6-.5-1-.9-1.2-.4-.2-.8-.3-1.3-.4-.9,0-1.6.3-2.1,1-.5.7-.7,1.7-.7,2.9v6.2h-2.3v-6.1c0-1.1-.1-1.9-.3-2.5-.2-.6-.5-1-.9-1.2-.4-.2-.8-.3-1.4-.4-.9,0-1.6.3-2.1,1-.5.7-.7,1.7-.7,2.9v6.2h-2.3Z"/>
      <path class="st1" d="M264.2,199.1c-1.2,0-2.3-.3-3.2-.8-.9-.5-1.6-1.3-2.1-2.2-.5-.9-.8-2-.8-3.3s.3-2.3.8-3.3,1.2-1.7,2.1-2.2c.9-.5,2-.8,3.1-.8s2.2.3,3.1.8c.9.5,1.6,1.3,2.1,2.2.5.9.8,2,.8,3.3s-.3,2.3-.8,3.3c-.5.9-1.2,1.7-2.1,2.2-.9.5-1.9.8-3.1.8ZM264.2,197c.7,0,1.4-.2,1.9-.5.6-.4,1-.9,1.3-1.5.3-.6.5-1.4.5-2.2s-.2-1.6-.5-2.2c-.3-.6-.8-1.1-1.3-1.5-.6-.4-1.2-.5-1.9-.5s-1.4.2-1.9.5c-.6.4-1,.9-1.3,1.5-.3.6-.5,1.4-.5,2.2s.2,1.6.5,2.2c.3.6.8,1.1,1.3,1.5.6.4,1.2.5,2,.5Z"/>
      <path class="st1" d="M274.3,189.8c-.4,0-.7-.1-1-.4-.3-.3-.4-.6-.4-1.1s.1-.8.4-1.1c.3-.3.6-.4,1-.4s.8.1,1.1.4.4.6.4,1.1-.1.8-.4,1.1c-.3.3-.7.4-1.1.4ZM274.4,198.9c-.4,0-.8-.1-1.1-.4-.3-.3-.4-.7-.4-1.1s.1-.7.4-1,.7-.4,1.1-.4.7.1,1,.4.4.6.4,1-.1.8-.4,1.1c-.3.3-.6.4-1,.4Z"/>
    </g>
    <g class="st0">
      <path class="st1" d="M43.8,216.8v-2h7.7v2h-7.7ZM49.6,227.1c-1.2,0-2.1-.3-2.8-.9-.7-.6-1-1.5-1-2.7v-12.5h2.3v12.1c0,.6.1,1,.4,1.4.3.3.7.5,1.3.5s.3,0,.5,0c.2,0,.4-.2.7-.4l.9,1.8c-.4.3-.8.5-1.2.6s-.8.2-1.1.2Z"/>
      <path class="st1" d="M54.2,226.8v-12h2.3v12h-2.3ZM55.6,220.4c0-1.3.2-2.4.7-3.2.5-.8,1.1-1.4,1.9-1.8.8-.4,1.6-.6,2.5-.6v2.2c-.7,0-1.4.1-2.1.3-.6.2-1.2.6-1.6,1.1-.4.5-.6,1.1-.6,2h-.9Z"/>
      <path class="st1" d="M67.9,227.1c-1.2,0-2.2-.3-3.1-.8-.9-.5-1.6-1.3-2.1-2.2-.5-.9-.8-2-.8-3.3s.3-2.3.8-3.3c.5-.9,1.2-1.7,2.1-2.2.9-.5,1.9-.8,3.1-.8s2.1.3,2.9.8,1.5,1.3,2,2.4c.5,1,.7,2.2.7,3.6h-9.7l.4-.4c0,.8.2,1.6.5,2.2.3.6.8,1.1,1.4,1.4.6.3,1.2.5,2,.5s1.5-.2,2-.6c.5-.4,1-.9,1.3-1.4l2,.9c-.3.6-.7,1.2-1.2,1.6-.5.5-1.1.8-1.8,1.1s-1.5.4-2.3.4ZM64.4,219.9l-.5-.4h7.6l-.4.4c0-.7-.1-1.3-.4-1.8-.3-.5-.7-.9-1.2-1.2-.5-.3-1-.4-1.6-.4s-1.1.1-1.7.4c-.5.3-1,.6-1.3,1.1-.3.5-.5,1.1-.5,1.8Z"/>
      <path class="st1" d="M77,212.3c-.4,0-.7-.1-1-.4s-.4-.6-.4-1,.1-.7.4-1c.3-.3.6-.4,1-.4s.7.1,1,.4c.3.3.4.6.4,1s-.1.7-.4,1-.6.4-1,.4ZM75.9,226.8v-12h2.3v12h-2.3Z"/>
      <path class="st1" d="M81.5,226.8v-12h2.1v2.2c.1,0,.1,9.8.1,9.8h-2.3ZM89.8,220.7c0-1.1-.1-1.9-.4-2.5-.2-.6-.6-1-1-1.2-.4-.2-.9-.3-1.5-.4-1,0-1.7.3-2.3,1-.5.7-.8,1.7-.8,2.9h-1c0-1.3.2-2.3.6-3.3.4-.9.9-1.6,1.6-2.1.7-.5,1.5-.7,2.5-.7s1.8.2,2.5.6c.7.4,1.2,1,1.6,1.8s.6,1.9.6,3.2v.6h-2.3ZM89.8,226.8v-6.1h2.3v6.1h-2.3Z"/>
      <path class="st1" d="M98.8,227.1c-1.4,0-2.5-.3-3.3-1-.8-.6-1.2-1.5-1.2-2.7s.4-2.2,1.2-2.8c.8-.6,2-1,3.4-1h3.3v1.8h-2.7c-1.1,0-1.9.2-2.3.5-.4.3-.7.8-.7,1.4s.2,1,.6,1.3c.4.3,1,.5,1.8.5s1.2-.1,1.7-.4c.5-.3.9-.7,1.1-1.2.3-.5.4-1.1.4-1.8h.8c0,1.6-.3,2.9-1,3.9s-1.8,1.4-3.2,1.4ZM102.3,226.8v-2.1c0,0,0-4.2,0-4.2,0-.9-.1-1.6-.3-2.2-.2-.6-.5-1-.9-1.3-.4-.3-.9-.5-1.6-.5s-1.2.1-1.6.4c-.5.3-.8.7-1.1,1.2l-2-.8c.3-.5.6-1,1.1-1.5.4-.4,1-.8,1.6-1,.6-.2,1.3-.4,2.1-.4s2.1.2,2.8.7c.8.4,1.3,1.1,1.7,1.9s.6,1.9.5,3.1v6.5h-2.1Z"/>
      <path class="st1" d="M107.3,226.8v-12h2.1v1.7c.5-.6,1-1.1,1.5-1.5.6-.3,1.2-.5,2-.5s1.8.2,2.4.7c.7.4,1.2,1.1,1.5,2,.4-.9.8-1.5,1.5-2,.6-.5,1.4-.7,2.3-.7,1.4,0,2.4.4,3.2,1.3s1.1,2.3,1.1,4.1v6.9h-2.3v-6.1c0-1.1-.1-1.9-.3-2.5-.2-.6-.5-1-.9-1.2-.4-.2-.8-.3-1.3-.4-.9,0-1.6.3-2.1,1-.5.7-.7,1.7-.7,2.9v6.2h-2.3v-6.1c0-1.1-.1-1.9-.3-2.5-.2-.6-.5-1-.9-1.2-.4-.2-.8-.3-1.4-.4-.9,0-1.6.3-2.1,1-.5.7-.7,1.7-.7,2.9v6.2h-2.3Z"/>
      <path class="st1" d="M133.2,227.1c-1.2,0-2.2-.3-3.1-.8-.9-.5-1.6-1.3-2.1-2.2-.5-.9-.8-2-.8-3.3s.3-2.3.8-3.3c.5-.9,1.2-1.7,2.1-2.2.9-.5,1.9-.8,3.1-.8s2.1.3,2.9.8,1.5,1.3,2,2.4c.5,1,.7,2.2.7,3.6h-9.7l.4-.4c0,.8.2,1.6.5,2.2.3.6.8,1.1,1.4,1.4.6.3,1.2.5,2,.5s1.5-.2,2-.6c.5-.4,1-.9,1.3-1.4l2,.9c-.3.6-.7,1.2-1.2,1.6-.5.5-1.1.8-1.8,1.1s-1.5.4-2.3.4ZM129.7,219.9l-.5-.4h7.6l-.4.4c0-.7-.1-1.3-.4-1.8-.3-.5-.7-.9-1.2-1.2-.5-.3-1-.4-1.6-.4s-1.1.1-1.7.4c-.5.3-1,.6-1.3,1.1-.3.5-.5,1.1-.5,1.8Z"/>
      <path class="st1" d="M141.1,226.8v-12h2.1v2.2c.1,0,.1,9.8.1,9.8h-2.3ZM149.4,220.7c0-1.1-.1-1.9-.4-2.5-.2-.6-.6-1-1-1.2-.4-.2-.9-.3-1.5-.4-1,0-1.7.3-2.3,1-.5.7-.8,1.7-.8,2.9h-1c0-1.3.2-2.3.6-3.3.4-.9.9-1.6,1.6-2.1.7-.5,1.5-.7,2.5-.7s1.8.2,2.5.6c.7.4,1.2,1,1.6,1.8s.6,1.9.6,3.2v.6h-2.3ZM149.4,226.8v-6.1h2.3v6.1h-2.3Z"/>
    </g>
    <g class="st0">
      <path class="st1" d="M153.3,216.8v-2h7.7v2h-7.7ZM159.2,227.1c-1.2,0-2.1-.3-2.8-.9-.7-.6-1-1.5-1-2.7v-12.5h2.3v12.1c0,.6.1,1,.4,1.4.3.3.7.5,1.3.5s.3,0,.5,0c.2,0,.4-.2.7-.4l.9,1.8c-.4.3-.8.5-1.2.6s-.8.2-1.1.2Z"/>
    </g>
    <g class="st0">
      <path class="st1" d="M169.1,227.1c-1.2,0-2.3-.3-3.2-.8-.9-.5-1.6-1.3-2.1-2.2-.5-.9-.8-2-.8-3.3s.3-2.3.8-3.3c.5-.9,1.2-1.7,2.1-2.2.9-.5,2-.8,3.1-.8s2.2.3,3.1.8c.9.5,1.6,1.3,2.1,2.2.5.9.8,2,.8,3.3s-.3,2.3-.8,3.3c-.5.9-1.2,1.7-2.1,2.2-.9.5-1.9.8-3.1.8ZM169.1,225c.7,0,1.4-.2,1.9-.5.6-.4,1-.9,1.3-1.5s.5-1.4.5-2.2-.2-1.6-.5-2.2-.8-1.1-1.3-1.5c-.6-.4-1.2-.5-1.9-.5s-1.4.2-1.9.5c-.6.4-1,.9-1.3,1.5-.3.6-.5,1.4-.5,2.2s.2,1.6.5,2.2c.3.6.8,1.1,1.3,1.5.6.4,1.2.5,2,.5Z"/>
      <path class="st1" d="M176.9,229.6l1.4-5.2h2.5l-2,5.2h-1.8Z"/>
      <path class="st1" d="M189.1,226.8v-12h2.3v12h-2.3ZM190.5,220.4c0-1.3.2-2.4.7-3.2.5-.8,1.1-1.4,1.9-1.8.8-.4,1.6-.6,2.5-.6v2.2c-.7,0-1.4.1-2.1.3-.6.2-1.2.6-1.6,1.1-.4.5-.6,1.1-.6,2h-.9Z"/>
      <path class="st1" d="M202.7,227.1c-1.2,0-2.2-.3-3.1-.8-.9-.5-1.6-1.3-2.1-2.2-.5-.9-.8-2-.8-3.3s.3-2.3.8-3.3c.5-.9,1.2-1.7,2.1-2.2.9-.5,1.9-.8,3.1-.8s2.1.3,2.9.8,1.5,1.3,2,2.4c.5,1,.7,2.2.7,3.6h-9.7l.4-.4c0,.8.2,1.6.5,2.2.3.6.8,1.1,1.4,1.4.6.3,1.2.5,2,.5s1.5-.2,2-.6c.5-.4,1-.9,1.3-1.4l2,.9c-.3.6-.7,1.2-1.2,1.6-.5.5-1.1.8-1.8,1.1-.7.3-1.5.4-2.3.4ZM199.2,219.9l-.5-.4h7.6l-.4.4c0-.7-.1-1.3-.4-1.8-.3-.5-.7-.9-1.2-1.2-.5-.3-1-.4-1.6-.4s-1.1.1-1.7.4c-.5.3-1,.6-1.3,1.1-.3.5-.5,1.1-.5,1.8Z"/>
      <path class="st1" d="M210.6,226.8v-16.8h2.3v16.8h-2.3Z"/>
      <path class="st1" d="M219.9,227.1c-1.4,0-2.5-.3-3.3-1-.8-.6-1.2-1.5-1.2-2.7s.4-2.2,1.2-2.8c.8-.6,2-1,3.4-1h3.3v1.8h-2.7c-1.1,0-1.9.2-2.3.5-.4.3-.7.8-.7,1.4s.2,1,.6,1.3c.4.3,1,.5,1.8.5s1.2-.1,1.7-.4c.5-.3.9-.7,1.1-1.2.3-.5.4-1.1.4-1.8h.8c0,1.6-.3,2.9-1,3.9-.7,1-1.8,1.4-3.2,1.4ZM223.4,226.8v-2.1c0,0,0-4.2,0-4.2,0-.9-.1-1.6-.3-2.2-.2-.6-.5-1-.9-1.3-.4-.3-.9-.5-1.6-.5s-1.2.1-1.6.4-.8.7-1.1,1.2l-2-.8c.3-.5.6-1,1.1-1.5.4-.4,1-.8,1.6-1,.6-.2,1.3-.4,2.1-.4s2.1.2,2.8.7c.8.4,1.3,1.1,1.7,1.9s.6,1.9.5,3.1v6.5h-2.1Z"/>
    </g>
    <g class="st0">
      <path class="st1" d="M227.2,216.8v-2h7.7v2h-7.7ZM233.1,227.1c-1.2,0-2.1-.3-2.8-.9-.7-.6-1-1.5-1-2.7v-12.5h2.3v12.1c0,.6.1,1,.4,1.4.3.3.7.5,1.3.5s.3,0,.5,0c.2,0,.4-.2.7-.4l.9,1.8c-.4.3-.8.5-1.2.6s-.8.2-1.1.2Z"/>
    </g>
    <g class="st0">
      <path class="st1" d="M243,227.1c-1.2,0-2.3-.3-3.2-.8-.9-.5-1.6-1.3-2.1-2.2-.5-.9-.8-2-.8-3.3s.3-2.3.8-3.3c.5-.9,1.2-1.7,2.1-2.2.9-.5,2-.8,3.1-.8s2.2.3,3.1.8c.9.5,1.6,1.3,2.1,2.2.5.9.8,2,.8,3.3s-.3,2.3-.8,3.3c-.5.9-1.2,1.7-2.1,2.2-.9.5-1.9.8-3.1.8ZM243,225c.7,0,1.4-.2,1.9-.5.6-.4,1-.9,1.3-1.5.3-.6.5-1.4.5-2.2s-.2-1.6-.5-2.2c-.3-.6-.8-1.1-1.3-1.5-.6-.4-1.2-.5-1.9-.5s-1.4.2-1.9.5c-.6.4-1,.9-1.3,1.5s-.5,1.4-.5,2.2.2,1.6.5,2.2.8,1.1,1.3,1.5c.6.4,1.2.5,2,.5ZM241.1,213.2l2.8-3.2h2.8l-3.1,3.2h-2.5Z"/>
      <path class="st1" d="M251.5,226.8v-12h2.3v12h-2.3ZM252.9,220.4c0-1.3.2-2.4.7-3.2s1.1-1.4,1.9-1.8c.8-.4,1.6-.6,2.5-.6v2.2c-.7,0-1.4.1-2.1.3-.6.2-1.2.6-1.6,1.1s-.6,1.1-.6,2h-.9Z"/>
      <path class="st1" d="M261.1,212.3c-.4,0-.7-.1-1-.4s-.4-.6-.4-1,.1-.7.4-1c.3-.3.6-.4,1-.4s.7.1,1,.4.4.6.4,1-.1.7-.4,1c-.3.3-.6.4-1,.4ZM260,226.8v-12h2.3v12h-2.3Z"/>
      <path class="st1" d="M271,227.1c-1.2,0-2.3-.3-3.2-.8-.9-.5-1.6-1.3-2.1-2.2-.5-.9-.8-2-.8-3.3s.3-2.3.8-3.3,1.2-1.7,2.1-2.2c.9-.5,2-.8,3.1-.8s2.2.3,3.1.8c.9.5,1.6,1.3,2.1,2.2.5.9.8,2,.8,3.3s-.3,2.3-.8,3.3c-.5.9-1.2,1.7-2.1,2.2-.9.5-1.9.8-3.1.8ZM271,225c.7,0,1.4-.2,1.9-.5.6-.4,1-.9,1.3-1.5.3-.6.5-1.4.5-2.2s-.2-1.6-.5-2.2c-.3-.6-.8-1.1-1.3-1.5-.6-.4-1.2-.5-1.9-.5s-1.4.2-1.9.5c-.6.4-1,.9-1.3,1.5-.3.6-.5,1.4-.5,2.2s.2,1.6.5,2.2c.3.6.8,1.1,1.3,1.5.6.4,1.2.5,2,.5Z"/>
      <path class="st1" d="M283.8,227.1c-.8,0-1.6-.1-2.3-.4s-1.2-.6-1.7-1-.8-.9-1-1.5l2-.9c.3.5.6.9,1.2,1.2.5.3,1.1.5,1.7.5s1.3-.1,1.7-.4c.4-.3.7-.6.7-1.1s-.2-.8-.5-1.1c-.3-.3-.8-.5-1.5-.6l-1.1-.3c-1.1-.3-2-.8-2.6-1.4-.6-.6-.9-1.3-.9-2.1,0-1.2.4-2.1,1.1-2.7.8-.6,1.9-1,3.3-1s1.4.1,2,.3,1.1.5,1.5.9.7.8.9,1.4l-1.9.9c-.2-.5-.5-.8-1-1.1-.5-.2-1-.3-1.6-.3s-1.1.1-1.5.4c-.4.3-.6.7-.6,1.2s.2.5.5.8.8.5,1.4.6l1.3.3c.8.2,1.4.5,1.9.9.5.4.9.8,1.2,1.3.3.5.4,1,.4,1.5s-.2,1.3-.6,1.9c-.4.5-.9.9-1.6,1.2-.7.3-1.5.4-2.3.4Z"/>
      <path class="st1" d="M301.9,227.1c-1.2,0-2.2-.3-3.1-.8-.9-.5-1.6-1.3-2.1-2.2-.5-.9-.8-2-.8-3.3s.3-2.3.8-3.3,1.2-1.7,2.1-2.2c.9-.5,1.9-.8,3.1-.8s2.1.3,2.9.8,1.5,1.3,2,2.4c.5,1,.7,2.2.7,3.6h-9.7l.4-.4c0,.8.2,1.6.5,2.2.3.6.8,1.1,1.4,1.4.6.3,1.2.5,2,.5s1.5-.2,2-.6c.5-.4,1-.9,1.3-1.4l2,.9c-.3.6-.7,1.2-1.2,1.6-.5.5-1.1.8-1.8,1.1-.7.3-1.5.4-2.3.4ZM298.3,219.9l-.5-.4h7.6l-.4.4c0-.7-.1-1.3-.4-1.8-.3-.5-.7-.9-1.2-1.2-.5-.3-1-.4-1.6-.4s-1.1.1-1.7.4c-.5.3-1,.6-1.3,1.1-.3.5-.5,1.1-.5,1.8Z"/>
    </g>
    <g class="st0">
      <path class="st1" d="M74.2,255.1c-1.6,0-3-.4-4.3-1.1s-2.2-1.8-2.9-3.1c-.7-1.3-1.1-2.8-1.1-4.5s.4-3.2,1.1-4.5c.7-1.3,1.7-2.3,2.9-3.1,1.2-.7,2.6-1.1,4.2-1.1s2,.2,3,.6c.9.4,1.8.9,2.5,1.6s1.3,1.4,1.7,2.3l-2.1,1c-.3-.7-.7-1.2-1.2-1.7-.5-.5-1.1-.9-1.8-1.1-.7-.3-1.4-.4-2.1-.4-1.1,0-2.1.3-3,.8-.9.6-1.6,1.3-2.1,2.3-.5,1-.7,2.1-.7,3.4s.3,2.4.8,3.4c.5,1,1.2,1.8,2.1,2.3.9.6,1.9.8,3,.8s1.4-.1,2.1-.4c.7-.3,1.2-.7,1.8-1.2.5-.5.9-1.1,1.3-1.8l2.1.9c-.4.9-1,1.7-1.7,2.4-.7.7-1.6,1.3-2.5,1.6s-2,.6-3,.6Z"/>
      <path class="st1" d="M89.2,255.1c-1.2,0-2.3-.3-3.2-.8-.9-.5-1.6-1.3-2.1-2.2-.5-.9-.8-2-.8-3.3s.3-2.3.8-3.3c.5-.9,1.2-1.7,2.1-2.2.9-.5,2-.8,3.1-.8s2.2.3,3.1.8c.9.5,1.6,1.3,2.1,2.2.5.9.8,2,.8,3.3s-.3,2.3-.8,3.3c-.5.9-1.2,1.7-2.1,2.2-.9.5-1.9.8-3.1.8ZM89.2,253c.7,0,1.4-.2,1.9-.5.6-.4,1-.9,1.3-1.5s.5-1.4.5-2.2-.2-1.6-.5-2.2-.8-1.1-1.3-1.5c-.6-.4-1.2-.5-1.9-.5s-1.4.2-1.9.5c-.6.4-1,.9-1.3,1.5-.3.6-.5,1.4-.5,2.2s.2,1.6.5,2.2c.3.6.8,1.1,1.3,1.5.6.4,1.2.5,2,.5Z"/>
      <path class="st1" d="M97.7,254.8v-12h2.1v1.7c.5-.6,1-1.1,1.5-1.5.6-.3,1.2-.5,2-.5s1.8.2,2.4.7c.7.4,1.2,1.1,1.5,2,.4-.9.8-1.5,1.5-2,.6-.5,1.4-.7,2.3-.7,1.4,0,2.4.4,3.2,1.3s1.1,2.3,1.1,4.1v6.9h-2.3v-6.1c0-1.1-.1-1.9-.3-2.5-.2-.6-.5-1-.9-1.2-.4-.2-.8-.3-1.3-.4-.9,0-1.6.3-2.1,1-.5.7-.7,1.7-.7,2.9v6.2h-2.3v-6.1c0-1.1-.1-1.9-.3-2.5-.2-.6-.5-1-.9-1.2-.4-.2-.8-.3-1.4-.4-.9,0-1.6.3-2.1,1-.5.7-.7,1.7-.7,2.9v6.2h-2.3Z"/>
      <path class="st1" d="M119.6,240.3c-.4,0-.7-.1-1-.4s-.4-.6-.4-1,.1-.7.4-1c.3-.3.6-.4,1-.4s.7.1,1,.4c.3.3.4.6.4,1s-.1.7-.4,1-.6.4-1,.4ZM118.4,254.8v-12h2.3v12h-2.3Z"/>
    </g>
    <g class="st0">
      <path class="st1" d="M128.4,255.1c-.8,0-1.6-.1-2.3-.4s-1.2-.6-1.7-1-.8-.9-1-1.5l2-.9c.3.5.6.9,1.2,1.2.5.3,1.1.5,1.7.5s1.3-.1,1.7-.4c.4-.3.7-.6.7-1.1s-.2-.8-.5-1.1c-.3-.3-.8-.5-1.5-.6l-1.1-.3c-1.1-.3-2-.8-2.6-1.4-.6-.6-.9-1.3-.9-2.1,0-1.2.4-2.1,1.1-2.7.8-.6,1.9-1,3.3-1s1.4.1,2,.3,1.1.5,1.5.9.7.8.9,1.4l-1.9.9c-.2-.5-.5-.8-1-1.1-.5-.2-1-.3-1.6-.3s-1.1.1-1.5.4c-.4.3-.6.7-.6,1.2s.2.5.5.8.8.5,1.4.6l1.3.3c.8.2,1.4.5,1.9.9.5.4.9.8,1.2,1.3.3.5.4,1,.4,1.5s-.2,1.3-.6,1.9c-.4.5-.9.9-1.6,1.2-.7.3-1.5.4-2.3.4Z"/>
    </g>
    <g class="st0">
      <path class="st1" d="M139.5,255.1c-.8,0-1.6-.1-2.3-.4s-1.2-.6-1.7-1-.8-.9-1-1.5l2-.9c.3.5.6.9,1.2,1.2.5.3,1.1.5,1.7.5s1.3-.1,1.7-.4c.4-.3.7-.6.7-1.1s-.2-.8-.5-1.1c-.3-.3-.8-.5-1.5-.6l-1.1-.3c-1.1-.3-2-.8-2.6-1.4-.6-.6-.9-1.3-.9-2.1,0-1.2.4-2.1,1.1-2.7.8-.6,1.9-1,3.3-1s1.4.1,2,.3,1.1.5,1.5.9.7.8.9,1.4l-1.9.9c-.2-.5-.5-.8-1-1.1-.5-.2-1-.3-1.6-.3s-1.1.1-1.5.4c-.4.3-.6.7-.6,1.2s.2.5.5.8.8.5,1.4.6l1.3.3c.8.2,1.4.5,1.9.9.5.4.9.8,1.2,1.3.3.5.4,1,.4,1.5s-.2,1.3-.6,1.9c-.4.5-.9.9-1.6,1.2-.7.3-1.5.4-2.3.4Z"/>
      <path class="st1" d="M150.2,255.1c-1.4,0-2.5-.3-3.3-1-.8-.6-1.2-1.5-1.2-2.7s.4-2.2,1.2-2.8c.8-.6,2-1,3.4-1h3.3v1.8h-2.7c-1.1,0-1.9.2-2.3.5-.4.3-.7.8-.7,1.4s.2,1,.6,1.3c.4.3,1,.5,1.8.5s1.2-.1,1.7-.4c.5-.3.9-.7,1.1-1.2.3-.5.4-1.1.4-1.8h.8c0,1.6-.3,2.9-1,3.9s-1.8,1.4-3.2,1.4ZM153.8,254.8v-2.1c0,0,0-4.2,0-4.2,0-.9-.1-1.6-.3-2.2-.2-.6-.5-1-.9-1.3-.4-.3-.9-.5-1.6-.5s-1.2.1-1.6.4c-.5.3-.8.7-1.1,1.2l-2-.8c.3-.5.6-1,1.1-1.5.4-.4,1-.8,1.6-1,.6-.2,1.3-.4,2.1-.4s2.1.2,2.8.7c.8.4,1.3,1.1,1.7,1.9s.6,1.9.5,3.1v6.5h-2.1ZM152.8,241.4c-.5,0-.9,0-1.2-.3-.3-.2-.5-.4-.7-.6-.2-.2-.3-.4-.5-.6-.2-.2-.4-.3-.6-.3s-.4,0-.6.2c-.1.1-.2.4-.3.7h-1.7c0-.5.2-.9.4-1.3.2-.4.5-.7.9-.9.4-.2.8-.3,1.3-.3s.8,0,1.1.3c.3.2.5.4.7.6.2.2.4.4.5.6.2.2.4.3.6.3s.5,0,.6-.3c.1-.2.2-.4.3-.7h1.7c0,.7-.4,1.3-.8,1.8-.4.5-1,.8-1.8.8Z"/>
      <path class="st1" d="M164.2,255.1c-1.2,0-2.3-.3-3.2-.8-.9-.5-1.6-1.3-2.1-2.2-.5-.9-.8-2-.8-3.3s.3-2.3.8-3.3c.5-.9,1.2-1.7,2.1-2.2.9-.5,2-.8,3.1-.8s2.2.3,3.1.8c.9.5,1.6,1.3,2.1,2.2.5.9.8,2,.8,3.3s-.3,2.3-.8,3.3c-.5.9-1.2,1.7-2.1,2.2-.9.5-1.9.8-3.1.8ZM164.2,253c.7,0,1.4-.2,1.9-.5.6-.4,1-.9,1.3-1.5s.5-1.4.5-2.2-.2-1.6-.5-2.2-.8-1.1-1.3-1.5c-.6-.4-1.2-.5-1.9-.5s-1.4.2-1.9.5c-.6.4-1,.9-1.3,1.5-.3.6-.5,1.4-.5,2.2s.2,1.6.5,2.2c.3.6.8,1.1,1.3,1.5.6.4,1.2.5,2,.5Z"/>
      <path class="st1" d="M179.1,254.8v-16.8h2.4v16.8h-2.4Z"/>
      <path class="st1" d="M185.1,254.8v-12h2.1v2.2c.1,0,.1,9.8.1,9.8h-2.3ZM193.4,248.7c0-1.1-.1-1.9-.4-2.5-.2-.6-.6-1-1-1.2-.4-.2-.9-.3-1.5-.4-1,0-1.7.3-2.3,1-.5.7-.8,1.7-.8,2.9h-1c0-1.3.2-2.3.6-3.3.4-.9.9-1.6,1.6-2.1.7-.5,1.5-.7,2.5-.7s1.8.2,2.5.6c.7.4,1.2,1,1.6,1.8s.6,1.9.6,3.2v.6h-2.3ZM193.4,254.8v-6.1h2.3v6.1h-2.3Z"/>
    </g>
    <g class="st0">
      <path class="st1" d="M197.4,244.8v-2h7.7v2h-7.7ZM203.2,255.1c-1.2,0-2.1-.3-2.8-.9-.7-.6-1-1.5-1-2.7v-12.5h2.3v12.1c0,.6.1,1,.4,1.4.3.3.7.5,1.3.5s.3,0,.5,0c.2,0,.4-.2.7-.4l.9,1.8c-.4.3-.8.5-1.2.6s-.8.2-1.1.2Z"/>
    </g>
    <g class="st0">
      <path class="st1" d="M213,255.1c-1.2,0-2.2-.3-3.1-.8-.9-.5-1.6-1.3-2.1-2.2-.5-.9-.8-2-.8-3.3s.3-2.3.8-3.3c.5-.9,1.2-1.7,2.1-2.2.9-.5,1.9-.8,3.1-.8s2.1.3,2.9.8,1.5,1.3,2,2.4c.5,1,.7,2.2.7,3.6h-9.7l.4-.4c0,.8.2,1.6.5,2.2.3.6.8,1.1,1.4,1.4.6.3,1.2.5,2,.5s1.5-.2,2-.6c.5-.4,1-.9,1.3-1.4l2,.9c-.3.6-.7,1.2-1.2,1.6-.5.5-1.1.8-1.8,1.1-.7.3-1.5.4-2.3.4ZM209.5,247.9l-.5-.4h7.6l-.4.4c0-.7-.1-1.3-.4-1.8-.3-.5-.7-.9-1.2-1.2-.5-.3-1-.4-1.6-.4s-1.1.1-1.7.4c-.5.3-1,.6-1.3,1.1-.3.5-.5,1.1-.5,1.8Z"/>
      <path class="st1" d="M220.9,254.8v-12h2.3v12h-2.3ZM222.3,248.4c0-1.3.2-2.4.7-3.2s1.1-1.4,1.9-1.8c.8-.4,1.6-.6,2.5-.6v2.2c-.7,0-1.4.1-2.1.3-.6.2-1.2.6-1.6,1.1s-.6,1.1-.6,2h-.9Z"/>
      <path class="st1" d="M229.3,254.8v-12h2.1v2.2c.1,0,.1,9.8.1,9.8h-2.3ZM237.6,248.7c0-1.1-.1-1.9-.4-2.5-.2-.6-.6-1-1-1.2-.4-.2-.9-.3-1.5-.4-1,0-1.7.3-2.3,1-.5.7-.8,1.7-.8,2.9h-1c0-1.3.2-2.3.6-3.3.4-.9.9-1.6,1.6-2.1.7-.5,1.5-.7,2.5-.7s1.8.2,2.5.6c.7.4,1.2,1,1.6,1.8s.6,1.9.6,3.2v.6h-2.3ZM237.6,254.8v-6.1h2.3v6.1h-2.3Z"/>
      <path class="st1" d="M246.6,255.1c-1.4,0-2.5-.3-3.3-1-.8-.6-1.2-1.5-1.2-2.7s.4-2.2,1.2-2.8c.8-.6,2-1,3.4-1h3.3v1.8h-2.7c-1.1,0-1.9.2-2.3.5-.4.3-.7.8-.7,1.4s.2,1,.6,1.3c.4.3,1,.5,1.8.5s1.2-.1,1.7-.4c.5-.3.9-.7,1.1-1.2.3-.5.4-1.1.4-1.8h.8c0,1.6-.3,2.9-1,3.9-.7,1-1.8,1.4-3.2,1.4ZM250.1,254.8v-2.1c0,0,0-4.2,0-4.2,0-.9-.1-1.6-.3-2.2-.2-.6-.5-1-.9-1.3-.4-.3-.9-.5-1.6-.5s-1.2.1-1.6.4-.8.7-1.1,1.2l-2-.8c.3-.5.6-1,1.1-1.5.4-.4,1-.8,1.6-1,.6-.2,1.3-.4,2.1-.4s2.1.2,2.8.7c.8.4,1.3,1.1,1.7,1.9s.6,1.9.5,3.1v6.5h-2.1Z"/>
      <path class="st1" d="M265.7,255.1c-1.1,0-2-.3-2.8-.8-.8-.5-1.4-1.3-1.9-2.2s-.7-2-.7-3.3.2-2.4.7-3.3c.5-.9,1.1-1.7,1.9-2.2.8-.5,1.8-.8,2.8-.8s1.9.3,2.6.8,1.3,1.3,1.7,2.2c.4.9.6,2,.6,3.3s-.2,2.3-.6,3.3c-.4.9-1,1.7-1.7,2.2s-1.6.8-2.6.8ZM266.2,253.1c.7,0,1.3-.2,1.8-.5.5-.4.9-.9,1.2-1.5s.4-1.4.4-2.2-.1-1.6-.4-2.2c-.3-.6-.7-1.1-1.2-1.5-.5-.4-1.1-.5-1.8-.5s-1.3.2-1.9.5c-.5.4-1,.9-1.3,1.5-.3.6-.5,1.4-.5,2.2s.2,1.6.5,2.2c.3.6.7,1.1,1.3,1.5.5.4,1.2.5,1.9.5ZM269.7,254.8v-2.2c0,0,0-14.6,0-14.6h2.3v16.8h-2.2Z"/>
      <path class="st1" d="M280.4,255.1c-1.2,0-2.2-.3-3.1-.8-.9-.5-1.6-1.3-2.1-2.2-.5-.9-.8-2-.8-3.3s.3-2.3.8-3.3c.5-.9,1.2-1.7,2.1-2.2.9-.5,1.9-.8,3.1-.8s2.1.3,2.9.8,1.5,1.3,2,2.4c.5,1,.7,2.2.7,3.6h-9.7l.4-.4c0,.8.2,1.6.5,2.2.3.6.8,1.1,1.4,1.4.6.3,1.2.5,2,.5s1.5-.2,2-.6c.5-.4,1-.9,1.3-1.4l2,.9c-.3.6-.7,1.2-1.2,1.6-.5.5-1.1.8-1.8,1.1-.7.3-1.5.4-2.3.4ZM276.8,247.9l-.5-.4h7.6l-.4.4c0-.7-.1-1.3-.4-1.8-.3-.5-.7-.9-1.2-1.2-.5-.3-1-.4-1.6-.4s-1.1.1-1.7.4c-.5.3-1,.6-1.3,1.1-.3.5-.5,1.1-.5,1.8Z"/>
    </g>
    <g class="st0">
      <path class="st1" d="M47.1,282.8v-16.8h5.7c1.1,0,2.1.2,3,.7.9.5,1.5,1.1,2,1.9.5.8.7,1.7.7,2.8s-.2,2-.7,2.8c-.4.8-1.1,1.5-1.9,1.9-.8.5-1.7.7-2.7.7h-3.8v6h-2.4ZM49.4,274.6h3.7c.8,0,1.5-.3,2.1-.9s.8-1.4.8-2.3-.3-1.8-.9-2.4c-.6-.6-1.4-.9-2.4-.9h-3.3v6.5Z"/>
    </g>
    <g class="st0">
      <path class="st1" d="M60.5,282.8v-12h2.3v12h-2.3ZM61.9,276.4c0-1.3.2-2.4.7-3.2.5-.8,1.1-1.4,1.9-1.8.8-.4,1.6-.6,2.5-.6v2.2c-.7,0-1.4.1-2.1.3-.6.2-1.2.6-1.6,1.1-.4.5-.6,1.1-.6,2h-.9Z"/>
    </g>
    <g class="st0">
      <path class="st1" d="M74.2,283.1c-1.2,0-2.2-.3-3.1-.8-.9-.5-1.6-1.3-2.1-2.2-.5-.9-.8-2-.8-3.3s.3-2.3.8-3.3c.5-.9,1.2-1.7,2.1-2.2.9-.5,1.9-.8,3.1-.8s2.1.3,2.9.8,1.5,1.3,2,2.4c.5,1,.7,2.2.7,3.6h-9.7l.4-.4c0,.8.2,1.6.5,2.2.3.6.8,1.1,1.4,1.4.6.3,1.2.5,2,.5s1.5-.2,2-.6c.5-.4,1-.9,1.3-1.4l2,.9c-.3.6-.7,1.2-1.2,1.6-.5.5-1.1.8-1.8,1.1s-1.5.4-2.3.4ZM70.7,275.9l-.5-.4h7.6l-.4.4c0-.7-.1-1.3-.4-1.8-.3-.5-.7-.9-1.2-1.2-.5-.3-1-.4-1.6-.4s-1.1.1-1.7.4c-.5.3-1,.6-1.3,1.1-.3.5-.5,1.1-.5,1.8Z"/>
    </g>
    <g class="st0">
      <path class="st1" d="M85.3,282.8l-5-12h2.3l4.8,12h-2.1ZM85.4,282.8l4.8-12h2.4l-5,12h-2.2Z"/>
    </g>
    <g class="st0">
      <path class="st1" d="M99.4,283.1c-1.2,0-2.2-.3-3.1-.8-.9-.5-1.6-1.3-2.1-2.2-.5-.9-.8-2-.8-3.3s.3-2.3.8-3.3c.5-.9,1.2-1.7,2.1-2.2.9-.5,1.9-.8,3.1-.8s2.1.3,2.9.8,1.5,1.3,2,2.4c.5,1,.7,2.2.7,3.6h-9.7l.4-.4c0,.8.2,1.6.5,2.2.3.6.8,1.1,1.4,1.4.6.3,1.2.5,2,.5s1.5-.2,2-.6c.5-.4,1-.9,1.3-1.4l2,.9c-.3.6-.7,1.2-1.2,1.6-.5.5-1.1.8-1.8,1.1s-1.5.4-2.3.4ZM95.8,275.9l-.5-.4h7.6l-.4.4c0-.7-.1-1.3-.4-1.8-.3-.5-.7-.9-1.2-1.2-.5-.3-1-.4-1.6-.4s-1.1.1-1.7.4c-.5.3-1,.6-1.3,1.1-.3.5-.5,1.1-.5,1.8Z"/>
      <path class="st1" d="M107.2,282.8v-12h2.1v2.2c.1,0,.1,9.8.1,9.8h-2.3ZM115.5,276.7c0-1.1-.1-1.9-.4-2.5-.2-.6-.6-1-1-1.2-.4-.2-.9-.3-1.5-.4-1,0-1.7.3-2.3,1-.5.7-.8,1.7-.8,2.9h-1c0-1.3.2-2.3.6-3.3.4-.9.9-1.6,1.6-2.1.7-.5,1.5-.7,2.5-.7s1.8.2,2.5.6c.7.4,1.2,1,1.6,1.8s.6,1.9.6,3.2v.6h-2.3ZM115.5,282.8v-6.1h2.3v6.1h-2.3Z"/>
      <path class="st1" d="M126.2,283.1c-1.2,0-2.3-.3-3.2-.8-.9-.5-1.7-1.3-2.2-2.2-.5-.9-.8-2-.8-3.3s.3-2.3.8-3.3,1.2-1.7,2.2-2.2c.9-.5,2-.8,3.2-.8s2.2.3,3.2.8,1.6,1.3,2.1,2.3l-2.1.9c-.3-.6-.7-1.1-1.3-1.4-.6-.3-1.2-.5-2-.5s-1.4.2-1.9.5c-.6.4-1,.8-1.3,1.5-.3.6-.5,1.4-.5,2.2s.2,1.5.5,2.2c.3.6.8,1.1,1.3,1.5.6.4,1.2.5,1.9.5s1.4-.2,2-.6c.6-.4,1-.9,1.3-1.5l2.1.8c-.5,1.1-1.2,1.9-2.1,2.5s-2,.9-3.2.9ZM125.3,287.9c-.3,0-.7,0-1-.1-.4,0-.8-.3-1.2-.5l.5-1.3c.3.1.5.2.8.3.3.1.5.2.7.2s.5,0,.8-.2c.2-.1.3-.3.3-.6s-.1-.7-.4-.9c-.3-.2-.7-.3-1.3-.4l.7-1.7,1.4.2-.3.6c.6.2,1,.5,1.3.9.2.4.4.8.4,1.2,0,.6-.2,1.2-.6,1.6-.4.4-1,.6-1.9.6Z"/>
      <path class="st1" d="M137.5,283.1c-1.4,0-2.5-.3-3.3-1-.8-.6-1.2-1.5-1.2-2.7s.4-2.2,1.2-2.8c.8-.6,2-1,3.4-1h3.3v1.8h-2.7c-1.1,0-1.9.2-2.3.5-.4.3-.7.8-.7,1.4s.2,1,.6,1.3c.4.3,1,.5,1.8.5s1.2-.1,1.7-.4c.5-.3.9-.7,1.1-1.2.3-.5.4-1.1.4-1.8h.8c0,1.6-.3,2.9-1,3.9s-1.8,1.4-3.2,1.4ZM141.1,282.8v-2.1c0,0,0-4.2,0-4.2,0-.9-.1-1.6-.3-2.2-.2-.6-.5-1-.9-1.3-.4-.3-.9-.5-1.6-.5s-1.2.1-1.6.4c-.5.3-.8.7-1.1,1.2l-2-.8c.3-.5.6-1,1.1-1.5.4-.4,1-.8,1.6-1,.6-.2,1.3-.4,2.1-.4s2.1.2,2.8.7c.8.4,1.3,1.1,1.7,1.9s.6,1.9.5,3.1v6.5h-2.1ZM140.1,269.4c-.5,0-.9,0-1.2-.3-.3-.2-.5-.4-.7-.6-.2-.2-.3-.4-.5-.6-.2-.2-.4-.3-.6-.3s-.4,0-.6.2c-.1.1-.2.4-.3.7h-1.7c0-.5.2-.9.4-1.3.2-.4.5-.7.9-.9.4-.2.8-.3,1.3-.3s.8,0,1.1.3c.3.2.5.4.7.6.2.2.4.4.5.6.2.2.4.3.6.3s.5,0,.6-.3c.1-.2.2-.4.3-.7h1.7c0,.7-.4,1.3-.8,1.8-.4.5-1,.8-1.8.8Z"/>
      <path class="st1" d="M151.4,283.1c-1.2,0-2.3-.3-3.2-.8-.9-.5-1.6-1.3-2.1-2.2-.5-.9-.8-2-.8-3.3s.3-2.3.8-3.3c.5-.9,1.2-1.7,2.1-2.2.9-.5,2-.8,3.1-.8s2.2.3,3.1.8c.9.5,1.6,1.3,2.1,2.2.5.9.8,2,.8,3.3s-.3,2.3-.8,3.3c-.5.9-1.2,1.7-2.1,2.2-.9.5-1.9.8-3.1.8ZM151.4,281c.7,0,1.4-.2,1.9-.5.6-.4,1-.9,1.3-1.5s.5-1.4.5-2.2-.2-1.6-.5-2.2-.8-1.1-1.3-1.5c-.6-.4-1.2-.5-1.9-.5s-1.4.2-1.9.5c-.6.4-1,.9-1.3,1.5-.3.6-.5,1.4-.5,2.2s.2,1.6.5,2.2c.3.6.8,1.1,1.3,1.5.6.4,1.2.5,2,.5Z"/>
      <path class="st1" d="M170.6,283.1c-1.1,0-2-.3-2.8-.8-.8-.5-1.4-1.3-1.9-2.2-.5-.9-.7-2-.7-3.3s.2-2.4.7-3.3c.5-.9,1.1-1.7,1.9-2.2.8-.5,1.8-.8,2.8-.8s1.9.3,2.6.8c.7.5,1.3,1.3,1.7,2.2.4.9.6,2,.6,3.3s-.2,2.3-.6,3.3c-.4.9-1,1.7-1.7,2.2-.7.5-1.6.8-2.6.8ZM171.1,281.1c.7,0,1.3-.2,1.8-.5.5-.4.9-.9,1.2-1.5s.4-1.4.4-2.2-.1-1.6-.4-2.2c-.3-.6-.7-1.1-1.2-1.5-.5-.4-1.1-.5-1.8-.5s-1.3.2-1.9.5c-.5.4-1,.9-1.3,1.5-.3.6-.5,1.4-.5,2.2s.2,1.6.5,2.2.7,1.1,1.3,1.5c.5.4,1.2.5,1.9.5ZM174.6,282.8v-2.2c0,0,0-14.6,0-14.6h2.3v16.8h-2.2Z"/>
      <path class="st1" d="M185.2,283.1c-1.2,0-2.2-.3-3.1-.8-.9-.5-1.6-1.3-2.1-2.2-.5-.9-.8-2-.8-3.3s.3-2.3.8-3.3c.5-.9,1.2-1.7,2.1-2.2.9-.5,1.9-.8,3.1-.8s2.1.3,2.9.8,1.5,1.3,2,2.4c.5,1,.7,2.2.7,3.6h-9.7l.4-.4c0,.8.2,1.6.5,2.2s.8,1.1,1.4,1.4c.6.3,1.2.5,2,.5s1.5-.2,2-.6c.5-.4,1-.9,1.3-1.4l2,.9c-.3.6-.7,1.2-1.2,1.6-.5.5-1.1.8-1.8,1.1s-1.5.4-2.3.4ZM181.7,275.9l-.5-.4h7.6l-.4.4c0-.7-.1-1.3-.4-1.8-.3-.5-.7-.9-1.2-1.2-.5-.3-1-.4-1.6-.4s-1.1.1-1.7.4c-.5.3-1,.6-1.3,1.1-.3.5-.5,1.1-.5,1.8Z"/>
    </g>
    <g class="st0">
      <path class="st1" d="M197.5,282.8l6.8-16.8h2.4l-6.6,16.8h-2.5ZM200.7,278.3v-2.1h9.7v2.1h-9.7ZM211.1,282.8l-6.6-16.8h2.4l6.8,16.8h-2.5Z"/>
    </g>
    <g class="st0">
      <path class="st1" d="M220.7,283.1c-1.2,0-2.3-.3-3.2-.8-.9-.5-1.7-1.3-2.2-2.2-.5-.9-.8-2-.8-3.3s.3-2.3.8-3.3c.5-.9,1.2-1.7,2.2-2.2.9-.5,2-.8,3.2-.8s2.2.3,3.2.8c.9.5,1.6,1.3,2.1,2.3l-2.1.9c-.3-.6-.7-1.1-1.3-1.4-.6-.3-1.2-.5-2-.5s-1.4.2-1.9.5c-.6.4-1,.8-1.3,1.5s-.5,1.4-.5,2.2.2,1.5.5,2.2.8,1.1,1.3,1.5c.6.4,1.2.5,1.9.5s1.4-.2,2-.6,1-.9,1.3-1.5l2.1.8c-.5,1.1-1.2,1.9-2.1,2.5-.9.6-2,.9-3.2.9Z"/>
      <path class="st1" d="M229.5,268.3c-.4,0-.7-.1-1-.4-.3-.3-.4-.6-.4-1s.1-.7.4-1c.3-.3.6-.4,1-.4s.7.1,1,.4c.3.3.4.6.4,1s-.1.7-.4,1c-.3.3-.6.4-1,.4ZM228.4,282.8v-12h2.3v12h-2.3Z"/>
      <path class="st1" d="M238.7,283.1c-1.1,0-2-.3-2.8-.8s-1.4-1.3-1.9-2.2c-.5-.9-.7-2-.7-3.3s.2-2.4.7-3.3c.5-.9,1.1-1.7,1.9-2.2s1.8-.8,2.8-.8,1.9.3,2.6.8c.7.5,1.3,1.3,1.7,2.2.4.9.6,2,.6,3.3s-.2,2.3-.6,3.3c-.4.9-1,1.7-1.7,2.2-.7.5-1.6.8-2.6.8ZM239.3,281.1c.7,0,1.3-.2,1.8-.5.5-.4.9-.9,1.2-1.5s.4-1.4.4-2.2-.1-1.6-.4-2.2c-.3-.6-.7-1.1-1.2-1.5-.5-.4-1.1-.5-1.8-.5s-1.3.2-1.9.5c-.5.4-1,.9-1.3,1.5-.3.6-.5,1.4-.5,2.2s.2,1.6.5,2.2c.3.6.7,1.1,1.3,1.5.5.4,1.2.5,1.9.5ZM242.8,282.8v-2.2c0,0,0-14.6,0-14.6h2.3v16.8h-2.2Z"/>
      <path class="st1" d="M253.4,283.1c-1.2,0-2.2-.3-3.1-.8-.9-.5-1.6-1.3-2.1-2.2-.5-.9-.8-2-.8-3.3s.3-2.3.8-3.3,1.2-1.7,2.1-2.2c.9-.5,1.9-.8,3.1-.8s2.1.3,2.9.8,1.5,1.3,2,2.4c.5,1,.7,2.2.7,3.6h-9.7l.4-.4c0,.8.2,1.6.5,2.2s.8,1.1,1.4,1.4c.6.3,1.2.5,2,.5s1.5-.2,2-.6c.5-.4,1-.9,1.3-1.4l2,.9c-.3.6-.7,1.2-1.2,1.6-.5.5-1.1.8-1.8,1.1-.7.3-1.5.4-2.3.4ZM249.9,275.9l-.5-.4h7.6l-.4.4c0-.7-.1-1.3-.4-1.8-.3-.5-.7-.9-1.2-1.2-.5-.3-1-.4-1.6-.4s-1.1.1-1.7.4c-.5.3-1,.6-1.3,1.1-.3.5-.5,1.1-.5,1.8Z"/>
      <path class="st1" d="M261.2,282.8v-12h2.1v2.2c.1,0,.1,9.8.1,9.8h-2.3ZM269.5,276.7c0-1.1-.1-1.9-.4-2.5-.2-.6-.6-1-1-1.2-.4-.2-.9-.3-1.5-.4-1,0-1.7.3-2.3,1-.5.7-.8,1.7-.8,2.9h-1c0-1.3.2-2.3.6-3.3.4-.9.9-1.6,1.6-2.1.7-.5,1.5-.7,2.5-.7s1.8.2,2.5.6,1.2,1,1.6,1.8.6,1.9.6,3.2v.6h-2.3ZM269.5,282.8v-6.1h2.3v6.1h-2.3Z"/>
    </g>
    <g class="st0">
      <path class="st1" d="M273.5,272.8v-2h7.7v2h-7.7ZM279.3,283.1c-1.2,0-2.1-.3-2.8-.9s-1-1.5-1-2.7v-12.5h2.3v12.1c0,.6.1,1,.4,1.4.3.3.7.5,1.3.5s.3,0,.5,0c.2,0,.4-.2.7-.4l.9,1.8c-.4.3-.8.5-1.2.6s-.8.2-1.1.2Z"/>
    </g>
    <g class="st0">
      <path class="st1" d="M289.1,283.1c-1.2,0-2.2-.3-3.1-.8-.9-.5-1.6-1.3-2.1-2.2-.5-.9-.8-2-.8-3.3s.3-2.3.8-3.3,1.2-1.7,2.1-2.2c.9-.5,1.9-.8,3.1-.8s2.1.3,2.9.8,1.5,1.3,2,2.4c.5,1,.7,2.2.7,3.6h-9.7l.4-.4c0,.8.2,1.6.5,2.2s.8,1.1,1.4,1.4c.6.3,1.2.5,2,.5s1.5-.2,2-.6c.5-.4,1-.9,1.3-1.4l2,.9c-.3.6-.7,1.2-1.2,1.6-.5.5-1.1.8-1.8,1.1-.7.3-1.5.4-2.3.4ZM285.6,275.9l-.5-.4h7.6l-.4.4c0-.7-.1-1.3-.4-1.8-.3-.5-.7-.9-1.2-1.2-.5-.3-1-.4-1.6-.4s-1.1.1-1.7.4c-.5.3-1,.6-1.3,1.1-.3.5-.5,1.1-.5,1.8Z"/>
      <path class="st1" d="M301.3,283.1c-.8,0-1.6-.1-2.3-.4s-1.2-.6-1.7-1-.8-.9-1-1.5l2-.9c.3.5.6.9,1.2,1.2.5.3,1.1.5,1.7.5s1.3-.1,1.7-.4c.4-.3.7-.6.7-1.1s-.2-.8-.5-1.1c-.3-.3-.8-.5-1.5-.6l-1.1-.3c-1.1-.3-2-.8-2.6-1.4s-.9-1.3-.9-2.1c0-1.2.4-2.1,1.1-2.7.8-.6,1.9-1,3.3-1s1.4.1,2,.3c.6.2,1.1.5,1.5.9s.7.8.9,1.4l-1.9.9c-.2-.5-.5-.8-1-1.1-.5-.2-1-.3-1.6-.3s-1.1.1-1.5.4c-.4.3-.6.7-.6,1.2s.2.5.5.8c.3.2.8.5,1.4.6l1.3.3c.8.2,1.4.5,1.9.9.5.4.9.8,1.2,1.3.3.5.4,1,.4,1.5s-.2,1.3-.6,1.9c-.4.5-.9.9-1.6,1.2-.7.3-1.5.4-2.3.4Z"/>
    </g>
    <g class="st0">
      <path class="st1" d="M142.5,313.2c-.7-1-1.4-2-2-3.2-.6-1.1-1.1-2.4-1.4-3.6-.4-1.3-.5-2.6-.5-4s.2-2.7.5-4c.4-1.3.8-2.5,1.4-3.6.6-1.1,1.3-2.2,2-3.2h2.3c-.7,1-1.4,2.1-2,3.3s-1.1,2.4-1.4,3.6c-.4,1.3-.5,2.5-.5,3.9s.2,2.6.5,3.9c.4,1.3.8,2.5,1.4,3.6.6,1.2,1.3,2.3,2,3.3h-2.3Z"/>
      <path class="st1" d="M155.2,311.1c-1.6,0-3-.4-4.3-1.1s-2.2-1.8-2.9-3.1c-.7-1.3-1.1-2.8-1.1-4.5s.4-3.2,1.1-4.5c.7-1.3,1.7-2.3,2.9-3.1,1.2-.7,2.6-1.1,4.2-1.1s2,.2,3,.6c.9.4,1.8.9,2.5,1.6s1.3,1.4,1.7,2.3l-2.1,1c-.3-.7-.7-1.2-1.2-1.7-.5-.5-1.1-.9-1.8-1.1-.7-.3-1.4-.4-2.1-.4-1.1,0-2.1.3-3,.8-.9.6-1.6,1.3-2.1,2.3-.5,1-.7,2.1-.7,3.4s.3,2.4.8,3.4c.5,1,1.2,1.8,2.1,2.3.9.6,1.9.8,3,.8s1.4-.1,2.1-.4c.7-.3,1.2-.7,1.8-1.2.5-.5.9-1.1,1.3-1.8l2.1.9c-.4.9-1,1.7-1.7,2.4-.7.7-1.6,1.3-2.5,1.6s-2,.6-3,.6Z"/>
      <path class="st1" d="M165.4,310.8v-16.8h2.4v16.8h-2.4Z"/>
      <path class="st1" d="M172,310.8v-16.8h5.7c1.1,0,2.1.2,3,.7.9.5,1.5,1.1,2,1.9s.7,1.7.7,2.8-.2,2-.7,2.8c-.4.8-1.1,1.5-1.9,1.9-.8.5-1.7.7-2.7.7h-3.8v6h-2.4ZM174.3,302.6h3.7c.8,0,1.5-.3,2.1-.9.5-.6.8-1.4.8-2.3s-.3-1.8-.9-2.4c-.6-.6-1.4-.9-2.4-.9h-3.3v6.5Z"/>
      <path class="st1" d="M184.1,310.8l6.8-16.8h2.4l-6.6,16.8h-2.5ZM187.3,306.3v-2.1h9.7v2.1h-9.7ZM197.7,310.8l-6.6-16.8h2.4l6.8,16.8h-2.5Z"/>
      <path class="st1" d="M203.8,313.2h-2.3c.8-1,1.4-2.1,2-3.3.6-1.2,1.1-2.4,1.4-3.6.4-1.3.5-2.6.5-3.9s-.2-2.6-.5-3.9c-.4-1.3-.8-2.5-1.4-3.6s-1.3-2.3-2-3.3h2.3c.8,1,1.4,2,2,3.2.6,1.1,1.1,2.4,1.4,3.6.4,1.3.5,2.6.5,4s-.2,2.7-.5,4c-.4,1.3-.8,2.5-1.4,3.6-.6,1.1-1.3,2.2-2,3.2Z"/>
      <path class="st1" d="M211.6,311.2c-.4,0-.7-.1-1-.4-.3-.3-.4-.6-.4-1.1s.1-.8.4-1.1c.3-.3.6-.4,1-.4s.8.1,1.1.4c.3.3.4.6.4,1.1s-.1.8-.4,1.1c-.3.3-.7.4-1.1.4Z"/>
    </g>
  </g>
  <g>
    <path class="st2" d="M168.1,54.5h12.2c.5,0,.9-.4.9-.9v-3.6c0-.5-.4-.9-.9-.9h-3.4c-.3-1.2-1.4-2.2-2.7-2.2s-2.5.9-2.7,2.2h-3.4c-.5,0-.9.4-.9.9v3.6c0,.5.4.9.9.9ZM172.6,49c.2-.6.9-1.1,1.6-1.1s1.4.5,1.6,1.1c0,.2.1.4.1.6,0,1-.8,1.7-1.7,1.7s-1.7-.8-1.7-1.7,0-.4.1-.6h0Z"/>
    <path class="st2" d="M183,77.2h-17.7c-.3,0-.6.2-.6.6s.3.5.6.5h17.7c.3,0,.6-.2.6-.5s-.3-.6-.6-.6Z"/>
    <path class="st2" d="M183,84.5h-17.7c-.3,0-.6.2-.6.6s.3.6.6.6h17.7c.3,0,.6-.2.6-.6s-.3-.6-.6-.6Z"/>
    <path class="st2" d="M187.2,52.1h-4.6v2.9c0,.6-.5,1.1-1.1,1.1h-14.6c-.6,0-1.1-.5-1.1-1.1v-2.9h-4.6c-1.5,0-2.8,1.2-2.8,2.8v35.8c0,1.5,1.2,2.8,2.8,2.8h26c1.5,0,2.8-1.2,2.8-2.8v-35.8c0-1.5-1.2-2.8-2.8-2.8h0ZM187.6,90c0,.3-.3.5-.6.5h-25.8c-.3,0-.6-.2-.6-.5v-31.8c0-.3.3-.5.6-.5h25.8c.3,0,.6.2.6.5v31.8Z"/>
    <path class="st2" d="M183,70h-17.7c-.3,0-.6.2-.6.5s.3.6.6.6h17.7c.3,0,.6-.2.6-.6s-.3-.5-.6-.5Z"/>
    <path class="st2" d="M183,62.7h-17.7c-.3,0-.6.2-.6.5s.3.5.6.5h17.7c.3,0,.6-.2.6-.5s-.3-.5-.6-.5Z"/>
  </g>
</svg>