<?xml version="1.0" encoding="UTF-8"?><svg id="Camada_1" xmlns="http://www.w3.org/2000/svg" xmlns:xlink="http://www.w3.org/1999/xlink" viewBox="0 0 350 350"><defs><style>.cls-1{fill:#fff;}.cls-2{fill:none;stroke:#fff;stroke-linecap:round;stroke-miterlimit:10;stroke-width:3px;}.cls-3{fill:url(#Gradiente_sem_nome_16);}</style><linearGradient id="Gradiente_sem_nome_16" x1="15.51" y1="330.65" x2="334.13" y2="19.71" gradientUnits="userSpaceOnUse"><stop offset=".12" stop-color="#0e4989"/><stop offset="1" stop-color="#2c6bc6" stop-opacity=".8"/></linearGradient></defs><rect class="cls-3" width="350" height="350"/><path class="cls-1" d="M29.51,230.28v-18.2h6.76c1.28,0,2.42.26,3.41.77.99.51,1.76,1.22,2.31,2.13.55.91.83,1.96.83,3.16s-.27,2.23-.81,3.15c-.54.92-1.27,1.64-2.21,2.17s-2.02.79-3.25.79h-3.48v6.03h-3.56ZM33.07,220.97h3.41c.8,0,1.45-.26,1.96-.79.51-.53.77-1.21.77-2.04s-.28-1.51-.85-2.03c-.56-.52-1.29-.78-2.17-.78h-3.12v5.64Z"/><path class="cls-1" d="M44.64,230.28v-13h3.43v13h-3.43ZM47.06,223.44c0-1.4.27-2.56.82-3.48.55-.92,1.25-1.6,2.11-2.05.86-.45,1.76-.68,2.69-.68v3.33c-.8,0-1.55.1-2.25.29-.7.19-1.27.5-1.7.94-.43.43-.65.99-.65,1.66h-1.01Z"/><path class="cls-1" d="M60.61,230.59c-1.32,0-2.49-.29-3.52-.87-1.03-.58-1.84-1.38-2.42-2.41-.58-1.02-.87-2.2-.87-3.54s.29-2.51.86-3.54,1.37-1.82,2.39-2.4c1.02-.58,2.19-.87,3.51-.87s2.51.29,3.54.87c1.02.58,1.82,1.38,2.39,2.4.57,1.02.86,2.2.86,3.54s-.29,2.51-.86,3.54c-.57,1.02-1.36,1.82-2.38,2.41-1.01.58-2.18.87-3.5.87ZM60.61,227.42c.64,0,1.2-.16,1.69-.47.49-.31.86-.74,1.13-1.29.27-.55.4-1.17.4-1.89s-.14-1.34-.42-1.88c-.28-.55-.66-.98-1.16-1.29-.49-.31-1.06-.47-1.7-.47s-1.18.16-1.68.47c-.49.31-.88.74-1.16,1.29-.28.55-.42,1.17-.42,1.88s.14,1.34.42,1.89c.28.55.67.98,1.17,1.29.5.31,1.07.47,1.72.47Z"/><path class="cls-1" d="M75.87,230.59c-1.35,0-2.56-.29-3.61-.87-1.06-.58-1.88-1.39-2.47-2.42-.59-1.03-.88-2.21-.88-3.52s.29-2.51.88-3.54c.59-1.02,1.4-1.82,2.44-2.4,1.04-.58,2.24-.87,3.59-.87s2.49.32,3.56.96c1.07.64,1.85,1.57,2.34,2.78l-3.22,1.14c-.24-.5-.62-.91-1.13-1.21-.51-.3-1.08-.46-1.7-.46s-1.2.15-1.69.46c-.49.3-.87.72-1.14,1.26-.28.54-.42,1.16-.42,1.87s.14,1.33.42,1.86c.28.53.67.95,1.17,1.26.5.31,1.07.47,1.72.47s1.19-.16,1.7-.49c.51-.33.89-.76,1.13-1.3l3.25,1.14c-.5,1.23-1.29,2.18-2.35,2.86s-2.26,1.01-3.57,1.01Z"/><path class="cls-1" d="M89.67,230.59c-1.28,0-2.42-.29-3.41-.87-.99-.58-1.76-1.38-2.33-2.41-.56-1.02-.84-2.2-.84-3.54s.29-2.51.87-3.54c.58-1.02,1.38-1.82,2.39-2.4,1.01-.58,2.18-.87,3.5-.87,1.14,0,2.2.3,3.16.9.96.6,1.73,1.47,2.31,2.63.58,1.15.87,2.55.87,4.2h-9.85l.31-.31c0,.64.16,1.2.48,1.68.32.48.74.84,1.25,1.09.51.25,1.06.38,1.65.38.71,0,1.29-.15,1.74-.46.45-.3.8-.7,1.04-1.18l3.07,1.2c-.36.73-.84,1.36-1.42,1.89-.58.53-1.27.93-2.07,1.21-.8.28-1.71.42-2.73.42ZM86.84,222.45l-.31-.31h6.27l-.29.31c0-.62-.15-1.12-.44-1.5-.29-.37-.65-.65-1.08-.82-.42-.17-.84-.26-1.23-.26s-.82.09-1.27.26c-.45.17-.84.45-1.16.82-.32.37-.48.87-.48,1.5Z"/><path class="cls-1" d="M103.37,230.59c-1.2,0-2.23-.28-3.11-.83-.88-.55-1.56-1.34-2.04-2.37-.49-1.02-.73-2.23-.73-3.61s.24-2.61.73-3.63c.48-1.01,1.17-1.8,2.04-2.35.88-.55,1.91-.83,3.11-.83,1.09,0,2.02.28,2.77.83.75.55,1.33,1.34,1.73,2.35.4,1.01.6,2.22.6,3.63s-.2,2.59-.6,3.61c-.4,1.02-.98,1.81-1.73,2.37-.75.55-1.68.83-2.77.83ZM104.26,227.44c.59,0,1.11-.16,1.57-.47.46-.31.82-.75,1.08-1.3s.39-1.19.39-1.9-.13-1.34-.39-1.9-.62-.98-1.08-1.29c-.46-.3-.99-.46-1.6-.46s-1.17.15-1.64.46-.84.73-1.12,1.29c-.28.55-.42,1.19-.42,1.9s.14,1.34.42,1.9c.28.55.65.99,1.13,1.3.48.31,1.03.47,1.65.47ZM107.46,230.28l-.18-2.42v-15.78h3.43v18.2h-3.25Z"/><path class="cls-1" d="M115.59,215.17c-.52,0-.98-.2-1.38-.58-.4-.39-.6-.85-.6-1.39s.2-1,.6-1.39c.4-.39.86-.58,1.38-.58s1,.19,1.39.58c.39.39.58.85.58,1.39s-.19,1-.58,1.39c-.39.39-.85.58-1.39.58ZM113.88,230.28v-13h3.43v13h-3.43Z"/><path class="cls-1" d="M120.48,230.28v-13h3.22l.16,1.69c.4-.66.91-1.16,1.53-1.5s1.32-.51,2.08-.51c1.06,0,1.95.23,2.66.68.72.45,1.24,1.14,1.57,2.08.38-.88.92-1.56,1.61-2.04.69-.48,1.5-.71,2.42-.71,1.53,0,2.69.48,3.48,1.44.8.96,1.2,2.44,1.2,4.43v7.44h-3.43v-6.66c0-.88-.1-1.57-.29-2.05-.19-.48-.45-.84-.78-1.05-.33-.22-.72-.33-1.17-.33-.83-.02-1.47.25-1.92.81-.45.56-.68,1.38-.68,2.47v6.81h-3.43v-6.66c0-.88-.09-1.57-.27-2.05-.18-.48-.44-.84-.78-1.05s-.73-.33-1.18-.33c-.83-.02-1.47.25-1.91.81-.44.56-.66,1.38-.66,2.47v6.81h-3.43Z"/><path class="cls-1" d="M149.03,230.59c-1.28,0-2.42-.29-3.41-.87-.99-.58-1.76-1.38-2.33-2.41-.56-1.02-.84-2.2-.84-3.54s.29-2.51.87-3.54c.58-1.02,1.38-1.82,2.39-2.4,1.01-.58,2.18-.87,3.5-.87,1.14,0,2.2.3,3.16.9.96.6,1.73,1.47,2.31,2.63.58,1.15.87,2.55.87,4.2h-9.85l.31-.31c0,.64.16,1.2.48,1.68.32.48.74.84,1.25,1.09.51.25,1.06.38,1.65.38.71,0,1.29-.15,1.74-.46.45-.3.8-.7,1.04-1.18l3.07,1.2c-.36.73-.84,1.36-1.42,1.89-.58.53-1.27.93-2.07,1.21-.8.28-1.71.42-2.73.42ZM146.2,222.45l-.31-.31h6.27l-.29.31c0-.62-.15-1.12-.44-1.5-.29-.37-.65-.65-1.08-.82-.43-.17-.84-.26-1.24-.26s-.82.09-1.27.26c-.45.17-.84.45-1.16.82-.32.37-.48.87-.48,1.5Z"/><path class="cls-1" d="M157.56,230.28v-13h3.22l.21,2.39v10.61h-3.43ZM166.16,223.62c0-.88-.1-1.57-.3-2.05-.2-.48-.48-.84-.85-1.05-.36-.22-.79-.33-1.27-.33-.88-.02-1.56.25-2.04.81-.48.56-.71,1.38-.71,2.47h-1.14c0-1.39.2-2.56.61-3.52.41-.96.98-1.7,1.72-2.21.74-.51,1.6-.77,2.59-.77s1.9.21,2.63.62,1.28,1.06,1.66,1.94c.38.88.56,2.01.55,3.39v.7h-3.43ZM166.16,230.28v-6.66h3.43v6.66h-3.43Z"/><path class="cls-1" d="M171.21,220.19v-2.91h8.79v2.91h-8.79ZM177.68,230.59c-1.44,0-2.53-.36-3.26-1.07-.74-.71-1.1-1.72-1.1-3.04v-13.26h3.43v12.51c0,.55.12.98.36,1.26.24.29.6.43,1.07.43.17,0,.36-.04.57-.12s.42-.2.65-.35l1.2,2.57c-.42.31-.88.57-1.39.77-.51.2-1.02.3-1.52.3Z"/><path class="cls-1" d="M188.65,230.59c-1.32,0-2.49-.29-3.52-.87-1.03-.58-1.84-1.38-2.42-2.41-.58-1.02-.87-2.2-.87-3.54s.29-2.51.86-3.54,1.37-1.82,2.39-2.4c1.02-.58,2.19-.87,3.51-.87s2.51.29,3.54.87c1.02.58,1.82,1.38,2.39,2.4.57,1.02.86,2.2.86,3.54s-.29,2.51-.86,3.54c-.57,1.02-1.36,1.82-2.38,2.41-1.01.58-2.18.87-3.5.87ZM188.65,227.42c.64,0,1.2-.16,1.69-.47.49-.31.86-.74,1.13-1.29.27-.55.4-1.17.4-1.89s-.14-1.34-.42-1.88c-.28-.55-.66-.98-1.16-1.29-.49-.31-1.06-.47-1.7-.47s-1.18.16-1.68.47c-.49.31-.88.74-1.16,1.29-.28.55-.42,1.17-.42,1.88s.14,1.34.42,1.89c.28.55.67.98,1.17,1.29.5.31,1.07.47,1.72.47Z"/><path class="cls-1" d="M202.51,230.59c-.83,0-1.61-.13-2.34-.38-.73-.25-1.37-.62-1.92-1.09-.55-.48-.99-1.06-1.3-1.76l2.94-1.35c.26.42.61.78,1.07,1.08.45.3.97.46,1.56.46s1.01-.08,1.33-.25.47-.4.47-.71-.13-.54-.38-.69c-.25-.15-.59-.27-1.03-.38l-1.2-.31c-1.25-.33-2.23-.85-2.95-1.57-.72-.72-1.08-1.55-1.08-2.48,0-1.33.43-2.37,1.29-3.09.86-.73,2.08-1.09,3.65-1.09.81,0,1.57.12,2.28.36s1.3.58,1.81,1.01c.5.43.85.94,1.04,1.51l-2.83,1.3c-.12-.35-.42-.63-.88-.84s-.94-.33-1.4-.33-.83.1-1.08.3c-.25.2-.38.47-.38.82,0,.23.12.41.36.56.24.15.59.27,1.04.38l1.69.42c.85.21,1.53.54,2.04,1,.51.46.88.97,1.12,1.53.23.56.35,1.11.35,1.65,0,.78-.23,1.47-.69,2.07-.46.6-1.08,1.06-1.87,1.39-.79.33-1.69.49-2.69.49Z"/><path class="cls-1" d="M214.83,220.19v-2.91h8.79v2.91h-8.79ZM221.31,230.59c-1.44,0-2.53-.36-3.26-1.07-.74-.71-1.1-1.72-1.1-3.04v-13.26h3.43v12.51c0,.55.12.98.36,1.26.24.29.6.43,1.07.43.17,0,.36-.04.57-.12s.42-.2.65-.35l1.2,2.57c-.42.31-.88.57-1.39.77-.51.2-1.02.3-1.52.3Z"/><path class="cls-1" d="M232.05,230.59c-1.28,0-2.42-.29-3.41-.87-.99-.58-1.76-1.38-2.33-2.41-.56-1.02-.84-2.2-.84-3.54s.29-2.51.87-3.54c.58-1.02,1.38-1.82,2.39-2.4,1.01-.58,2.18-.87,3.5-.87,1.14,0,2.2.3,3.16.9.96.6,1.73,1.47,2.31,2.63.58,1.15.87,2.55.87,4.2h-9.85l.31-.31c0,.64.16,1.2.48,1.68.32.48.74.84,1.25,1.09.51.25,1.06.38,1.65.38.71,0,1.29-.15,1.74-.46.45-.3.8-.7,1.04-1.18l3.07,1.2c-.36.73-.84,1.36-1.42,1.89-.58.53-1.27.93-2.07,1.21-.8.28-1.71.42-2.73.42ZM229.21,222.45l-.31-.31h6.27l-.29.31c0-.62-.15-1.12-.44-1.5-.29-.37-.65-.65-1.08-.82-.43-.17-.84-.26-1.24-.26s-.82.09-1.27.26c-.45.17-.84.45-1.16.82-.32.37-.48.87-.48,1.5ZM230.07,215.66l2.96-3.59h3.85l-3.35,3.59h-3.46Z"/><path class="cls-1" d="M246.92,230.59c-1.35,0-2.56-.29-3.61-.87-1.06-.58-1.88-1.39-2.47-2.42-.59-1.03-.88-2.21-.88-3.52s.29-2.51.88-3.54c.59-1.02,1.4-1.82,2.44-2.4,1.04-.58,2.24-.87,3.59-.87s2.49.32,3.56.96c1.07.64,1.85,1.57,2.34,2.78l-3.22,1.14c-.24-.5-.62-.91-1.13-1.21-.51-.3-1.08-.46-1.7-.46s-1.2.15-1.69.46c-.49.3-.87.72-1.14,1.26-.28.54-.42,1.16-.42,1.87s.14,1.33.42,1.86c.28.53.67.95,1.17,1.26.5.31,1.07.47,1.72.47s1.19-.16,1.7-.49c.51-.33.89-.76,1.13-1.3l3.25,1.14c-.5,1.23-1.29,2.18-2.35,2.86s-2.26,1.01-3.57,1.01Z"/><path class="cls-1" d="M254.85,230.28v-13h3.22l.21,2.39v10.61h-3.43ZM263.45,223.62c0-.88-.1-1.57-.3-2.05-.2-.48-.48-.84-.84-1.05s-.79-.33-1.27-.33c-.88-.02-1.56.25-2.04.81-.48.56-.72,1.38-.72,2.47h-1.14c0-1.39.2-2.56.61-3.52.41-.96.98-1.7,1.72-2.21.74-.51,1.6-.77,2.59-.77s1.9.21,2.63.62,1.28,1.06,1.66,1.94c.38.88.56,2.01.55,3.39v.7h-3.43ZM263.45,230.28v-6.66h3.43v6.66h-3.43Z"/><path class="cls-1" d="M271.54,215.17c-.52,0-.98-.2-1.38-.58-.4-.39-.6-.85-.6-1.39s.2-1,.6-1.39c.4-.39.86-.58,1.38-.58s1,.19,1.39.58c.39.39.58.85.58,1.39s-.19,1-.58,1.39c-.39.39-.85.58-1.39.58ZM269.82,230.28v-13h3.43v13h-3.43Z"/><path class="cls-1" d="M282.69,230.59c-1.35,0-2.56-.29-3.61-.87-1.06-.58-1.88-1.39-2.47-2.42-.59-1.03-.88-2.21-.88-3.52s.29-2.51.88-3.54c.59-1.02,1.4-1.82,2.44-2.4,1.04-.58,2.24-.87,3.59-.87s2.49.32,3.56.96c1.07.64,1.85,1.57,2.34,2.78l-3.22,1.14c-.24-.5-.62-.91-1.13-1.21-.51-.3-1.08-.46-1.7-.46s-1.2.15-1.69.46c-.49.3-.87.72-1.14,1.26-.28.54-.42,1.16-.42,1.87s.14,1.33.42,1.86c.28.53.67.95,1.17,1.26.5.31,1.07.47,1.72.47s1.19-.16,1.7-.49c.51-.33.89-.76,1.13-1.3l3.25,1.14c-.5,1.23-1.29,2.18-2.35,2.86s-2.26,1.01-3.57,1.01Z"/><path class="cls-1" d="M296.73,230.59c-1.32,0-2.49-.29-3.52-.87-1.03-.58-1.84-1.38-2.42-2.41-.58-1.02-.87-2.2-.87-3.54s.29-2.51.86-3.54c.57-1.02,1.37-1.82,2.39-2.4,1.02-.58,2.19-.87,3.51-.87s2.51.29,3.54.87c1.02.58,1.82,1.38,2.39,2.4s.86,2.2.86,3.54-.29,2.51-.86,3.54c-.57,1.02-1.36,1.82-2.38,2.41-1.01.58-2.18.87-3.5.87ZM296.73,227.42c.64,0,1.2-.16,1.69-.47.49-.31.86-.74,1.13-1.29.27-.55.4-1.17.4-1.89s-.14-1.34-.42-1.88c-.28-.55-.66-.98-1.16-1.29-.49-.31-1.06-.47-1.7-.47s-1.18.16-1.68.47c-.49.31-.88.74-1.16,1.29-.28.55-.42,1.17-.42,1.88s.14,1.34.42,1.89c.28.55.67.98,1.17,1.29.5.31,1.07.47,1.72.47Z"/><path class="cls-1" d="M310.59,230.59c-.83,0-1.61-.13-2.34-.38-.73-.25-1.37-.62-1.92-1.09-.55-.48-.99-1.06-1.3-1.76l2.94-1.35c.26.42.61.78,1.07,1.08.45.3.97.46,1.56.46s1.01-.08,1.33-.25.47-.4.47-.71-.13-.54-.38-.69c-.25-.15-.59-.27-1.03-.38l-1.2-.31c-1.25-.33-2.23-.85-2.95-1.57-.72-.72-1.08-1.55-1.08-2.48,0-1.33.43-2.37,1.29-3.09.86-.73,2.08-1.09,3.65-1.09.81,0,1.57.12,2.28.36s1.3.58,1.81,1.01c.5.43.85.94,1.04,1.51l-2.83,1.3c-.12-.35-.42-.63-.88-.84-.47-.22-.94-.33-1.4-.33s-.83.1-1.08.3c-.25.2-.38.47-.38.82,0,.23.12.41.36.56.24.15.59.27,1.04.38l1.69.42c.85.21,1.53.54,2.04,1,.51.46.88.97,1.12,1.53.23.56.35,1.11.35,1.65,0,.78-.23,1.47-.69,2.07-.46.6-1.08,1.06-1.87,1.39-.79.33-1.69.49-2.69.49Z"/><path class="cls-1" d="M60.49,262.88c-.8-1.06-1.53-2.21-2.18-3.45-.66-1.24-1.18-2.55-1.56-3.94-.38-1.39-.57-2.83-.57-4.32s.19-2.95.57-4.33c.38-1.38.9-2.69,1.56-3.93.66-1.24,1.39-2.39,2.18-3.45h3.38c-.8,1.11-1.53,2.3-2.18,3.56-.66,1.27-1.18,2.58-1.56,3.94-.38,1.36-.57,2.76-.57,4.2s.19,2.82.57,4.19c.38,1.37.9,2.68,1.56,3.94.66,1.26,1.39,2.45,2.18,3.58h-3.38Z"/><path class="cls-1" d="M72.14,260.59c-1.32,0-2.49-.29-3.52-.87-1.03-.58-1.84-1.38-2.42-2.41-.58-1.02-.87-2.2-.87-3.54s.29-2.51.86-3.54,1.37-1.82,2.39-2.4c1.02-.58,2.19-.87,3.51-.87s2.51.29,3.54.87c1.02.58,1.82,1.38,2.39,2.4.57,1.02.86,2.2.86,3.54s-.29,2.51-.86,3.54c-.57,1.02-1.36,1.82-2.38,2.41-1.01.58-2.18.87-3.5.87ZM72.14,257.42c.64,0,1.2-.16,1.69-.47.49-.31.86-.74,1.13-1.29.27-.55.4-1.17.4-1.89s-.14-1.34-.42-1.88c-.28-.55-.66-.98-1.16-1.29-.49-.31-1.06-.47-1.7-.47s-1.18.16-1.68.47c-.49.31-.88.74-1.16,1.29-.28.55-.42,1.17-.42,1.88s.14,1.34.42,1.89c.28.55.67.98,1.17,1.29.5.31,1.07.47,1.72.47Z"/><path class="cls-1" d="M81.13,260.28v-18.2h3.43v15.78l-.18,2.42h-3.25ZM88.49,260.59c-1.09,0-2.02-.28-2.77-.83-.75-.55-1.33-1.34-1.73-2.37-.4-1.02-.6-2.23-.6-3.61s.2-2.61.6-3.63c.4-1.01.97-1.8,1.73-2.35.75-.55,1.68-.83,2.77-.83,1.2,0,2.23.28,3.11.83.88.55,1.56,1.34,2.04,2.35.49,1.01.73,2.22.73,3.63s-.24,2.59-.73,3.61c-.49,1.02-1.17,1.81-2.04,2.37-.88.55-1.91.83-3.11.83ZM87.61,257.44c.62,0,1.17-.16,1.65-.47.48-.31.85-.75,1.13-1.3.28-.55.42-1.19.42-1.9s-.13-1.34-.4-1.9c-.27-.55-.64-.98-1.12-1.29-.48-.3-1.03-.46-1.65-.46-.59,0-1.12.16-1.59.47-.47.31-.83.74-1.09,1.29s-.39,1.17-.39,1.88.13,1.34.39,1.9.62.99,1.08,1.3c.46.31.98.47,1.57.47Z"/><path class="cls-1" d="M96.63,260.28v-13h3.43v13h-3.43ZM99.05,253.44c0-1.4.27-2.56.82-3.48.55-.92,1.25-1.6,2.11-2.05.86-.45,1.76-.68,2.69-.68v3.33c-.8,0-1.55.1-2.25.29s-1.27.5-1.7.94c-.43.43-.65.99-.65,1.66h-1.01Z"/><path class="cls-1" d="M108.41,245.17c-.52,0-.98-.2-1.38-.58-.4-.39-.6-.85-.6-1.39s.2-1,.6-1.39c.4-.39.86-.58,1.38-.58s1,.19,1.39.58c.39.39.58.85.58,1.39s-.19,1-.58,1.39c-.39.39-.85.58-1.39.58ZM106.69,260.28v-13h3.43v13h-3.43Z"/><path class="cls-1" d="M118.47,259.91c-1.2,0-2.23-.26-3.11-.78-.88-.52-1.56-1.25-2.04-2.18-.49-.94-.73-2.05-.73-3.33,0-1.35.24-2.53.73-3.52.48-1,1.17-1.77,2.04-2.31.88-.55,1.91-.82,3.11-.82,1.04,0,1.94.27,2.7.82.76.55,1.35,1.32,1.77,2.33.42,1.01.62,2.2.62,3.59,0,1.25-.21,2.34-.62,3.28s-1.01,1.66-1.77,2.17c-.76.51-1.66.77-2.7.77ZM119.14,265.81c-.99,0-1.86-.07-2.63-.21-.76-.14-1.4-.32-1.92-.55-.52-.23-.95-.45-1.27-.68l1.35-2.76c.24.14.56.3.96.48.4.18.88.34,1.43.47.55.13,1.2.19,1.92.19s1.3-.13,1.83-.4c.53-.27.94-.69,1.25-1.25.3-.56.45-1.28.45-2.15v-11.7h3.43v11.6c0,1.46-.28,2.71-.83,3.76-.55,1.05-1.34,1.84-2.35,2.38-1.01.54-2.22.81-3.63.81ZM119.46,257.03c.59,0,1.11-.15,1.55-.46.44-.3.78-.72,1.03-1.25.24-.53.36-1.13.36-1.81s-.13-1.3-.38-1.82c-.25-.52-.6-.93-1.04-1.22-.44-.29-.96-.44-1.55-.44s-1.14.15-1.61.44c-.47.29-.83.7-1.09,1.22-.26.52-.4,1.13-.42,1.82.02.68.16,1.28.42,1.81s.63.94,1.1,1.25c.48.3,1.02.46,1.62.46Z"/><path class="cls-1" d="M133.13,260.59c-1.56,0-2.77-.35-3.63-1.04-.86-.69-1.29-1.67-1.29-2.94,0-1.39.46-2.43,1.39-3.13.93-.7,2.23-1.05,3.91-1.05h3.3v2.55h-2.11c-1.13,0-1.91.13-2.34.4-.43.27-.65.65-.65,1.13,0,.38.17.68.52.9.35.22.83.33,1.46.33.57,0,1.08-.13,1.52-.4.44-.27.79-.62,1.05-1.04.26-.42.39-.86.39-1.31h.83c0,1.77-.33,3.15-1,4.13-.67.99-1.79,1.48-3.37,1.48ZM136.77,260.28l-.1-2.63v-3.95c0-.78-.08-1.45-.25-2-.16-.55-.42-.98-.78-1.29-.36-.3-.84-.46-1.44-.46-.55,0-1.06.12-1.51.36-.45.24-.83.62-1.14,1.12l-3.02-1.04c.24-.55.6-1.1,1.07-1.62.47-.53,1.08-.96,1.83-1.3.75-.34,1.68-.51,2.77-.51,1.32,0,2.41.25,3.29.75.88.5,1.53,1.21,1.95,2.12.42.91.63,1.99.61,3.24l-.08,7.2h-3.2Z"/><path class="cls-1" d="M149.04,260.59c-1.35,0-2.56-.29-3.61-.87-1.06-.58-1.88-1.39-2.47-2.42-.59-1.03-.88-2.21-.88-3.52s.29-2.51.88-3.54c.59-1.02,1.4-1.82,2.44-2.4,1.04-.58,2.24-.87,3.59-.87s2.49.32,3.56.96c1.07.64,1.85,1.57,2.34,2.78l-3.22,1.14c-.24-.5-.62-.91-1.13-1.21-.51-.3-1.08-.46-1.7-.46s-1.2.15-1.69.46c-.49.3-.87.72-1.14,1.26-.28.54-.42,1.16-.42,1.87s.14,1.33.42,1.86c.28.53.67.95,1.17,1.26.5.31,1.07.47,1.72.47s1.19-.16,1.7-.49c.51-.33.89-.76,1.13-1.3l3.25,1.14c-.5,1.23-1.29,2.18-2.35,2.86s-2.26,1.01-3.57,1.01ZM147.93,265.76c-.38,0-.78-.06-1.2-.18-.42-.12-.85-.31-1.3-.57l.52-1.64c.26.14.52.25.77.34.25.09.48.13.69.13.29,0,.55-.05.75-.16s.31-.29.31-.55c0-.35-.14-.61-.43-.78-.29-.17-.71-.28-1.26-.31l.78-1.9,1.98.16-.34.75c.61.21,1.06.51,1.36.9.3.39.45.82.45,1.29,0,.74-.26,1.35-.78,1.82-.52.47-1.29.7-2.31.7Z"/><path class="cls-1" d="M161.18,260.59c-1.56,0-2.77-.35-3.63-1.04-.86-.69-1.29-1.67-1.29-2.94,0-1.39.46-2.43,1.39-3.13.93-.7,2.23-1.05,3.91-1.05h3.3v2.55h-2.11c-1.13,0-1.91.13-2.34.4-.43.27-.65.65-.65,1.13,0,.38.17.68.52.9.35.22.83.33,1.46.33.57,0,1.08-.13,1.52-.4.44-.27.79-.62,1.05-1.04.26-.42.39-.86.39-1.31h.83c0,1.77-.33,3.15-1,4.13-.67.99-1.79,1.48-3.37,1.48ZM164.82,260.28l-.1-2.63v-3.95c0-.78-.08-1.45-.25-2-.16-.55-.42-.98-.78-1.29-.36-.3-.84-.46-1.44-.46-.55,0-1.06.12-1.51.36-.45.24-.83.62-1.14,1.12l-3.02-1.04c.24-.55.6-1.1,1.07-1.62.47-.53,1.08-.96,1.83-1.3.75-.34,1.68-.51,2.77-.51,1.32,0,2.41.25,3.29.75.88.5,1.53,1.21,1.95,2.12.42.91.63,1.99.61,3.24l-.08,7.2h-3.2ZM164.15,246c-.57,0-1.03-.1-1.36-.29-.34-.19-.6-.41-.79-.65-.19-.24-.37-.46-.55-.65-.17-.19-.39-.29-.65-.29-.21,0-.39.06-.53.18-.15.12-.27.39-.38.81h-2.31c.09-.71.26-1.3.51-1.78.25-.48.6-.84,1.04-1.08.44-.24.97-.36,1.57-.36s1.08.1,1.42.29c.34.19.61.41.82.65.21.24.4.46.57.65.17.19.39.29.65.29s.45-.09.56-.29c.11-.19.19-.43.22-.73h2.31c-.12.97-.43,1.75-.92,2.35-.49.6-1.22.9-2.17.9Z"/><path class="cls-1" d="M176.81,260.59c-1.32,0-2.49-.29-3.52-.87-1.03-.58-1.84-1.38-2.42-2.41-.58-1.02-.87-2.2-.87-3.54s.29-2.51.86-3.54,1.37-1.82,2.39-2.4c1.02-.58,2.19-.87,3.51-.87s2.51.29,3.54.87c1.02.58,1.82,1.38,2.39,2.4.57,1.02.86,2.2.86,3.54s-.29,2.51-.86,3.54c-.57,1.02-1.36,1.82-2.38,2.41-1.01.58-2.18.87-3.5.87ZM176.81,257.42c.64,0,1.2-.16,1.69-.47.49-.31.86-.74,1.13-1.29.27-.55.4-1.17.4-1.89s-.14-1.34-.42-1.88c-.28-.55-.66-.98-1.16-1.29-.49-.31-1.06-.47-1.7-.47s-1.18.16-1.68.47c-.49.31-.88.74-1.16,1.29-.28.55-.42,1.17-.42,1.88s.14,1.34.42,1.89c.28.55.67.98,1.17,1.29.5.31,1.07.47,1.72.47Z"/><path class="cls-1" d="M190.88,250.19v-2.91h8.79v2.91h-8.79ZM197.35,260.59c-1.44,0-2.53-.36-3.26-1.07-.74-.71-1.11-1.72-1.11-3.04v-13.26h3.43v12.51c0,.55.12.98.36,1.26.24.29.6.43,1.07.43.17,0,.36-.04.57-.12s.42-.2.65-.35l1.2,2.57c-.42.31-.88.57-1.39.77-.51.2-1.02.3-1.52.3Z"/><path class="cls-1" d="M208.09,260.59c-1.28,0-2.42-.29-3.41-.87-.99-.58-1.76-1.38-2.33-2.41-.56-1.02-.84-2.2-.84-3.54s.29-2.51.87-3.54c.58-1.02,1.38-1.82,2.39-2.4,1.01-.58,2.18-.87,3.5-.87,1.14,0,2.2.3,3.16.9.96.6,1.73,1.47,2.31,2.63.58,1.15.87,2.55.87,4.2h-9.85l.31-.31c0,.64.16,1.2.48,1.68.32.48.74.84,1.25,1.09.51.25,1.06.38,1.65.38.71,0,1.29-.15,1.74-.46.45-.3.8-.7,1.04-1.18l3.07,1.2c-.36.73-.84,1.36-1.42,1.89-.58.53-1.27.93-2.07,1.21-.8.28-1.71.42-2.73.42ZM205.25,252.45l-.31-.31h6.27l-.29.31c0-.62-.15-1.12-.44-1.5-.29-.37-.65-.65-1.08-.82-.43-.17-.84-.26-1.24-.26s-.82.09-1.27.26c-.45.17-.84.45-1.16.82-.32.37-.48.87-.48,1.5ZM206.11,245.66l2.96-3.59h3.85l-3.35,3.59h-3.46Z"/><path class="cls-1" d="M222.96,260.59c-1.35,0-2.56-.29-3.61-.87-1.06-.58-1.88-1.39-2.47-2.42-.59-1.03-.88-2.21-.88-3.52s.29-2.51.88-3.54c.59-1.02,1.4-1.82,2.44-2.4,1.04-.58,2.24-.87,3.59-.87s2.49.32,3.56.96c1.07.64,1.85,1.57,2.34,2.78l-3.22,1.14c-.24-.5-.62-.91-1.13-1.21-.51-.3-1.08-.46-1.7-.46s-1.2.15-1.69.46c-.49.3-.87.72-1.14,1.26-.28.54-.42,1.16-.42,1.87s.14,1.33.42,1.86c.28.53.67.95,1.17,1.26.5.31,1.07.47,1.72.47s1.19-.16,1.7-.49c.51-.33.89-.76,1.13-1.3l3.25,1.14c-.5,1.23-1.29,2.18-2.35,2.86s-2.26,1.01-3.57,1.01Z"/><path class="cls-1" d="M230.89,260.28v-13h3.22l.21,2.39v10.61h-3.43ZM239.5,253.62c0-.88-.1-1.57-.3-2.05-.2-.48-.48-.84-.85-1.05-.36-.22-.79-.33-1.27-.33-.88-.02-1.56.25-2.04.81-.48.56-.71,1.38-.71,2.47h-1.14c0-1.39.2-2.56.61-3.52.41-.96.98-1.7,1.72-2.21.74-.51,1.6-.77,2.59-.77s1.9.21,2.63.62,1.28,1.06,1.66,1.94c.38.88.56,2.01.55,3.39v.7h-3.43ZM239.5,260.28v-6.66h3.43v6.66h-3.43Z"/><path class="cls-1" d="M247.58,245.17c-.52,0-.98-.2-1.38-.58-.4-.39-.6-.85-.6-1.39s.2-1,.6-1.39c.4-.39.86-.58,1.38-.58s1,.19,1.39.58c.39.39.59.85.59,1.39s-.2,1-.59,1.39c-.39.39-.85.58-1.39.58ZM245.87,260.28v-13h3.43v13h-3.43Z"/><path class="cls-1" d="M258.74,260.59c-1.35,0-2.56-.29-3.61-.87-1.06-.58-1.88-1.39-2.47-2.42-.59-1.03-.88-2.21-.88-3.52s.29-2.51.88-3.54c.59-1.02,1.4-1.82,2.44-2.4,1.04-.58,2.24-.87,3.59-.87s2.49.32,3.56.96c1.07.64,1.85,1.57,2.34,2.78l-3.22,1.14c-.24-.5-.62-.91-1.13-1.21-.51-.3-1.08-.46-1.7-.46s-1.2.15-1.69.46c-.49.3-.87.72-1.14,1.26-.28.54-.42,1.16-.42,1.87s.14,1.33.42,1.86c.28.53.67.95,1.17,1.26.5.31,1.07.47,1.72.47s1.19-.16,1.7-.49c.51-.33.89-.76,1.13-1.3l3.25,1.14c-.5,1.23-1.29,2.18-2.35,2.86s-2.26,1.01-3.57,1.01Z"/><path class="cls-1" d="M270.88,260.59c-1.56,0-2.77-.35-3.63-1.04s-1.29-1.67-1.29-2.94c0-1.39.46-2.43,1.39-3.13.93-.7,2.23-1.05,3.91-1.05h3.3v2.55h-2.11c-1.13,0-1.91.13-2.34.4-.43.27-.65.65-.65,1.13,0,.38.17.68.52.9.35.22.83.33,1.46.33.57,0,1.08-.13,1.52-.4.44-.27.79-.62,1.05-1.04.26-.42.39-.86.39-1.31h.83c0,1.77-.33,3.15-1,4.13-.67.99-1.79,1.48-3.37,1.48ZM274.52,260.28l-.1-2.63v-3.95c0-.78-.08-1.45-.25-2-.16-.55-.42-.98-.78-1.29-.36-.3-.84-.46-1.44-.46-.55,0-1.06.12-1.51.36-.45.24-.83.62-1.14,1.12l-3.02-1.04c.24-.55.6-1.1,1.07-1.62.47-.53,1.08-.96,1.83-1.3.75-.34,1.68-.51,2.77-.51,1.32,0,2.41.25,3.29.75.88.5,1.52,1.21,1.95,2.12.42.91.63,1.99.61,3.24l-.08,7.2h-3.2Z"/><path class="cls-1" d="M283.41,262.88h-3.38c.81-1.13,1.55-2.32,2.2-3.58.65-1.26,1.17-2.57,1.55-3.94.38-1.37.57-2.76.57-4.19s-.19-2.84-.57-4.2c-.38-1.36-.9-2.67-1.55-3.94-.65-1.27-1.38-2.45-2.2-3.56h3.38c.81,1.06,1.55,2.21,2.2,3.45.65,1.24,1.17,2.55,1.55,3.93.38,1.38.57,2.82.57,4.33s-.19,2.93-.57,4.32c-.38,1.39-.9,2.7-1.55,3.94-.65,1.24-1.38,2.39-2.2,3.45Z"/><path class="cls-1" d="M152.73,127.39c2.99-.32,5.86-1.13,8.51-2.36l5.41,4.8,3.9-3.05,3.9-3.05-3.35-6.42c1.83-2.28,3.31-4.86,4.35-7.68l7.23-.43.6-4.91.61-4.91-6.91-2.17c-.32-2.99-1.13-5.86-2.36-8.51l4.8-5.41-3.05-3.9-3.05-3.9-6.42,3.35c-2.28-1.83-4.86-3.31-7.68-4.35l-.43-7.23-4.91-.6-4.91-.6-2.17,6.91c-2.99.32-5.86,1.13-8.51,2.36l-5.41-4.8-3.9,3.05-3.9,3.05,3.35,6.42c-1.83,2.28-3.31,4.86-4.35,7.68l-7.23.43-.61,4.91-.61,4.91,6.91,2.17c.32,2.99,1.13,5.86,2.36,8.51l-4.8,5.41,3.05,3.9,3.05,3.9,6.42-3.35c2.28,1.83,4.86,3.31,7.68,4.35l.43,7.23,4.91.61,4.91.6,2.17-6.91ZM132.42,106.76c-3.64-9.59,1.18-20.31,10.77-23.95,9.59-3.64,20.31,1.18,23.95,10.77,3.64,9.59-1.18,20.31-10.77,23.95-9.59,3.64-20.31-1.18-23.95-10.77Z"/><path class="cls-1" d="M198.78,159.48c2.35-.25,4.61-.89,6.7-1.85l4.26,3.78,3.07-2.4,3.07-2.4-2.63-5.05c1.44-1.79,2.61-3.83,3.42-6.05l5.69-.34.48-3.87.48-3.87-5.43-1.71c-.25-2.35-.89-4.61-1.85-6.7l3.78-4.26-2.4-3.07-2.4-3.07-5.05,2.63c-1.79-1.44-3.83-2.61-6.05-3.42l-.34-5.69-3.87-.48-3.87-.48-1.71,5.43c-2.35.25-4.61.89-6.7,1.85l-4.26-3.78-3.07,2.4-3.07,2.4,2.63,5.05c-1.44,1.79-2.61,3.83-3.42,6.05l-5.69.34-.48,3.87-.48,3.87,5.43,1.71c.25,2.35.89,4.61,1.85,6.7l-3.78,4.26,2.4,3.07,2.4,3.07,5.05-2.63c1.79,1.44,3.83,2.61,6.05,3.42l.34,5.69,3.87.48,3.87.48,1.71-5.43ZM182.79,143.25c-2.86-7.54.93-15.98,8.47-18.85,7.54-2.86,15.98.93,18.85,8.47,2.86,7.54-.93,15.98-8.47,18.85-7.54,2.86-15.98-.93-18.85-8.47Z"/><path class="cls-2" d="M113.18,119.63l-.07.22c-11.52,35.97,23.52,69.37,58.9,56.15h0"/><path class="cls-2" d="M162.45,169.92l10.83,3.92c.86.31,1.14,1.17.63,1.94l-6.3,9.42"/><path class="cls-2" d="M236.9,114.97l.07-.22c11.33-36.03-23.88-69.25-59.19-55.84h0"/><path class="cls-2" d="M187.36,64.94l-10.85-3.86c-.87-.31-1.15-1.16-.64-1.93l6.25-9.46"/></svg>