<?xml version="1.0" encoding="UTF-8"?>
<svg id="Camada_2" data-name="Camada 2" xmlns="http://www.w3.org/2000/svg" xmlns:xlink="http://www.w3.org/1999/xlink" viewBox="0 0 69.79 69.79">
  <defs>
    <style>
      .cls-1 {
        fill: #fff;
        filter: url(#drop-shadow-1);
      }

      .cls-1, .cls-2 {
        stroke-width: 0px;
      }

      .cls-2 {
        fill: url(#Gradiente_sem_nome_39);
      }
    </style>
    <linearGradient id="Gradiente_sem_nome_39" data-name="Gradiente sem nome 39" x1="4.67" y1="17.45" x2="65.12" y2="52.35" gradientUnits="userSpaceOnUse">
      <stop offset="0" stop-color="#8badd1"/>
      <stop offset=".2" stop-color="#6894c0"/>
      <stop offset=".58" stop-color="#306ca5"/>
      <stop offset=".85" stop-color="#0d5394"/>
      <stop offset="1" stop-color="#004a8e"/>
    </linearGradient>
    <filter id="drop-shadow-1" filterUnits="userSpaceOnUse">
      <feOffset dx="3" dy="3"/>
      <feGaussianBlur result="blur" stdDeviation="2"/>
      <feFlood flood-color="#000" flood-opacity=".2"/>
      <feComposite in2="blur" operator="in"/>
      <feComposite in="SourceGraphic"/>
    </filter>
  </defs>
  <g id="Camada_1-2" data-name="Camada 1">
    <g>
      <circle class="cls-2" cx="34.9" cy="34.9" r="34.9"/>
      <path class="cls-1" d="M13.65,55.08v-4.25h19.13v-23.75c-.92-.32-1.72-.81-2.39-1.49s-1.17-1.47-1.49-2.39h-6.75l6.38,14.88c0,1.77-.73,3.28-2.18,4.52s-3.21,1.86-5.26,1.86-3.81-.62-5.26-1.86c-1.45-1.24-2.18-2.74-2.18-4.52l6.38-14.88h-4.25v-4.25h13.12c.43-1.24,1.19-2.26,2.28-3.05s2.34-1.2,3.72-1.2,2.62.4,3.72,1.2,1.86,1.82,2.28,3.05h13.12v4.25h-4.25l6.38,14.88c0,1.77-.73,3.28-2.18,4.52s-3.21,1.86-5.26,1.86-3.81-.62-5.26-1.86-2.18-2.74-2.18-4.52l6.38-14.88h-6.75c-.32.92-.81,1.72-1.49,2.39s-1.47,1.17-2.39,1.49v23.75h19.13v4.25H13.65ZM44.72,38.08h7.97l-3.98-9.24-3.98,9.24ZM17.1,38.08h7.97l-3.98-9.24-3.98,9.24ZM34.9,23.21c.6,0,1.11-.2,1.51-.61.41-.41.61-.91.61-1.51s-.2-1.11-.61-1.51c-.41-.41-.91-.61-1.51-.61s-1.11.2-1.51.61-.61.91-.61,1.51.2,1.11.61,1.51.91.61,1.51.61Z"/>
    </g>
  </g>
</svg>