<?xml version="1.0" encoding="UTF-8"?>
<svg id="Camada_2" data-name="Camada 2" xmlns="http://www.w3.org/2000/svg" xmlns:xlink="http://www.w3.org/1999/xlink" viewBox="0 0 69.79 69.79">
  <defs>
    <style>
      .cls-1 {
        fill: #fff;
        filter: url(#drop-shadow-1);
      }

      .cls-1, .cls-2 {
        stroke-width: 0px;
      }

      .cls-2 {
        fill: url(#Gradiente_sem_nome_39);
      }
    </style>
    <linearGradient id="Gradiente_sem_nome_39" data-name="Gradiente sem nome 39" x1="4.67" y1="17.45" x2="65.12" y2="52.35" gradientUnits="userSpaceOnUse">
      <stop offset="0" stop-color="#8badd1"/>
      <stop offset=".2" stop-color="#6894c0"/>
      <stop offset=".58" stop-color="#306ca5"/>
      <stop offset=".85" stop-color="#0d5394"/>
      <stop offset="1" stop-color="#004a8e"/>
    </linearGradient>
    <filter id="drop-shadow-1" filterUnits="userSpaceOnUse">
      <feOffset dx="3" dy="3"/>
      <feGaussianBlur result="blur" stdDeviation="2"/>
      <feFlood flood-color="#000" flood-opacity=".2"/>
      <feComposite in2="blur" operator="in"/>
      <feComposite in="SourceGraphic"/>
    </filter>
  </defs>
  <g id="Camada_1-2" data-name="Camada 1">
    <g>
      <circle class="cls-2" cx="34.9" cy="34.9" r="34.9"/>
      <path class="cls-1" d="M16.83,48.71c-1.17,0-2.17-.42-3-1.25s-1.25-1.83-1.25-3v-25.5c0-1.17.42-2.17,1.25-3s1.83-1.25,3-1.25h12.75l4.25,4.25h17c1.17,0,2.17.42,3,1.25s1.25,1.83,1.25,3v12.86c-.64-.5-1.31-.9-2.02-1.22s-1.45-.66-2.23-1.01v-10.63h-18.75l-4.25-4.25h-11v25.5h6.38v4.25h-6.38ZM42.33,55.08c-3.22,0-6.2-.85-8.93-2.55-2.73-1.7-4.71-4.04-5.95-7.01,1.24-2.98,3.22-5.31,5.95-7.01,2.73-1.7,5.7-2.55,8.93-2.55s6.2.85,8.93,2.55c2.73,1.7,4.71,4.04,5.95,7.01-1.24,2.98-3.22,5.31-5.95,7.01s-5.7,2.55-8.93,2.55ZM42.33,50.83c2.02,0,3.92-.46,5.71-1.38s3.25-2.23,4.38-3.93c-1.13-1.7-2.59-3.01-4.38-3.93-1.79-.92-3.69-1.38-5.71-1.38s-3.92.46-5.71,1.38c-1.79.92-3.25,2.23-4.38,3.93,1.13,1.7,2.59,3.01,4.38,3.93,1.79.92,3.69,1.38,5.71,1.38ZM42.33,48.71c-.89,0-1.64-.31-2.26-.93s-.93-1.37-.93-2.26.31-1.64.93-2.26c.62-.62,1.37-.93,2.26-.93s1.64.31,2.26.93c.62.62.93,1.37.93,2.26s-.31,1.64-.93,2.26-1.37.93-2.26.93ZM16.83,44.46v-25.5,14.72-1.97,12.75Z"/>
    </g>
  </g>
</svg>