<?xml version="1.0" encoding="UTF-8"?>
<svg id="Camada_2" data-name="Camada 2" xmlns="http://www.w3.org/2000/svg" xmlns:xlink="http://www.w3.org/1999/xlink" viewBox="0 0 69.79 69.79">
  <defs>
    <style>
      .cls-1 {
        fill: #fff;
        filter: url(#drop-shadow-1);
      }

      .cls-1, .cls-2 {
        stroke-width: 0px;
      }

      .cls-2 {
        fill: url(#Gradiente_sem_nome_39);
      }
    </style>
    <linearGradient id="Gradiente_sem_nome_39" data-name="Gradiente sem nome 39" x1="4.67" y1="17.45" x2="65.12" y2="52.35" gradientUnits="userSpaceOnUse">
      <stop offset="0" stop-color="#8badd1"/>
      <stop offset=".2" stop-color="#6894c0"/>
      <stop offset=".58" stop-color="#306ca5"/>
      <stop offset=".85" stop-color="#0d5394"/>
      <stop offset="1" stop-color="#004a8e"/>
    </linearGradient>
    <filter id="drop-shadow-1" filterUnits="userSpaceOnUse">
      <feOffset dx="3" dy="3"/>
      <feGaussianBlur result="blur" stdDeviation="2"/>
      <feFlood flood-color="#000" flood-opacity=".2"/>
      <feComposite in2="blur" operator="in"/>
      <feComposite in="SourceGraphic"/>
    </filter>
  </defs>
  <g id="Camada_1-2" data-name="Camada 1">
    <g>
      <circle class="cls-2" cx="34.9" cy="34.9" r="34.9"/>
      <path class="cls-1" d="M45.52,41.27c-1.49,0-2.74-.51-3.77-1.54s-1.54-2.28-1.54-3.77.51-2.74,1.54-3.77c1.03-1.03,2.28-1.54,3.77-1.54s2.74.51,3.77,1.54c1.03,1.03,1.54,2.28,1.54,3.77s-.51,2.74-1.54,3.77-2.28,1.54-3.77,1.54ZM34.9,51.9v-2.98c0-.85.22-1.64.66-2.36.44-.73,1.07-1.25,1.89-1.57,1.28-.53,2.59-.93,3.96-1.2s2.74-.4,4.12-.4,2.75.13,4.12.4,2.68.66,3.96,1.2c.81.32,1.44.84,1.89,1.57.44.73.66,1.51.66,2.36v2.98h-21.25ZM30.65,34.9c-2.34,0-4.34-.83-6-2.5-1.66-1.66-2.5-3.67-2.5-6s.83-4.34,2.5-6c1.66-1.66,3.67-2.5,6-2.5s4.34.83,6,2.5c1.66,1.66,2.5,3.67,2.5,6s-.83,4.34-2.5,6-3.67,2.5-6,2.5ZM13.65,51.9v-5.95c0-1.2.3-2.31.9-3.32s1.43-1.78,2.5-2.31c2.13-1.06,4.33-1.88,6.61-2.44s4.61-.85,6.99-.85c1.24,0,2.48.11,3.72.32s2.48.46,3.72.74l-1.81,1.81-1.81,1.81c-.64-.18-1.28-.29-1.91-.35s-1.28-.08-1.91-.08c-2.05,0-4.06.25-6.03.74s-3.85,1.2-5.66,2.13c-.35.18-.62.43-.8.74s-.27.67-.27,1.06v1.7h12.75v4.25H13.65ZM30.65,30.65c1.17,0,2.17-.42,3-1.25s1.25-1.83,1.25-3-.42-2.17-1.25-3-1.83-1.25-3-1.25-2.17.42-3,1.25-1.25,1.83-1.25,3,.42,2.17,1.25,3,1.83,1.25,3,1.25Z"/>
    </g>
  </g>
</svg>