<?xml version="1.0" encoding="UTF-8"?>
<svg id="Camada_2" data-name="Camada 2" xmlns="http://www.w3.org/2000/svg" xmlns:xlink="http://www.w3.org/1999/xlink" viewBox="0 0 291.01 291.01">
  <defs>
    <style>
      .cls-1 {
        mask: url(#mask);
      }

      .cls-2 {
        fill: url(#Gradiente_sem_nome_2);
      }

      .cls-2, .cls-3 {
        stroke-width: 0px;
      }

      .cls-3 {
        fill: #d9d9d9;
      }
    </style>
    <mask id="mask" x="-70.71" y="-65.29" width="413.25" height="408.54" maskUnits="userSpaceOnUse">
      <g id="mask0_88_68" data-name="mask0 88 68">
        <rect class="cls-3" x="-172.89" y="82.59" width="322.54" height="13.43" transform="translate(-92.22 49.12) rotate(-70.91)"/>
        <rect class="cls-3" x="-146.07" y="91.63" width="322.54" height="13.43" transform="translate(-82.7 80.55) rotate(-70.91)"/>
        <rect class="cls-3" x="-119.24" y="100.66" width="322.54" height="13.43" transform="translate(-73.19 111.97) rotate(-70.91)"/>
        <rect class="cls-3" x="-92.42" y="109.69" width="322.54" height="13.43" transform="translate(-63.67 143.4) rotate(-70.91)"/>
        <rect class="cls-3" x="-65.59" y="118.72" width="322.54" height="13.43" transform="translate(-54.15 174.82) rotate(-70.91)"/>
        <rect class="cls-3" x="-38.77" y="127.75" width="322.54" height="13.43" transform="translate(-44.64 206.25) rotate(-70.91)"/>
        <rect class="cls-3" x="-11.95" y="136.78" width="322.54" height="13.43" transform="translate(-35.12 237.68) rotate(-70.91)"/>
        <rect class="cls-3" x="14.88" y="145.81" width="322.54" height="13.43" transform="translate(-25.6 269.11) rotate(-70.91)"/>
        <rect class="cls-3" x="41.7" y="154.84" width="322.54" height="13.43" transform="translate(-16.09 300.53) rotate(-70.91)"/>
        <rect class="cls-3" x="68.53" y="163.88" width="322.54" height="13.43" transform="translate(-6.57 331.96) rotate(-70.91)"/>
        <rect class="cls-3" x="95.35" y="172.91" width="322.54" height="13.43" transform="translate(2.95 363.38) rotate(-70.91)"/>
        <rect class="cls-3" x="122.17" y="181.94" width="322.54" height="13.43" transform="translate(12.46 394.81) rotate(-70.91)"/>
      </g>
    </mask>
    <linearGradient id="Gradiente_sem_nome_2" data-name="Gradiente sem nome 2" x1="0" y1="-11909.37" x2="291.01" y2="-11909.37" gradientTransform="translate(0 -11763.86) scale(1 -1)" gradientUnits="userSpaceOnUse">
      <stop offset=".33" stop-color="#82aed5"/>
      <stop offset="1" stop-color="#da0061"/>
    </linearGradient>
  </defs>
  <g id="Layer_1" data-name="Layer 1">
    <g class="cls-1">
      <circle class="cls-2" cx="145.51" cy="145.51" r="145.51"/>
    </g>
  </g>
</svg>