<?xml version="1.0" encoding="UTF-8"?>
<svg id="Camada_2" data-name="Camada 2" xmlns="http://www.w3.org/2000/svg" xmlns:xlink="http://www.w3.org/1999/xlink" viewBox="0 0 163.8 163.8">
  <defs>
    <style>
      .cls-1 {
        fill: #004c93;
      }

      .cls-1, .cls-2 {
        stroke-width: 0px;
      }

      .cls-2 {
        fill: url(#Gradiente_sem_nome_366);
      }
    </style>
    <linearGradient id="Gradiente_sem_nome_366" data-name="Gradiente sem nome 366" x1="-1463.97" y1="525.24" x2="-1300.16" y2="525.24" gradientTransform="translate(1430.57 687.77) rotate(45)" gradientUnits="userSpaceOnUse">
      <stop offset="0" stop-color="#da0061" stop-opacity="0"/>
      <stop offset=".11" stop-color="rgba(215, 4, 99, .02)" stop-opacity=".02"/>
      <stop offset=".25" stop-color="rgba(209, 16, 108, .1)" stop-opacity=".1"/>
      <stop offset=".4" stop-color="rgba(199, 37, 121, .21)" stop-opacity=".21"/>
      <stop offset=".56" stop-color="rgba(184, 65, 140, .38)" stop-opacity=".38"/>
      <stop offset=".73" stop-color="rgba(166, 102, 165, .59)" stop-opacity=".59"/>
      <stop offset=".9" stop-color="rgba(144, 146, 194, .84)" stop-opacity=".84"/>
      <stop offset="1" stop-color="#82aed5"/>
    </linearGradient>
  </defs>
  <g id="Layer_1" data-name="Layer 1">
    <g>
      <circle class="cls-2" cx="81.9" cy="81.9" r="81.9"/>
      <path class="cls-1" d="M47.76,124.57c-2.35,0-4.36-.84-6.03-2.51s-2.51-3.68-2.51-6.03v-46.94c0-2.35.84-4.36,2.51-6.03s3.68-2.51,6.03-2.51h21.34v-12.8c0-2.35.84-4.36,2.51-6.03s3.68-2.51,6.03-2.51h8.53c2.35,0,4.36.84,6.03,2.51s2.51,3.68,2.51,6.03v12.8h21.34c2.35,0,4.36.84,6.03,2.51s2.51,3.68,2.51,6.03v46.94c0,2.35-.84,4.36-2.51,6.03s-3.68,2.51-6.03,2.51H47.76ZM47.76,116.04h68.27v-46.94h-21.34c0,2.35-.84,4.36-2.51,6.03s-3.68,2.51-6.03,2.51h-8.53c-2.35,0-4.36-.84-6.03-2.51s-2.51-3.68-2.51-6.03h-21.34v46.94ZM56.3,107.5h25.6v-1.92c0-1.21-.34-2.33-1.01-3.36s-1.62-1.83-2.83-2.4c-1.42-.64-2.86-1.12-4.32-1.44s-3-.48-4.64-.48-3.18.16-4.64.48-2.9.8-4.32,1.44c-1.21.57-2.15,1.37-2.83,2.4s-1.01,2.15-1.01,3.36v1.92ZM90.44,101.1h17.07v-6.4h-17.07v6.4ZM69.1,94.7c1.78,0,3.29-.62,4.53-1.87s1.87-2.76,1.87-4.53-.62-3.29-1.87-4.53-2.76-1.87-4.53-1.87-3.29.62-4.53,1.87-1.87,2.76-1.87,4.53.62,3.29,1.87,4.53,2.76,1.87,4.53,1.87ZM90.44,88.3h17.07v-6.4h-17.07v6.4ZM77.63,69.1h8.53v-21.34h-8.53v21.34Z"/>
    </g>
  </g>
</svg>