<?xml version="1.0" encoding="UTF-8"?>
<svg id="Camada_2" data-name="Camada 2" xmlns="http://www.w3.org/2000/svg" xmlns:xlink="http://www.w3.org/1999/xlink" viewBox="0 0 163.8 163.8">
  <defs>
    <style>
      .cls-1 {
        fill: #004c93;
      }

      .cls-1, .cls-2 {
        stroke-width: 0px;
      }

      .cls-2 {
        fill: url(#Gradiente_sem_nome_366);
      }
    </style>
    <linearGradient id="Gradiente_sem_nome_366" data-name="Gradiente sem nome 366" x1="-1528.16" y1="370.27" x2="-1364.35" y2="370.27" gradientTransform="translate(1366.38 842.74) rotate(45)" gradientUnits="userSpaceOnUse">
      <stop offset="0" stop-color="#da0061" stop-opacity="0"/>
      <stop offset=".11" stop-color="rgba(215, 4, 99, .02)" stop-opacity=".02"/>
      <stop offset=".25" stop-color="rgba(209, 16, 108, .1)" stop-opacity=".1"/>
      <stop offset=".4" stop-color="rgba(199, 37, 121, .21)" stop-opacity=".21"/>
      <stop offset=".56" stop-color="rgba(184, 65, 140, .38)" stop-opacity=".38"/>
      <stop offset=".73" stop-color="rgba(166, 102, 165, .59)" stop-opacity=".59"/>
      <stop offset=".9" stop-color="rgba(144, 146, 194, .84)" stop-opacity=".84"/>
      <stop offset="1" stop-color="#82aed5"/>
    </linearGradient>
  </defs>
  <g id="Layer_1" data-name="Layer 1">
    <g>
      <circle class="cls-2" cx="81.9" cy="81.9" r="81.9"/>
      <path class="cls-1" d="M24.8,110.45v-7.49c0-3.41,1.74-6.19,5.23-8.33,3.49-2.14,8.09-3.21,13.8-3.21,1.03,0,2.02.02,2.97.06s1.86.14,2.74.3c-1.11,1.67-1.94,3.41-2.5,5.23s-.83,3.73-.83,5.71v7.73h-21.41ZM53.35,110.45v-7.73c0-2.54.69-4.86,2.08-6.96,1.39-2.1,3.35-3.95,5.89-5.53s5.57-2.78,9.1-3.57,7.36-1.19,11.48-1.19,8.07.4,11.6,1.19,6.56,1.98,9.1,3.57,4.48,3.43,5.83,5.53,2.02,4.42,2.02,6.96v7.73h-57.1ZM117.59,110.45v-7.73c0-2.06-.26-4-.77-5.83s-1.29-3.53-2.32-5.12c.87-.16,1.76-.26,2.68-.3s1.84-.06,2.8-.06c5.71,0,10.31,1.05,13.8,3.15s5.23,4.9,5.23,8.39v7.49h-21.41ZM63.46,100.93h37c-.79-1.59-2.99-2.97-6.6-4.16s-7.59-1.78-11.96-1.78-8.35.59-11.96,1.78-5.77,2.58-6.48,4.16ZM43.83,86.66c-2.62,0-4.86-.93-6.72-2.8s-2.8-4.1-2.8-6.72.93-4.96,2.8-6.78,4.1-2.74,6.72-2.74,4.96.91,6.78,2.74,2.74,4.08,2.74,6.78-.91,4.86-2.74,6.72-4.08,2.8-6.78,2.8ZM119.97,86.66c-2.62,0-4.86-.93-6.72-2.8s-2.8-4.1-2.8-6.72.93-4.96,2.8-6.78,4.1-2.74,6.72-2.74,4.96.91,6.78,2.74,2.74,4.08,2.74,6.78-.91,4.86-2.74,6.72-4.08,2.8-6.78,2.8ZM81.9,81.9c-3.97,0-7.34-1.39-10.11-4.16-2.78-2.78-4.16-6.15-4.16-10.11s1.39-7.44,4.16-10.17,6.15-4.1,10.11-4.1,7.44,1.37,10.17,4.1,4.1,6.13,4.1,10.17-1.37,7.34-4.1,10.11c-2.74,2.78-6.13,4.16-10.17,4.16ZM81.9,72.38c1.35,0,2.48-.46,3.39-1.37.91-.91,1.37-2.04,1.37-3.39s-.46-2.48-1.37-3.39c-.91-.91-2.04-1.37-3.39-1.37s-2.48.46-3.39,1.37-1.37,2.04-1.37,3.39.46,2.48,1.37,3.39,2.04,1.37,3.39,1.37Z"/>
    </g>
  </g>
</svg>