<?xml version="1.0" encoding="UTF-8"?>
<svg id="Camada_2" data-name="Camada 2" xmlns="http://www.w3.org/2000/svg" xmlns:xlink="http://www.w3.org/1999/xlink" viewBox="0 0 92.98 79.2">
  <defs>
    <style>
      .cls-1 {
        fill: #004c93;
      }

      .cls-1, .cls-2, .cls-3, .cls-4 {
        stroke-width: 0px;
      }

      .cls-5 {
        mask: url(#mask);
      }

      .cls-2 {
        fill: url(#Gradiente_sem_nome_4);
      }

      .cls-3 {
        fill: #d9d9d9;
      }

      .cls-4 {
        fill: #82aed5;
      }
    </style>
    <mask id="mask" x="27.91" y="-10.79" width="68.27" height="67.5" maskUnits="userSpaceOnUse">
      <g id="mask0_88_68" data-name="mask0 88 68">
        <rect class="cls-3" x="11.03" y="13.65" width="53.29" height="2.22" transform="translate(11.41 45.53) rotate(-70.91)"/>
        <rect class="cls-3" x="15.46" y="15.14" width="53.29" height="2.22" transform="translate(12.98 50.73) rotate(-70.91)"/>
        <rect class="cls-3" x="19.9" y="16.63" width="53.29" height="2.22" transform="translate(14.56 55.92) rotate(-70.91)"/>
        <rect class="cls-3" x="24.33" y="18.12" width="53.29" height="2.22" transform="translate(16.13 61.11) rotate(-70.91)"/>
        <rect class="cls-3" x="28.76" y="19.61" width="53.29" height="2.22" transform="translate(17.7 66.3) rotate(-70.91)"/>
        <rect class="cls-3" x="33.19" y="21.11" width="53.29" height="2.22" transform="translate(19.27 71.49) rotate(-70.91)"/>
        <rect class="cls-3" x="37.62" y="22.6" width="53.29" height="2.22" transform="translate(20.84 76.69) rotate(-70.91)"/>
        <rect class="cls-3" x="42.05" y="24.09" width="53.29" height="2.22" transform="translate(22.42 81.88) rotate(-70.91)"/>
        <rect class="cls-3" x="46.49" y="25.58" width="53.29" height="2.22" transform="translate(23.99 87.07) rotate(-70.91)"/>
        <rect class="cls-3" x="50.92" y="27.07" width="53.29" height="2.22" transform="translate(25.56 92.26) rotate(-70.91)"/>
        <rect class="cls-3" x="55.35" y="28.57" width="53.29" height="2.22" transform="translate(27.13 97.45) rotate(-70.91)"/>
        <rect class="cls-3" x="59.78" y="30.06" width="53.29" height="2.22" transform="translate(28.71 102.65) rotate(-70.91)"/>
      </g>
    </mask>
    <linearGradient id="Gradiente_sem_nome_4" data-name="Gradiente sem nome 4" x1="39.6" y1="5379.28" x2="87.68" y2="5379.28" gradientTransform="translate(0 5403.32) scale(1 -1)" gradientUnits="userSpaceOnUse">
      <stop offset=".33" stop-color="#82aed5"/>
      <stop offset="1" stop-color="#da0061"/>
    </linearGradient>
  </defs>
  <g id="Layer_1" data-name="Layer 1">
    <g>
      <polygon class="cls-4" points="78.12 31.48 80.19 46.55 92.98 54.8 77.9 56.87 69.66 69.66 67.59 54.58 54.8 46.34 69.87 44.27 78.12 31.48"/>
      <g class="cls-5">
        <circle class="cls-2" cx="63.64" cy="24.04" r="24.04"/>
      </g>
      <path class="cls-1" d="M28.64,54.55c-1.11,0-2.05-.38-2.82-1.15s-1.15-1.71-1.15-2.82.38-2.05,1.15-2.82,1.71-1.15,2.82-1.15,2.05.38,2.82,1.15,1.15,1.71,1.15,2.82-.38,2.05-1.15,2.82-1.71,1.15-2.82,1.15ZM47.73,54.55c-1.11,0-2.05-.38-2.82-1.15s-1.15-1.71-1.15-2.82.38-2.05,1.15-2.82,1.71-1.15,2.82-1.15,2.05.38,2.82,1.15,1.15,1.71,1.15,2.82-.38,2.05-1.15,2.82-1.71,1.15-2.82,1.15ZM38.18,72.84c7.11,0,13.12-2.47,18.06-7.4,4.93-4.93,7.4-10.95,7.4-18.06,0-1.27-.08-2.51-.24-3.7s-.45-2.35-.88-3.46c-1.11.27-2.23.46-3.34.6s-2.28.2-3.5.2c-4.83,0-9.39-1.03-13.68-3.1s-7.95-4.96-10.98-8.67c-1.7,4.14-4.12,7.73-7.28,10.78-3.16,3.05-6.83,5.34-11.02,6.88v.48c0,7.11,2.47,13.12,7.4,18.06s10.95,7.4,18.06,7.4ZM33.89,22.33c2.23,3.71,5.25,6.7,9.07,8.95s8.06,3.38,12.73,3.38c.74,0,1.46-.04,2.15-.12s1.41-.17,2.15-.28c-2.23-3.71-5.25-6.7-9.07-8.95s-8.06-3.38-12.73-3.38c-.74,0-1.46.04-2.15.12s-1.41.17-2.15.28ZM14.08,39.35c2.7-1.54,5.06-3.53,7.08-5.97,2.02-2.44,3.53-5.17,4.53-8.19-2.7,1.54-5.06,3.53-7.08,5.97-2.02,2.44-3.53,5.17-4.53,8.19ZM10.1,32.51c1.48-2.81,3.35-5.34,5.61-7.6s4.79-4.12,7.6-5.61c-.9-1.11-1.99-2.02-3.26-2.7s-2.68-1.03-4.22-1.03c-2.65,0-4.89.91-6.72,2.74s-2.74,4.07-2.74,6.72c0,1.54.34,2.94,1.03,4.22s1.59,2.36,2.7,3.26ZM38.18,79.2c-4.4,0-8.54-.84-12.41-2.51s-7.24-3.94-10.1-6.8-5.13-6.23-6.8-10.1c-1.67-3.87-2.51-8.01-2.51-12.41,0-1.54.11-3.06.32-4.57s.53-2.96.95-4.34c-2.28-1.38-4.12-3.25-5.53-5.61-1.41-2.36-2.11-4.97-2.11-7.84,0-4.4,1.54-8.14,4.61-11.22,3.08-3.08,6.81-4.61,11.22-4.61,2.81,0,5.4.68,7.76,2.03s4.26,3.22,5.69,5.61c1.38-.42,2.82-.74,4.34-.95s3.04-.32,4.57-.32c4.4,0,8.54.84,12.41,2.51s7.24,3.94,10.1,6.8,5.13,6.23,6.8,10.1c1.67,3.87,2.51,8.01,2.51,12.41s-.84,8.54-2.51,12.41c-1.67,3.87-3.94,7.24-6.8,10.1s-6.23,5.13-10.1,6.8-8.01,2.51-12.41,2.51Z"/>
    </g>
  </g>
</svg>