<?xml version="1.0" encoding="UTF-8"?>
<svg id="Camada_2" data-name="Camada 2" xmlns="http://www.w3.org/2000/svg" xmlns:xlink="http://www.w3.org/1999/xlink" viewBox="0 0 97.84 83.6">
  <defs>
    <style>
      .cls-1 {
        fill: #004c93;
      }

      .cls-1, .cls-2, .cls-3, .cls-4 {
        stroke-width: 0px;
      }

      .cls-5 {
        mask: url(#mask);
      }

      .cls-2 {
        fill: url(#Gradiente_sem_nome_4);
      }

      .cls-3 {
        fill: #d9d9d9;
      }

      .cls-4 {
        fill: #82aed5;
      }
    </style>
    <mask id="mask" x="30.49" y="-10.79" width="68.27" height="67.5" maskUnits="userSpaceOnUse">
      <g id="mask0_88_68" data-name="mask0 88 68">
        <rect class="cls-3" x="13.61" y="13.65" width="53.29" height="2.22" transform="translate(13.14 47.96) rotate(-70.91)"/>
        <rect class="cls-3" x="18.04" y="15.14" width="53.29" height="2.22" transform="translate(14.71 53.16) rotate(-70.91)"/>
        <rect class="cls-3" x="22.47" y="16.63" width="53.29" height="2.22" transform="translate(16.29 58.35) rotate(-70.91)"/>
        <rect class="cls-3" x="26.9" y="18.12" width="53.29" height="2.22" transform="translate(17.86 63.54) rotate(-70.91)"/>
        <rect class="cls-3" x="31.33" y="19.61" width="53.29" height="2.22" transform="translate(19.43 68.73) rotate(-70.91)"/>
        <rect class="cls-3" x="35.76" y="21.11" width="53.29" height="2.22" transform="translate(21 73.92) rotate(-70.91)"/>
        <rect class="cls-3" x="40.2" y="22.6" width="53.29" height="2.22" transform="translate(22.58 79.12) rotate(-70.91)"/>
        <rect class="cls-3" x="44.63" y="24.09" width="53.29" height="2.22" transform="translate(24.15 84.31) rotate(-70.91)"/>
        <rect class="cls-3" x="49.06" y="25.58" width="53.29" height="2.22" transform="translate(25.72 89.5) rotate(-70.91)"/>
        <rect class="cls-3" x="53.49" y="27.07" width="53.29" height="2.22" transform="translate(27.29 94.69) rotate(-70.91)"/>
        <rect class="cls-3" x="57.92" y="28.57" width="53.29" height="2.22" transform="translate(28.86 99.89) rotate(-70.91)"/>
        <rect class="cls-3" x="62.35" y="30.06" width="53.29" height="2.22" transform="translate(30.44 105.08) rotate(-70.91)"/>
      </g>
    </mask>
    <linearGradient id="Gradiente_sem_nome_4" data-name="Gradiente sem nome 4" x1="42.17" y1="3754.58" x2="90.25" y2="3754.58" gradientTransform="translate(0 3778.62) scale(1 -1)" gradientUnits="userSpaceOnUse">
      <stop offset=".33" stop-color="#82aed5"/>
      <stop offset="1" stop-color="#da0061"/>
    </linearGradient>
  </defs>
  <g id="Layer_1" data-name="Layer 1">
    <g>
      <polygon class="cls-4" points="82.98 36.51 85.05 51.59 97.84 59.83 82.76 61.9 74.52 74.69 72.45 59.62 59.66 51.37 74.74 49.3 82.98 36.51"/>
      <g class="cls-5">
        <circle class="cls-2" cx="66.21" cy="24.04" r="24.04"/>
      </g>
      <path class="cls-1" d="M17.5,55.6c.99,0,1.82-.34,2.49-1.01s1.01-1.5,1.01-2.49-.34-1.82-1.01-2.49-1.5-1.01-2.49-1.01-1.82.34-2.49,1.01c-.67.67-1.01,1.5-1.01,2.49s.34,1.82,1.01,2.49c.67.67,1.5,1.01,2.49,1.01ZM17.5,45.1c.99,0,1.82-.34,2.49-1.01s1.01-1.5,1.01-2.49-.34-1.82-1.01-2.49-1.5-1.01-2.49-1.01-1.82.34-2.49,1.01c-.67.67-1.01,1.5-1.01,2.49s.34,1.82,1.01,2.49c.67.67,1.5,1.01,2.49,1.01ZM17.5,34.6c.99,0,1.82-.34,2.49-1.01s1.01-1.5,1.01-2.49-.34-1.82-1.01-2.49-1.5-1.01-2.49-1.01-1.82.34-2.49,1.01c-.67.67-1.01,1.5-1.01,2.49s.34,1.82,1.01,2.49c.67.67,1.5,1.01,2.49,1.01ZM28,55.6h17.5v-7h-17.5v7ZM28,45.1h28v-7h-28v7ZM28,34.6h28v-7h-28v7ZM0,83.6V20.6c0-1.92.69-3.57,2.06-4.94s3.02-2.06,4.94-2.06h56c1.93,0,3.57.69,4.94,2.06s2.06,3.02,2.06,4.94v42c0,1.92-.69,3.57-2.06,4.94-1.37,1.37-3.02,2.06-4.94,2.06H14L0,83.6ZM11.03,62.6h51.97V20.6H7v45.94l4.03-3.94ZM7,62.6V20.6v42Z"/>
    </g>
  </g>
</svg>