<?xml version="1.0" encoding="UTF-8"?>
<svg id="Camada_2" data-name="Camada 2" xmlns="http://www.w3.org/2000/svg" xmlns:xlink="http://www.w3.org/1999/xlink" viewBox="0 0 92.09 89.09">
  <defs>
    <style>
      .cls-1 {
        fill: #004c93;
      }

      .cls-1, .cls-2, .cls-3, .cls-4 {
        stroke-width: 0px;
      }

      .cls-5 {
        mask: url(#mask);
      }

      .cls-2 {
        fill: url(#Gradiente_sem_nome_4);
      }

      .cls-3 {
        fill: #d9d9d9;
      }

      .cls-4 {
        fill: #82aed5;
      }
    </style>
    <mask id="mask" x="32.33" y="-1" width="68.27" height="67.5" maskUnits="userSpaceOnUse">
      <g id="mask0_88_68" data-name="mask0 88 68">
        <rect class="cls-3" x="15.45" y="23.43" width="53.29" height="2.22" transform="translate(5.13 56.29) rotate(-70.91)"/>
        <rect class="cls-3" x="19.88" y="24.93" width="53.29" height="2.22" transform="translate(6.7 61.48) rotate(-70.91)"/>
        <rect class="cls-3" x="24.31" y="26.42" width="53.29" height="2.22" transform="translate(8.28 66.68) rotate(-70.91)"/>
        <rect class="cls-3" x="28.74" y="27.91" width="53.29" height="2.22" transform="translate(9.85 71.87) rotate(-70.91)"/>
        <rect class="cls-3" x="33.17" y="29.4" width="53.29" height="2.22" transform="translate(11.42 77.06) rotate(-70.91)"/>
        <rect class="cls-3" x="37.61" y="30.89" width="53.29" height="2.22" transform="translate(12.99 82.25) rotate(-70.91)"/>
        <rect class="cls-3" x="42.04" y="32.39" width="53.29" height="2.22" transform="translate(14.56 87.44) rotate(-70.91)"/>
        <rect class="cls-3" x="46.47" y="33.88" width="53.29" height="2.22" transform="translate(16.14 92.64) rotate(-70.91)"/>
        <rect class="cls-3" x="50.9" y="35.37" width="53.29" height="2.22" transform="translate(17.71 97.83) rotate(-70.91)"/>
        <rect class="cls-3" x="55.33" y="36.86" width="53.29" height="2.22" transform="translate(19.28 103.02) rotate(-70.91)"/>
        <rect class="cls-3" x="59.76" y="38.35" width="53.29" height="2.22" transform="translate(20.85 108.21) rotate(-70.91)"/>
        <rect class="cls-3" x="64.2" y="39.85" width="53.29" height="2.22" transform="translate(22.43 113.4) rotate(-70.91)"/>
      </g>
    </mask>
    <linearGradient id="Gradiente_sem_nome_4" data-name="Gradiente sem nome 4" x1="44.01" y1="5117.02" x2="92.09" y2="5117.02" gradientTransform="translate(0 5150.84) scale(1 -1)" gradientUnits="userSpaceOnUse">
      <stop offset=".33" stop-color="#82aed5"/>
      <stop offset="1" stop-color="#da0061"/>
    </linearGradient>
  </defs>
  <g id="Layer_1" data-name="Layer 1">
    <g>
      <polygon class="cls-4" points="27.07 0 29.14 15.08 41.93 23.32 26.86 25.39 18.61 38.18 16.54 23.11 3.75 14.86 18.83 12.79 27.07 0"/>
      <g class="cls-5">
        <circle class="cls-2" cx="68.05" cy="33.83" r="24.04"/>
      </g>
      <path class="cls-1" d="M0,89.09v-7.37h33.16v-41.17c-1.6-.55-2.98-1.41-4.14-2.58s-2.03-2.55-2.58-4.14h-11.7l11.05,25.79c0,3.07-1.26,5.68-3.78,7.83s-5.56,3.22-9.12,3.22-6.6-1.07-9.12-3.22c-2.52-2.15-3.78-4.76-3.78-7.83l11.05-25.79H3.68v-7.37h22.75c.74-2.15,2.06-3.91,3.96-5.3s4.05-2.07,6.45-2.07,4.54.69,6.45,2.07,3.22,3.15,3.96,5.3h22.75v7.37h-7.37l11.05,25.79c0,3.07-1.26,5.68-3.78,7.83s-5.56,3.22-9.12,3.22-6.6-1.07-9.12-3.22-3.78-4.76-3.78-7.83l11.05-25.79h-11.7c-.55,1.6-1.41,2.98-2.58,4.14s-2.55,2.03-4.14,2.58v41.17h33.16v7.37H0ZM53.88,59.62h13.82l-6.91-16.03-6.91,16.03ZM5.99,59.62h13.82l-6.91-16.03-6.91,16.03ZM36.84,33.83c1.04,0,1.92-.35,2.62-1.06.71-.71,1.06-1.58,1.06-2.62s-.35-1.92-1.06-2.63c-.71-.71-1.58-1.06-2.62-1.06s-1.92.35-2.62,1.06-1.06,1.58-1.06,2.63.35,1.92,1.06,2.62,1.58,1.06,2.62,1.06Z"/>
    </g>
  </g>
</svg>