<?xml version="1.0" encoding="UTF-8"?>
<svg id="Camada_2" data-name="Camada 2" xmlns="http://www.w3.org/2000/svg" xmlns:xlink="http://www.w3.org/1999/xlink" viewBox="0 0 88.5 81.02">
  <defs>
    <style>
      .cls-1 {
        fill: #004c93;
      }

      .cls-1, .cls-2, .cls-3, .cls-4 {
        stroke-width: 0px;
      }

      .cls-5 {
        mask: url(#mask);
      }

      .cls-2 {
        fill: url(#Gradiente_sem_nome_4);
      }

      .cls-3 {
        fill: #d9d9d9;
      }

      .cls-4 {
        fill: #82aed5;
      }
    </style>
    <mask id="mask" x="28.74" y="-10.79" width="68.27" height="67.5" maskUnits="userSpaceOnUse">
      <g id="mask0_88_68" data-name="mask0 88 68">
        <rect class="cls-3" x="11.86" y="13.65" width="53.29" height="2.22" transform="translate(11.96 46.31) rotate(-70.91)"/>
        <rect class="cls-3" x="16.29" y="15.14" width="53.29" height="2.22" transform="translate(13.54 51.5) rotate(-70.91)"/>
        <rect class="cls-3" x="20.72" y="16.63" width="53.29" height="2.22" transform="translate(15.11 56.7) rotate(-70.91)"/>
        <rect class="cls-3" x="25.15" y="18.12" width="53.29" height="2.22" transform="translate(16.68 61.89) rotate(-70.91)"/>
        <rect class="cls-3" x="29.58" y="19.61" width="53.29" height="2.22" transform="translate(18.25 67.08) rotate(-70.91)"/>
        <rect class="cls-3" x="34.01" y="21.11" width="53.29" height="2.22" transform="translate(19.83 72.27) rotate(-70.91)"/>
        <rect class="cls-3" x="38.45" y="22.6" width="53.29" height="2.22" transform="translate(21.4 77.46) rotate(-70.91)"/>
        <rect class="cls-3" x="42.88" y="24.09" width="53.29" height="2.22" transform="translate(22.97 82.66) rotate(-70.91)"/>
        <rect class="cls-3" x="47.31" y="25.58" width="53.29" height="2.22" transform="translate(24.54 87.85) rotate(-70.91)"/>
        <rect class="cls-3" x="51.74" y="27.07" width="53.29" height="2.22" transform="translate(26.11 93.04) rotate(-70.91)"/>
        <rect class="cls-3" x="56.17" y="28.57" width="53.29" height="2.22" transform="translate(27.69 98.23) rotate(-70.91)"/>
        <rect class="cls-3" x="60.6" y="30.06" width="53.29" height="2.22" transform="translate(29.26 103.42) rotate(-70.91)"/>
      </g>
    </mask>
    <linearGradient id="Gradiente_sem_nome_4" data-name="Gradiente sem nome 4" x1="40.42" y1="4566.17" x2="88.5" y2="4566.17" gradientTransform="translate(0 4590.21) scale(1 -1)" gradientUnits="userSpaceOnUse">
      <stop offset=".33" stop-color="#82aed5"/>
      <stop offset="1" stop-color="#da0061"/>
    </linearGradient>
  </defs>
  <g id="Layer_1" data-name="Layer 1">
    <g>
      <polygon class="cls-4" points="27.14 29.83 29.21 44.91 42 53.15 26.92 55.22 18.68 68.01 16.61 52.93 3.82 44.69 18.89 42.62 27.14 29.83"/>
      <g class="cls-5">
        <circle class="cls-2" cx="64.46" cy="24.04" r="24.04"/>
      </g>
      <path class="cls-1" d="M35,81.02v-10.76l19.34-19.25c.53-.52,1.11-.9,1.75-1.14s1.28-.35,1.93-.35c.7,0,1.37.13,2.01.39s1.23.66,1.75,1.18l3.24,3.24c.47.53.83,1.11,1.09,1.75s.39,1.28.39,1.92-.12,1.3-.35,1.97-.61,1.27-1.14,1.79l-19.25,19.25h-10.76ZM61.25,58.01l-3.24-3.24,3.24,3.24ZM40.25,75.77h3.33l10.59-10.67-1.58-1.66-1.66-1.58-10.68,10.59v3.33ZM7,81.02c-1.92,0-3.57-.69-4.94-2.06s-2.06-3.02-2.06-4.94V18.02c0-1.92.69-3.57,2.06-4.94s3.02-2.06,4.94-2.06h28l21,21v10.5h-7v-7h-17.5v-17.5H7v56h21v7H7ZM52.59,63.43l-1.66-1.58,3.24,3.24-1.58-1.66Z"/>
    </g>
  </g>
</svg>