<?xml version="1.0" encoding="UTF-8"?>
<svg id="Camada_2" data-name="Camada 2" xmlns="http://www.w3.org/2000/svg" xmlns:xlink="http://www.w3.org/1999/xlink" viewBox="0 0 99 82.74">
  <defs>
    <style>
      .cls-1 {
        fill: #004c93;
      }

      .cls-1, .cls-2, .cls-3, .cls-4 {
        stroke-width: 0px;
      }

      .cls-5 {
        mask: url(#mask);
      }

      .cls-2 {
        fill: url(#Gradiente_sem_nome_4);
      }

      .cls-3 {
        fill: #d9d9d9;
      }

      .cls-4 {
        fill: #82aed5;
      }
    </style>
    <mask id="mask" x="39.24" y="-10.79" width="68.27" height="67.5" maskUnits="userSpaceOnUse">
      <g id="mask0_88_68" data-name="mask0 88 68">
        <rect class="cls-3" x="22.36" y="13.65" width="53.29" height="2.22" transform="translate(19.03 56.23) rotate(-70.91)"/>
        <rect class="cls-3" x="26.79" y="15.14" width="53.29" height="2.22" transform="translate(20.6 61.43) rotate(-70.91)"/>
        <rect class="cls-3" x="31.22" y="16.63" width="53.29" height="2.22" transform="translate(22.17 66.62) rotate(-70.91)"/>
        <rect class="cls-3" x="35.65" y="18.12" width="53.29" height="2.22" transform="translate(23.75 71.81) rotate(-70.91)"/>
        <rect class="cls-3" x="40.08" y="19.61" width="53.29" height="2.22" transform="translate(25.32 77) rotate(-70.91)"/>
        <rect class="cls-3" x="44.51" y="21.11" width="53.29" height="2.22" transform="translate(26.89 82.19) rotate(-70.91)"/>
        <rect class="cls-3" x="48.95" y="22.6" width="53.29" height="2.22" transform="translate(28.46 87.39) rotate(-70.91)"/>
        <rect class="cls-3" x="53.38" y="24.09" width="53.29" height="2.22" transform="translate(30.04 92.58) rotate(-70.91)"/>
        <rect class="cls-3" x="57.81" y="25.58" width="53.29" height="2.22" transform="translate(31.61 97.77) rotate(-70.91)"/>
        <rect class="cls-3" x="62.24" y="27.07" width="53.29" height="2.22" transform="translate(33.18 102.96) rotate(-70.91)"/>
        <rect class="cls-3" x="66.67" y="28.57" width="53.29" height="2.22" transform="translate(34.75 108.15) rotate(-70.91)"/>
        <rect class="cls-3" x="71.1" y="30.06" width="53.29" height="2.22" transform="translate(36.32 113.35) rotate(-70.91)"/>
      </g>
    </mask>
    <linearGradient id="Gradiente_sem_nome_4" data-name="Gradiente sem nome 4" x1="50.92" y1="4025.11" x2="99" y2="4025.11" gradientTransform="translate(0 4049.15) scale(1 -1)" gradientUnits="userSpaceOnUse">
      <stop offset=".33" stop-color="#82aed5"/>
      <stop offset="1" stop-color="#da0061"/>
    </linearGradient>
  </defs>
  <g id="Layer_1" data-name="Layer 1">
    <g>
      <polygon class="cls-4" points="35.9 2.4 37.97 17.48 50.76 25.72 35.68 27.79 27.44 40.58 25.37 25.51 12.58 17.26 27.65 15.19 35.9 2.4"/>
      <g class="cls-5">
        <circle class="cls-2" cx="74.96" cy="24.04" r="24.04"/>
      </g>
      <path class="cls-1" d="M70,52.12v-8.75h17.5v8.75h-17.5ZM75.25,82.74l-14-10.5,5.25-7,14,10.5-5.25,7ZM66.5,30.24l-5.25-7,14-10.5,5.25,7-14,10.5ZM13.12,78.37v-17.5h-4.38c-2.41,0-4.47-.86-6.18-2.57s-2.57-3.77-2.57-6.18v-8.75c0-2.41.86-4.47,2.57-6.18s3.77-2.57,6.18-2.57h17.5l21.88-13.12v52.5l-21.88-13.12h-4.38v17.5h-8.75ZM39.38,58.46v-21.44l-10.72,6.34H8.75v8.75h19.91l10.72,6.34ZM52.5,62.4v-29.31c1.97,1.75,3.55,3.88,4.76,6.4s1.8,5.27,1.8,8.26-.6,5.74-1.8,8.26-2.79,4.65-4.76,6.4Z"/>
    </g>
  </g>
</svg>