<?xml version="1.0" encoding="UTF-8"?>
<svg id="Camada_2" data-name="Camada 2" xmlns="http://www.w3.org/2000/svg" xmlns:xlink="http://www.w3.org/1999/xlink" viewBox="0 0 94.14 80.43">
  <defs>
    <style>
      .cls-1 {
        fill: #004c93;
      }

      .cls-1, .cls-2, .cls-3, .cls-4 {
        stroke-width: 0px;
      }

      .cls-5 {
        mask: url(#mask);
      }

      .cls-2 {
        fill: url(#Gradiente_sem_nome_4);
      }

      .cls-3 {
        fill: #d9d9d9;
      }

      .cls-4 {
        fill: #82aed5;
      }
    </style>
    <mask id="mask" x="34.38" y="-10.79" width="68.27" height="67.5" maskUnits="userSpaceOnUse">
      <g id="mask0_88_68" data-name="mask0 88 68">
        <rect class="cls-3" x="17.49" y="13.65" width="53.29" height="2.22" transform="translate(15.76 51.64) rotate(-70.91)"/>
        <rect class="cls-3" x="21.93" y="15.14" width="53.29" height="2.22" transform="translate(17.33 56.83) rotate(-70.91)"/>
        <rect class="cls-3" x="26.36" y="16.63" width="53.29" height="2.22" transform="translate(18.9 62.02) rotate(-70.91)"/>
        <rect class="cls-3" x="30.79" y="18.12" width="53.29" height="2.22" transform="translate(20.48 67.22) rotate(-70.91)"/>
        <rect class="cls-3" x="35.22" y="19.61" width="53.29" height="2.22" transform="translate(22.05 72.41) rotate(-70.91)"/>
        <rect class="cls-3" x="39.65" y="21.11" width="53.29" height="2.22" transform="translate(23.62 77.6) rotate(-70.91)"/>
        <rect class="cls-3" x="44.08" y="22.6" width="53.29" height="2.22" transform="translate(25.19 82.79) rotate(-70.91)"/>
        <rect class="cls-3" x="48.52" y="24.09" width="53.29" height="2.22" transform="translate(26.76 87.98) rotate(-70.91)"/>
        <rect class="cls-3" x="52.95" y="25.58" width="53.29" height="2.22" transform="translate(28.34 93.18) rotate(-70.91)"/>
        <rect class="cls-3" x="57.38" y="27.07" width="53.29" height="2.22" transform="translate(29.91 98.37) rotate(-70.91)"/>
        <rect class="cls-3" x="61.81" y="28.57" width="53.29" height="2.22" transform="translate(31.48 103.56) rotate(-70.91)"/>
        <rect class="cls-3" x="66.24" y="30.06" width="53.29" height="2.22" transform="translate(33.05 108.75) rotate(-70.91)"/>
      </g>
    </mask>
    <linearGradient id="Gradiente_sem_nome_4" data-name="Gradiente sem nome 4" x1="46.06" y1="4836.7" x2="94.14" y2="4836.7" gradientTransform="translate(0 4860.74) scale(1 -1)" gradientUnits="userSpaceOnUse">
      <stop offset=".33" stop-color="#82aed5"/>
      <stop offset="1" stop-color="#da0061"/>
    </linearGradient>
  </defs>
  <g id="Layer_1" data-name="Layer 1">
    <g>
      <polygon class="cls-4" points="76.37 42.25 78.44 57.32 91.23 65.57 76.15 67.64 67.91 80.43 65.84 65.35 53.05 57.11 68.12 55.04 76.37 42.25"/>
      <g class="cls-5">
        <circle class="cls-2" cx="70.1" cy="24.04" r="24.04"/>
      </g>
      <path class="cls-1" d="M38.89,80.16c-1.17,0-2.28-.21-3.35-.63-1.07-.42-2.03-1.05-2.87-1.9L6.61,51.48c-2.27-2.27-3.94-4.86-5.01-7.78s-1.6-5.96-1.6-9.14c0-6.68,2.17-12.41,6.51-17.21,4.34-4.8,9.75-7.19,16.24-7.19,3.11,0,6.04.62,8.8,1.85s5.2,2.95,7.34,5.15c2.07-2.2,4.49-3.92,7.24-5.15s5.69-1.85,8.8-1.85c6.48,0,11.91,2.4,16.28,7.19s6.56,10.5,6.56,17.11c0,3.18-.55,6.22-1.65,9.14s-2.75,5.51-4.96,7.78l-26.15,26.25c-.84.84-1.78,1.47-2.82,1.9-1.04.42-2.14.63-3.31.63ZM42.78,29.61c.65,0,1.26.16,1.85.49s1.04.75,1.36,1.26l6.61,9.92h16.14c.45-1.1.79-2.22,1.02-3.35s.34-2.28.34-3.45c-.13-4.47-1.62-8.31-4.47-11.52-2.85-3.21-6.42-4.81-10.69-4.81-2.01,0-3.94.39-5.78,1.17s-3.45,1.91-4.81,3.4l-2.62,2.82c-.32.39-.75.7-1.26.92s-1.04.34-1.56.34-1.04-.11-1.56-.34-.97-.53-1.36-.92l-2.62-2.82c-1.36-1.49-2.95-2.66-4.76-3.5s-3.76-1.26-5.83-1.26c-4.28,0-7.84,1.64-10.69,4.91-2.85,3.27-4.28,7.15-4.28,11.62,0,1.17.1,2.32.29,3.45s.52,2.25.97,3.35h18.18c.65,0,1.26.16,1.85.49.58.32,1.04.75,1.36,1.26l3.4,5.06,5.25-15.75c.26-.78.73-1.43,1.41-1.94s1.44-.78,2.28-.78ZM43.94,42.25l-5.25,15.75c-.26.78-.75,1.43-1.46,1.94s-1.49.78-2.33.78c-.65,0-1.26-.16-1.85-.49s-1.04-.75-1.36-1.26l-6.61-9.92h-9.92l23.04,23.04c.13.13.24.21.34.24s.21.05.34.05.24-.02.34-.05.21-.11.34-.24l22.94-23.04h-11.96c-.65,0-1.26-.16-1.85-.49s-1.07-.75-1.46-1.26l-3.31-5.06Z"/>
    </g>
  </g>
</svg>